%TF.GenerationSoftware,KiCad,Pcbnew,9.0.3*%
%TF.CreationDate,2025-10-03T08:07:12+02:00*%
%TF.ProjectId,front_pcb,66726f6e-745f-4706-9362-2e6b69636164,rev?*%
%TF.SameCoordinates,Original*%
%TF.FileFunction,Legend,Top*%
%TF.FilePolarity,Positive*%
%FSLAX46Y46*%
G04 Gerber Fmt 4.6, Leading zero omitted, Abs format (unit mm)*
G04 Created by KiCad (PCBNEW 9.0.3) date 2025-10-03 08:07:12*
%MOMM*%
%LPD*%
G01*
G04 APERTURE LIST*
%ADD10C,0.000000*%
G04 APERTURE END LIST*
D10*
G36*
X171068927Y-65702873D02*
G01*
X171103046Y-65704788D01*
X171136238Y-65707978D01*
X171168501Y-65712445D01*
X171199835Y-65718189D01*
X171230239Y-65725209D01*
X171259713Y-65733505D01*
X171288257Y-65743077D01*
X171315870Y-65753925D01*
X171342552Y-65766050D01*
X171368302Y-65779452D01*
X171393119Y-65794129D01*
X171417004Y-65810083D01*
X171439956Y-65827313D01*
X171461974Y-65845819D01*
X171483058Y-65865602D01*
X171502971Y-65886564D01*
X171521607Y-65908606D01*
X171538964Y-65931727D01*
X171555042Y-65955926D01*
X171569839Y-65981202D01*
X171583355Y-66007555D01*
X171595588Y-66034982D01*
X171606538Y-66063484D01*
X171616203Y-66093058D01*
X171624583Y-66123705D01*
X171631677Y-66155423D01*
X171637483Y-66188210D01*
X171642000Y-66222067D01*
X171645228Y-66256991D01*
X171647166Y-66292983D01*
X171647812Y-66330040D01*
X171647812Y-67202379D01*
X171647166Y-67239502D01*
X171645228Y-67275560D01*
X171641999Y-67310553D01*
X171637481Y-67344481D01*
X171631675Y-67377344D01*
X171624581Y-67409142D01*
X171616200Y-67439876D01*
X171606534Y-67469544D01*
X171595584Y-67498147D01*
X171583350Y-67525685D01*
X171569834Y-67552159D01*
X171555037Y-67577567D01*
X171538960Y-67601910D01*
X171521604Y-67625189D01*
X171502969Y-67647402D01*
X171483058Y-67668551D01*
X171461974Y-67688521D01*
X171439956Y-67707199D01*
X171417004Y-67724585D01*
X171393119Y-67740681D01*
X171368302Y-67755486D01*
X171342552Y-67769000D01*
X171315870Y-67781226D01*
X171288257Y-67792162D01*
X171259713Y-67801810D01*
X171230239Y-67810169D01*
X171199835Y-67817241D01*
X171168501Y-67823027D01*
X171136238Y-67827525D01*
X171103046Y-67830738D01*
X171068927Y-67832665D01*
X171033879Y-67833308D01*
X171033879Y-67833306D01*
X170998837Y-67832664D01*
X170964730Y-67830737D01*
X170931556Y-67827524D01*
X170899316Y-67823025D01*
X170868009Y-67817240D01*
X170837633Y-67810168D01*
X170808190Y-67801809D01*
X170779678Y-67792161D01*
X170752097Y-67781225D01*
X170725446Y-67769000D01*
X170699724Y-67755485D01*
X170674932Y-67740681D01*
X170651069Y-67724586D01*
X170628134Y-67707199D01*
X170606127Y-67688522D01*
X170585047Y-67668552D01*
X170565078Y-67647403D01*
X170546402Y-67625190D01*
X170529017Y-67601911D01*
X170512923Y-67577567D01*
X170498119Y-67552159D01*
X170484605Y-67525686D01*
X170472381Y-67498147D01*
X170461445Y-67469544D01*
X170451798Y-67439876D01*
X170443439Y-67409142D01*
X170436368Y-67377344D01*
X170430583Y-67344481D01*
X170426085Y-67310553D01*
X170422872Y-67275560D01*
X170420945Y-67239502D01*
X170420795Y-67230822D01*
X170701583Y-67230822D01*
X170701921Y-67251840D01*
X170702933Y-67272233D01*
X170704622Y-67292001D01*
X170706987Y-67311145D01*
X170710028Y-67329665D01*
X170713747Y-67347561D01*
X170718144Y-67364835D01*
X170723219Y-67381486D01*
X170728973Y-67397515D01*
X170735406Y-67412923D01*
X170742520Y-67427710D01*
X170750314Y-67441876D01*
X170758789Y-67455423D01*
X170767945Y-67468351D01*
X170777783Y-67480660D01*
X170788304Y-67492350D01*
X170799384Y-67503373D01*
X170811034Y-67513682D01*
X170823252Y-67523276D01*
X170836039Y-67532156D01*
X170849396Y-67540323D01*
X170863321Y-67547777D01*
X170877816Y-67554519D01*
X170892879Y-67560549D01*
X170908512Y-67565868D01*
X170924713Y-67570476D01*
X170941483Y-67574374D01*
X170958823Y-67577561D01*
X170976731Y-67580040D01*
X170995208Y-67581810D01*
X171014254Y-67582871D01*
X171033869Y-67583225D01*
X171033879Y-67583225D01*
X171053496Y-67582871D01*
X171072544Y-67581810D01*
X171091024Y-67580040D01*
X171108937Y-67577561D01*
X171126282Y-67574374D01*
X171143061Y-67570476D01*
X171159274Y-67565868D01*
X171174921Y-67560549D01*
X171190004Y-67554519D01*
X171204521Y-67547777D01*
X171218475Y-67540323D01*
X171231865Y-67532156D01*
X171244692Y-67523276D01*
X171256957Y-67513682D01*
X171268659Y-67503373D01*
X171279800Y-67492350D01*
X171290262Y-67480660D01*
X171300057Y-67468351D01*
X171309183Y-67455423D01*
X171317639Y-67441876D01*
X171325424Y-67427710D01*
X171332538Y-67412923D01*
X171338979Y-67397515D01*
X171344747Y-67381486D01*
X171349839Y-67364835D01*
X171354256Y-67347561D01*
X171357997Y-67329665D01*
X171361059Y-67311145D01*
X171363443Y-67292001D01*
X171365147Y-67272233D01*
X171366170Y-67251840D01*
X171366511Y-67230822D01*
X171366511Y-66301599D01*
X171366178Y-66280959D01*
X171365178Y-66260919D01*
X171363511Y-66241480D01*
X171361178Y-66222641D01*
X171358178Y-66204402D01*
X171354511Y-66186761D01*
X171350178Y-66169720D01*
X171345178Y-66153276D01*
X171339511Y-66137429D01*
X171333177Y-66122180D01*
X171326177Y-66107527D01*
X171318510Y-66093470D01*
X171310176Y-66080009D01*
X171301175Y-66067143D01*
X171291508Y-66054871D01*
X171281173Y-66043193D01*
X171270211Y-66032169D01*
X171258654Y-66021861D01*
X171246502Y-66012267D01*
X171233753Y-66003386D01*
X171220407Y-65995219D01*
X171206463Y-65987765D01*
X171191919Y-65981023D01*
X171176774Y-65974993D01*
X171161028Y-65969675D01*
X171144679Y-65965067D01*
X171127726Y-65961169D01*
X171110169Y-65957981D01*
X171092005Y-65955503D01*
X171073235Y-65953733D01*
X171053856Y-65952671D01*
X171033869Y-65952318D01*
X171013940Y-65952671D01*
X170994606Y-65953733D01*
X170975867Y-65955503D01*
X170957725Y-65957981D01*
X170940180Y-65961169D01*
X170923234Y-65965067D01*
X170906887Y-65969675D01*
X170891141Y-65974993D01*
X170875996Y-65981023D01*
X170861454Y-65987765D01*
X170847515Y-65995219D01*
X170834181Y-66003386D01*
X170821452Y-66012267D01*
X170809331Y-66021861D01*
X170797816Y-66032169D01*
X170786911Y-66043193D01*
X170776578Y-66054870D01*
X170766912Y-66067142D01*
X170757913Y-66080008D01*
X170749580Y-66093470D01*
X170741914Y-66107526D01*
X170734914Y-66122179D01*
X170728581Y-66137428D01*
X170722915Y-66153275D01*
X170717915Y-66169719D01*
X170713582Y-66186761D01*
X170709916Y-66204401D01*
X170706916Y-66222640D01*
X170704583Y-66241480D01*
X170702917Y-66260919D01*
X170701917Y-66280958D01*
X170701583Y-66301599D01*
X170701583Y-67230822D01*
X170420795Y-67230822D01*
X170420303Y-67202379D01*
X170420303Y-66330040D01*
X170420800Y-66301599D01*
X170420945Y-66293296D01*
X170422872Y-66257592D01*
X170426085Y-66222928D01*
X170430583Y-66189305D01*
X170436368Y-66156723D01*
X170443439Y-66125181D01*
X170451798Y-66094679D01*
X170461445Y-66065219D01*
X170472381Y-66036798D01*
X170484605Y-66009418D01*
X170498119Y-65983079D01*
X170512923Y-65957781D01*
X170529017Y-65933523D01*
X170546402Y-65910305D01*
X170565078Y-65888128D01*
X170585047Y-65866992D01*
X170606127Y-65847022D01*
X170628134Y-65828344D01*
X170651069Y-65810957D01*
X170674932Y-65794862D01*
X170699724Y-65780057D01*
X170725446Y-65766542D01*
X170752097Y-65754317D01*
X170779678Y-65743381D01*
X170808190Y-65733733D01*
X170837633Y-65725373D01*
X170868009Y-65718301D01*
X170899316Y-65712516D01*
X170931556Y-65708017D01*
X170964730Y-65704805D01*
X170998837Y-65702877D01*
X171033879Y-65702235D01*
X171068927Y-65702873D01*
G37*
G36*
X168881985Y-77963881D02*
G01*
X168902167Y-77966123D01*
X168921683Y-77969781D01*
X168940504Y-77974788D01*
X168958600Y-77981081D01*
X168975940Y-77988593D01*
X168992495Y-77997260D01*
X169008233Y-78007016D01*
X169023126Y-78017797D01*
X169037142Y-78029537D01*
X169050252Y-78042171D01*
X169062426Y-78055634D01*
X169073632Y-78069861D01*
X169083843Y-78084787D01*
X169093026Y-78100346D01*
X169101152Y-78116474D01*
X169108191Y-78133105D01*
X169114112Y-78150174D01*
X169118886Y-78167616D01*
X169122482Y-78185367D01*
X169124870Y-78203360D01*
X169126020Y-78221530D01*
X169125902Y-78239814D01*
X169124486Y-78258144D01*
X169121742Y-78276457D01*
X169117638Y-78294687D01*
X169112146Y-78312769D01*
X169105235Y-78330638D01*
X169096875Y-78348228D01*
X169087036Y-78365476D01*
X169075687Y-78382314D01*
X169062799Y-78398679D01*
X160717885Y-88232562D01*
X160698549Y-88253626D01*
X160678229Y-88272514D01*
X160657030Y-88289264D01*
X160635057Y-88303914D01*
X160612413Y-88316503D01*
X160589205Y-88327069D01*
X160565536Y-88335650D01*
X160541512Y-88342284D01*
X160517236Y-88347011D01*
X160492814Y-88349868D01*
X160468350Y-88350894D01*
X160443949Y-88350127D01*
X160419716Y-88347605D01*
X160395755Y-88343368D01*
X160372171Y-88337452D01*
X160349068Y-88329897D01*
X160326552Y-88320741D01*
X160304727Y-88310022D01*
X160283697Y-88297778D01*
X160263567Y-88284049D01*
X160244442Y-88268872D01*
X160226427Y-88252285D01*
X160209626Y-88234328D01*
X160194144Y-88215038D01*
X160180086Y-88194454D01*
X160167556Y-88172613D01*
X160156659Y-88149556D01*
X160147499Y-88125319D01*
X160140182Y-88099941D01*
X160134811Y-88073461D01*
X160131492Y-88045917D01*
X160130330Y-88017346D01*
X160123183Y-83064328D01*
X160123183Y-79302140D01*
X160124926Y-79233234D01*
X160130097Y-79165233D01*
X160138612Y-79098221D01*
X160150388Y-79032282D01*
X160165340Y-78967499D01*
X160183383Y-78903958D01*
X160204435Y-78841741D01*
X160228411Y-78780935D01*
X160255226Y-78721621D01*
X160284796Y-78663886D01*
X160317038Y-78607812D01*
X160351868Y-78553484D01*
X160389200Y-78500986D01*
X160428951Y-78450402D01*
X160471037Y-78401816D01*
X160515374Y-78355313D01*
X160561877Y-78310976D01*
X160610463Y-78268890D01*
X160661047Y-78229139D01*
X160713545Y-78191807D01*
X160767873Y-78156978D01*
X160823947Y-78124736D01*
X160881683Y-78095166D01*
X160940996Y-78068351D01*
X161001803Y-78044376D01*
X161064019Y-78023324D01*
X161127560Y-78005280D01*
X161192342Y-77990328D01*
X161258281Y-77978553D01*
X161325293Y-77970038D01*
X161393294Y-77964867D01*
X161462199Y-77963124D01*
X168861169Y-77963124D01*
X168861169Y-77963119D01*
X168881985Y-77963881D01*
G37*
G36*
X150638674Y-100375327D02*
G01*
X150657981Y-100376586D01*
X150667665Y-100377101D01*
X150677377Y-100377502D01*
X150687124Y-100377764D01*
X150696914Y-100377857D01*
X156055504Y-100377857D01*
X151325536Y-107173494D01*
X151325536Y-105758368D01*
X151324133Y-105702868D01*
X151319968Y-105648096D01*
X151313109Y-105594121D01*
X151303625Y-105541010D01*
X151291582Y-105488830D01*
X151277049Y-105437651D01*
X151260093Y-105387539D01*
X151240782Y-105338562D01*
X151219184Y-105290788D01*
X151195367Y-105244284D01*
X151169398Y-105199119D01*
X151141345Y-105155361D01*
X151111276Y-105113076D01*
X151079259Y-105072333D01*
X151045361Y-105033200D01*
X151009650Y-104995744D01*
X150972195Y-104960033D01*
X150933062Y-104926135D01*
X150892319Y-104894117D01*
X150850035Y-104864048D01*
X150806276Y-104835995D01*
X150761112Y-104810026D01*
X150714608Y-104786209D01*
X150666835Y-104764610D01*
X150617858Y-104745299D01*
X150567746Y-104728343D01*
X150516566Y-104713810D01*
X150464387Y-104701767D01*
X150411276Y-104692283D01*
X150357301Y-104685424D01*
X150302529Y-104681259D01*
X150247029Y-104679856D01*
X146475187Y-104679851D01*
X150619400Y-100373945D01*
X150638674Y-100375327D01*
G37*
G36*
X174807383Y-72153685D02*
G01*
X174812746Y-72154626D01*
X174818002Y-72156022D01*
X174823120Y-72157854D01*
X174828073Y-72160100D01*
X174832829Y-72162738D01*
X174837362Y-72165749D01*
X174841641Y-72169110D01*
X174845637Y-72172800D01*
X174849321Y-72176800D01*
X174852665Y-72181087D01*
X174855638Y-72185640D01*
X174858212Y-72190439D01*
X174860358Y-72195462D01*
X174862046Y-72200688D01*
X174863247Y-72206097D01*
X174863933Y-72211667D01*
X174864074Y-72217377D01*
X174863641Y-72223206D01*
X174862605Y-72229133D01*
X174860937Y-72235137D01*
X174858607Y-72241196D01*
X174855587Y-72247291D01*
X172661006Y-76423982D01*
X172652153Y-76439502D01*
X172642337Y-76454247D01*
X172631609Y-76468187D01*
X172620021Y-76481291D01*
X172607626Y-76493526D01*
X172594475Y-76504862D01*
X172580620Y-76515268D01*
X172566113Y-76524711D01*
X172551006Y-76533160D01*
X172535350Y-76540585D01*
X172519198Y-76546954D01*
X172502601Y-76552235D01*
X172485612Y-76556397D01*
X172468281Y-76559409D01*
X172450662Y-76561239D01*
X172432806Y-76561856D01*
X170789321Y-76561856D01*
X170783614Y-76561642D01*
X170778090Y-76561015D01*
X170772757Y-76559993D01*
X170767624Y-76558594D01*
X170762699Y-76556837D01*
X170757990Y-76554742D01*
X170753504Y-76552327D01*
X170749251Y-76549610D01*
X170745238Y-76546611D01*
X170741473Y-76543349D01*
X170737965Y-76539842D01*
X170734722Y-76536109D01*
X170731751Y-76532169D01*
X170729061Y-76528040D01*
X170726660Y-76523742D01*
X170724557Y-76519293D01*
X170722758Y-76514712D01*
X170721273Y-76510019D01*
X170720110Y-76505230D01*
X170719276Y-76500367D01*
X170718780Y-76495446D01*
X170718630Y-76490488D01*
X170718833Y-76485511D01*
X170719399Y-76480533D01*
X170720336Y-76475574D01*
X170721650Y-76470652D01*
X170723352Y-76465787D01*
X170725447Y-76460996D01*
X170727946Y-76456299D01*
X170730856Y-76451715D01*
X170734184Y-76447262D01*
X170737940Y-76442959D01*
X174754218Y-72173993D01*
X174759059Y-72169215D01*
X174764084Y-72165103D01*
X174769262Y-72161638D01*
X174774566Y-72158796D01*
X174779965Y-72156559D01*
X174785432Y-72154903D01*
X174790936Y-72153809D01*
X174796448Y-72153256D01*
X174801941Y-72153221D01*
X174807383Y-72153685D01*
G37*
G36*
X82500000Y-69500000D02*
G01*
X82565080Y-69504949D01*
X82629214Y-69513098D01*
X82692321Y-69524368D01*
X82754321Y-69538677D01*
X82815133Y-69555946D01*
X82874677Y-69576093D01*
X82932872Y-69599039D01*
X82989637Y-69624702D01*
X83044893Y-69653002D01*
X83098559Y-69683859D01*
X83150553Y-69717192D01*
X83200796Y-69752921D01*
X83249207Y-69790964D01*
X83295706Y-69831242D01*
X83340212Y-69873675D01*
X83382644Y-69918180D01*
X83422922Y-69964679D01*
X83460966Y-70013090D01*
X83496694Y-70063333D01*
X83530027Y-70115327D01*
X83560884Y-70168993D01*
X83589185Y-70224249D01*
X83614848Y-70281014D01*
X83637793Y-70339209D01*
X83657941Y-70398753D01*
X83675209Y-70459565D01*
X83689519Y-70521565D01*
X83700789Y-70584672D01*
X83708938Y-70648806D01*
X83713887Y-70713886D01*
X83715554Y-70779832D01*
X83713887Y-70845778D01*
X83708938Y-70910858D01*
X83700789Y-70974992D01*
X83689519Y-71038100D01*
X83675209Y-71100100D01*
X83657941Y-71160912D01*
X83637793Y-71220456D01*
X83614848Y-71278651D01*
X83589185Y-71335416D01*
X83560884Y-71390672D01*
X83530027Y-71444338D01*
X83496694Y-71496332D01*
X83460966Y-71546575D01*
X83422922Y-71594987D01*
X83382644Y-71641485D01*
X83340212Y-71685991D01*
X83295706Y-71728423D01*
X83249207Y-71768702D01*
X83200796Y-71806745D01*
X83150553Y-71842474D01*
X83098559Y-71875807D01*
X83044893Y-71906664D01*
X82989637Y-71934965D01*
X82932872Y-71960628D01*
X82874677Y-71983573D01*
X82815133Y-72003721D01*
X82754321Y-72020990D01*
X82692321Y-72035299D01*
X82629214Y-72046569D01*
X82565080Y-72054718D01*
X82500000Y-72059667D01*
X82434054Y-72061335D01*
X82368108Y-72059667D01*
X82303028Y-72054718D01*
X82238894Y-72046569D01*
X82175787Y-72035299D01*
X82113787Y-72020990D01*
X82052975Y-72003721D01*
X81993431Y-71983573D01*
X81935236Y-71960628D01*
X81878470Y-71934965D01*
X81823214Y-71906664D01*
X81769549Y-71875807D01*
X81717555Y-71842474D01*
X81667311Y-71806745D01*
X81618900Y-71768702D01*
X81572402Y-71728423D01*
X81527896Y-71685991D01*
X81485464Y-71641485D01*
X81445185Y-71594987D01*
X81407142Y-71546575D01*
X81371413Y-71496332D01*
X81338080Y-71444338D01*
X81307223Y-71390672D01*
X81278923Y-71335416D01*
X81253260Y-71278651D01*
X81230314Y-71220456D01*
X81210167Y-71160912D01*
X81192898Y-71100100D01*
X81178588Y-71038100D01*
X81167319Y-70974992D01*
X81159169Y-70910858D01*
X81154220Y-70845778D01*
X81152553Y-70779832D01*
X81154220Y-70713886D01*
X81159169Y-70648806D01*
X81167319Y-70584672D01*
X81178588Y-70521565D01*
X81192898Y-70459565D01*
X81210167Y-70398753D01*
X81230314Y-70339209D01*
X81253260Y-70281014D01*
X81278923Y-70224249D01*
X81307223Y-70168993D01*
X81338080Y-70115327D01*
X81371413Y-70063333D01*
X81407142Y-70013090D01*
X81445185Y-69964679D01*
X81485464Y-69918180D01*
X81527896Y-69873675D01*
X81572402Y-69831242D01*
X81618900Y-69790964D01*
X81667311Y-69752921D01*
X81717555Y-69717192D01*
X81769549Y-69683859D01*
X81823214Y-69653002D01*
X81878470Y-69624702D01*
X81935236Y-69599039D01*
X81993431Y-69576093D01*
X82052975Y-69555946D01*
X82113787Y-69538677D01*
X82175787Y-69524368D01*
X82238894Y-69513098D01*
X82303028Y-69504949D01*
X82368108Y-69500000D01*
X82434054Y-69498332D01*
X82500000Y-69500000D01*
G37*
G36*
X161131742Y-92515194D02*
G01*
X161147417Y-92516863D01*
X161162624Y-92519588D01*
X161177338Y-92523325D01*
X161191536Y-92528027D01*
X161205193Y-92533650D01*
X161218286Y-92540147D01*
X161230791Y-92547473D01*
X161242684Y-92555582D01*
X161253942Y-92564430D01*
X161264540Y-92573969D01*
X161274456Y-92584156D01*
X161283664Y-92594943D01*
X161292142Y-92606287D01*
X161299865Y-92618140D01*
X161306810Y-92630458D01*
X161312952Y-92643195D01*
X161318269Y-92656306D01*
X161322736Y-92669744D01*
X161326329Y-92683465D01*
X161329026Y-92697422D01*
X161330801Y-92711571D01*
X161331631Y-92725865D01*
X161331492Y-92740259D01*
X161330361Y-92754708D01*
X161328214Y-92769166D01*
X161325026Y-92783587D01*
X161320774Y-92797927D01*
X161315435Y-92812138D01*
X161308984Y-92826176D01*
X161301398Y-92839996D01*
X161292653Y-92853551D01*
X158332660Y-97106228D01*
X158332660Y-94760346D01*
X158331257Y-94704846D01*
X158327092Y-94650074D01*
X158320233Y-94596099D01*
X158310748Y-94542988D01*
X158298705Y-94490809D01*
X158284172Y-94439629D01*
X158267215Y-94389517D01*
X158247904Y-94340541D01*
X158226306Y-94292767D01*
X158202488Y-94246264D01*
X158176518Y-94201099D01*
X158148465Y-94157341D01*
X158118395Y-94115056D01*
X158086377Y-94074314D01*
X158052479Y-94035180D01*
X158016768Y-93997725D01*
X157979311Y-93962014D01*
X157940178Y-93928116D01*
X157899434Y-93896099D01*
X157857150Y-93866030D01*
X157813391Y-93837977D01*
X157768226Y-93812008D01*
X157721722Y-93788191D01*
X157673948Y-93766593D01*
X157624971Y-93747282D01*
X157574859Y-93730326D01*
X157523679Y-93715793D01*
X157471500Y-93703750D01*
X157418389Y-93694266D01*
X157364414Y-93687407D01*
X157309643Y-93683242D01*
X157254143Y-93681839D01*
X157060204Y-93681839D01*
X158039849Y-92663970D01*
X158057471Y-92646567D01*
X158075869Y-92630155D01*
X158094999Y-92614752D01*
X158114818Y-92600377D01*
X158135284Y-92587047D01*
X158156354Y-92574781D01*
X158177985Y-92563597D01*
X158200135Y-92553513D01*
X158222760Y-92544548D01*
X158245819Y-92536719D01*
X158269267Y-92530044D01*
X158293063Y-92524543D01*
X158317163Y-92520232D01*
X158341525Y-92517131D01*
X158366105Y-92515256D01*
X158390862Y-92514628D01*
X161115621Y-92514628D01*
X161131742Y-92515194D01*
G37*
G36*
X167747464Y-65730970D02*
G01*
X167770705Y-65731849D01*
X167793570Y-65733313D01*
X167816061Y-65735365D01*
X167838175Y-65738004D01*
X167859913Y-65741231D01*
X167881274Y-65745046D01*
X167902258Y-65749450D01*
X167922864Y-65754444D01*
X167943091Y-65760027D01*
X167962940Y-65766201D01*
X167982409Y-65772966D01*
X168001498Y-65780322D01*
X168020207Y-65788270D01*
X168038535Y-65796810D01*
X168056481Y-65805944D01*
X168073991Y-65815606D01*
X168091013Y-65825731D01*
X168107548Y-65836320D01*
X168123595Y-65847372D01*
X168139154Y-65858887D01*
X168154226Y-65870866D01*
X168168810Y-65883308D01*
X168182907Y-65896214D01*
X168196515Y-65909583D01*
X168209636Y-65923415D01*
X168222270Y-65937710D01*
X168234415Y-65952469D01*
X168246073Y-65967692D01*
X168257243Y-65983377D01*
X168267926Y-65999527D01*
X168278120Y-66016139D01*
X168287756Y-66033227D01*
X168296767Y-66050674D01*
X168305153Y-66068480D01*
X168312915Y-66086648D01*
X168320054Y-66105177D01*
X168326569Y-66124069D01*
X168332461Y-66143324D01*
X168337731Y-66162945D01*
X168342380Y-66182931D01*
X168346406Y-66203284D01*
X168349813Y-66224005D01*
X168352598Y-66245094D01*
X168354764Y-66266554D01*
X168356311Y-66288384D01*
X168357238Y-66310587D01*
X168357547Y-66333162D01*
X168357133Y-66359205D01*
X168355888Y-66384783D01*
X168353814Y-66409898D01*
X168350908Y-66434547D01*
X168347172Y-66458731D01*
X168342603Y-66482449D01*
X168337202Y-66505701D01*
X168330969Y-66528486D01*
X168323902Y-66550803D01*
X168316002Y-66572652D01*
X168307267Y-66594033D01*
X168297698Y-66614945D01*
X168287293Y-66635387D01*
X168276052Y-66655360D01*
X168263975Y-66674862D01*
X168251061Y-66693893D01*
X168237457Y-66712346D01*
X168223308Y-66730116D01*
X168208616Y-66747203D01*
X168193381Y-66763605D01*
X168177603Y-66779322D01*
X168161283Y-66794353D01*
X168144422Y-66808699D01*
X168127020Y-66822359D01*
X168109077Y-66835331D01*
X168090595Y-66847616D01*
X168071572Y-66859213D01*
X168052011Y-66870122D01*
X168031912Y-66880341D01*
X168011274Y-66889871D01*
X167990099Y-66898711D01*
X167968387Y-66906861D01*
X168385990Y-67804867D01*
X168076256Y-67804867D01*
X167681186Y-66938077D01*
X167360344Y-66938077D01*
X167360344Y-67804867D01*
X167081820Y-67804865D01*
X167081820Y-66688340D01*
X167081820Y-65980758D01*
X167360344Y-65980758D01*
X167360344Y-66688340D01*
X167723849Y-66688340D01*
X167743490Y-66687962D01*
X167762610Y-66686828D01*
X167781208Y-66684938D01*
X167799284Y-66682292D01*
X167816838Y-66678890D01*
X167833868Y-66674732D01*
X167850376Y-66669817D01*
X167866359Y-66664147D01*
X167881818Y-66657721D01*
X167896753Y-66650539D01*
X167911162Y-66642600D01*
X167925045Y-66633906D01*
X167938403Y-66624455D01*
X167951234Y-66614249D01*
X167963538Y-66603286D01*
X167975314Y-66591567D01*
X167986526Y-66579231D01*
X167997007Y-66566414D01*
X168006758Y-66553115D01*
X168015780Y-66539334D01*
X168024075Y-66525069D01*
X168031643Y-66510319D01*
X168038485Y-66495083D01*
X168044602Y-66479361D01*
X168049996Y-66463151D01*
X168054667Y-66446452D01*
X168058617Y-66429263D01*
X168061846Y-66411584D01*
X168064356Y-66393413D01*
X168066147Y-66374749D01*
X168067222Y-66355591D01*
X168067579Y-66335938D01*
X168067213Y-66315907D01*
X168066116Y-66296395D01*
X168064287Y-66277401D01*
X168061726Y-66258924D01*
X168058433Y-66240964D01*
X168054409Y-66223519D01*
X168049653Y-66206589D01*
X168044166Y-66190171D01*
X168037947Y-66174266D01*
X168030996Y-66158872D01*
X168023314Y-66143988D01*
X168014901Y-66129613D01*
X168005756Y-66115746D01*
X167995879Y-66102386D01*
X167985271Y-66089533D01*
X167973931Y-66077184D01*
X167961980Y-66065527D01*
X167949541Y-66054617D01*
X167936613Y-66044457D01*
X167923196Y-66035046D01*
X167909289Y-66026385D01*
X167894892Y-66018475D01*
X167880005Y-66011315D01*
X167864626Y-66004907D01*
X167848755Y-65999251D01*
X167832393Y-65994348D01*
X167815537Y-65990197D01*
X167798188Y-65986800D01*
X167780346Y-65984157D01*
X167762009Y-65982269D01*
X167743177Y-65981135D01*
X167723849Y-65980758D01*
X167360344Y-65980758D01*
X167081820Y-65980758D01*
X167081820Y-65730677D01*
X167723849Y-65730677D01*
X167747464Y-65730970D01*
G37*
G36*
X177760565Y-93626393D02*
G01*
X177825645Y-93631342D01*
X177889779Y-93639491D01*
X177952886Y-93650761D01*
X178014886Y-93665070D01*
X178075698Y-93682339D01*
X178135242Y-93702486D01*
X178193437Y-93725432D01*
X178250203Y-93751095D01*
X178305459Y-93779395D01*
X178359125Y-93810252D01*
X178411119Y-93843585D01*
X178461363Y-93879314D01*
X178509774Y-93917357D01*
X178556273Y-93957635D01*
X178600779Y-94000068D01*
X178643211Y-94044573D01*
X178683490Y-94091072D01*
X178721533Y-94139483D01*
X178757262Y-94189726D01*
X178790595Y-94241720D01*
X178821453Y-94295386D01*
X178849753Y-94350642D01*
X178875416Y-94407407D01*
X178898362Y-94465602D01*
X178918510Y-94525146D01*
X178935778Y-94585958D01*
X178950088Y-94647958D01*
X178961358Y-94711065D01*
X178969507Y-94775199D01*
X178974456Y-94840279D01*
X178976124Y-94906225D01*
X178974456Y-94972171D01*
X178969507Y-95037250D01*
X178961358Y-95101384D01*
X178950088Y-95164491D01*
X178935778Y-95226491D01*
X178918510Y-95287303D01*
X178898362Y-95346846D01*
X178875416Y-95405041D01*
X178849753Y-95461807D01*
X178821453Y-95517062D01*
X178790595Y-95570728D01*
X178757262Y-95622722D01*
X178721533Y-95672965D01*
X178683490Y-95721376D01*
X178643211Y-95767875D01*
X178600779Y-95812381D01*
X178556273Y-95854813D01*
X178509774Y-95895091D01*
X178461363Y-95933135D01*
X178411119Y-95968864D01*
X178359125Y-96002197D01*
X178305459Y-96033054D01*
X178250203Y-96061355D01*
X178193437Y-96087018D01*
X178135242Y-96109964D01*
X178075698Y-96130111D01*
X178014886Y-96147380D01*
X177952886Y-96161689D01*
X177889779Y-96172959D01*
X177825645Y-96181109D01*
X177760565Y-96186058D01*
X177694619Y-96187725D01*
X177628674Y-96186058D01*
X177563594Y-96181109D01*
X177499461Y-96172959D01*
X177436355Y-96161689D01*
X177374355Y-96147380D01*
X177313544Y-96130111D01*
X177254000Y-96109964D01*
X177195806Y-96087018D01*
X177139040Y-96061355D01*
X177083785Y-96033054D01*
X177030120Y-96002197D01*
X176978126Y-95968864D01*
X176927883Y-95933135D01*
X176879472Y-95895091D01*
X176832973Y-95854813D01*
X176788467Y-95812381D01*
X176746035Y-95767875D01*
X176705757Y-95721376D01*
X176667713Y-95672965D01*
X176631985Y-95622722D01*
X176598652Y-95570728D01*
X176567795Y-95517062D01*
X176539494Y-95461807D01*
X176513831Y-95405041D01*
X176490885Y-95346846D01*
X176470738Y-95287303D01*
X176453469Y-95226491D01*
X176439160Y-95164491D01*
X176427890Y-95101384D01*
X176419740Y-95037250D01*
X176414791Y-94972171D01*
X176413124Y-94906225D01*
X176414791Y-94840279D01*
X176419740Y-94775199D01*
X176427890Y-94711065D01*
X176439160Y-94647958D01*
X176453469Y-94585958D01*
X176470738Y-94525146D01*
X176490885Y-94465602D01*
X176513831Y-94407407D01*
X176539494Y-94350642D01*
X176567795Y-94295386D01*
X176598652Y-94241720D01*
X176631985Y-94189726D01*
X176667713Y-94139483D01*
X176705757Y-94091072D01*
X176746035Y-94044573D01*
X176788467Y-94000068D01*
X176832973Y-93957635D01*
X176879472Y-93917357D01*
X176927883Y-93879314D01*
X176978126Y-93843585D01*
X177030120Y-93810252D01*
X177083785Y-93779395D01*
X177139040Y-93751095D01*
X177195806Y-93725432D01*
X177254000Y-93702486D01*
X177313544Y-93682339D01*
X177374355Y-93665070D01*
X177436355Y-93650761D01*
X177499461Y-93639491D01*
X177563594Y-93631342D01*
X177628674Y-93626393D01*
X177694619Y-93624725D01*
X177760565Y-93626393D01*
G37*
G36*
X127818058Y-140947142D02*
G01*
X111569764Y-140947142D01*
X117890463Y-134379847D01*
X132389100Y-134379847D01*
X127818058Y-140947142D01*
G37*
G36*
X162325063Y-67230820D02*
G01*
X162325381Y-67251156D01*
X162326332Y-67270932D01*
X162327917Y-67290149D01*
X162330137Y-67308808D01*
X162332991Y-67326911D01*
X162336478Y-67344457D01*
X162340600Y-67361449D01*
X162345356Y-67377887D01*
X162350746Y-67393772D01*
X162356771Y-67409105D01*
X162363429Y-67423887D01*
X162370721Y-67438120D01*
X162378647Y-67451804D01*
X162387208Y-67464941D01*
X162396402Y-67477530D01*
X162406230Y-67489574D01*
X162416643Y-67500914D01*
X162427722Y-67511523D01*
X162439464Y-67521400D01*
X162451868Y-67530546D01*
X162464933Y-67538959D01*
X162478657Y-67546642D01*
X162493038Y-67553592D01*
X162508075Y-67559811D01*
X162523767Y-67565298D01*
X162540111Y-67570054D01*
X162557107Y-67574078D01*
X162574753Y-67577371D01*
X162593047Y-67579931D01*
X162611988Y-67581760D01*
X162631575Y-67582858D01*
X162651805Y-67583224D01*
X162671787Y-67582858D01*
X162691151Y-67581760D01*
X162709899Y-67579931D01*
X162728030Y-67577371D01*
X162745546Y-67574078D01*
X162762446Y-67570054D01*
X162778732Y-67565298D01*
X162794404Y-67559811D01*
X162809462Y-67553592D01*
X162823906Y-67546642D01*
X162837738Y-67538959D01*
X162850958Y-67530546D01*
X162863566Y-67521400D01*
X162875563Y-67511523D01*
X162886950Y-67500914D01*
X162897726Y-67489574D01*
X162907870Y-67477530D01*
X162917364Y-67464941D01*
X162926206Y-67451804D01*
X162934397Y-67438120D01*
X162941935Y-67423887D01*
X162948821Y-67409105D01*
X162955053Y-67393772D01*
X162960632Y-67377887D01*
X162965556Y-67361449D01*
X162969825Y-67344457D01*
X162973439Y-67326911D01*
X162976397Y-67308808D01*
X162978699Y-67290149D01*
X162980343Y-67270932D01*
X162981330Y-67251156D01*
X162981660Y-67230820D01*
X162981660Y-65730676D01*
X163262950Y-65730676D01*
X163262950Y-67230820D01*
X163262333Y-67265533D01*
X163260480Y-67299302D01*
X163257393Y-67332127D01*
X163253072Y-67364007D01*
X163247517Y-67394942D01*
X163240729Y-67424932D01*
X163232708Y-67453976D01*
X163223456Y-67482073D01*
X163212971Y-67509223D01*
X163201256Y-67535425D01*
X163188309Y-67560680D01*
X163174133Y-67584985D01*
X163158727Y-67608342D01*
X163142091Y-67630749D01*
X163124227Y-67652205D01*
X163105134Y-67672711D01*
X163084888Y-67692178D01*
X163063562Y-67710384D01*
X163041156Y-67727332D01*
X163017670Y-67743021D01*
X162993105Y-67757451D01*
X162967461Y-67770625D01*
X162940739Y-67782541D01*
X162912939Y-67793201D01*
X162884062Y-67802605D01*
X162854109Y-67810753D01*
X162823079Y-67817647D01*
X162790973Y-67823286D01*
X162757793Y-67827670D01*
X162723537Y-67830802D01*
X162688208Y-67832680D01*
X162651805Y-67833306D01*
X162615779Y-67832672D01*
X162580802Y-67830771D01*
X162546875Y-67827602D01*
X162513999Y-67823166D01*
X162482173Y-67817465D01*
X162451399Y-67810497D01*
X162421676Y-67802265D01*
X162393006Y-67792767D01*
X162365388Y-67782006D01*
X162338824Y-67769981D01*
X162313314Y-67756693D01*
X162288858Y-67742143D01*
X162265458Y-67726330D01*
X162243112Y-67709256D01*
X162221822Y-67690921D01*
X162201589Y-67671325D01*
X162182497Y-67650644D01*
X162164632Y-67629052D01*
X162147997Y-67606548D01*
X162132590Y-67583132D01*
X162118414Y-67558804D01*
X162105467Y-67533563D01*
X162093752Y-67507408D01*
X162083267Y-67480339D01*
X162074015Y-67452355D01*
X162065994Y-67423457D01*
X162059206Y-67393643D01*
X162053651Y-67362913D01*
X162049330Y-67331266D01*
X162046243Y-67298702D01*
X162044390Y-67265220D01*
X162043773Y-67230820D01*
X162043773Y-65730676D01*
X162325063Y-65730676D01*
X162325063Y-67230820D01*
G37*
G36*
X152625524Y-109301323D02*
G01*
X152626928Y-109356823D01*
X152631093Y-109411595D01*
X152637952Y-109465571D01*
X152647436Y-109518682D01*
X152659479Y-109570861D01*
X152674013Y-109622041D01*
X152690969Y-109672154D01*
X152710281Y-109721131D01*
X152731879Y-109768905D01*
X152755697Y-109815409D01*
X152781666Y-109860574D01*
X152809720Y-109904333D01*
X152839789Y-109946619D01*
X152871807Y-109987362D01*
X152905706Y-110026496D01*
X152941417Y-110063952D01*
X152978874Y-110099663D01*
X153018007Y-110133562D01*
X153058750Y-110165580D01*
X153101035Y-110195650D01*
X153144794Y-110223703D01*
X153189959Y-110249673D01*
X153236463Y-110273491D01*
X153284237Y-110295089D01*
X153333214Y-110314401D01*
X153383326Y-110331357D01*
X153434505Y-110345890D01*
X153486685Y-110357934D01*
X153539796Y-110367418D01*
X153593771Y-110374277D01*
X153648542Y-110378442D01*
X153704042Y-110379845D01*
X155956967Y-110379845D01*
X154914629Y-112679845D01*
X153704042Y-112679845D01*
X153648542Y-112681248D01*
X153593771Y-112685413D01*
X153539796Y-112692272D01*
X153486685Y-112701756D01*
X153434505Y-112713800D01*
X153383326Y-112728333D01*
X153333214Y-112745289D01*
X153284237Y-112764601D01*
X153236463Y-112786199D01*
X153189959Y-112810017D01*
X153144794Y-112835987D01*
X153101035Y-112864040D01*
X153058750Y-112894110D01*
X153018007Y-112926128D01*
X152978874Y-112960026D01*
X152941417Y-112995738D01*
X152905706Y-113033194D01*
X152871807Y-113072328D01*
X152839789Y-113113071D01*
X152809720Y-113155356D01*
X152781666Y-113199116D01*
X152755697Y-113244281D01*
X152731879Y-113290785D01*
X152710281Y-113338559D01*
X152690969Y-113387536D01*
X152674013Y-113437649D01*
X152659479Y-113488829D01*
X152647436Y-113541008D01*
X152637952Y-113594119D01*
X152631093Y-113648095D01*
X152626928Y-113702867D01*
X152625524Y-113758367D01*
X152625524Y-117301327D01*
X152626323Y-117343161D01*
X152628700Y-117384591D01*
X152632624Y-117425589D01*
X152638066Y-117466125D01*
X152644995Y-117506172D01*
X152653381Y-117545699D01*
X152663194Y-117584680D01*
X152674403Y-117623084D01*
X151099172Y-121098952D01*
X151060902Y-121052293D01*
X151020146Y-121007853D01*
X150977007Y-120965742D01*
X150931591Y-120926068D01*
X150884001Y-120888941D01*
X150834343Y-120854471D01*
X150782722Y-120822765D01*
X150729241Y-120793933D01*
X150674006Y-120768084D01*
X150617122Y-120745328D01*
X150558692Y-120725774D01*
X150498822Y-120709530D01*
X150437616Y-120696706D01*
X150375178Y-120687411D01*
X150311615Y-120681753D01*
X150247029Y-120679843D01*
X145704033Y-120679843D01*
X145648532Y-120681247D01*
X145593761Y-120685412D01*
X145539786Y-120692270D01*
X145486675Y-120701755D01*
X145434495Y-120713798D01*
X145383316Y-120728331D01*
X145333204Y-120745287D01*
X145284227Y-120764598D01*
X145236453Y-120786196D01*
X145189950Y-120810014D01*
X145144785Y-120835983D01*
X145101027Y-120864036D01*
X145058743Y-120894105D01*
X145018000Y-120926123D01*
X144978867Y-120960021D01*
X144941411Y-120995732D01*
X144905701Y-121033188D01*
X144871803Y-121072321D01*
X144839785Y-121113064D01*
X144809716Y-121155348D01*
X144781664Y-121199107D01*
X144755695Y-121244272D01*
X144731877Y-121290775D01*
X144710279Y-121338549D01*
X144690969Y-121387526D01*
X144674013Y-121437638D01*
X144659480Y-121488818D01*
X144647437Y-121540997D01*
X144637952Y-121594108D01*
X144631094Y-121648084D01*
X144626929Y-121702855D01*
X144625526Y-121758356D01*
X144625526Y-125301316D01*
X144626929Y-125356816D01*
X144631094Y-125411587D01*
X144637952Y-125465562D01*
X144647437Y-125518673D01*
X144659480Y-125570851D01*
X144674013Y-125622031D01*
X144690969Y-125672143D01*
X144710279Y-125721119D01*
X144731877Y-125768893D01*
X144755695Y-125815396D01*
X144781664Y-125860561D01*
X144809716Y-125904319D01*
X144839785Y-125946604D01*
X144871803Y-125987346D01*
X144905701Y-126026479D01*
X144941411Y-126063935D01*
X144978867Y-126099646D01*
X145018000Y-126133544D01*
X145058743Y-126165562D01*
X145101027Y-126195631D01*
X145144785Y-126223684D01*
X145189950Y-126249653D01*
X145236453Y-126273470D01*
X145284227Y-126295068D01*
X145333204Y-126314379D01*
X145383316Y-126331335D01*
X145434495Y-126345869D01*
X145486675Y-126357911D01*
X145539786Y-126367396D01*
X145593761Y-126374255D01*
X145648532Y-126378420D01*
X145704033Y-126379823D01*
X148705941Y-126379823D01*
X147663583Y-128679858D01*
X139866404Y-128679858D01*
X141324239Y-126379823D01*
X142247020Y-126379823D01*
X142302520Y-126378420D01*
X142357292Y-126374255D01*
X142411267Y-126367396D01*
X142464378Y-126357911D01*
X142516557Y-126345869D01*
X142567737Y-126331335D01*
X142617849Y-126314379D01*
X142666825Y-126295068D01*
X142714599Y-126273470D01*
X142761102Y-126249653D01*
X142806267Y-126223684D01*
X142850025Y-126195631D01*
X142892310Y-126165562D01*
X142933052Y-126133544D01*
X142972185Y-126099646D01*
X143009641Y-126063935D01*
X143045352Y-126026479D01*
X143079250Y-125987346D01*
X143111267Y-125946604D01*
X143141336Y-125904319D01*
X143169389Y-125860561D01*
X143195358Y-125815396D01*
X143219175Y-125768893D01*
X143240773Y-125721119D01*
X143260084Y-125672143D01*
X143277040Y-125622031D01*
X143291573Y-125570851D01*
X143303616Y-125518673D01*
X143313100Y-125465562D01*
X143319959Y-125411587D01*
X143324124Y-125356816D01*
X143325527Y-125301316D01*
X143325527Y-123222391D01*
X146394925Y-118379814D01*
X150247029Y-118379814D01*
X150302529Y-118378410D01*
X150357301Y-118374246D01*
X150411276Y-118367387D01*
X150464387Y-118357902D01*
X150516566Y-118345860D01*
X150567746Y-118331326D01*
X150617858Y-118314370D01*
X150666835Y-118295059D01*
X150714608Y-118273461D01*
X150761112Y-118249644D01*
X150806276Y-118223674D01*
X150850035Y-118195621D01*
X150892319Y-118165552D01*
X150933062Y-118133535D01*
X150972195Y-118099637D01*
X151009650Y-118063926D01*
X151045361Y-118026470D01*
X151079259Y-117987336D01*
X151111276Y-117946593D01*
X151141345Y-117904309D01*
X151169398Y-117860550D01*
X151195367Y-117815385D01*
X151219184Y-117768882D01*
X151240782Y-117721108D01*
X151260093Y-117672131D01*
X151277049Y-117622019D01*
X151291582Y-117570839D01*
X151303625Y-117518660D01*
X151313109Y-117465549D01*
X151319968Y-117411574D01*
X151324133Y-117356802D01*
X151325536Y-117301302D01*
X151325536Y-113758346D01*
X151324133Y-113702846D01*
X151319968Y-113648075D01*
X151313109Y-113594099D01*
X151303625Y-113540988D01*
X151291582Y-113488809D01*
X151277049Y-113437629D01*
X151260093Y-113387517D01*
X151240782Y-113338540D01*
X151219184Y-113290766D01*
X151195367Y-113244263D01*
X151169398Y-113199098D01*
X151141345Y-113155339D01*
X151111276Y-113113055D01*
X151079259Y-113072312D01*
X151045361Y-113033179D01*
X151009650Y-112995723D01*
X150972195Y-112960012D01*
X150933062Y-112926114D01*
X150892319Y-112894096D01*
X150850035Y-112864027D01*
X150806276Y-112835974D01*
X150761112Y-112810005D01*
X150714608Y-112786187D01*
X150666835Y-112764589D01*
X150617858Y-112745278D01*
X150567746Y-112728322D01*
X150516566Y-112713789D01*
X150464387Y-112701746D01*
X150411276Y-112692261D01*
X150357301Y-112685403D01*
X150302529Y-112681238D01*
X150247029Y-112679834D01*
X150007776Y-112679834D01*
X152625524Y-108549822D01*
X152625524Y-109301323D01*
G37*
G36*
X166018513Y-69006760D02*
G01*
X166031842Y-69007456D01*
X166044824Y-69008616D01*
X166057460Y-69010241D01*
X166069749Y-69012332D01*
X166081694Y-69014888D01*
X166093296Y-69017911D01*
X166104555Y-69021400D01*
X166115473Y-69025357D01*
X166126051Y-69029782D01*
X166136289Y-69034676D01*
X166146189Y-69040038D01*
X166155751Y-69045870D01*
X166164978Y-69052171D01*
X166173869Y-69058944D01*
X166182426Y-69066187D01*
X166190490Y-69073820D01*
X166198033Y-69081763D01*
X166205056Y-69090014D01*
X166211559Y-69098575D01*
X166217542Y-69107444D01*
X166223004Y-69116622D01*
X166227946Y-69126109D01*
X166232368Y-69135905D01*
X166236270Y-69146009D01*
X166239651Y-69156423D01*
X166242513Y-69167146D01*
X166244854Y-69178177D01*
X166246675Y-69189518D01*
X166247975Y-69201167D01*
X166248755Y-69213126D01*
X166249016Y-69225393D01*
X166248755Y-69237660D01*
X166247975Y-69249618D01*
X166246675Y-69261268D01*
X166244854Y-69272608D01*
X166242513Y-69283640D01*
X166239651Y-69294362D01*
X166236270Y-69304776D01*
X166232368Y-69314881D01*
X166227946Y-69324677D01*
X166223004Y-69334164D01*
X166217542Y-69343342D01*
X166211559Y-69352211D01*
X166205056Y-69360772D01*
X166198033Y-69369023D01*
X166190490Y-69376965D01*
X166182426Y-69384598D01*
X166173869Y-69391784D01*
X166164978Y-69398514D01*
X166155751Y-69404787D01*
X166146189Y-69410601D01*
X166136289Y-69415956D01*
X166126051Y-69420851D01*
X166115473Y-69425285D01*
X166104555Y-69429256D01*
X166093296Y-69432764D01*
X166081694Y-69435807D01*
X166069749Y-69438385D01*
X166057460Y-69440496D01*
X166044824Y-69442140D01*
X166031842Y-69443316D01*
X166018513Y-69444022D01*
X166004834Y-69444258D01*
X165991154Y-69444022D01*
X165977815Y-69443316D01*
X165964818Y-69442140D01*
X165952165Y-69440496D01*
X165939854Y-69438385D01*
X165927888Y-69435807D01*
X165916265Y-69432764D01*
X165904988Y-69429256D01*
X165894056Y-69425285D01*
X165883471Y-69420851D01*
X165873231Y-69415956D01*
X165863339Y-69410601D01*
X165853795Y-69404787D01*
X165844598Y-69398514D01*
X165835751Y-69391784D01*
X165827252Y-69384598D01*
X165819126Y-69376965D01*
X165811528Y-69369023D01*
X165804457Y-69360772D01*
X165797914Y-69352211D01*
X165791896Y-69343342D01*
X165786405Y-69334164D01*
X165781440Y-69324677D01*
X165776999Y-69314881D01*
X165773082Y-69304776D01*
X165769690Y-69294362D01*
X165766821Y-69283640D01*
X165764474Y-69272608D01*
X165762650Y-69261268D01*
X165761348Y-69249618D01*
X165760567Y-69237660D01*
X165760307Y-69225393D01*
X165760567Y-69213126D01*
X165761348Y-69201167D01*
X165762650Y-69189518D01*
X165764474Y-69178177D01*
X165766821Y-69167146D01*
X165769690Y-69156423D01*
X165773082Y-69146009D01*
X165776999Y-69135904D01*
X165781440Y-69126108D01*
X165786405Y-69116621D01*
X165791896Y-69107443D01*
X165797914Y-69098574D01*
X165804457Y-69090014D01*
X165811528Y-69081762D01*
X165819126Y-69073820D01*
X165827252Y-69066187D01*
X165835751Y-69058944D01*
X165844598Y-69052171D01*
X165853795Y-69045870D01*
X165863339Y-69040038D01*
X165873231Y-69034676D01*
X165883471Y-69029782D01*
X165894056Y-69025357D01*
X165904988Y-69021400D01*
X165916265Y-69017911D01*
X165927888Y-69014888D01*
X165939854Y-69012332D01*
X165952165Y-69010241D01*
X165964818Y-69008616D01*
X165977815Y-69007456D01*
X165991154Y-69006760D01*
X166004834Y-69006529D01*
X166018513Y-69006760D01*
G37*
G36*
X167691015Y-69617498D02*
G01*
X167700599Y-69617986D01*
X167709940Y-69618797D01*
X167719037Y-69619933D01*
X167727890Y-69621391D01*
X167736500Y-69623172D01*
X167744865Y-69625275D01*
X167752986Y-69627700D01*
X167760864Y-69630446D01*
X167768497Y-69633512D01*
X167775887Y-69636899D01*
X167783033Y-69640604D01*
X167789935Y-69644629D01*
X167796592Y-69648972D01*
X167803007Y-69653633D01*
X167809177Y-69658611D01*
X167815034Y-69663903D01*
X167820509Y-69669502D01*
X167825604Y-69675408D01*
X167830318Y-69681617D01*
X167834651Y-69688130D01*
X167838605Y-69694943D01*
X167842180Y-69702057D01*
X167845377Y-69709468D01*
X167848195Y-69717177D01*
X167850636Y-69725180D01*
X167852700Y-69733477D01*
X167854388Y-69742067D01*
X167855700Y-69750947D01*
X167856636Y-69760116D01*
X167857197Y-69769573D01*
X167857384Y-69779315D01*
X167857197Y-69789127D01*
X167856636Y-69798663D01*
X167855699Y-69807922D01*
X167854387Y-69816905D01*
X167852698Y-69825612D01*
X167850634Y-69834042D01*
X167848192Y-69842195D01*
X167845373Y-69850073D01*
X167842176Y-69857674D01*
X167838601Y-69864998D01*
X167834647Y-69872047D01*
X167830313Y-69878819D01*
X167825600Y-69885314D01*
X167820507Y-69891534D01*
X167815032Y-69897477D01*
X167809177Y-69903143D01*
X167803007Y-69908439D01*
X167796592Y-69913401D01*
X167789935Y-69918027D01*
X167783033Y-69922317D01*
X167775887Y-69926270D01*
X167768497Y-69929884D01*
X167760864Y-69933159D01*
X167752986Y-69936093D01*
X167744865Y-69938686D01*
X167736500Y-69940937D01*
X167727890Y-69942844D01*
X167719037Y-69944407D01*
X167709940Y-69945624D01*
X167700599Y-69946495D01*
X167691015Y-69947018D01*
X167681186Y-69947193D01*
X167671367Y-69947018D01*
X167661807Y-69946495D01*
X167652506Y-69945625D01*
X167643463Y-69944408D01*
X167634678Y-69942846D01*
X167626151Y-69940940D01*
X167617880Y-69938690D01*
X167609866Y-69936097D01*
X167602108Y-69933163D01*
X167594606Y-69929888D01*
X167587359Y-69926274D01*
X167580366Y-69922321D01*
X167573628Y-69918031D01*
X167567144Y-69913404D01*
X167560913Y-69908441D01*
X167554935Y-69903143D01*
X167549266Y-69897477D01*
X167543963Y-69891534D01*
X167539025Y-69885314D01*
X167534453Y-69878819D01*
X167530248Y-69872047D01*
X167526407Y-69864998D01*
X167522933Y-69857674D01*
X167519824Y-69850073D01*
X167517081Y-69842195D01*
X167514704Y-69834042D01*
X167512692Y-69825612D01*
X167511047Y-69816905D01*
X167509766Y-69807922D01*
X167508852Y-69798663D01*
X167508303Y-69789127D01*
X167508121Y-69779315D01*
X167508303Y-69769573D01*
X167508852Y-69760116D01*
X167509766Y-69750947D01*
X167511047Y-69742067D01*
X167512692Y-69733477D01*
X167514704Y-69725180D01*
X167517081Y-69717177D01*
X167519824Y-69709468D01*
X167522933Y-69702057D01*
X167526407Y-69694943D01*
X167530248Y-69688130D01*
X167534453Y-69681617D01*
X167539025Y-69675408D01*
X167543963Y-69669502D01*
X167549266Y-69663903D01*
X167554935Y-69658611D01*
X167560916Y-69653631D01*
X167567150Y-69648970D01*
X167573636Y-69644626D01*
X167580375Y-69640601D01*
X167587368Y-69636895D01*
X167594615Y-69633509D01*
X167602117Y-69630443D01*
X167609874Y-69627697D01*
X167617887Y-69625273D01*
X167626156Y-69623170D01*
X167634682Y-69621390D01*
X167643466Y-69619932D01*
X167652508Y-69618797D01*
X167661808Y-69617985D01*
X167671367Y-69617498D01*
X167681186Y-69617336D01*
X167691015Y-69617498D01*
G37*
G36*
X164121075Y-70569452D02*
G01*
X165044395Y-70569452D01*
X165044395Y-70825082D01*
X163839774Y-70825082D01*
X163839774Y-68750894D01*
X164121075Y-68750894D01*
X164121075Y-70569452D01*
G37*
G36*
X169380122Y-68722782D02*
G01*
X169405084Y-68723769D01*
X169429648Y-68725414D01*
X169453813Y-68727715D01*
X169477580Y-68730673D01*
X169500949Y-68734287D01*
X169523918Y-68738557D01*
X169546490Y-68743481D01*
X169568663Y-68749060D01*
X169590438Y-68755292D01*
X169611814Y-68762178D01*
X169632792Y-68769717D01*
X169653372Y-68777908D01*
X169673553Y-68786751D01*
X169693337Y-68796245D01*
X169712722Y-68806390D01*
X169731642Y-68817121D01*
X169750032Y-68828372D01*
X169767893Y-68840144D01*
X169785222Y-68852435D01*
X169802019Y-68865247D01*
X169818283Y-68878580D01*
X169834013Y-68892432D01*
X169849207Y-68906805D01*
X169863864Y-68921698D01*
X169877984Y-68937112D01*
X169891566Y-68953045D01*
X169904608Y-68969499D01*
X169917109Y-68986474D01*
X169929069Y-69003968D01*
X169940486Y-69021983D01*
X169951359Y-69040518D01*
X169961692Y-69059565D01*
X169971357Y-69078986D01*
X169980356Y-69098781D01*
X169988688Y-69118950D01*
X169996354Y-69139493D01*
X170003352Y-69160410D01*
X170009684Y-69181701D01*
X170015349Y-69203366D01*
X170020348Y-69225405D01*
X170024680Y-69247818D01*
X170028346Y-69270604D01*
X170031345Y-69293765D01*
X170033677Y-69317300D01*
X170035343Y-69341208D01*
X170036343Y-69365491D01*
X170036676Y-69390147D01*
X170036473Y-69406914D01*
X170035862Y-69423788D01*
X170034845Y-69440767D01*
X170033419Y-69457854D01*
X170031584Y-69475049D01*
X170029341Y-69492352D01*
X170026688Y-69509763D01*
X170023625Y-69527284D01*
X170020151Y-69544914D01*
X170016267Y-69562655D01*
X170011970Y-69580507D01*
X170007262Y-69598469D01*
X169996607Y-69634731D01*
X169984298Y-69671443D01*
X169970595Y-69708514D01*
X169955762Y-69745849D01*
X169939805Y-69783452D01*
X169922735Y-69821328D01*
X169904559Y-69859480D01*
X169885285Y-69897912D01*
X169864922Y-69936630D01*
X169843479Y-69975635D01*
X169371759Y-70825082D01*
X169045027Y-70825082D01*
X169045017Y-70825082D01*
X169553847Y-69941298D01*
X169545170Y-69941298D01*
X169541121Y-69946566D01*
X169536781Y-69951703D01*
X169532149Y-69956709D01*
X169527225Y-69961584D01*
X169522012Y-69966326D01*
X169516508Y-69970936D01*
X169510715Y-69975413D01*
X169504632Y-69979756D01*
X169498262Y-69983965D01*
X169491603Y-69988039D01*
X169484657Y-69991979D01*
X169477424Y-69995782D01*
X169469904Y-69999449D01*
X169462099Y-70002980D01*
X169454008Y-70006373D01*
X169445632Y-70009629D01*
X169437021Y-70012720D01*
X169428232Y-70015614D01*
X169419265Y-70018312D01*
X169410122Y-70020813D01*
X169400802Y-70023116D01*
X169391306Y-70025222D01*
X169381635Y-70027129D01*
X169371788Y-70028838D01*
X169361767Y-70030348D01*
X169351572Y-70031657D01*
X169341202Y-70032767D01*
X169330660Y-70033675D01*
X169319945Y-70034383D01*
X169309057Y-70034889D01*
X169297998Y-70035193D01*
X169286767Y-70035295D01*
X169264502Y-70034977D01*
X169242577Y-70034026D01*
X169220992Y-70032441D01*
X169199747Y-70030222D01*
X169178841Y-70027369D01*
X169158274Y-70023881D01*
X169138046Y-70019760D01*
X169118155Y-70015004D01*
X169098602Y-70009614D01*
X169079385Y-70003591D01*
X169060505Y-69996933D01*
X169041961Y-69989641D01*
X169023752Y-69981715D01*
X169005878Y-69973155D01*
X168988339Y-69963961D01*
X168971134Y-69954133D01*
X168954321Y-69943805D01*
X168937964Y-69932981D01*
X168922062Y-69921663D01*
X168906616Y-69909850D01*
X168891625Y-69897543D01*
X168877089Y-69884743D01*
X168863009Y-69871450D01*
X168849384Y-69857664D01*
X168836215Y-69843387D01*
X168823500Y-69828618D01*
X168811242Y-69813359D01*
X168799438Y-69797609D01*
X168788090Y-69781370D01*
X168777198Y-69764641D01*
X168766760Y-69747423D01*
X168756778Y-69729717D01*
X168747268Y-69711584D01*
X168738375Y-69693086D01*
X168730099Y-69674222D01*
X168722439Y-69654992D01*
X168715395Y-69635396D01*
X168708965Y-69615434D01*
X168703151Y-69595106D01*
X168697951Y-69574413D01*
X168693364Y-69553354D01*
X168689391Y-69531929D01*
X168686030Y-69510138D01*
X168683282Y-69487981D01*
X168681145Y-69465459D01*
X168679619Y-69442571D01*
X168678704Y-69419316D01*
X168678399Y-69395697D01*
X168678473Y-69390147D01*
X168959690Y-69390147D01*
X168960121Y-69413662D01*
X168961412Y-69436599D01*
X168963563Y-69458958D01*
X168966572Y-69480741D01*
X168970440Y-69501946D01*
X168975164Y-69522575D01*
X168980743Y-69542626D01*
X168987177Y-69562100D01*
X168994465Y-69580996D01*
X169002606Y-69599316D01*
X169011598Y-69617058D01*
X169021441Y-69634224D01*
X169032133Y-69650812D01*
X169043675Y-69666823D01*
X169056063Y-69682257D01*
X169069299Y-69697114D01*
X169083228Y-69711226D01*
X169097702Y-69724428D01*
X169112720Y-69736719D01*
X169128284Y-69748100D01*
X169144392Y-69758571D01*
X169161044Y-69768131D01*
X169178242Y-69776780D01*
X169195984Y-69784519D01*
X169214271Y-69791348D01*
X169233102Y-69797266D01*
X169252478Y-69802274D01*
X169272399Y-69806371D01*
X169292864Y-69809558D01*
X169313874Y-69811834D01*
X169335428Y-69813200D01*
X169357527Y-69813655D01*
X169379632Y-69813200D01*
X169401199Y-69811834D01*
X169422227Y-69809558D01*
X169442715Y-69806372D01*
X169462662Y-69802275D01*
X169482067Y-69797267D01*
X169500930Y-69791349D01*
X169519249Y-69784520D01*
X169537023Y-69776781D01*
X169554252Y-69768132D01*
X169570934Y-69758572D01*
X169587069Y-69748101D01*
X169602655Y-69736720D01*
X169617691Y-69724428D01*
X169632177Y-69711226D01*
X169646112Y-69697114D01*
X169659344Y-69682257D01*
X169671722Y-69666823D01*
X169683246Y-69650812D01*
X169693916Y-69634224D01*
X169703733Y-69617058D01*
X169712696Y-69599316D01*
X169720805Y-69580996D01*
X169728061Y-69562100D01*
X169734463Y-69542626D01*
X169740011Y-69522575D01*
X169744706Y-69501946D01*
X169748547Y-69480741D01*
X169751534Y-69458958D01*
X169753668Y-69436599D01*
X169754948Y-69413662D01*
X169755375Y-69390147D01*
X169754948Y-69367007D01*
X169753668Y-69344413D01*
X169751534Y-69322365D01*
X169748547Y-69300865D01*
X169744706Y-69279913D01*
X169740011Y-69259511D01*
X169734463Y-69239661D01*
X169728061Y-69220361D01*
X169720805Y-69201615D01*
X169712696Y-69183423D01*
X169703733Y-69165785D01*
X169693916Y-69148703D01*
X169683246Y-69132179D01*
X169671722Y-69116212D01*
X169659344Y-69100804D01*
X169646112Y-69085956D01*
X169632177Y-69071904D01*
X169617691Y-69058756D01*
X169602655Y-69046510D01*
X169587069Y-69035169D01*
X169570934Y-69024732D01*
X169554252Y-69015199D01*
X169537023Y-69006573D01*
X169519249Y-68998852D01*
X169500930Y-68992037D01*
X169482067Y-68986130D01*
X169462662Y-68981130D01*
X169442715Y-68977037D01*
X169422227Y-68973854D01*
X169401199Y-68971579D01*
X169379632Y-68970214D01*
X169357527Y-68969759D01*
X169335428Y-68970214D01*
X169313874Y-68971579D01*
X169292864Y-68973854D01*
X169272399Y-68977037D01*
X169252478Y-68981129D01*
X169233102Y-68986129D01*
X169214271Y-68992037D01*
X169195984Y-68998851D01*
X169178242Y-69006572D01*
X169161044Y-69015199D01*
X169144392Y-69024731D01*
X169128284Y-69035168D01*
X169112720Y-69046510D01*
X169097702Y-69058755D01*
X169083228Y-69071904D01*
X169069299Y-69085956D01*
X169056063Y-69100804D01*
X169043675Y-69116212D01*
X169032133Y-69132179D01*
X169021441Y-69148704D01*
X169011598Y-69165786D01*
X169002606Y-69183424D01*
X168994465Y-69201616D01*
X168987177Y-69220362D01*
X168980743Y-69239661D01*
X168975164Y-69259512D01*
X168970440Y-69279914D01*
X168966572Y-69300865D01*
X168963563Y-69322365D01*
X168961412Y-69344413D01*
X168960121Y-69367007D01*
X168959690Y-69390147D01*
X168678473Y-69390147D01*
X168678732Y-69370723D01*
X168679732Y-69346141D01*
X168681399Y-69321951D01*
X168683732Y-69298154D01*
X168686732Y-69274752D01*
X168690398Y-69251745D01*
X168694731Y-69229134D01*
X168699731Y-69206921D01*
X168705397Y-69185106D01*
X168711730Y-69163690D01*
X168718730Y-69142674D01*
X168726396Y-69122061D01*
X168734728Y-69101849D01*
X168743728Y-69082041D01*
X168753394Y-69062637D01*
X168763726Y-69043639D01*
X168774652Y-69025039D01*
X168786099Y-69006958D01*
X168798065Y-68989396D01*
X168810552Y-68972350D01*
X168823559Y-68955821D01*
X168837086Y-68939807D01*
X168851133Y-68924307D01*
X168865701Y-68909320D01*
X168880789Y-68894845D01*
X168896397Y-68880882D01*
X168912525Y-68867429D01*
X168929174Y-68854484D01*
X168946342Y-68842048D01*
X168964031Y-68830119D01*
X168982241Y-68818696D01*
X169000970Y-68807778D01*
X169020157Y-68797445D01*
X169039733Y-68787780D01*
X169059700Y-68778781D01*
X169080056Y-68770448D01*
X169100803Y-68762782D01*
X169121940Y-68755783D01*
X169143467Y-68749450D01*
X169165384Y-68743784D01*
X169187691Y-68738785D01*
X169210388Y-68734452D01*
X169233475Y-68730785D01*
X169256952Y-68727786D01*
X169280819Y-68725453D01*
X169305076Y-68723786D01*
X169329723Y-68722786D01*
X169354761Y-68722453D01*
X169380122Y-68722782D01*
G37*
G36*
X86608134Y-93591200D02*
G01*
X86683498Y-93596930D01*
X86757765Y-93606367D01*
X86830844Y-93619417D01*
X86902640Y-93635987D01*
X86973060Y-93655984D01*
X87042012Y-93679314D01*
X87109402Y-93705885D01*
X87175137Y-93735602D01*
X87239123Y-93768373D01*
X87301267Y-93804104D01*
X87361476Y-93842703D01*
X87419658Y-93884076D01*
X87475717Y-93928130D01*
X87529562Y-93974771D01*
X87581100Y-94023906D01*
X87630236Y-94075443D01*
X87676877Y-94129287D01*
X87720931Y-94185346D01*
X87762305Y-94243526D01*
X87800904Y-94303735D01*
X87836636Y-94365878D01*
X87869407Y-94429863D01*
X87899124Y-94495596D01*
X87925695Y-94562985D01*
X87949025Y-94631935D01*
X87969022Y-94702355D01*
X87985592Y-94774149D01*
X87998642Y-94847226D01*
X88008079Y-94921492D01*
X88013810Y-94996853D01*
X88015741Y-95073217D01*
X88015741Y-99024747D01*
X88013810Y-99101111D01*
X88008079Y-99176472D01*
X87998642Y-99250738D01*
X87985592Y-99323814D01*
X87969022Y-99395609D01*
X87949025Y-99466028D01*
X87925695Y-99534978D01*
X87899124Y-99602366D01*
X87869407Y-99668100D01*
X87836636Y-99732084D01*
X87800904Y-99794228D01*
X87762305Y-99854436D01*
X87720931Y-99912617D01*
X87676877Y-99968676D01*
X87630236Y-100022520D01*
X87581100Y-100074057D01*
X87529562Y-100123192D01*
X87475717Y-100169834D01*
X87419658Y-100213887D01*
X87361476Y-100255260D01*
X87301267Y-100293859D01*
X87239123Y-100329591D01*
X87175137Y-100362362D01*
X87109402Y-100392080D01*
X87042012Y-100418650D01*
X86973060Y-100441980D01*
X86902640Y-100461977D01*
X86830844Y-100478547D01*
X86757765Y-100491597D01*
X86683498Y-100501034D01*
X86608134Y-100506765D01*
X86531768Y-100508696D01*
X82636503Y-100508696D01*
X82560139Y-100506765D01*
X82484778Y-100501034D01*
X82410512Y-100491597D01*
X82337435Y-100478547D01*
X82265640Y-100461977D01*
X82195221Y-100441980D01*
X82126271Y-100418650D01*
X82058882Y-100392080D01*
X81993149Y-100362362D01*
X81929164Y-100329591D01*
X81867020Y-100293859D01*
X81806812Y-100255260D01*
X81748632Y-100213887D01*
X81692573Y-100169834D01*
X81638728Y-100123192D01*
X81587192Y-100074057D01*
X81538056Y-100022520D01*
X81491415Y-99968676D01*
X81447361Y-99912617D01*
X81405988Y-99854436D01*
X81367389Y-99794228D01*
X81331658Y-99732084D01*
X81298887Y-99668100D01*
X81269169Y-99602366D01*
X81242599Y-99534978D01*
X81219269Y-99466028D01*
X81199272Y-99395609D01*
X81182702Y-99323814D01*
X81169652Y-99250738D01*
X81160215Y-99176472D01*
X81154484Y-99101111D01*
X81152553Y-99024747D01*
X81152553Y-98001787D01*
X81152553Y-98001782D01*
X81152553Y-96109173D01*
X82618081Y-96109173D01*
X82618081Y-98001782D01*
X82898012Y-98001782D01*
X82898012Y-97190198D01*
X83696577Y-97190198D01*
X83696577Y-96931246D01*
X82892949Y-96931246D01*
X82892949Y-96365958D01*
X83763848Y-96365958D01*
X83763848Y-96365953D01*
X83763848Y-96109178D01*
X84090796Y-96109178D01*
X84090796Y-98001787D01*
X84352645Y-98001787D01*
X84352645Y-97009009D01*
X84352305Y-96961349D01*
X84351288Y-96911722D01*
X84349592Y-96860195D01*
X84347218Y-96806836D01*
X84344648Y-96752918D01*
X84341840Y-96700190D01*
X84335646Y-96598156D01*
X84324073Y-96428173D01*
X84873448Y-98001787D01*
X85226075Y-98001787D01*
X85226076Y-97612998D01*
X85920842Y-97612998D01*
X85921084Y-97624518D01*
X85921809Y-97635750D01*
X85923019Y-97646697D01*
X85924713Y-97657358D01*
X85926893Y-97667736D01*
X85929558Y-97677831D01*
X85932710Y-97687644D01*
X85936349Y-97697176D01*
X85940475Y-97706429D01*
X85945089Y-97715403D01*
X85950191Y-97724099D01*
X85955783Y-97732519D01*
X85961864Y-97740664D01*
X85968435Y-97748534D01*
X85975496Y-97756131D01*
X85983049Y-97763455D01*
X85990945Y-97770350D01*
X85999171Y-97776796D01*
X86007726Y-97782794D01*
X86016611Y-97788345D01*
X86025824Y-97793449D01*
X86035364Y-97798106D01*
X86045233Y-97802317D01*
X86055428Y-97806083D01*
X86065949Y-97809403D01*
X86076797Y-97812280D01*
X86087969Y-97814712D01*
X86099467Y-97816701D01*
X86111288Y-97818247D01*
X86123434Y-97819351D01*
X86135902Y-97820013D01*
X86148694Y-97820233D01*
X86161485Y-97820013D01*
X86173954Y-97819351D01*
X86186101Y-97818248D01*
X86197926Y-97816702D01*
X86209429Y-97814713D01*
X86220609Y-97812281D01*
X86231468Y-97809405D01*
X86242004Y-97806085D01*
X86252218Y-97802319D01*
X86262111Y-97798108D01*
X86271681Y-97793451D01*
X86280929Y-97788347D01*
X86289855Y-97782796D01*
X86298458Y-97776798D01*
X86306740Y-97770351D01*
X86314700Y-97763455D01*
X86322252Y-97756131D01*
X86329314Y-97748534D01*
X86335885Y-97740664D01*
X86341966Y-97732519D01*
X86347557Y-97724099D01*
X86352659Y-97715403D01*
X86357273Y-97706429D01*
X86361399Y-97697176D01*
X86365038Y-97687644D01*
X86368190Y-97677831D01*
X86370855Y-97667736D01*
X86373035Y-97657358D01*
X86374729Y-97646697D01*
X86375939Y-97635750D01*
X86376664Y-97624518D01*
X86376906Y-97612998D01*
X86376664Y-97601801D01*
X86375939Y-97590859D01*
X86374729Y-97580173D01*
X86373035Y-97569745D01*
X86370855Y-97559576D01*
X86368190Y-97549666D01*
X86365038Y-97540016D01*
X86361400Y-97530629D01*
X86357274Y-97521504D01*
X86352660Y-97512643D01*
X86347557Y-97504047D01*
X86341966Y-97495716D01*
X86335885Y-97487653D01*
X86329314Y-97479858D01*
X86322252Y-97472331D01*
X86314700Y-97465075D01*
X86306740Y-97458180D01*
X86298459Y-97451734D01*
X86289855Y-97445735D01*
X86280929Y-97440185D01*
X86271681Y-97435081D01*
X86262111Y-97430424D01*
X86252219Y-97426213D01*
X86242004Y-97422447D01*
X86231468Y-97419126D01*
X86220609Y-97416250D01*
X86209429Y-97413818D01*
X86197926Y-97411829D01*
X86186101Y-97410283D01*
X86173954Y-97409179D01*
X86161485Y-97408517D01*
X86148694Y-97408297D01*
X86135902Y-97408517D01*
X86123434Y-97409179D01*
X86111288Y-97410282D01*
X86099467Y-97411828D01*
X86087969Y-97413817D01*
X86076797Y-97416249D01*
X86065949Y-97419125D01*
X86055428Y-97422445D01*
X86045233Y-97426211D01*
X86035364Y-97430422D01*
X86025824Y-97435079D01*
X86016611Y-97440183D01*
X86007726Y-97445734D01*
X85999171Y-97451732D01*
X85990945Y-97458179D01*
X85983049Y-97465075D01*
X85975496Y-97472331D01*
X85968435Y-97479858D01*
X85961864Y-97487653D01*
X85955783Y-97495717D01*
X85950191Y-97504048D01*
X85945089Y-97512644D01*
X85940475Y-97521506D01*
X85936349Y-97530631D01*
X85932710Y-97540019D01*
X85929558Y-97549668D01*
X85926893Y-97559578D01*
X85924713Y-97569747D01*
X85923019Y-97580175D01*
X85921809Y-97590860D01*
X85921084Y-97601802D01*
X85920842Y-97612998D01*
X85226076Y-97612998D01*
X85226076Y-96547522D01*
X85920842Y-96547522D01*
X85921084Y-96559042D01*
X85921809Y-96570274D01*
X85923019Y-96581219D01*
X85924713Y-96591877D01*
X85926893Y-96602249D01*
X85929558Y-96612336D01*
X85932710Y-96622137D01*
X85936349Y-96631654D01*
X85940475Y-96640888D01*
X85945089Y-96649837D01*
X85950191Y-96658504D01*
X85955783Y-96666889D01*
X85961864Y-96674991D01*
X85968435Y-96682812D01*
X85975496Y-96690353D01*
X85983049Y-96697613D01*
X85990945Y-96704573D01*
X85999171Y-96711077D01*
X86007726Y-96717124D01*
X86016611Y-96722717D01*
X86025824Y-96727857D01*
X86035364Y-96732544D01*
X86045233Y-96736780D01*
X86055428Y-96740565D01*
X86065949Y-96743901D01*
X86076797Y-96746789D01*
X86087969Y-96749230D01*
X86099467Y-96751224D01*
X86111288Y-96752774D01*
X86123434Y-96753879D01*
X86135902Y-96754542D01*
X86148694Y-96754762D01*
X86161485Y-96754542D01*
X86173954Y-96753879D01*
X86186101Y-96752774D01*
X86197926Y-96751224D01*
X86209429Y-96749230D01*
X86220609Y-96746789D01*
X86231468Y-96743901D01*
X86242004Y-96740565D01*
X86252218Y-96736780D01*
X86262111Y-96732544D01*
X86271681Y-96727857D01*
X86280929Y-96722717D01*
X86289855Y-96717124D01*
X86298458Y-96711077D01*
X86306740Y-96704573D01*
X86314700Y-96697613D01*
X86322252Y-96690353D01*
X86329314Y-96682812D01*
X86335885Y-96674991D01*
X86341966Y-96666889D01*
X86347557Y-96658504D01*
X86352659Y-96649837D01*
X86357273Y-96640888D01*
X86361399Y-96631654D01*
X86365038Y-96622137D01*
X86368190Y-96612336D01*
X86370855Y-96602249D01*
X86373035Y-96591877D01*
X86374729Y-96581219D01*
X86375939Y-96570274D01*
X86376664Y-96559042D01*
X86376906Y-96547522D01*
X86376664Y-96536324D01*
X86375939Y-96525381D01*
X86374729Y-96514695D01*
X86373035Y-96504266D01*
X86370855Y-96494096D01*
X86368190Y-96484186D01*
X86365038Y-96474537D01*
X86361400Y-96465149D01*
X86357274Y-96456024D01*
X86352660Y-96447163D01*
X86347557Y-96438568D01*
X86341966Y-96430238D01*
X86335885Y-96422175D01*
X86329314Y-96414380D01*
X86322252Y-96406854D01*
X86314700Y-96399599D01*
X86306740Y-96392698D01*
X86298459Y-96386239D01*
X86289855Y-96380222D01*
X86280929Y-96374647D01*
X86271681Y-96369516D01*
X86262111Y-96364828D01*
X86252219Y-96360584D01*
X86242004Y-96356784D01*
X86231468Y-96353430D01*
X86220609Y-96350521D01*
X86209429Y-96348058D01*
X86197926Y-96346042D01*
X86186101Y-96344473D01*
X86173954Y-96343352D01*
X86161485Y-96342679D01*
X86148694Y-96342454D01*
X86135902Y-96342679D01*
X86123434Y-96343352D01*
X86111288Y-96344473D01*
X86099467Y-96346042D01*
X86087969Y-96348058D01*
X86076797Y-96350521D01*
X86065949Y-96353430D01*
X86055428Y-96356784D01*
X86045233Y-96360584D01*
X86035364Y-96364828D01*
X86025824Y-96369516D01*
X86016611Y-96374647D01*
X86007726Y-96380222D01*
X85999171Y-96386239D01*
X85990945Y-96392698D01*
X85983049Y-96399599D01*
X85975496Y-96406854D01*
X85968435Y-96414380D01*
X85961864Y-96422175D01*
X85955783Y-96430238D01*
X85950191Y-96438569D01*
X85945089Y-96447165D01*
X85940475Y-96456026D01*
X85936349Y-96465151D01*
X85932710Y-96474539D01*
X85929558Y-96484188D01*
X85926893Y-96494099D01*
X85924713Y-96504268D01*
X85923019Y-96514697D01*
X85921809Y-96525383D01*
X85921084Y-96536325D01*
X85920842Y-96547522D01*
X85226076Y-96547522D01*
X85226076Y-96109183D01*
X84966759Y-96109183D01*
X84966759Y-97086773D01*
X84967025Y-97134574D01*
X84967799Y-97184646D01*
X84969047Y-97236957D01*
X84970737Y-97291475D01*
X84972901Y-97346664D01*
X84975573Y-97400970D01*
X84978721Y-97454328D01*
X84982309Y-97506670D01*
X84989634Y-97602598D01*
X84995330Y-97682802D01*
X84445955Y-96109178D01*
X84090796Y-96109178D01*
X83763848Y-96109178D01*
X83763848Y-96109173D01*
X82618081Y-96109173D01*
X81152553Y-96109173D01*
X81152553Y-95073217D01*
X81154484Y-94996854D01*
X81160215Y-94921493D01*
X81169652Y-94847227D01*
X81182702Y-94774151D01*
X81199272Y-94702356D01*
X81219269Y-94631937D01*
X81242599Y-94562987D01*
X81269169Y-94495599D01*
X81298887Y-94429865D01*
X81331658Y-94365880D01*
X81367389Y-94303737D01*
X81405988Y-94243529D01*
X81447361Y-94185348D01*
X81491415Y-94129289D01*
X81538056Y-94075445D01*
X81587192Y-94023908D01*
X81638728Y-93974773D01*
X81692573Y-93928131D01*
X81748632Y-93884078D01*
X81806812Y-93842705D01*
X81867020Y-93804106D01*
X81929164Y-93768374D01*
X81993149Y-93735603D01*
X82058882Y-93705885D01*
X82126271Y-93679315D01*
X82195221Y-93655985D01*
X82265640Y-93635988D01*
X82337435Y-93619418D01*
X82410512Y-93606367D01*
X82484778Y-93596930D01*
X82560139Y-93591200D01*
X82636503Y-93589269D01*
X86531768Y-93589269D01*
X86608134Y-93591200D01*
G37*
G36*
X166018513Y-70186072D02*
G01*
X166031842Y-70186791D01*
X166044824Y-70187989D01*
X166057460Y-70189664D01*
X166069749Y-70191818D01*
X166081694Y-70194448D01*
X166093296Y-70197555D01*
X166104555Y-70201138D01*
X166115473Y-70205196D01*
X166126051Y-70209730D01*
X166136289Y-70214738D01*
X166146189Y-70220220D01*
X166155751Y-70226175D01*
X166164978Y-70232604D01*
X166173869Y-70239505D01*
X166182426Y-70246878D01*
X166190490Y-70254642D01*
X166198033Y-70262713D01*
X166205056Y-70271092D01*
X166211559Y-70279776D01*
X166217542Y-70288765D01*
X166223004Y-70298058D01*
X166227946Y-70307653D01*
X166232368Y-70317550D01*
X166236270Y-70327749D01*
X166239651Y-70338246D01*
X166242513Y-70349043D01*
X166244854Y-70360137D01*
X166246675Y-70371528D01*
X166247975Y-70383215D01*
X166248755Y-70395197D01*
X166249016Y-70407472D01*
X166248755Y-70419739D01*
X166247975Y-70431697D01*
X166246675Y-70443346D01*
X166244854Y-70454687D01*
X166242513Y-70465718D01*
X166239651Y-70476441D01*
X166236270Y-70486855D01*
X166232368Y-70496959D01*
X166227946Y-70506755D01*
X166223004Y-70516242D01*
X166217542Y-70525420D01*
X166211559Y-70534289D01*
X166205056Y-70542849D01*
X166198033Y-70551101D01*
X166190490Y-70559043D01*
X166182426Y-70566677D01*
X166173869Y-70573863D01*
X166164978Y-70580593D01*
X166155751Y-70586866D01*
X166146189Y-70592680D01*
X166136289Y-70598035D01*
X166126051Y-70602930D01*
X166115473Y-70607363D01*
X166104555Y-70611334D01*
X166093296Y-70614842D01*
X166081694Y-70617886D01*
X166069749Y-70620463D01*
X166057460Y-70622575D01*
X166044824Y-70624219D01*
X166031842Y-70625395D01*
X166018513Y-70626101D01*
X166004834Y-70626336D01*
X165991154Y-70626101D01*
X165977815Y-70625395D01*
X165964818Y-70624219D01*
X165952165Y-70622575D01*
X165939854Y-70620463D01*
X165927888Y-70617886D01*
X165916265Y-70614842D01*
X165904988Y-70611334D01*
X165894056Y-70607363D01*
X165883471Y-70602930D01*
X165873231Y-70598035D01*
X165863339Y-70592680D01*
X165853795Y-70586866D01*
X165844598Y-70580593D01*
X165835751Y-70573863D01*
X165827252Y-70566677D01*
X165819126Y-70559043D01*
X165811528Y-70551101D01*
X165804457Y-70542849D01*
X165797914Y-70534289D01*
X165791896Y-70525420D01*
X165786405Y-70516242D01*
X165781440Y-70506755D01*
X165776999Y-70496959D01*
X165773082Y-70486855D01*
X165769690Y-70476441D01*
X165766821Y-70465718D01*
X165764474Y-70454687D01*
X165762650Y-70443346D01*
X165761348Y-70431697D01*
X165760567Y-70419739D01*
X165760307Y-70407472D01*
X165760567Y-70395197D01*
X165761348Y-70383215D01*
X165762650Y-70371528D01*
X165764474Y-70360137D01*
X165766821Y-70349043D01*
X165769690Y-70338246D01*
X165773082Y-70327749D01*
X165776999Y-70317550D01*
X165781440Y-70307653D01*
X165786405Y-70298058D01*
X165791896Y-70288765D01*
X165797914Y-70279776D01*
X165804457Y-70271092D01*
X165811528Y-70262713D01*
X165819126Y-70254642D01*
X165827252Y-70246878D01*
X165835751Y-70239505D01*
X165844598Y-70232603D01*
X165853795Y-70226174D01*
X165863339Y-70220219D01*
X165873231Y-70214737D01*
X165883471Y-70209728D01*
X165894056Y-70205195D01*
X165904988Y-70201137D01*
X165916265Y-70197554D01*
X165927888Y-70194447D01*
X165939854Y-70191817D01*
X165952165Y-70189664D01*
X165964818Y-70187989D01*
X165977815Y-70186791D01*
X165991154Y-70186072D01*
X166004834Y-70185833D01*
X166018513Y-70186072D01*
G37*
G36*
X163816468Y-92461050D02*
G01*
X163828071Y-92462181D01*
X163839389Y-92464032D01*
X163850404Y-92466577D01*
X163861098Y-92469788D01*
X163871455Y-92473638D01*
X163881457Y-92478101D01*
X163891086Y-92483150D01*
X163900325Y-92488756D01*
X163909156Y-92494893D01*
X163917562Y-92501535D01*
X163925526Y-92508653D01*
X163933030Y-92516221D01*
X163940056Y-92524212D01*
X163946588Y-92532599D01*
X163952607Y-92541354D01*
X163958097Y-92550451D01*
X163963039Y-92559862D01*
X163967417Y-92569561D01*
X163971212Y-92579520D01*
X163974408Y-92589712D01*
X163976987Y-92600111D01*
X163978932Y-92610688D01*
X163980224Y-92621418D01*
X163980847Y-92632272D01*
X163980783Y-92643224D01*
X163980015Y-92654248D01*
X163978525Y-92665314D01*
X163976295Y-92676398D01*
X163973309Y-92687471D01*
X163969549Y-92698506D01*
X163964998Y-92709477D01*
X158523334Y-104716924D01*
X158490025Y-104708614D01*
X158456352Y-104701262D01*
X158422321Y-104694914D01*
X158387939Y-104689616D01*
X158353212Y-104685415D01*
X158318147Y-104682358D01*
X158282750Y-104680489D01*
X158247028Y-104679856D01*
X155078442Y-104679856D01*
X162712250Y-92636011D01*
X162725814Y-92616050D01*
X162740513Y-92597131D01*
X162756286Y-92579288D01*
X162773071Y-92562555D01*
X162790806Y-92546965D01*
X162809429Y-92532553D01*
X162828880Y-92519353D01*
X162849096Y-92507398D01*
X162870016Y-92496723D01*
X162891579Y-92487360D01*
X162913721Y-92479346D01*
X162936383Y-92472712D01*
X162959502Y-92467493D01*
X162983017Y-92463724D01*
X163006865Y-92461437D01*
X163030986Y-92460667D01*
X163804597Y-92460667D01*
X163816468Y-92461050D01*
G37*
G36*
X166635419Y-65983533D02*
G01*
X165706545Y-65983533D01*
X165706545Y-66600238D01*
X166536227Y-66600238D01*
X166536227Y-66844425D01*
X165706545Y-66844425D01*
X165706545Y-67552007D01*
X166635419Y-67552007D01*
X166635419Y-67804864D01*
X165428021Y-67804865D01*
X165428021Y-65730677D01*
X166635419Y-65730677D01*
X166635419Y-65983533D01*
G37*
G36*
X218149358Y-72795923D02*
G01*
X218214439Y-72800872D01*
X218278573Y-72809021D01*
X218341680Y-72820291D01*
X218403680Y-72834600D01*
X218464492Y-72851869D01*
X218524036Y-72872017D01*
X218582231Y-72894962D01*
X218638997Y-72920625D01*
X218694253Y-72948926D01*
X218747919Y-72979783D01*
X218799913Y-73013116D01*
X218850157Y-73048845D01*
X218898568Y-73086888D01*
X218945067Y-73127167D01*
X218989573Y-73169599D01*
X219032005Y-73214105D01*
X219072283Y-73260603D01*
X219110327Y-73309015D01*
X219146056Y-73359258D01*
X219179389Y-73411252D01*
X219210246Y-73464918D01*
X219238547Y-73520174D01*
X219264210Y-73576939D01*
X219287156Y-73635134D01*
X219307303Y-73694678D01*
X219324572Y-73755490D01*
X219338882Y-73817490D01*
X219350152Y-73880598D01*
X219358301Y-73944732D01*
X219363250Y-74009812D01*
X219364917Y-74075758D01*
X219363250Y-74141703D01*
X219358301Y-74206783D01*
X219350152Y-74270917D01*
X219338882Y-74334024D01*
X219324572Y-74396024D01*
X219307303Y-74456836D01*
X219287156Y-74516380D01*
X219264210Y-74574575D01*
X219238547Y-74631340D01*
X219210246Y-74686596D01*
X219179389Y-74740261D01*
X219146056Y-74792256D01*
X219110327Y-74842499D01*
X219072283Y-74890910D01*
X219032005Y-74937409D01*
X218989573Y-74981914D01*
X218945067Y-75024347D01*
X218898568Y-75064625D01*
X218850157Y-75102669D01*
X218799913Y-75138397D01*
X218747919Y-75171730D01*
X218694253Y-75202587D01*
X218638997Y-75230888D01*
X218582231Y-75256551D01*
X218524036Y-75279496D01*
X218464492Y-75299644D01*
X218403680Y-75316913D01*
X218341680Y-75331222D01*
X218278573Y-75342492D01*
X218214439Y-75350641D01*
X218149358Y-75355590D01*
X218083412Y-75357258D01*
X218017467Y-75355590D01*
X217952386Y-75350641D01*
X217888252Y-75342492D01*
X217825145Y-75331222D01*
X217763145Y-75316913D01*
X217702333Y-75299644D01*
X217642789Y-75279496D01*
X217584594Y-75256551D01*
X217527828Y-75230888D01*
X217472572Y-75202587D01*
X217418906Y-75171730D01*
X217366912Y-75138397D01*
X217316668Y-75102669D01*
X217268257Y-75064625D01*
X217221758Y-75024347D01*
X217177252Y-74981914D01*
X217134820Y-74937409D01*
X217094541Y-74890910D01*
X217056498Y-74842499D01*
X217020769Y-74792256D01*
X216987436Y-74740261D01*
X216956579Y-74686596D01*
X216928278Y-74631340D01*
X216902615Y-74574575D01*
X216879669Y-74516380D01*
X216859522Y-74456836D01*
X216842253Y-74396024D01*
X216827943Y-74334024D01*
X216816673Y-74270917D01*
X216808524Y-74206783D01*
X216803575Y-74141703D01*
X216801907Y-74075758D01*
X216803575Y-74009812D01*
X216808524Y-73944732D01*
X216816673Y-73880598D01*
X216827943Y-73817490D01*
X216842253Y-73755490D01*
X216859522Y-73694678D01*
X216879669Y-73635134D01*
X216902615Y-73576939D01*
X216928278Y-73520174D01*
X216956579Y-73464918D01*
X216987436Y-73411252D01*
X217020769Y-73359258D01*
X217056498Y-73309015D01*
X217094541Y-73260603D01*
X217134820Y-73214105D01*
X217177252Y-73169599D01*
X217221758Y-73127167D01*
X217268257Y-73086888D01*
X217316668Y-73048845D01*
X217366912Y-73013116D01*
X217418906Y-72979783D01*
X217472572Y-72948926D01*
X217527828Y-72920625D01*
X217584594Y-72894962D01*
X217642789Y-72872017D01*
X217702333Y-72851869D01*
X217763145Y-72834600D01*
X217825145Y-72820291D01*
X217888252Y-72809021D01*
X217952386Y-72800872D01*
X218017467Y-72795923D01*
X218083412Y-72794255D01*
X218149358Y-72795923D01*
G37*
G36*
X144625526Y-109301323D02*
G01*
X144626929Y-109356823D01*
X144631094Y-109411595D01*
X144637952Y-109465571D01*
X144647437Y-109518682D01*
X144659480Y-109570861D01*
X144674013Y-109622041D01*
X144690969Y-109672154D01*
X144710279Y-109721131D01*
X144731877Y-109768905D01*
X144755695Y-109815409D01*
X144781664Y-109860574D01*
X144809716Y-109904333D01*
X144839785Y-109946619D01*
X144871803Y-109987362D01*
X144905701Y-110026496D01*
X144941411Y-110063952D01*
X144978867Y-110099664D01*
X145018000Y-110133562D01*
X145058743Y-110165580D01*
X145101027Y-110195650D01*
X145144785Y-110223703D01*
X145189950Y-110249673D01*
X145236453Y-110273491D01*
X145284227Y-110295089D01*
X145333204Y-110314401D01*
X145383316Y-110331357D01*
X145434495Y-110345890D01*
X145486675Y-110357934D01*
X145539786Y-110367418D01*
X145593761Y-110374277D01*
X145648532Y-110378442D01*
X145704033Y-110379845D01*
X149093825Y-110379845D01*
X147492954Y-112679845D01*
X145704033Y-112679845D01*
X145648532Y-112681248D01*
X145593761Y-112685413D01*
X145539786Y-112692272D01*
X145486675Y-112701756D01*
X145434495Y-112713800D01*
X145383316Y-112728333D01*
X145333204Y-112745289D01*
X145284227Y-112764601D01*
X145236453Y-112786199D01*
X145189950Y-112810017D01*
X145144785Y-112835987D01*
X145101027Y-112864040D01*
X145058743Y-112894110D01*
X145018000Y-112926128D01*
X144978867Y-112960026D01*
X144941411Y-112995738D01*
X144905701Y-113033194D01*
X144871803Y-113072328D01*
X144839785Y-113113071D01*
X144809716Y-113155356D01*
X144781664Y-113199116D01*
X144755695Y-113244281D01*
X144731877Y-113290785D01*
X144710279Y-113338559D01*
X144690969Y-113387536D01*
X144674013Y-113437649D01*
X144659480Y-113488829D01*
X144647437Y-113541008D01*
X144637952Y-113594119D01*
X144631094Y-113648095D01*
X144626929Y-113702867D01*
X144625526Y-113758367D01*
X144625526Y-116799537D01*
X141924708Y-120679843D01*
X137704034Y-120679843D01*
X137648533Y-120681247D01*
X137593762Y-120685412D01*
X137539786Y-120692270D01*
X137486675Y-120701755D01*
X137434495Y-120713798D01*
X137383316Y-120728331D01*
X137333203Y-120745287D01*
X137284226Y-120764598D01*
X137236451Y-120786196D01*
X137189948Y-120810014D01*
X137144782Y-120835983D01*
X137101023Y-120864036D01*
X137058738Y-120894105D01*
X137017995Y-120926123D01*
X136978861Y-120960021D01*
X136941405Y-120995732D01*
X136905693Y-121033188D01*
X136871795Y-121072321D01*
X136839777Y-121113064D01*
X136809707Y-121155348D01*
X136781654Y-121199107D01*
X136755684Y-121244272D01*
X136731866Y-121290775D01*
X136710268Y-121338549D01*
X136690956Y-121387526D01*
X136674000Y-121437638D01*
X136659466Y-121488818D01*
X136647423Y-121540997D01*
X136637939Y-121594108D01*
X136631080Y-121648084D01*
X136626915Y-121702855D01*
X136625511Y-121758356D01*
X136625511Y-125301316D01*
X136626915Y-125356816D01*
X136631080Y-125411587D01*
X136637939Y-125465562D01*
X136647423Y-125518673D01*
X136659466Y-125570851D01*
X136674000Y-125622031D01*
X136690956Y-125672143D01*
X136710268Y-125721119D01*
X136731866Y-125768893D01*
X136755684Y-125815396D01*
X136781654Y-125860561D01*
X136809707Y-125904319D01*
X136839777Y-125946604D01*
X136871795Y-125987346D01*
X136905693Y-126026479D01*
X136941405Y-126063935D01*
X136978861Y-126099646D01*
X137017995Y-126133544D01*
X137058738Y-126165562D01*
X137101023Y-126195631D01*
X137144782Y-126223684D01*
X137189948Y-126249653D01*
X137236451Y-126273470D01*
X137284226Y-126295068D01*
X137333203Y-126314379D01*
X137383316Y-126331335D01*
X137434495Y-126345869D01*
X137486675Y-126357911D01*
X137539786Y-126367396D01*
X137593762Y-126374255D01*
X137648533Y-126378420D01*
X137704034Y-126379823D01*
X137957355Y-126379823D01*
X136356463Y-128679858D01*
X123376405Y-128679858D01*
X125590060Y-126379833D01*
X126247007Y-126379833D01*
X126302507Y-126378430D01*
X126357279Y-126374265D01*
X126411254Y-126367406D01*
X126464366Y-126357922D01*
X126516545Y-126345879D01*
X126567725Y-126331346D01*
X126617837Y-126314390D01*
X126666815Y-126295079D01*
X126714589Y-126273481D01*
X126761093Y-126249664D01*
X126806258Y-126223695D01*
X126850017Y-126195642D01*
X126892302Y-126165573D01*
X126933046Y-126133556D01*
X126972179Y-126099658D01*
X127009636Y-126063947D01*
X127045347Y-126026492D01*
X127079246Y-125987359D01*
X127111264Y-125946616D01*
X127141333Y-125904332D01*
X127169387Y-125860573D01*
X127195357Y-125815409D01*
X127219174Y-125768905D01*
X127240773Y-125721132D01*
X127260084Y-125672155D01*
X127277041Y-125622043D01*
X127291574Y-125570863D01*
X127303617Y-125518684D01*
X127313102Y-125465573D01*
X127319961Y-125411598D01*
X127324126Y-125356826D01*
X127325529Y-125301326D01*
X127325529Y-124576660D01*
X128625512Y-123225957D01*
X128625512Y-125301316D01*
X128626916Y-125356816D01*
X128631081Y-125411587D01*
X128637939Y-125465562D01*
X128647424Y-125518673D01*
X128659467Y-125570851D01*
X128674000Y-125622031D01*
X128690956Y-125672143D01*
X128710267Y-125721119D01*
X128731865Y-125768893D01*
X128755683Y-125815396D01*
X128781652Y-125860561D01*
X128809705Y-125904319D01*
X128839774Y-125946604D01*
X128871792Y-125987346D01*
X128905690Y-126026479D01*
X128941401Y-126063935D01*
X128978857Y-126099646D01*
X129017990Y-126133544D01*
X129058733Y-126165562D01*
X129101017Y-126195631D01*
X129144776Y-126223684D01*
X129189941Y-126249653D01*
X129236444Y-126273470D01*
X129284218Y-126295068D01*
X129333195Y-126314379D01*
X129383307Y-126331335D01*
X129434487Y-126345869D01*
X129486666Y-126357911D01*
X129539777Y-126367396D01*
X129593753Y-126374255D01*
X129648524Y-126378420D01*
X129704025Y-126379823D01*
X134247021Y-126379823D01*
X134302520Y-126378420D01*
X134357290Y-126374255D01*
X134411265Y-126367396D01*
X134464375Y-126357911D01*
X134516553Y-126345869D01*
X134567732Y-126331335D01*
X134617844Y-126314379D01*
X134666820Y-126295068D01*
X134714594Y-126273470D01*
X134761097Y-126249653D01*
X134806261Y-126223684D01*
X134850020Y-126195631D01*
X134892304Y-126165562D01*
X134933047Y-126133544D01*
X134972181Y-126099646D01*
X135009637Y-126063935D01*
X135045348Y-126026479D01*
X135079246Y-125987346D01*
X135111264Y-125946604D01*
X135141333Y-125904319D01*
X135169386Y-125860561D01*
X135195356Y-125815396D01*
X135219174Y-125768893D01*
X135240772Y-125721119D01*
X135260083Y-125672143D01*
X135277040Y-125622031D01*
X135291573Y-125570851D01*
X135303616Y-125518673D01*
X135313101Y-125465562D01*
X135319960Y-125411587D01*
X135324125Y-125356816D01*
X135325528Y-125301316D01*
X135325528Y-121758356D01*
X135324125Y-121702855D01*
X135319960Y-121648084D01*
X135313101Y-121594108D01*
X135303616Y-121540997D01*
X135291573Y-121488818D01*
X135277040Y-121437638D01*
X135260083Y-121387526D01*
X135240772Y-121338549D01*
X135219174Y-121290775D01*
X135195356Y-121244272D01*
X135169386Y-121199107D01*
X135141333Y-121155348D01*
X135111264Y-121113064D01*
X135079246Y-121072321D01*
X135045348Y-121033188D01*
X135009637Y-120995732D01*
X134972181Y-120960021D01*
X134933047Y-120926123D01*
X134892304Y-120894105D01*
X134850020Y-120864036D01*
X134806261Y-120835983D01*
X134761097Y-120810014D01*
X134714594Y-120786196D01*
X134666820Y-120764598D01*
X134617844Y-120745287D01*
X134567732Y-120728331D01*
X134516553Y-120713798D01*
X134464375Y-120701755D01*
X134411265Y-120692270D01*
X134357290Y-120685412D01*
X134302520Y-120681247D01*
X134247021Y-120679843D01*
X131076009Y-120679843D01*
X133289669Y-118379814D01*
X134247021Y-118379814D01*
X134302521Y-118378410D01*
X134357292Y-118374246D01*
X134411267Y-118367387D01*
X134464378Y-118357902D01*
X134516557Y-118345860D01*
X134567736Y-118331326D01*
X134617848Y-118314370D01*
X134666824Y-118295059D01*
X134714598Y-118273461D01*
X134761101Y-118249644D01*
X134806266Y-118223674D01*
X134850024Y-118195621D01*
X134892309Y-118165552D01*
X134933051Y-118133535D01*
X134972185Y-118099637D01*
X135009640Y-118063926D01*
X135045351Y-118026470D01*
X135079249Y-117987336D01*
X135111267Y-117946593D01*
X135141336Y-117904309D01*
X135169389Y-117860550D01*
X135195358Y-117815385D01*
X135219175Y-117768882D01*
X135240774Y-117721108D01*
X135260084Y-117672131D01*
X135277040Y-117622019D01*
X135291574Y-117570839D01*
X135303617Y-117518660D01*
X135313101Y-117465549D01*
X135319960Y-117411574D01*
X135324125Y-117356802D01*
X135325528Y-117301302D01*
X135325528Y-116264522D01*
X136625511Y-114913819D01*
X136625511Y-117301327D01*
X136626915Y-117356827D01*
X136631080Y-117411598D01*
X136637939Y-117465573D01*
X136647423Y-117518684D01*
X136659466Y-117570863D01*
X136674000Y-117622042D01*
X136690956Y-117672154D01*
X136710268Y-117721131D01*
X136731866Y-117768904D01*
X136755684Y-117815407D01*
X136781654Y-117860572D01*
X136809707Y-117904330D01*
X136839777Y-117946615D01*
X136871795Y-117987358D01*
X136905693Y-118026491D01*
X136941405Y-118063947D01*
X136978861Y-118099657D01*
X137017995Y-118133555D01*
X137058738Y-118165573D01*
X137101023Y-118195642D01*
X137144782Y-118223695D01*
X137189948Y-118249664D01*
X137236451Y-118273482D01*
X137284226Y-118295080D01*
X137333203Y-118314391D01*
X137383316Y-118331347D01*
X137434495Y-118345880D01*
X137486675Y-118357923D01*
X137539786Y-118367407D01*
X137593762Y-118374266D01*
X137648533Y-118378431D01*
X137704034Y-118379834D01*
X142247020Y-118379834D01*
X142302520Y-118378431D01*
X142357292Y-118374266D01*
X142411267Y-118367407D01*
X142464378Y-118357923D01*
X142516557Y-118345880D01*
X142567737Y-118331347D01*
X142617849Y-118314391D01*
X142666825Y-118295080D01*
X142714599Y-118273482D01*
X142761102Y-118249664D01*
X142806267Y-118223695D01*
X142850025Y-118195642D01*
X142892310Y-118165573D01*
X142933052Y-118133555D01*
X142972185Y-118099657D01*
X143009641Y-118063947D01*
X143045352Y-118026491D01*
X143079250Y-117987358D01*
X143111267Y-117946615D01*
X143141336Y-117904330D01*
X143169389Y-117860572D01*
X143195358Y-117815407D01*
X143219175Y-117768904D01*
X143240773Y-117721131D01*
X143260084Y-117672154D01*
X143277040Y-117622042D01*
X143291573Y-117570863D01*
X143303616Y-117518684D01*
X143313100Y-117465573D01*
X143319959Y-117411598D01*
X143324124Y-117356827D01*
X143325527Y-117301327D01*
X143325527Y-113758367D01*
X143324124Y-113702867D01*
X143319959Y-113648095D01*
X143313100Y-113594119D01*
X143303616Y-113541008D01*
X143291573Y-113488829D01*
X143277040Y-113437649D01*
X143260084Y-113387536D01*
X143240773Y-113338559D01*
X143219175Y-113290785D01*
X143195358Y-113244281D01*
X143169389Y-113199116D01*
X143141336Y-113155356D01*
X143111267Y-113113071D01*
X143079250Y-113072328D01*
X143045352Y-113033194D01*
X143009641Y-112995738D01*
X142972185Y-112960026D01*
X142933052Y-112926128D01*
X142892310Y-112894110D01*
X142850025Y-112864040D01*
X142806267Y-112835987D01*
X142761102Y-112810017D01*
X142714599Y-112786199D01*
X142666825Y-112764601D01*
X142617849Y-112745289D01*
X142567737Y-112728333D01*
X142516557Y-112713800D01*
X142464378Y-112701756D01*
X142411267Y-112692272D01*
X142357292Y-112685413D01*
X142302520Y-112681248D01*
X142247020Y-112679845D01*
X138775598Y-112679845D01*
X140989237Y-110379845D01*
X142247020Y-110379845D01*
X142302520Y-110378442D01*
X142357292Y-110374277D01*
X142411267Y-110367418D01*
X142464378Y-110357934D01*
X142516557Y-110345890D01*
X142567737Y-110331357D01*
X142617849Y-110314401D01*
X142666825Y-110295089D01*
X142714599Y-110273491D01*
X142761102Y-110249673D01*
X142806267Y-110223703D01*
X142850025Y-110195650D01*
X142892310Y-110165580D01*
X142933052Y-110133562D01*
X142972185Y-110099664D01*
X143009641Y-110063952D01*
X143045352Y-110026496D01*
X143079250Y-109987362D01*
X143111267Y-109946619D01*
X143141336Y-109904333D01*
X143169389Y-109860574D01*
X143195358Y-109815409D01*
X143219175Y-109768905D01*
X143240773Y-109721131D01*
X143260084Y-109672154D01*
X143277040Y-109622041D01*
X143291573Y-109570861D01*
X143303616Y-109518682D01*
X143313100Y-109465571D01*
X143319959Y-109411595D01*
X143324124Y-109356823D01*
X143325527Y-109301323D01*
X143325527Y-107952400D01*
X144625526Y-106601681D01*
X144625526Y-109301323D01*
G37*
G36*
X82500000Y-86280846D02*
G01*
X82565080Y-86285795D01*
X82629214Y-86293945D01*
X82692321Y-86305214D01*
X82754321Y-86319524D01*
X82815133Y-86336793D01*
X82874677Y-86356940D01*
X82932872Y-86379886D01*
X82989637Y-86405549D01*
X83044893Y-86433849D01*
X83098559Y-86464706D01*
X83150553Y-86498039D01*
X83200796Y-86533768D01*
X83249207Y-86571812D01*
X83295706Y-86612090D01*
X83340212Y-86654522D01*
X83382644Y-86699028D01*
X83422922Y-86745526D01*
X83460966Y-86793937D01*
X83496694Y-86844181D01*
X83530027Y-86896175D01*
X83560884Y-86949840D01*
X83589185Y-87005096D01*
X83614848Y-87061862D01*
X83637793Y-87120057D01*
X83657941Y-87179600D01*
X83675209Y-87240412D01*
X83689519Y-87302412D01*
X83700789Y-87365519D01*
X83708938Y-87429653D01*
X83713887Y-87494733D01*
X83715554Y-87560679D01*
X83713887Y-87626625D01*
X83708938Y-87691705D01*
X83700789Y-87755839D01*
X83689519Y-87818946D01*
X83675209Y-87880946D01*
X83657941Y-87941758D01*
X83637793Y-88001302D01*
X83614848Y-88059497D01*
X83589185Y-88116263D01*
X83560884Y-88171519D01*
X83530027Y-88225184D01*
X83496694Y-88277179D01*
X83460966Y-88327422D01*
X83422922Y-88375833D01*
X83382644Y-88422332D01*
X83340212Y-88466838D01*
X83295706Y-88509270D01*
X83249207Y-88549548D01*
X83200796Y-88587592D01*
X83150553Y-88623320D01*
X83098559Y-88656654D01*
X83044893Y-88687511D01*
X82989637Y-88715811D01*
X82932872Y-88741474D01*
X82874677Y-88764420D01*
X82815133Y-88784567D01*
X82754321Y-88801836D01*
X82692321Y-88816145D01*
X82629214Y-88827415D01*
X82565080Y-88835565D01*
X82500000Y-88840514D01*
X82434054Y-88842181D01*
X82368108Y-88840514D01*
X82303028Y-88835565D01*
X82238894Y-88827415D01*
X82175787Y-88816145D01*
X82113787Y-88801836D01*
X82052975Y-88784567D01*
X81993431Y-88764420D01*
X81935236Y-88741474D01*
X81878470Y-88715811D01*
X81823214Y-88687511D01*
X81769549Y-88656654D01*
X81717555Y-88623320D01*
X81667311Y-88587592D01*
X81618900Y-88549548D01*
X81572402Y-88509270D01*
X81527896Y-88466838D01*
X81485464Y-88422332D01*
X81445185Y-88375833D01*
X81407142Y-88327422D01*
X81371413Y-88277179D01*
X81338080Y-88225184D01*
X81307223Y-88171519D01*
X81278923Y-88116263D01*
X81253260Y-88059497D01*
X81230314Y-88001302D01*
X81210167Y-87941758D01*
X81192898Y-87880946D01*
X81178588Y-87818946D01*
X81167319Y-87755839D01*
X81159169Y-87691705D01*
X81154220Y-87626625D01*
X81152553Y-87560679D01*
X81154220Y-87494733D01*
X81159169Y-87429653D01*
X81167319Y-87365519D01*
X81178588Y-87302412D01*
X81192898Y-87240412D01*
X81210167Y-87179600D01*
X81230314Y-87120057D01*
X81253260Y-87061862D01*
X81278923Y-87005096D01*
X81307223Y-86949840D01*
X81338080Y-86896175D01*
X81371413Y-86844181D01*
X81407142Y-86793937D01*
X81445185Y-86745526D01*
X81485464Y-86699028D01*
X81527896Y-86654522D01*
X81572402Y-86612090D01*
X81618900Y-86571812D01*
X81667311Y-86533768D01*
X81717555Y-86498039D01*
X81769549Y-86464706D01*
X81823214Y-86433849D01*
X81878470Y-86405549D01*
X81935236Y-86379886D01*
X81993431Y-86356940D01*
X82052975Y-86336793D01*
X82113787Y-86319524D01*
X82175787Y-86305214D01*
X82238894Y-86293945D01*
X82303028Y-86285795D01*
X82368108Y-86280846D01*
X82434054Y-86279179D01*
X82500000Y-86280846D01*
G37*
G36*
X82500000Y-81953744D02*
G01*
X82565080Y-81958693D01*
X82629214Y-81966842D01*
X82692321Y-81978112D01*
X82754321Y-81992421D01*
X82815133Y-82009690D01*
X82874677Y-82029837D01*
X82932872Y-82052783D01*
X82989637Y-82078446D01*
X83044893Y-82106746D01*
X83098559Y-82137603D01*
X83150553Y-82170936D01*
X83200796Y-82206664D01*
X83249207Y-82244708D01*
X83295706Y-82284986D01*
X83340212Y-82327418D01*
X83382644Y-82371923D01*
X83422922Y-82418422D01*
X83460966Y-82466833D01*
X83496694Y-82517076D01*
X83530027Y-82569070D01*
X83560884Y-82622736D01*
X83589185Y-82677992D01*
X83614848Y-82734757D01*
X83637793Y-82792952D01*
X83657941Y-82852496D01*
X83675209Y-82913308D01*
X83689519Y-82975308D01*
X83700789Y-83038416D01*
X83708938Y-83102550D01*
X83713887Y-83167630D01*
X83715554Y-83233576D01*
X83713887Y-83299522D01*
X83708938Y-83364602D01*
X83700789Y-83428736D01*
X83689519Y-83491844D01*
X83675209Y-83553843D01*
X83657941Y-83614656D01*
X83637793Y-83674199D01*
X83614848Y-83732394D01*
X83589185Y-83789160D01*
X83560884Y-83844416D01*
X83530027Y-83898081D01*
X83496694Y-83950076D01*
X83460966Y-84000319D01*
X83422922Y-84048730D01*
X83382644Y-84095228D01*
X83340212Y-84139734D01*
X83295706Y-84182166D01*
X83249207Y-84222444D01*
X83200796Y-84260488D01*
X83150553Y-84296216D01*
X83098559Y-84329549D01*
X83044893Y-84360406D01*
X82989637Y-84388707D01*
X82932872Y-84414370D01*
X82874677Y-84437315D01*
X82815133Y-84457463D01*
X82754321Y-84474731D01*
X82692321Y-84489041D01*
X82629214Y-84500310D01*
X82565080Y-84508460D01*
X82500000Y-84513409D01*
X82434054Y-84515076D01*
X82368108Y-84513409D01*
X82303028Y-84508460D01*
X82238894Y-84500310D01*
X82175787Y-84489041D01*
X82113787Y-84474731D01*
X82052975Y-84457463D01*
X81993431Y-84437315D01*
X81935236Y-84414370D01*
X81878470Y-84388707D01*
X81823214Y-84360406D01*
X81769549Y-84329549D01*
X81717555Y-84296216D01*
X81667311Y-84260488D01*
X81618900Y-84222444D01*
X81572402Y-84182166D01*
X81527896Y-84139734D01*
X81485464Y-84095228D01*
X81445185Y-84048730D01*
X81407142Y-84000319D01*
X81371413Y-83950076D01*
X81338080Y-83898081D01*
X81307223Y-83844416D01*
X81278923Y-83789160D01*
X81253260Y-83732394D01*
X81230314Y-83674199D01*
X81210167Y-83614656D01*
X81192898Y-83553843D01*
X81178588Y-83491844D01*
X81167319Y-83428736D01*
X81159169Y-83364602D01*
X81154220Y-83299522D01*
X81152553Y-83233576D01*
X81154220Y-83167630D01*
X81159169Y-83102550D01*
X81167319Y-83038416D01*
X81178588Y-82975308D01*
X81192898Y-82913308D01*
X81210167Y-82852496D01*
X81230314Y-82792952D01*
X81253260Y-82734757D01*
X81278923Y-82677992D01*
X81307223Y-82622736D01*
X81338080Y-82569070D01*
X81371413Y-82517076D01*
X81407142Y-82466833D01*
X81445185Y-82418422D01*
X81485464Y-82371923D01*
X81527896Y-82327418D01*
X81572402Y-82284986D01*
X81618900Y-82244708D01*
X81667311Y-82206664D01*
X81717555Y-82170936D01*
X81769549Y-82137603D01*
X81823214Y-82106746D01*
X81878470Y-82078446D01*
X81935236Y-82052783D01*
X81993431Y-82029837D01*
X82052975Y-82009690D01*
X82113787Y-81992421D01*
X82175787Y-81978112D01*
X82238894Y-81966842D01*
X82303028Y-81958693D01*
X82368108Y-81953744D01*
X82434054Y-81952076D01*
X82500000Y-81953744D01*
G37*
G36*
X169415479Y-65702870D02*
G01*
X169449648Y-65704772D01*
X169482921Y-65707941D01*
X169515298Y-65712376D01*
X169546779Y-65718078D01*
X169577363Y-65725045D01*
X169607049Y-65733278D01*
X169635838Y-65742775D01*
X169663728Y-65753536D01*
X169690719Y-65765561D01*
X169716811Y-65778849D01*
X169742003Y-65793399D01*
X169766295Y-65809212D01*
X169789686Y-65826286D01*
X169812176Y-65844621D01*
X169833765Y-65864217D01*
X169854182Y-65884890D01*
X169873290Y-65906456D01*
X169891086Y-65928914D01*
X169907571Y-65952264D01*
X169922742Y-65976504D01*
X169936599Y-66001632D01*
X169949141Y-66027650D01*
X169960367Y-66054554D01*
X169970276Y-66082344D01*
X169978867Y-66111019D01*
X169986139Y-66140579D01*
X169992091Y-66171021D01*
X169996722Y-66202346D01*
X170000031Y-66234551D01*
X170002017Y-66267636D01*
X170002680Y-66301600D01*
X169721379Y-66301600D01*
X169721025Y-66280960D01*
X169719963Y-66260920D01*
X169718193Y-66241481D01*
X169715714Y-66222642D01*
X169712526Y-66204403D01*
X169708628Y-66186763D01*
X169704019Y-66169721D01*
X169698700Y-66153277D01*
X169692670Y-66137431D01*
X169685927Y-66122181D01*
X169678472Y-66107529D01*
X169670305Y-66093472D01*
X169661424Y-66080010D01*
X169651830Y-66067144D01*
X169641521Y-66054872D01*
X169630497Y-66043194D01*
X169618853Y-66032171D01*
X169606680Y-66021862D01*
X169593978Y-66012268D01*
X169580745Y-66003388D01*
X169566981Y-65995221D01*
X169552686Y-65987767D01*
X169537859Y-65981025D01*
X169522501Y-65974995D01*
X169506609Y-65969676D01*
X169490185Y-65965068D01*
X169473227Y-65961170D01*
X169455734Y-65957983D01*
X169437708Y-65955504D01*
X169419146Y-65953734D01*
X169400049Y-65952673D01*
X169380416Y-65952319D01*
X169360466Y-65952673D01*
X169341070Y-65953734D01*
X169322226Y-65955504D01*
X169303935Y-65957983D01*
X169286196Y-65961170D01*
X169269011Y-65965068D01*
X169252378Y-65969676D01*
X169236298Y-65974995D01*
X169220770Y-65981025D01*
X169205796Y-65987767D01*
X169191374Y-65995221D01*
X169177505Y-66003388D01*
X169164188Y-66012268D01*
X169151425Y-66021862D01*
X169139215Y-66032171D01*
X169127557Y-66043194D01*
X169116534Y-66054872D01*
X169106225Y-66067143D01*
X169096631Y-66080010D01*
X169087751Y-66093471D01*
X169079584Y-66107528D01*
X169072130Y-66122180D01*
X169065389Y-66137430D01*
X169059359Y-66153276D01*
X169054041Y-66169720D01*
X169049433Y-66186762D01*
X169045536Y-66204402D01*
X169042349Y-66222642D01*
X169039870Y-66241481D01*
X169038101Y-66260920D01*
X169037040Y-66280960D01*
X169036686Y-66301600D01*
X169036686Y-67230823D01*
X169037040Y-67251841D01*
X169038101Y-67272234D01*
X169039870Y-67292003D01*
X169042349Y-67311146D01*
X169045536Y-67329666D01*
X169049433Y-67347562D01*
X169054041Y-67364836D01*
X169059359Y-67381487D01*
X169065389Y-67397516D01*
X169072130Y-67412924D01*
X169079584Y-67427711D01*
X169087751Y-67441878D01*
X169096631Y-67455425D01*
X169106225Y-67468352D01*
X169116534Y-67480661D01*
X169127557Y-67492351D01*
X169139215Y-67503375D01*
X169151425Y-67513683D01*
X169164188Y-67523277D01*
X169177505Y-67532158D01*
X169191374Y-67540325D01*
X169205796Y-67547779D01*
X169220770Y-67554521D01*
X169236298Y-67560551D01*
X169252378Y-67565870D01*
X169269011Y-67570478D01*
X169286196Y-67574376D01*
X169303935Y-67577564D01*
X169322226Y-67580042D01*
X169341070Y-67581812D01*
X169360466Y-67582874D01*
X169380416Y-67583227D01*
X169400049Y-67582874D01*
X169419146Y-67581812D01*
X169437708Y-67580042D01*
X169455734Y-67577564D01*
X169473227Y-67574376D01*
X169490185Y-67570478D01*
X169506609Y-67565870D01*
X169522501Y-67560551D01*
X169537859Y-67554521D01*
X169552686Y-67547779D01*
X169566981Y-67540325D01*
X169580745Y-67532158D01*
X169593978Y-67523277D01*
X169606680Y-67513683D01*
X169618853Y-67503375D01*
X169630497Y-67492351D01*
X169641521Y-67480661D01*
X169651830Y-67468352D01*
X169661424Y-67455425D01*
X169670305Y-67441878D01*
X169678472Y-67427711D01*
X169685927Y-67412924D01*
X169692670Y-67397516D01*
X169698700Y-67381487D01*
X169704019Y-67364836D01*
X169708628Y-67347562D01*
X169712526Y-67329666D01*
X169715714Y-67311146D01*
X169718193Y-67292003D01*
X169719963Y-67272234D01*
X169721025Y-67251841D01*
X169721379Y-67230823D01*
X170002680Y-67230823D01*
X170002017Y-67265223D01*
X170000031Y-67298704D01*
X169996722Y-67331268D01*
X169992091Y-67362915D01*
X169986139Y-67393645D01*
X169978867Y-67423459D01*
X169970276Y-67452358D01*
X169960367Y-67480341D01*
X169949141Y-67507410D01*
X169936599Y-67533565D01*
X169922742Y-67558806D01*
X169907571Y-67583134D01*
X169891086Y-67606550D01*
X169873290Y-67629054D01*
X169854182Y-67650646D01*
X169833765Y-67671328D01*
X169812176Y-67690924D01*
X169789686Y-67709259D01*
X169766295Y-67726333D01*
X169742003Y-67742145D01*
X169716811Y-67756696D01*
X169690719Y-67769984D01*
X169663728Y-67782009D01*
X169635838Y-67792770D01*
X169607049Y-67802267D01*
X169577363Y-67810500D01*
X169546779Y-67817467D01*
X169515298Y-67823169D01*
X169482921Y-67827604D01*
X169449648Y-67830773D01*
X169415479Y-67832675D01*
X169380416Y-67833309D01*
X169380416Y-67833306D01*
X169344981Y-67832680D01*
X169310472Y-67830802D01*
X169276888Y-67827671D01*
X169244230Y-67823286D01*
X169212496Y-67817647D01*
X169181686Y-67810754D01*
X169151800Y-67802605D01*
X169122837Y-67793202D01*
X169094797Y-67782542D01*
X169067679Y-67770626D01*
X169041482Y-67757452D01*
X169016207Y-67743022D01*
X168991853Y-67727333D01*
X168968419Y-67710385D01*
X168945905Y-67692179D01*
X168924310Y-67672713D01*
X168903835Y-67652207D01*
X168884685Y-67630750D01*
X168866860Y-67608343D01*
X168850358Y-67584987D01*
X168835180Y-67560681D01*
X168821324Y-67535427D01*
X168808790Y-67509224D01*
X168797578Y-67482074D01*
X168787687Y-67453977D01*
X168779116Y-67424933D01*
X168771866Y-67394943D01*
X168765935Y-67364008D01*
X168761323Y-67332128D01*
X168758029Y-67299303D01*
X168756053Y-67265534D01*
X168755395Y-67230822D01*
X168755395Y-66301599D01*
X168756053Y-66267265D01*
X168758029Y-66233850D01*
X168761323Y-66201354D01*
X168765935Y-66169779D01*
X168771866Y-66139124D01*
X168779116Y-66109390D01*
X168787687Y-66080578D01*
X168797578Y-66052689D01*
X168808790Y-66025721D01*
X168821324Y-65999677D01*
X168835180Y-65974557D01*
X168850358Y-65950361D01*
X168866860Y-65927090D01*
X168884685Y-65904743D01*
X168903835Y-65883323D01*
X168924310Y-65862829D01*
X168945906Y-65843363D01*
X168968422Y-65825156D01*
X168991857Y-65808209D01*
X169016212Y-65792520D01*
X169041487Y-65778090D01*
X169067683Y-65764917D01*
X169094801Y-65753000D01*
X169122841Y-65742341D01*
X169151803Y-65732937D01*
X169181689Y-65724789D01*
X169212498Y-65717896D01*
X169244231Y-65712257D01*
X169276889Y-65707872D01*
X169310472Y-65704741D01*
X169344981Y-65702862D01*
X169380416Y-65702236D01*
X169415479Y-65702870D01*
G37*
G36*
X182087674Y-93626393D02*
G01*
X182152755Y-93631342D01*
X182216889Y-93639491D01*
X182279996Y-93650761D01*
X182341996Y-93665070D01*
X182402808Y-93682339D01*
X182462352Y-93702486D01*
X182520547Y-93725432D01*
X182577313Y-93751095D01*
X182632569Y-93779395D01*
X182686235Y-93810252D01*
X182738229Y-93843585D01*
X182788473Y-93879314D01*
X182836884Y-93917357D01*
X182883383Y-93957635D01*
X182927889Y-94000068D01*
X182970321Y-94044573D01*
X183010599Y-94091072D01*
X183048643Y-94139483D01*
X183084372Y-94189726D01*
X183117705Y-94241720D01*
X183148562Y-94295386D01*
X183176863Y-94350642D01*
X183202526Y-94407407D01*
X183225472Y-94465602D01*
X183245619Y-94525146D01*
X183262888Y-94585958D01*
X183277198Y-94647958D01*
X183288468Y-94711065D01*
X183296617Y-94775199D01*
X183301566Y-94840279D01*
X183303234Y-94906225D01*
X183301566Y-94972171D01*
X183296617Y-95037250D01*
X183288468Y-95101384D01*
X183277198Y-95164491D01*
X183262888Y-95226491D01*
X183245619Y-95287303D01*
X183225472Y-95346846D01*
X183202526Y-95405041D01*
X183176863Y-95461807D01*
X183148562Y-95517062D01*
X183117705Y-95570728D01*
X183084372Y-95622722D01*
X183048643Y-95672965D01*
X183010599Y-95721376D01*
X182970321Y-95767875D01*
X182927889Y-95812381D01*
X182883383Y-95854813D01*
X182836884Y-95895091D01*
X182788473Y-95933135D01*
X182738229Y-95968864D01*
X182686235Y-96002197D01*
X182632569Y-96033054D01*
X182577313Y-96061355D01*
X182520547Y-96087018D01*
X182462352Y-96109964D01*
X182402808Y-96130111D01*
X182341996Y-96147380D01*
X182279996Y-96161689D01*
X182216889Y-96172959D01*
X182152755Y-96181109D01*
X182087674Y-96186058D01*
X182021729Y-96187725D01*
X181955783Y-96186058D01*
X181890702Y-96181109D01*
X181826568Y-96172959D01*
X181763461Y-96161689D01*
X181701461Y-96147380D01*
X181640649Y-96130111D01*
X181581105Y-96109964D01*
X181522910Y-96087018D01*
X181466144Y-96061355D01*
X181410888Y-96033054D01*
X181357222Y-96002197D01*
X181305228Y-95968864D01*
X181254984Y-95933135D01*
X181206573Y-95895091D01*
X181160074Y-95854813D01*
X181115568Y-95812381D01*
X181073136Y-95767875D01*
X181032858Y-95721376D01*
X180994814Y-95672965D01*
X180959085Y-95622722D01*
X180925752Y-95570728D01*
X180894895Y-95517062D01*
X180866594Y-95461807D01*
X180840931Y-95405041D01*
X180817985Y-95346846D01*
X180797838Y-95287303D01*
X180780569Y-95226491D01*
X180766259Y-95164491D01*
X180754989Y-95101384D01*
X180746840Y-95037250D01*
X180741891Y-94972171D01*
X180740224Y-94906225D01*
X180741891Y-94840279D01*
X180746840Y-94775199D01*
X180754989Y-94711065D01*
X180766259Y-94647958D01*
X180780569Y-94585958D01*
X180797838Y-94525146D01*
X180817985Y-94465602D01*
X180840931Y-94407407D01*
X180866594Y-94350642D01*
X180894895Y-94295386D01*
X180925752Y-94241720D01*
X180959085Y-94189726D01*
X180994814Y-94139483D01*
X181032858Y-94091072D01*
X181073136Y-94044573D01*
X181115568Y-94000068D01*
X181160074Y-93957635D01*
X181206573Y-93917357D01*
X181254984Y-93879314D01*
X181305228Y-93843585D01*
X181357222Y-93810252D01*
X181410888Y-93779395D01*
X181466144Y-93751095D01*
X181522910Y-93725432D01*
X181581105Y-93702486D01*
X181640649Y-93682339D01*
X181701461Y-93665070D01*
X181763461Y-93650761D01*
X181826568Y-93639491D01*
X181890702Y-93631342D01*
X181955783Y-93626393D01*
X182021729Y-93624725D01*
X182087674Y-93626393D01*
G37*
G36*
X167717323Y-68723102D02*
G01*
X167752502Y-68725053D01*
X167786722Y-68728303D01*
X167819984Y-68732852D01*
X167852288Y-68738700D01*
X167883635Y-68745846D01*
X167914026Y-68754290D01*
X167943460Y-68764031D01*
X167971940Y-68775068D01*
X167999464Y-68787402D01*
X168026034Y-68801031D01*
X168051650Y-68815956D01*
X168076313Y-68832175D01*
X168100022Y-68849688D01*
X168122780Y-68868495D01*
X168144585Y-68888595D01*
X168165190Y-68909853D01*
X168184468Y-68932005D01*
X168202421Y-68955052D01*
X168219047Y-68978993D01*
X168234345Y-69003828D01*
X168248316Y-69029558D01*
X168260959Y-69056182D01*
X168272274Y-69083700D01*
X168282259Y-69112112D01*
X168290914Y-69141418D01*
X168298239Y-69171619D01*
X168304233Y-69202714D01*
X168308897Y-69234704D01*
X168312228Y-69267587D01*
X168314227Y-69301365D01*
X168314894Y-69336037D01*
X168314894Y-70239592D01*
X168314589Y-70262554D01*
X168313675Y-70285135D01*
X168312150Y-70307337D01*
X168310017Y-70329162D01*
X168307273Y-70350610D01*
X168303920Y-70371685D01*
X168299957Y-70392386D01*
X168295384Y-70412716D01*
X168290202Y-70432676D01*
X168284410Y-70452268D01*
X168278008Y-70471493D01*
X168270996Y-70490353D01*
X168263374Y-70508848D01*
X168255143Y-70526982D01*
X168246301Y-70544755D01*
X168236850Y-70562168D01*
X168226842Y-70579163D01*
X168216331Y-70595678D01*
X168205317Y-70611715D01*
X168193801Y-70627273D01*
X168181783Y-70642354D01*
X168169263Y-70656958D01*
X168156243Y-70671085D01*
X168142723Y-70684737D01*
X168128702Y-70697912D01*
X168114182Y-70710613D01*
X168099164Y-70722839D01*
X168083647Y-70734591D01*
X168067632Y-70745869D01*
X168051120Y-70756675D01*
X168034110Y-70767008D01*
X168016605Y-70776869D01*
X167998652Y-70786133D01*
X167980300Y-70794802D01*
X167961548Y-70802877D01*
X167942396Y-70810357D01*
X167922844Y-70817242D01*
X167902890Y-70823530D01*
X167882535Y-70829222D01*
X167861778Y-70834317D01*
X167840618Y-70838815D01*
X167819055Y-70842714D01*
X167797088Y-70846015D01*
X167774718Y-70848717D01*
X167751943Y-70850820D01*
X167728763Y-70852322D01*
X167705177Y-70853224D01*
X167681186Y-70853525D01*
X167645113Y-70852874D01*
X167609991Y-70850924D01*
X167575820Y-70847674D01*
X167542600Y-70843124D01*
X167510331Y-70837276D01*
X167479013Y-70830130D01*
X167448645Y-70821686D01*
X167419229Y-70811945D01*
X167390764Y-70800908D01*
X167363250Y-70788574D01*
X167336686Y-70774944D01*
X167311074Y-70760020D01*
X167286412Y-70743800D01*
X167262701Y-70726287D01*
X167239941Y-70707479D01*
X167218132Y-70687379D01*
X167197473Y-70666121D01*
X167178153Y-70643968D01*
X167160173Y-70620920D01*
X167143531Y-70596975D01*
X167128226Y-70572135D01*
X167114257Y-70546398D01*
X167101623Y-70519763D01*
X167090323Y-70492231D01*
X167080357Y-70463801D01*
X167071722Y-70434471D01*
X167064419Y-70404243D01*
X167058446Y-70373114D01*
X167053802Y-70341085D01*
X167050486Y-70308156D01*
X167048497Y-70274325D01*
X167047834Y-70239592D01*
X167317691Y-70239592D01*
X167318077Y-70259968D01*
X167319236Y-70279866D01*
X167321168Y-70299284D01*
X167323874Y-70318225D01*
X167327354Y-70336687D01*
X167331609Y-70354673D01*
X167336640Y-70372182D01*
X167342446Y-70389216D01*
X167349028Y-70405773D01*
X167356387Y-70421856D01*
X167364524Y-70437464D01*
X167373438Y-70452598D01*
X167383130Y-70467258D01*
X167393602Y-70481446D01*
X167404853Y-70495161D01*
X167416883Y-70508404D01*
X167429623Y-70520943D01*
X167442866Y-70532677D01*
X167456613Y-70543605D01*
X167470865Y-70553727D01*
X167485620Y-70563042D01*
X167500879Y-70571550D01*
X167516643Y-70579250D01*
X167532910Y-70586142D01*
X167549681Y-70592225D01*
X167566956Y-70597498D01*
X167584735Y-70601961D01*
X167603017Y-70605614D01*
X167621804Y-70608457D01*
X167641094Y-70610487D01*
X167660888Y-70611706D01*
X167681186Y-70612113D01*
X167701546Y-70611706D01*
X167721395Y-70610487D01*
X167740731Y-70608457D01*
X167759555Y-70605614D01*
X167777867Y-70601961D01*
X167795666Y-70597498D01*
X167812954Y-70592225D01*
X167829729Y-70586142D01*
X167845992Y-70579250D01*
X167861743Y-70571550D01*
X167876981Y-70563042D01*
X167891707Y-70553727D01*
X167905921Y-70543605D01*
X167919623Y-70532677D01*
X167932812Y-70520943D01*
X167945489Y-70508404D01*
X167957525Y-70495161D01*
X167968788Y-70481446D01*
X167979278Y-70467258D01*
X167988994Y-70452598D01*
X167997935Y-70437464D01*
X168006102Y-70421856D01*
X168013493Y-70405773D01*
X168020108Y-70389216D01*
X168025947Y-70372182D01*
X168031008Y-70354673D01*
X168035293Y-70336687D01*
X168038799Y-70318225D01*
X168041528Y-70299284D01*
X168043477Y-70279866D01*
X168044647Y-70259968D01*
X168045037Y-70239592D01*
X168045037Y-69336037D01*
X168044647Y-69315722D01*
X168043477Y-69295878D01*
X168041527Y-69276505D01*
X168038798Y-69257604D01*
X168035291Y-69239175D01*
X168031006Y-69221217D01*
X168025943Y-69203731D01*
X168020104Y-69186716D01*
X168013489Y-69170172D01*
X168006097Y-69154101D01*
X167997931Y-69138500D01*
X167988990Y-69123371D01*
X167979274Y-69108714D01*
X167968785Y-69094528D01*
X167957523Y-69080814D01*
X167945489Y-69067571D01*
X167932812Y-69055032D01*
X167919623Y-69043298D01*
X167905921Y-69032369D01*
X167891707Y-69022247D01*
X167876981Y-69012932D01*
X167861743Y-69004424D01*
X167845992Y-68996724D01*
X167829729Y-68989832D01*
X167812954Y-68983749D01*
X167795666Y-68978476D01*
X167777867Y-68974012D01*
X167759555Y-68970359D01*
X167740731Y-68967517D01*
X167721395Y-68965486D01*
X167701546Y-68964268D01*
X167681186Y-68963861D01*
X167660888Y-68964268D01*
X167641094Y-68965486D01*
X167621804Y-68967517D01*
X167603017Y-68970359D01*
X167584735Y-68974012D01*
X167566956Y-68978476D01*
X167549681Y-68983749D01*
X167532910Y-68989832D01*
X167516643Y-68996724D01*
X167500879Y-69004424D01*
X167485620Y-69012932D01*
X167470865Y-69022247D01*
X167456613Y-69032369D01*
X167442866Y-69043298D01*
X167429623Y-69055032D01*
X167416883Y-69067571D01*
X167404851Y-69080814D01*
X167393599Y-69094528D01*
X167383127Y-69108714D01*
X167373434Y-69123371D01*
X167364519Y-69138500D01*
X167356383Y-69154101D01*
X167349024Y-69170172D01*
X167342442Y-69186716D01*
X167336636Y-69203731D01*
X167331607Y-69221217D01*
X167327352Y-69239175D01*
X167323873Y-69257604D01*
X167321167Y-69276505D01*
X167319236Y-69295878D01*
X167318077Y-69315722D01*
X167317691Y-69336037D01*
X167317691Y-70239592D01*
X167047834Y-70239592D01*
X167047834Y-69336037D01*
X167048497Y-69301365D01*
X167050486Y-69267588D01*
X167053802Y-69234704D01*
X167058446Y-69202715D01*
X167064419Y-69171620D01*
X167071722Y-69141419D01*
X167080357Y-69112112D01*
X167090323Y-69083700D01*
X167101623Y-69056182D01*
X167114257Y-69029558D01*
X167128226Y-69003829D01*
X167143531Y-68978993D01*
X167160173Y-68955052D01*
X167178153Y-68932005D01*
X167197473Y-68909853D01*
X167218132Y-68888595D01*
X167239941Y-68868495D01*
X167262701Y-68849688D01*
X167286411Y-68832175D01*
X167311072Y-68815956D01*
X167336684Y-68801031D01*
X167363247Y-68787402D01*
X167390761Y-68775068D01*
X167419225Y-68764031D01*
X167448641Y-68754290D01*
X167479008Y-68745846D01*
X167510326Y-68738700D01*
X167542595Y-68732852D01*
X167575816Y-68728303D01*
X167609988Y-68725053D01*
X167645111Y-68723102D01*
X167681186Y-68722452D01*
X167717323Y-68723102D01*
G37*
G36*
X162686851Y-68723090D02*
G01*
X162720969Y-68725004D01*
X162754160Y-68728195D01*
X162786422Y-68732663D01*
X162817756Y-68738406D01*
X162848160Y-68745426D01*
X162877634Y-68753722D01*
X162906178Y-68763295D01*
X162933791Y-68774144D01*
X162960473Y-68786269D01*
X162986222Y-68799670D01*
X163011040Y-68814348D01*
X163034924Y-68830302D01*
X163057875Y-68847533D01*
X163079891Y-68866040D01*
X163100973Y-68885823D01*
X163120887Y-68906784D01*
X163139523Y-68928825D01*
X163156881Y-68951946D01*
X163172959Y-68976144D01*
X163187757Y-69001420D01*
X163201274Y-69027772D01*
X163213508Y-69055200D01*
X163224459Y-69083701D01*
X163234125Y-69113276D01*
X163242506Y-69143923D01*
X163249600Y-69175640D01*
X163255407Y-69208428D01*
X163259925Y-69242285D01*
X163263154Y-69277210D01*
X163265092Y-69313202D01*
X163265738Y-69350260D01*
X163265738Y-70222596D01*
X163265092Y-70259719D01*
X163263154Y-70295777D01*
X163259925Y-70330770D01*
X163255407Y-70364698D01*
X163249600Y-70397561D01*
X163242506Y-70429359D01*
X163234125Y-70460093D01*
X163224459Y-70489761D01*
X163213508Y-70518364D01*
X163201274Y-70545903D01*
X163187757Y-70572376D01*
X163172959Y-70597785D01*
X163156881Y-70622129D01*
X163139523Y-70645407D01*
X163120887Y-70667621D01*
X163100973Y-70688770D01*
X163079891Y-70708740D01*
X163057875Y-70727418D01*
X163034924Y-70744804D01*
X163011040Y-70760899D01*
X162986222Y-70775704D01*
X162960473Y-70789218D01*
X162933791Y-70801444D01*
X162906178Y-70812380D01*
X162877634Y-70822027D01*
X162848160Y-70830387D01*
X162817756Y-70837459D01*
X162786422Y-70843244D01*
X162754160Y-70847742D01*
X162720969Y-70850955D01*
X162686851Y-70852882D01*
X162651805Y-70853525D01*
X162616762Y-70852882D01*
X162582653Y-70850955D01*
X162549478Y-70847742D01*
X162517236Y-70843244D01*
X162485928Y-70837459D01*
X162455552Y-70830387D01*
X162426108Y-70822027D01*
X162397596Y-70812380D01*
X162370015Y-70801444D01*
X162343364Y-70789218D01*
X162317644Y-70775704D01*
X162292852Y-70760899D01*
X162268990Y-70744804D01*
X162246057Y-70727418D01*
X162224051Y-70708740D01*
X162202973Y-70688770D01*
X162183002Y-70667622D01*
X162164324Y-70645408D01*
X162146938Y-70622130D01*
X162130843Y-70597786D01*
X162116038Y-70572377D01*
X162102523Y-70545904D01*
X162090298Y-70518366D01*
X162079362Y-70489762D01*
X162069715Y-70460094D01*
X162061356Y-70429361D01*
X162054284Y-70397563D01*
X162048499Y-70364700D01*
X162044000Y-70330772D01*
X162040788Y-70295779D01*
X162038861Y-70259721D01*
X162038711Y-70251039D01*
X162319519Y-70251039D01*
X162319857Y-70272058D01*
X162320870Y-70292451D01*
X162322558Y-70312219D01*
X162324923Y-70331363D01*
X162327964Y-70349883D01*
X162331683Y-70367779D01*
X162336079Y-70385053D01*
X162341154Y-70401704D01*
X162346907Y-70417733D01*
X162353340Y-70433141D01*
X162360453Y-70447928D01*
X162368246Y-70462094D01*
X162376719Y-70475641D01*
X162385874Y-70488568D01*
X162395711Y-70500877D01*
X162406230Y-70512567D01*
X162417310Y-70523590D01*
X162428959Y-70533899D01*
X162441178Y-70543493D01*
X162453965Y-70552374D01*
X162467322Y-70560541D01*
X162481248Y-70567995D01*
X162495742Y-70574737D01*
X162510806Y-70580767D01*
X162526439Y-70586086D01*
X162542641Y-70590694D01*
X162559413Y-70594592D01*
X162576753Y-70597780D01*
X162594662Y-70600258D01*
X162613141Y-70602028D01*
X162632188Y-70603089D01*
X162651805Y-70603443D01*
X162671420Y-70603089D01*
X162690467Y-70602028D01*
X162708946Y-70600258D01*
X162726857Y-70597780D01*
X162744202Y-70594592D01*
X162760980Y-70590694D01*
X162777192Y-70586086D01*
X162792840Y-70580767D01*
X162807922Y-70574737D01*
X162822440Y-70567995D01*
X162836394Y-70560541D01*
X162849785Y-70552374D01*
X162862613Y-70543493D01*
X162874879Y-70533899D01*
X162886583Y-70523590D01*
X162897726Y-70512567D01*
X162908187Y-70500877D01*
X162917980Y-70488569D01*
X162927105Y-70475642D01*
X162935560Y-70462095D01*
X162943346Y-70447929D01*
X162950460Y-70433142D01*
X162956901Y-70417734D01*
X162962669Y-70401705D01*
X162967762Y-70385054D01*
X162972180Y-70367780D01*
X162975920Y-70349883D01*
X162978983Y-70331363D01*
X162981368Y-70312219D01*
X162983072Y-70292451D01*
X162984095Y-70272058D01*
X162984437Y-70251039D01*
X162984437Y-69321816D01*
X162984103Y-69301176D01*
X162983103Y-69281136D01*
X162981437Y-69261698D01*
X162979104Y-69242859D01*
X162976104Y-69224620D01*
X162972438Y-69206980D01*
X162968105Y-69189938D01*
X162963105Y-69173494D01*
X162957439Y-69157648D01*
X162951106Y-69142398D01*
X162944106Y-69127745D01*
X162936440Y-69113689D01*
X162928107Y-69100227D01*
X162919108Y-69087360D01*
X162909442Y-69075088D01*
X162899110Y-69063410D01*
X162888147Y-69052386D01*
X162876590Y-69042078D01*
X162864437Y-69032484D01*
X162851688Y-69023603D01*
X162838341Y-69015436D01*
X162824396Y-69007982D01*
X162809851Y-69001240D01*
X162794706Y-68995210D01*
X162778960Y-68989892D01*
X162762610Y-68985284D01*
X162745658Y-68981386D01*
X162728100Y-68978198D01*
X162709937Y-68975720D01*
X162691168Y-68973950D01*
X162671791Y-68972888D01*
X162651805Y-68972535D01*
X162631876Y-68972888D01*
X162612542Y-68973950D01*
X162593803Y-68975720D01*
X162575660Y-68978198D01*
X162558114Y-68981386D01*
X162541167Y-68985284D01*
X162524819Y-68989892D01*
X162509072Y-68995210D01*
X162493926Y-69001240D01*
X162479383Y-69007982D01*
X162465443Y-69015436D01*
X162452108Y-69023603D01*
X162439379Y-69032484D01*
X162427257Y-69042078D01*
X162415742Y-69052386D01*
X162404836Y-69063410D01*
X162394506Y-69075088D01*
X162384841Y-69087360D01*
X162375843Y-69100227D01*
X162367512Y-69113689D01*
X162359847Y-69127745D01*
X162352848Y-69142398D01*
X162346516Y-69157648D01*
X162340850Y-69173494D01*
X162335851Y-69189938D01*
X162331518Y-69206980D01*
X162327852Y-69224620D01*
X162324852Y-69242859D01*
X162322519Y-69261698D01*
X162320853Y-69281136D01*
X162319853Y-69301176D01*
X162319519Y-69321816D01*
X162319519Y-70251039D01*
X162038711Y-70251039D01*
X162038218Y-70222599D01*
X162038218Y-69350258D01*
X162038716Y-69321816D01*
X162038861Y-69313513D01*
X162040788Y-69277809D01*
X162044000Y-69243145D01*
X162048499Y-69209522D01*
X162054284Y-69176940D01*
X162061356Y-69145398D01*
X162069715Y-69114896D01*
X162079362Y-69085436D01*
X162090298Y-69057015D01*
X162102523Y-69029636D01*
X162116038Y-69003296D01*
X162130843Y-68977998D01*
X162146938Y-68953740D01*
X162164324Y-68930522D01*
X162183002Y-68908345D01*
X162202973Y-68887209D01*
X162224053Y-68867239D01*
X162246060Y-68848561D01*
X162268995Y-68831175D01*
X162292858Y-68815079D01*
X162317650Y-68800274D01*
X162343371Y-68786760D01*
X162370022Y-68774534D01*
X162397604Y-68763598D01*
X162426116Y-68753950D01*
X162455559Y-68745591D01*
X162485934Y-68738518D01*
X162517242Y-68732733D01*
X162549482Y-68728234D01*
X162582656Y-68725021D01*
X162616763Y-68723094D01*
X162651805Y-68722452D01*
X162686851Y-68723090D01*
G37*
G36*
X173085526Y-67480903D02*
G01*
X173081427Y-67441751D01*
X173077459Y-67398178D01*
X173073621Y-67350183D01*
X173069911Y-67297765D01*
X173066515Y-67242555D01*
X173063541Y-67186207D01*
X173058467Y-67070228D01*
X173056650Y-67012162D01*
X173055349Y-66955592D01*
X173054568Y-66900583D01*
X173054307Y-66847199D01*
X173054307Y-65730677D01*
X173321386Y-65730677D01*
X173321386Y-67804865D01*
X172954758Y-67804865D01*
X172341182Y-66054638D01*
X172344038Y-66093599D01*
X172346900Y-66136626D01*
X172349763Y-66183750D01*
X172352626Y-66235003D01*
X172357865Y-66344045D01*
X172362341Y-66458029D01*
X172364364Y-66515396D01*
X172365770Y-66570974D01*
X172366591Y-66624795D01*
X172366857Y-66676893D01*
X172366857Y-67804864D01*
X172102544Y-67804865D01*
X172102544Y-65730677D01*
X172466039Y-65730677D01*
X173085526Y-67480903D01*
G37*
G36*
X217965804Y-78131976D02*
G01*
X218033805Y-78137147D01*
X218100817Y-78145662D01*
X218166756Y-78157438D01*
X218231538Y-78172389D01*
X218295080Y-78190433D01*
X218357296Y-78211484D01*
X218418103Y-78235460D01*
X218477416Y-78262275D01*
X218535152Y-78291845D01*
X218591226Y-78324087D01*
X218645555Y-78358916D01*
X218698053Y-78396248D01*
X218748637Y-78435999D01*
X218797223Y-78478084D01*
X218843727Y-78522421D01*
X218888063Y-78568924D01*
X218930150Y-78617509D01*
X218969901Y-78668093D01*
X219007234Y-78720591D01*
X219042063Y-78774919D01*
X219074305Y-78830993D01*
X219103876Y-78888729D01*
X219130692Y-78948042D01*
X219154667Y-79008848D01*
X219175719Y-79071065D01*
X219193763Y-79134606D01*
X219208715Y-79199388D01*
X219220491Y-79265328D01*
X219229006Y-79332340D01*
X219234177Y-79400341D01*
X219235920Y-79469246D01*
X219235920Y-87584406D01*
X219234177Y-87653311D01*
X219229006Y-87721312D01*
X219220491Y-87788324D01*
X219208715Y-87854264D01*
X219193764Y-87919046D01*
X219175720Y-87982587D01*
X219154668Y-88044803D01*
X219130693Y-88105610D01*
X219103878Y-88164923D01*
X219074307Y-88222659D01*
X219042066Y-88278733D01*
X219007236Y-88333061D01*
X218969904Y-88385559D01*
X218930153Y-88436143D01*
X218888067Y-88484729D01*
X218843730Y-88531232D01*
X218797227Y-88575569D01*
X218748641Y-88617655D01*
X218698057Y-88657406D01*
X218645559Y-88694738D01*
X218591231Y-88729567D01*
X218535157Y-88761809D01*
X218477421Y-88791379D01*
X218418107Y-88818195D01*
X218357300Y-88842170D01*
X218295084Y-88863222D01*
X218231542Y-88881266D01*
X218166759Y-88896217D01*
X218100819Y-88907993D01*
X218033807Y-88916508D01*
X217965805Y-88921679D01*
X217896899Y-88923421D01*
X166411776Y-88923421D01*
X166411786Y-88923424D01*
X166386218Y-88922559D01*
X166361294Y-88920010D01*
X166337052Y-88915841D01*
X166313531Y-88910117D01*
X166290767Y-88902906D01*
X166268800Y-88894272D01*
X166247666Y-88884281D01*
X166227405Y-88872999D01*
X166208053Y-88860491D01*
X166189649Y-88846823D01*
X166172230Y-88832061D01*
X166155835Y-88816271D01*
X166140502Y-88799517D01*
X166126267Y-88781866D01*
X166113170Y-88763383D01*
X166101248Y-88744135D01*
X166090539Y-88724186D01*
X166081081Y-88703602D01*
X166072912Y-88682449D01*
X166066070Y-88660793D01*
X166060592Y-88638699D01*
X166056517Y-88616234D01*
X166053882Y-88593461D01*
X166052726Y-88570448D01*
X166053086Y-88547260D01*
X166055001Y-88523963D01*
X166058507Y-88500621D01*
X166063644Y-88477302D01*
X166070449Y-88454070D01*
X166078959Y-88430992D01*
X166089213Y-88408132D01*
X166101249Y-88385556D01*
X171829147Y-78464389D01*
X171852696Y-78426560D01*
X171878497Y-78390663D01*
X171906427Y-78356767D01*
X171936365Y-78324943D01*
X171968189Y-78295261D01*
X172001778Y-78267791D01*
X172037009Y-78242604D01*
X172073761Y-78219770D01*
X172111912Y-78199359D01*
X172151340Y-78181441D01*
X172191924Y-78166087D01*
X172233542Y-78153367D01*
X172276071Y-78143352D01*
X172319391Y-78136111D01*
X172363379Y-78131715D01*
X172407914Y-78130234D01*
X217896899Y-78130234D01*
X217965804Y-78131976D01*
G37*
G36*
X160989653Y-65702507D02*
G01*
X161011838Y-65703324D01*
X161033681Y-65704686D01*
X161055183Y-65706592D01*
X161076343Y-65709043D01*
X161097163Y-65712039D01*
X161117641Y-65715579D01*
X161137777Y-65719664D01*
X161157572Y-65724294D01*
X161177026Y-65729468D01*
X161196139Y-65735187D01*
X161214910Y-65741451D01*
X161233339Y-65748259D01*
X161251428Y-65755612D01*
X161269175Y-65763510D01*
X161286580Y-65771952D01*
X161303574Y-65780882D01*
X161320088Y-65790243D01*
X161336125Y-65800035D01*
X161351683Y-65810258D01*
X161366764Y-65820911D01*
X161381368Y-65831996D01*
X161395496Y-65843511D01*
X161409148Y-65855457D01*
X161422324Y-65867834D01*
X161435025Y-65880642D01*
X161447252Y-65893881D01*
X161459004Y-65907550D01*
X161470283Y-65921651D01*
X161481088Y-65936182D01*
X161491421Y-65951145D01*
X161501282Y-65966538D01*
X161510545Y-65982304D01*
X161519214Y-65998387D01*
X161527289Y-66014785D01*
X161534769Y-66031497D01*
X161541654Y-66048521D01*
X161547943Y-66065858D01*
X161553635Y-66083506D01*
X161558731Y-66101464D01*
X161563229Y-66119730D01*
X161567129Y-66138305D01*
X161570431Y-66157186D01*
X161573133Y-66176373D01*
X161575236Y-66195866D01*
X161576739Y-66215662D01*
X161577641Y-66235760D01*
X161577942Y-66256161D01*
X161299408Y-66256161D01*
X161299046Y-66239321D01*
X161297962Y-66222879D01*
X161296155Y-66206836D01*
X161293626Y-66191191D01*
X161290376Y-66175944D01*
X161286404Y-66161096D01*
X161281713Y-66146646D01*
X161276301Y-66132594D01*
X161270170Y-66118941D01*
X161263319Y-66105686D01*
X161255750Y-66092829D01*
X161247463Y-66080370D01*
X161238458Y-66068310D01*
X161228736Y-66056649D01*
X161218298Y-66045386D01*
X161207143Y-66034521D01*
X161195356Y-66024249D01*
X161183145Y-66014637D01*
X161170509Y-66005684D01*
X161157448Y-65997391D01*
X161143959Y-65989759D01*
X161130043Y-65982787D01*
X161115698Y-65976477D01*
X161100923Y-65970830D01*
X161085718Y-65965844D01*
X161070080Y-65961522D01*
X161054009Y-65957864D01*
X161037505Y-65954869D01*
X161020566Y-65952539D01*
X161003190Y-65950874D01*
X160985378Y-65949875D01*
X160967127Y-65949542D01*
X160948884Y-65949875D01*
X160931096Y-65950874D01*
X160913764Y-65952539D01*
X160896887Y-65954869D01*
X160880465Y-65957864D01*
X160864499Y-65961522D01*
X160848988Y-65965844D01*
X160833932Y-65970830D01*
X160819332Y-65976477D01*
X160805187Y-65982787D01*
X160791497Y-65989759D01*
X160778263Y-65997391D01*
X160765484Y-66005684D01*
X160753160Y-66014637D01*
X160741292Y-66024249D01*
X160729878Y-66034521D01*
X160719041Y-66045386D01*
X160708903Y-66056649D01*
X160699465Y-66068310D01*
X160690725Y-66080370D01*
X160682685Y-66092829D01*
X160675344Y-66105686D01*
X160668702Y-66118941D01*
X160662759Y-66132594D01*
X160657515Y-66146646D01*
X160652970Y-66161096D01*
X160649125Y-66175944D01*
X160645979Y-66191191D01*
X160643532Y-66206836D01*
X160641784Y-66222879D01*
X160640735Y-66239321D01*
X160640385Y-66256161D01*
X160640617Y-66269875D01*
X160641313Y-66283313D01*
X160642473Y-66296475D01*
X160644098Y-66309360D01*
X160646188Y-66321968D01*
X160648745Y-66334301D01*
X160651767Y-66346356D01*
X160655257Y-66358136D01*
X160659214Y-66369639D01*
X160663639Y-66380865D01*
X160668533Y-66391816D01*
X160673896Y-66402490D01*
X160679728Y-66412887D01*
X160686031Y-66423009D01*
X160692803Y-66432854D01*
X160700047Y-66442423D01*
X160707652Y-66451678D01*
X160715639Y-66460584D01*
X160724008Y-66469142D01*
X160732759Y-66477352D01*
X160741893Y-66485214D01*
X160751408Y-66492729D01*
X160761305Y-66499898D01*
X160771584Y-66506720D01*
X160782246Y-66513197D01*
X160793289Y-66519330D01*
X160804715Y-66525117D01*
X160816523Y-66530561D01*
X160828712Y-66535661D01*
X160841284Y-66540418D01*
X160854238Y-66544833D01*
X160867574Y-66548906D01*
X161182861Y-66634231D01*
X161209156Y-66641726D01*
X161234712Y-66650034D01*
X161259531Y-66659156D01*
X161283613Y-66669090D01*
X161306959Y-66679837D01*
X161329570Y-66691397D01*
X161351448Y-66703770D01*
X161372593Y-66716956D01*
X161393006Y-66730955D01*
X161412689Y-66745766D01*
X161431643Y-66761391D01*
X161449868Y-66777829D01*
X161467365Y-66795079D01*
X161484136Y-66813143D01*
X161500182Y-66832020D01*
X161515503Y-66851709D01*
X161529932Y-66871980D01*
X161543434Y-66892730D01*
X161556008Y-66913959D01*
X161567654Y-66935669D01*
X161578371Y-66957858D01*
X161588159Y-66980527D01*
X161597017Y-67003675D01*
X161604945Y-67027303D01*
X161611942Y-67051411D01*
X161618008Y-67075998D01*
X161623142Y-67101065D01*
X161627343Y-67126612D01*
X161630612Y-67152638D01*
X161632948Y-67179144D01*
X161634349Y-67206130D01*
X161634817Y-67233595D01*
X161634504Y-67256171D01*
X161633566Y-67278373D01*
X161632004Y-67300204D01*
X161629819Y-67321664D01*
X161627012Y-67342754D01*
X161623584Y-67363475D01*
X161619537Y-67383828D01*
X161614871Y-67403814D01*
X161609587Y-67423435D01*
X161603686Y-67442691D01*
X161597170Y-67461582D01*
X161590039Y-67480112D01*
X161582294Y-67498279D01*
X161573937Y-67516086D01*
X161564968Y-67533533D01*
X161555389Y-67550621D01*
X161545175Y-67567229D01*
X161534433Y-67583365D01*
X161523164Y-67599029D01*
X161511371Y-67614219D01*
X161499053Y-67628937D01*
X161486211Y-67643180D01*
X161472848Y-67656948D01*
X161458963Y-67670242D01*
X161444557Y-67683059D01*
X161429633Y-67695401D01*
X161414189Y-67707266D01*
X161398229Y-67718655D01*
X161381752Y-67729565D01*
X161364760Y-67739997D01*
X161347254Y-67749951D01*
X161329234Y-67759426D01*
X161310764Y-67768372D01*
X161291904Y-67776741D01*
X161272654Y-67784534D01*
X161253014Y-67791748D01*
X161232984Y-67798386D01*
X161212563Y-67804447D01*
X161191752Y-67809930D01*
X161170550Y-67814837D01*
X161148959Y-67819166D01*
X161126977Y-67822918D01*
X161104605Y-67826092D01*
X161081843Y-67828690D01*
X161058691Y-67830710D01*
X161035148Y-67832153D01*
X161011215Y-67833019D01*
X160986892Y-67833308D01*
X160986897Y-67833306D01*
X160949018Y-67832680D01*
X160912122Y-67830802D01*
X160876207Y-67827671D01*
X160841273Y-67823286D01*
X160807318Y-67817647D01*
X160774342Y-67810754D01*
X160742344Y-67802605D01*
X160711322Y-67793202D01*
X160681276Y-67782542D01*
X160652204Y-67770626D01*
X160624106Y-67757452D01*
X160596980Y-67743022D01*
X160570825Y-67727333D01*
X160545641Y-67710385D01*
X160521426Y-67692179D01*
X160498179Y-67672713D01*
X160476189Y-67652207D01*
X160455614Y-67630750D01*
X160436454Y-67608343D01*
X160418711Y-67584987D01*
X160402385Y-67560681D01*
X160387475Y-67535427D01*
X160373984Y-67509224D01*
X160361910Y-67482074D01*
X160351255Y-67453977D01*
X160342019Y-67424933D01*
X160334202Y-67394943D01*
X160327806Y-67364008D01*
X160322830Y-67332128D01*
X160319275Y-67299303D01*
X160317142Y-67265534D01*
X160316431Y-67230822D01*
X160597727Y-67230822D01*
X160598137Y-67251158D01*
X160599369Y-67270933D01*
X160601422Y-67290150D01*
X160604295Y-67308810D01*
X160607990Y-67326912D01*
X160612505Y-67344458D01*
X160617842Y-67361450D01*
X160624000Y-67377888D01*
X160630979Y-67393773D01*
X160638779Y-67409106D01*
X160647400Y-67423889D01*
X160656843Y-67438121D01*
X160667106Y-67451805D01*
X160678191Y-67464942D01*
X160690097Y-67477531D01*
X160702824Y-67489575D01*
X160716250Y-67500916D01*
X160730253Y-67511524D01*
X160744833Y-67521401D01*
X160759990Y-67530547D01*
X160775724Y-67538961D01*
X160792035Y-67546643D01*
X160808924Y-67553593D01*
X160826390Y-67559812D01*
X160844433Y-67565300D01*
X160863054Y-67570055D01*
X160882251Y-67574079D01*
X160902026Y-67577372D01*
X160922378Y-67579933D01*
X160943307Y-67581762D01*
X160964814Y-67582859D01*
X160986897Y-67583225D01*
X161007957Y-67582855D01*
X161028471Y-67581745D01*
X161048440Y-67579894D01*
X161067863Y-67577301D01*
X161086738Y-67573967D01*
X161105067Y-67569891D01*
X161122848Y-67565071D01*
X161140081Y-67559509D01*
X161156764Y-67553202D01*
X161172899Y-67546151D01*
X161188483Y-67538356D01*
X161203517Y-67529815D01*
X161218000Y-67520528D01*
X161231932Y-67510494D01*
X161245311Y-67499714D01*
X161258138Y-67488187D01*
X161270361Y-67476033D01*
X161281795Y-67463377D01*
X161292441Y-67450217D01*
X161302299Y-67436554D01*
X161311367Y-67422390D01*
X161319648Y-67407724D01*
X161327140Y-67392557D01*
X161333843Y-67376890D01*
X161339758Y-67360722D01*
X161344884Y-67344056D01*
X161349222Y-67326890D01*
X161352771Y-67309226D01*
X161355531Y-67291064D01*
X161357503Y-67272404D01*
X161358686Y-67253248D01*
X161359080Y-67233595D01*
X161358824Y-67218816D01*
X161358056Y-67204265D01*
X161356777Y-67189942D01*
X161354987Y-67175849D01*
X161352687Y-67161986D01*
X161349877Y-67148352D01*
X161346558Y-67134950D01*
X161342730Y-67121778D01*
X161338394Y-67108838D01*
X161333551Y-67096131D01*
X161328201Y-67083656D01*
X161322344Y-67071414D01*
X161315982Y-67059406D01*
X161309114Y-67047633D01*
X161301741Y-67036094D01*
X161293864Y-67024790D01*
X161285462Y-67013831D01*
X161276645Y-67003328D01*
X161267412Y-66993280D01*
X161257760Y-66983687D01*
X161247690Y-66974550D01*
X161237200Y-66965868D01*
X161226290Y-66957641D01*
X161214958Y-66949869D01*
X161203203Y-66942553D01*
X161191025Y-66935691D01*
X161178421Y-66929285D01*
X161165392Y-66923335D01*
X161151937Y-66917839D01*
X161138053Y-66912799D01*
X161123741Y-66908214D01*
X161108998Y-66904084D01*
X160802378Y-66821880D01*
X160777473Y-66814368D01*
X160753226Y-66806141D01*
X160729636Y-66797199D01*
X160706704Y-66787541D01*
X160684428Y-66777168D01*
X160662808Y-66766080D01*
X160641843Y-66754276D01*
X160621533Y-66741757D01*
X160601878Y-66728522D01*
X160582877Y-66714572D01*
X160564529Y-66699906D01*
X160546834Y-66684525D01*
X160529792Y-66668429D01*
X160513401Y-66651617D01*
X160497662Y-66634090D01*
X160482574Y-66615848D01*
X160468274Y-66596967D01*
X160454901Y-66577656D01*
X160442453Y-66557914D01*
X160430931Y-66537741D01*
X160420333Y-66517137D01*
X160410660Y-66496102D01*
X160401910Y-66474636D01*
X160394083Y-66452740D01*
X160387179Y-66430412D01*
X160381197Y-66407654D01*
X160376137Y-66384465D01*
X160371998Y-66360845D01*
X160368780Y-66336795D01*
X160366482Y-66312313D01*
X160365103Y-66287401D01*
X160364644Y-66262057D01*
X160364936Y-66241275D01*
X160365815Y-66220809D01*
X160367280Y-66200662D01*
X160369332Y-66180834D01*
X160371971Y-66161324D01*
X160375198Y-66142134D01*
X160379013Y-66123265D01*
X160383417Y-66104715D01*
X160388411Y-66086487D01*
X160393994Y-66068581D01*
X160400168Y-66050997D01*
X160406933Y-66033735D01*
X160414289Y-66016797D01*
X160422237Y-66000182D01*
X160430777Y-65983892D01*
X160439910Y-65967926D01*
X160449576Y-65952346D01*
X160459714Y-65937213D01*
X160470324Y-65922525D01*
X160481408Y-65908283D01*
X160492965Y-65894487D01*
X160504996Y-65881135D01*
X160517502Y-65868226D01*
X160530483Y-65855762D01*
X160543939Y-65843740D01*
X160557871Y-65832162D01*
X160572280Y-65821025D01*
X160587166Y-65810329D01*
X160602529Y-65800075D01*
X160618370Y-65790261D01*
X160634690Y-65780887D01*
X160651489Y-65771952D01*
X160668756Y-65763510D01*
X160686350Y-65755612D01*
X160704269Y-65748259D01*
X160722515Y-65741451D01*
X160741087Y-65735187D01*
X160759988Y-65729468D01*
X160779216Y-65724294D01*
X160798774Y-65719664D01*
X160818660Y-65715579D01*
X160838876Y-65712039D01*
X160859423Y-65709043D01*
X160880300Y-65706592D01*
X160901508Y-65704686D01*
X160923049Y-65703324D01*
X160944922Y-65702507D01*
X160967127Y-65702235D01*
X160989653Y-65702507D01*
G37*
G36*
X142128617Y-140893187D02*
G01*
X132125163Y-140893187D01*
X136253553Y-134379847D01*
X145080395Y-134379847D01*
X142128617Y-140893187D01*
G37*
G36*
X164424231Y-65730978D02*
G01*
X164448440Y-65731880D01*
X164472228Y-65733382D01*
X164495595Y-65735484D01*
X164518541Y-65738186D01*
X164541067Y-65741487D01*
X164563174Y-65745386D01*
X164584861Y-65749884D01*
X164606129Y-65754979D01*
X164626979Y-65760671D01*
X164647412Y-65766959D01*
X164667428Y-65773844D01*
X164687027Y-65781324D01*
X164706209Y-65789399D01*
X164724976Y-65798069D01*
X164743328Y-65807332D01*
X164761156Y-65817136D01*
X164778479Y-65827427D01*
X164795297Y-65838203D01*
X164811610Y-65849464D01*
X164827416Y-65861209D01*
X164842716Y-65873436D01*
X164857509Y-65886145D01*
X164871795Y-65899335D01*
X164885572Y-65913005D01*
X164898841Y-65927153D01*
X164911600Y-65941778D01*
X164923850Y-65956880D01*
X164935590Y-65972458D01*
X164946820Y-65988510D01*
X164957538Y-66005036D01*
X164967745Y-66022034D01*
X164977382Y-66039414D01*
X164986394Y-66057216D01*
X164994781Y-66075439D01*
X165002544Y-66094081D01*
X165009683Y-66113142D01*
X165016198Y-66132621D01*
X165022090Y-66152517D01*
X165027359Y-66172828D01*
X165032007Y-66193554D01*
X165036034Y-66214693D01*
X165039439Y-66236245D01*
X165042224Y-66258208D01*
X165044390Y-66280582D01*
X165045936Y-66303366D01*
X165046863Y-66326558D01*
X165047172Y-66350158D01*
X165046863Y-66373379D01*
X165045936Y-66396218D01*
X165044390Y-66418674D01*
X165042224Y-66440747D01*
X165039439Y-66462435D01*
X165036034Y-66483738D01*
X165032007Y-66504657D01*
X165027359Y-66525190D01*
X165022090Y-66545336D01*
X165016198Y-66565096D01*
X165009683Y-66584469D01*
X165002544Y-66603454D01*
X164994781Y-66622051D01*
X164986394Y-66640259D01*
X164977382Y-66658078D01*
X164967745Y-66675507D01*
X164957534Y-66692502D01*
X164946803Y-66709016D01*
X164935552Y-66725052D01*
X164923780Y-66740607D01*
X164911489Y-66755683D01*
X164898677Y-66770279D01*
X164885344Y-66784396D01*
X164871492Y-66798033D01*
X164857120Y-66811190D01*
X164842227Y-66823868D01*
X164826814Y-66836066D01*
X164810880Y-66847785D01*
X164794427Y-66859024D01*
X164777453Y-66869783D01*
X164759959Y-66880063D01*
X164741945Y-66889863D01*
X164723415Y-66899183D01*
X164704502Y-66907895D01*
X164685208Y-66915999D01*
X164665531Y-66923497D01*
X164645472Y-66930388D01*
X164625031Y-66936676D01*
X164604207Y-66942359D01*
X164583002Y-66947440D01*
X164561414Y-66951919D01*
X164539444Y-66955798D01*
X164517092Y-66959077D01*
X164494358Y-66961758D01*
X164471241Y-66963842D01*
X164447742Y-66965328D01*
X164423862Y-66966220D01*
X164399599Y-66966517D01*
X164007315Y-66966517D01*
X164007315Y-67804864D01*
X163726004Y-67804865D01*
X163726004Y-66716435D01*
X163726004Y-65980759D01*
X164007305Y-65980759D01*
X164007305Y-66716435D01*
X164399599Y-66716435D01*
X164419890Y-66716045D01*
X164439659Y-66714873D01*
X164458905Y-66712919D01*
X164477626Y-66710181D01*
X164495820Y-66706659D01*
X164513486Y-66702351D01*
X164530623Y-66697257D01*
X164547229Y-66691376D01*
X164563302Y-66684705D01*
X164578841Y-66677246D01*
X164593845Y-66668995D01*
X164608312Y-66659953D01*
X164622240Y-66650118D01*
X164635628Y-66639490D01*
X164648475Y-66628067D01*
X164660778Y-66615848D01*
X164672497Y-66602979D01*
X164683459Y-66589608D01*
X164693665Y-66575734D01*
X164703116Y-66561360D01*
X164711810Y-66546485D01*
X164719748Y-66531112D01*
X164726931Y-66515240D01*
X164733357Y-66498872D01*
X164739027Y-66482008D01*
X164743941Y-66464649D01*
X164748099Y-66446795D01*
X164751501Y-66428450D01*
X164754147Y-66409612D01*
X164756038Y-66390283D01*
X164757172Y-66370465D01*
X164757550Y-66350158D01*
X164757172Y-66329473D01*
X164756038Y-66309302D01*
X164754147Y-66289646D01*
X164751501Y-66270506D01*
X164748099Y-66251885D01*
X164743941Y-66233784D01*
X164739027Y-66216204D01*
X164733357Y-66199146D01*
X164726931Y-66182613D01*
X164719748Y-66166606D01*
X164711810Y-66151127D01*
X164703116Y-66136176D01*
X164693665Y-66121755D01*
X164683459Y-66107867D01*
X164672497Y-66094512D01*
X164660778Y-66081692D01*
X164648475Y-66069470D01*
X164635628Y-66058036D01*
X164622239Y-66047390D01*
X164608310Y-66037534D01*
X164593843Y-66028466D01*
X164578839Y-66020186D01*
X164563299Y-66012695D01*
X164547225Y-66005992D01*
X164530619Y-66000078D01*
X164513482Y-65994953D01*
X164495815Y-65990616D01*
X164477621Y-65987067D01*
X164458901Y-65984307D01*
X164439656Y-65982336D01*
X164419888Y-65981153D01*
X164399599Y-65980759D01*
X164007305Y-65980759D01*
X163726004Y-65980759D01*
X163726004Y-65730677D01*
X164399599Y-65730677D01*
X164424231Y-65730978D01*
G37*
G36*
X160887349Y-70148716D02*
G01*
X160903869Y-70214927D01*
X160919087Y-70279870D01*
X160933005Y-70343578D01*
X160945622Y-70406083D01*
X160966734Y-70514995D01*
X160981348Y-70594771D01*
X160983723Y-70577570D01*
X160986683Y-70558487D01*
X160990227Y-70537526D01*
X160994356Y-70514691D01*
X160999070Y-70489986D01*
X161004370Y-70463416D01*
X161016728Y-70404695D01*
X161044826Y-70277401D01*
X161075002Y-70145944D01*
X161407633Y-68750895D01*
X161697266Y-68750895D01*
X161163106Y-70825082D01*
X160785034Y-70825082D01*
X160253997Y-68750894D01*
X160543614Y-68750894D01*
X160887349Y-70148716D01*
G37*
M02*
