%TF.GenerationSoftware,KiCad,Pcbnew,9.0.3*%
%TF.CreationDate,2025-10-03T08:07:12+02:00*%
%TF.ProjectId,front_pcb,66726f6e-745f-4706-9362-2e6b69636164,rev?*%
%TF.SameCoordinates,Original*%
%TF.FileFunction,Copper,L2,Bot*%
%TF.FilePolarity,Positive*%
%FSLAX46Y46*%
G04 Gerber Fmt 4.6, Leading zero omitted, Abs format (unit mm)*
G04 Created by KiCad (PCBNEW 9.0.3) date 2025-10-03 08:07:12*
%MOMM*%
%LPD*%
G01*
G04 APERTURE LIST*
G04 Aperture macros list*
%AMRoundRect*
0 Rectangle with rounded corners*
0 $1 Rounding radius*
0 $2 $3 $4 $5 $6 $7 $8 $9 X,Y pos of 4 corners*
0 Add a 4 corners polygon primitive as box body*
4,1,4,$2,$3,$4,$5,$6,$7,$8,$9,$2,$3,0*
0 Add four circle primitives for the rounded corners*
1,1,$1+$1,$2,$3*
1,1,$1+$1,$4,$5*
1,1,$1+$1,$6,$7*
1,1,$1+$1,$8,$9*
0 Add four rect primitives between the rounded corners*
20,1,$1+$1,$2,$3,$4,$5,0*
20,1,$1+$1,$4,$5,$6,$7,0*
20,1,$1+$1,$6,$7,$8,$9,0*
20,1,$1+$1,$8,$9,$2,$3,0*%
G04 Aperture macros list end*
%TA.AperFunction,ComponentPad*%
%ADD10C,3.400000*%
%TD*%
%TA.AperFunction,ConnectorPad*%
%ADD11C,5.000000*%
%TD*%
%TA.AperFunction,SMDPad,CuDef*%
%ADD12RoundRect,0.250000X0.475000X-0.337500X0.475000X0.337500X-0.475000X0.337500X-0.475000X-0.337500X0*%
%TD*%
%TA.AperFunction,SMDPad,CuDef*%
%ADD13R,2.500000X2.500000*%
%TD*%
%TA.AperFunction,SMDPad,CuDef*%
%ADD14RoundRect,0.250000X0.450000X-0.325000X0.450000X0.325000X-0.450000X0.325000X-0.450000X-0.325000X0*%
%TD*%
%TA.AperFunction,SMDPad,CuDef*%
%ADD15C,1.000000*%
%TD*%
%TA.AperFunction,SMDPad,CuDef*%
%ADD16RoundRect,0.250000X-0.450000X0.350000X-0.450000X-0.350000X0.450000X-0.350000X0.450000X0.350000X0*%
%TD*%
%TA.AperFunction,SMDPad,CuDef*%
%ADD17RoundRect,0.250000X0.450000X-0.350000X0.450000X0.350000X-0.450000X0.350000X-0.450000X-0.350000X0*%
%TD*%
%TA.AperFunction,SMDPad,CuDef*%
%ADD18RoundRect,0.150000X0.825000X0.150000X-0.825000X0.150000X-0.825000X-0.150000X0.825000X-0.150000X0*%
%TD*%
%TA.AperFunction,Conductor*%
%ADD19C,0.200000*%
%TD*%
G04 APERTURE END LIST*
D10*
%TO.P,REF\u002A\u002A,1*%
%TO.N,N/C*%
X79000000Y-138000000D03*
D11*
X79000000Y-138000000D03*
%TD*%
D10*
%TO.P,REF\u002A\u002A,1*%
%TO.N,N/C*%
X221000000Y-138000000D03*
D11*
X221000000Y-138000000D03*
%TD*%
D10*
%TO.P,REF\u002A\u002A,1*%
%TO.N,N/C*%
X221000000Y-63000000D03*
D11*
X221000000Y-63000000D03*
%TD*%
D12*
%TO.P,C2,1*%
%TO.N,Net-(U1-THR)*%
X178000000Y-90037500D03*
%TO.P,C2,2*%
%TO.N,GND*%
X178000000Y-87962500D03*
%TD*%
D13*
%TO.P,TP1,1,1*%
%TO.N,VCC*%
X170000000Y-84500000D03*
%TD*%
D14*
%TO.P,D1,1,K*%
%TO.N,Net-(D1-K)*%
X178000000Y-94025000D03*
%TO.P,D1,2,A*%
%TO.N,Net-(D1-A)*%
X178000000Y-91975000D03*
%TD*%
D15*
%TO.P,REF\u002A\u002A,*%
%TO.N,*%
X85000000Y-137500000D03*
%TD*%
D16*
%TO.P,R2,1*%
%TO.N,VCC*%
X166500000Y-86000000D03*
%TO.P,R2,2*%
%TO.N,Net-(U1-DIS)*%
X166500000Y-88000000D03*
%TD*%
D12*
%TO.P,C1,1*%
%TO.N,Net-(U1-CV)*%
X183500000Y-94037500D03*
%TO.P,C1,2*%
%TO.N,GND*%
X183500000Y-91962500D03*
%TD*%
D10*
%TO.P,REF\u002A\u002A,1*%
%TO.N,N/C*%
X79000000Y-63000000D03*
D11*
X79000000Y-63000000D03*
%TD*%
D13*
%TO.P,TP2,1,1*%
%TO.N,GND*%
X175000000Y-84500000D03*
%TD*%
D17*
%TO.P,R1,1*%
%TO.N,Net-(D1-K)*%
X181000000Y-94000000D03*
%TO.P,R1,2*%
%TO.N,GND*%
X181000000Y-92000000D03*
%TD*%
D18*
%TO.P,U1,1,GND*%
%TO.N,GND*%
X174975000Y-89595000D03*
%TO.P,U1,2,TR*%
%TO.N,Net-(U1-THR)*%
X174975000Y-90865000D03*
%TO.P,U1,3,Q*%
%TO.N,Net-(D1-A)*%
X174975000Y-92135000D03*
%TO.P,U1,4,R*%
%TO.N,VCC*%
X174975000Y-93405000D03*
%TO.P,U1,5,CV*%
%TO.N,Net-(U1-CV)*%
X170025000Y-93405000D03*
%TO.P,U1,6,THR*%
%TO.N,Net-(U1-THR)*%
X170025000Y-92135000D03*
%TO.P,U1,7,DIS*%
%TO.N,Net-(U1-DIS)*%
X170025000Y-90865000D03*
%TO.P,U1,8,VCC*%
%TO.N,VCC*%
X170025000Y-89595000D03*
%TD*%
D15*
%TO.P,REF\u002A\u002A,*%
%TO.N,*%
X215000000Y-75000000D03*
%TD*%
D16*
%TO.P,R3,1*%
%TO.N,Net-(U1-DIS)*%
X166500000Y-90500000D03*
%TO.P,R3,2*%
%TO.N,Net-(U1-THR)*%
X166500000Y-92500000D03*
%TD*%
D19*
%TO.N,Net-(U1-CV)*%
X170025000Y-93405000D02*
X172405000Y-93405000D01*
X175000000Y-96000000D02*
X183000000Y-96000000D01*
X183000000Y-96000000D02*
X183500000Y-95500000D01*
X183500000Y-95500000D02*
X183500000Y-94037500D01*
X172405000Y-93405000D02*
X175000000Y-96000000D01*
%TO.N,GND*%
X178962500Y-87962500D02*
X181000000Y-90000000D01*
X175000000Y-84500000D02*
X175000000Y-84962500D01*
X174975000Y-84525000D02*
X175000000Y-84500000D01*
X174975000Y-89595000D02*
X174975000Y-84525000D01*
X175000000Y-84962500D02*
X178000000Y-87962500D01*
X178000000Y-87962500D02*
X178962500Y-87962500D01*
X181000000Y-90000000D02*
X181000000Y-92000000D01*
%TO.N,Net-(U1-THR)*%
X172635000Y-90865000D02*
X174975000Y-90865000D01*
X177172500Y-90865000D02*
X174975000Y-90865000D01*
X171365000Y-92135000D02*
X172635000Y-90865000D01*
X166865000Y-92135000D02*
X170025000Y-92135000D01*
X170025000Y-92135000D02*
X171365000Y-92135000D01*
X178000000Y-90037500D02*
X177172500Y-90865000D01*
X166500000Y-92500000D02*
X166865000Y-92135000D01*
%TO.N,Net-(D1-K)*%
X178025000Y-94000000D02*
X178000000Y-94025000D01*
X181000000Y-94000000D02*
X178025000Y-94000000D01*
%TO.N,VCC*%
X174975000Y-93405000D02*
X174374000Y-92804000D01*
X168500000Y-86000000D02*
X170000000Y-84500000D01*
X166500000Y-86000000D02*
X168500000Y-86000000D01*
X169009032Y-92804000D02*
X167813032Y-94000000D01*
X174374000Y-92804000D02*
X169009032Y-92804000D01*
X167813032Y-94000000D02*
X164500000Y-94000000D01*
X170025000Y-84525000D02*
X170000000Y-84500000D01*
X165000000Y-86000000D02*
X166500000Y-86000000D01*
X164500000Y-94000000D02*
X164500000Y-86500000D01*
X170025000Y-89595000D02*
X170025000Y-84525000D01*
X164500000Y-86500000D02*
X165000000Y-86000000D01*
%TO.N,Net-(D1-A)*%
X175135000Y-91975000D02*
X174975000Y-92135000D01*
X178000000Y-91975000D02*
X175135000Y-91975000D01*
%TO.N,Net-(U1-DIS)*%
X170025000Y-90865000D02*
X166865000Y-90865000D01*
X166500000Y-88000000D02*
X166500000Y-90500000D01*
X166865000Y-90865000D02*
X166500000Y-90500000D01*
%TD*%
M02*
