%TF.GenerationSoftware,KiCad,Pcbnew,9.0.3*%
%TF.CreationDate,2025-10-03T08:07:12+02:00*%
%TF.ProjectId,front_pcb,66726f6e-745f-4706-9362-2e6b69636164,rev?*%
%TF.SameCoordinates,Original*%
%TF.FileFunction,Profile,NP*%
%FSLAX46Y46*%
G04 Gerber Fmt 4.6, Leading zero omitted, Abs format (unit mm)*
G04 Created by KiCad (PCBNEW 9.0.3) date 2025-10-03 08:07:12*
%MOMM*%
%LPD*%
G01*
G04 APERTURE LIST*
%TA.AperFunction,Profile*%
%ADD10C,0.200000*%
%TD*%
G04 APERTURE END LIST*
D10*
X205650600Y-102930000D02*
G75*
G02*
X204500600Y-101780000I0J1150000D01*
G01*
X197650600Y-113430000D02*
G75*
G02*
X196500600Y-112280000I0J1150000D01*
G01*
X161650600Y-134430000D02*
X166250600Y-134430000D01*
X119400600Y-109280001D02*
G75*
G02*
X118250600Y-110430000I-1150000J1D01*
G01*
X188500600Y-116180000D02*
G75*
G02*
X189650600Y-115030000I1150000J0D01*
G01*
X175400600Y-133280000D02*
X175400600Y-129680000D01*
X103400600Y-117280001D02*
X103400600Y-113680000D01*
X167400600Y-133280000D02*
G75*
G02*
X166250600Y-134430000I-1150000J0D01*
G01*
X212500600Y-101779999D02*
X212500600Y-95180000D01*
X189650600Y-123930000D02*
G75*
G02*
X188500600Y-122780000I0J1150000D01*
G01*
X118250600Y-104530000D02*
G75*
G02*
X119400600Y-105680000I0J-1150000D01*
G01*
X95400600Y-125280000D02*
G75*
G02*
X94250600Y-126430000I-1150000J0D01*
G01*
X166250600Y-112530000D02*
G75*
G02*
X167400600Y-113680000I0J-1150000D01*
G01*
X77024612Y-88350000D02*
X77024612Y-79250000D01*
X197650600Y-123930000D02*
G75*
G02*
X196500600Y-122779999I0J1150000D01*
G01*
X210250600Y-94030000D02*
G75*
G02*
X211400600Y-95180000I0J-1150000D01*
G01*
X222450600Y-78991981D02*
G75*
G02*
X223203838Y-78198957I766300J26381D01*
G01*
X159400600Y-125280000D02*
X159400600Y-121680000D01*
X76487606Y-78210504D02*
G75*
G02*
X77024604Y-79250000I-737606J-1039496D01*
G01*
X104500600Y-113680000D02*
X104500600Y-117280000D01*
X177650600Y-134430000D02*
G75*
G02*
X176500600Y-133280000I0J1150000D01*
G01*
X159400600Y-125280000D02*
X159400600Y-121680000D01*
X182250600Y-128530000D02*
X177650600Y-128530000D01*
X220950704Y-140980000D02*
X78950600Y-140980000D01*
X110250600Y-112530000D02*
G75*
G02*
X111400600Y-113680000I0J-1150000D01*
G01*
X87400600Y-133280000D02*
G75*
G02*
X86250600Y-134430000I-1150000J0D01*
G01*
X202250600Y-125530000D02*
G75*
G02*
X203400600Y-126680000I0J-1150000D01*
G01*
X188500600Y-101780000D02*
X188500600Y-95180000D01*
X176500600Y-129680000D02*
G75*
G02*
X177650600Y-128530000I1150000J0D01*
G01*
X127400600Y-109280000D02*
G75*
G02*
X126250600Y-110430000I-1150000J0D01*
G01*
X118250600Y-112530000D02*
G75*
G02*
X119400600Y-113680000I0J-1150000D01*
G01*
X88500600Y-121680000D02*
G75*
G02*
X89650600Y-120530000I1150000J0D01*
G01*
X142250600Y-112530000D02*
G75*
G02*
X143400600Y-113680000I0J-1150000D01*
G01*
X81650600Y-118430000D02*
G75*
G02*
X80500600Y-117280000I0J1150000D01*
G01*
X204500600Y-112280000D02*
X204500600Y-105680000D01*
X135400600Y-109280000D02*
G75*
G02*
X134250600Y-110430000I-1150000J0D01*
G01*
X204500600Y-101779999D02*
X204500600Y-95180000D01*
X120650600Y-93530000D02*
X127250600Y-93530000D01*
X110250600Y-128530000D02*
X105650600Y-128530000D01*
X210250600Y-134430000D02*
X205650600Y-134430000D01*
X221450600Y-59980009D02*
G75*
G02*
X223950591Y-62480000I0J-2499991D01*
G01*
X119400600Y-117280000D02*
X119400600Y-113680000D01*
X86250600Y-112530000D02*
X81650600Y-112530000D01*
X97250600Y-93530000D02*
G75*
G02*
X98400600Y-94680000I0J-1150000D01*
G01*
X168500600Y-121680000D02*
X168500600Y-125280000D01*
X98400600Y-94680000D02*
X98400600Y-99280000D01*
X143400600Y-125280000D02*
G75*
G02*
X142250600Y-126430000I-1150000J0D01*
G01*
X195400600Y-95180000D02*
X195400600Y-101780000D01*
X204500600Y-126680000D02*
G75*
G02*
X205650600Y-125530000I1150000J0D01*
G01*
X160500600Y-113680000D02*
X160500600Y-117280000D01*
X120500600Y-113680000D02*
X120500600Y-117280000D01*
X129650600Y-126430000D02*
G75*
G02*
X128500600Y-125280000I0J1150000D01*
G01*
X160500600Y-129680000D02*
G75*
G02*
X161650600Y-128530000I1150000J0D01*
G01*
X194250600Y-104530000D02*
G75*
G02*
X195400600Y-105680000I0J-1150000D01*
G01*
X150250600Y-104530000D02*
G75*
G02*
X151400600Y-105680000I0J-1150000D01*
G01*
X177650600Y-134430000D02*
G75*
G02*
X176500600Y-133280000I0J1150000D01*
G01*
X77024612Y-88350000D02*
G75*
G02*
X76487603Y-89234672I-997212J0D01*
G01*
X156985600Y-66340000D02*
X156985600Y-87620000D01*
X210250600Y-104530000D02*
G75*
G02*
X211400600Y-105680000I0J-1150000D01*
G01*
X142250600Y-120530000D02*
X137650600Y-120530000D01*
X168500600Y-105680000D02*
X168500600Y-109280000D01*
X135650600Y-100430000D02*
G75*
G02*
X134500600Y-99280000I0J1150000D01*
G01*
X76487606Y-78210504D02*
G75*
G02*
X75950597Y-77171001I737594J1039504D01*
G01*
X135400600Y-117280000D02*
G75*
G02*
X134250600Y-118430000I-1150000J0D01*
G01*
X213650600Y-115030000D02*
X218250600Y-115030000D01*
X203400600Y-112280000D02*
G75*
G02*
X202250600Y-113430000I-1150000J0D01*
G01*
X205650600Y-134430000D02*
G75*
G02*
X204500600Y-133280000I0J1150000D01*
G01*
X153650600Y-134430000D02*
G75*
G02*
X152500600Y-133280000I0J1150000D01*
G01*
X167400600Y-125280001D02*
G75*
G02*
X166250600Y-126430000I-1150000J1D01*
G01*
X149500600Y-99280000D02*
X149500600Y-94680000D01*
X81650600Y-134430000D02*
G75*
G02*
X80500600Y-133280000I0J1150000D01*
G01*
X175400600Y-109280000D02*
G75*
G02*
X174250600Y-110430000I-1150000J0D01*
G01*
X213650600Y-113430000D02*
G75*
G02*
X212500600Y-112280000I0J1150000D01*
G01*
X183400600Y-117280000D02*
X183400600Y-113680000D01*
X158250600Y-128530000D02*
G75*
G02*
X159400600Y-129680000I0J-1150000D01*
G01*
X129650600Y-126430000D02*
X134250600Y-126430000D01*
X211400600Y-95180000D02*
X211400600Y-101780000D01*
X158250600Y-112530000D02*
G75*
G02*
X159400600Y-113680000I0J-1150000D01*
G01*
X91845600Y-88620000D02*
G75*
G02*
X90845600Y-87620000I0J1000000D01*
G01*
X87400600Y-125280000D02*
X87400600Y-121680000D01*
X89650600Y-126430000D02*
G75*
G02*
X88500600Y-125280000I0J1150000D01*
G01*
X166250600Y-112530000D02*
X161650600Y-112530000D01*
X213650600Y-104530000D02*
X218250600Y-104530000D01*
X119400600Y-117280000D02*
G75*
G02*
X118250600Y-118430000I-1150000J0D01*
G01*
X81650600Y-118430000D02*
X86250600Y-118430000D01*
X113650600Y-126430000D02*
G75*
G02*
X112500600Y-125280000I0J1150000D01*
G01*
X127250600Y-93530000D02*
G75*
G02*
X128400600Y-94680000I0J-1150000D01*
G01*
X86250600Y-128530000D02*
G75*
G02*
X87400600Y-129680000I0J-1150000D01*
G01*
X126250600Y-112530000D02*
G75*
G02*
X127400600Y-113680000I0J-1150000D01*
G01*
X126250600Y-112530000D02*
X121650600Y-112530000D01*
X202250600Y-123930000D02*
X197650600Y-123930000D01*
X219400600Y-105680000D02*
X219400600Y-112280000D01*
X87400600Y-117280000D02*
X87400600Y-113680000D01*
X113650600Y-134430000D02*
X150250600Y-134430000D01*
X189650600Y-125530000D02*
X194250600Y-125530000D01*
X211400600Y-126680000D02*
X211400600Y-133280000D01*
X142250600Y-120530000D02*
G75*
G02*
X143400600Y-121680000I0J-1150000D01*
G01*
X89650600Y-126430000D02*
G75*
G02*
X88500600Y-125280000I0J1150000D01*
G01*
X205650600Y-134430000D02*
G75*
G02*
X204500600Y-133279999I0J1150000D01*
G01*
X105650600Y-110430000D02*
G75*
G02*
X104500600Y-109280000I0J1150000D01*
G01*
X104500600Y-129680000D02*
X104500600Y-133280000D01*
X196500600Y-112280000D02*
X196500600Y-105680000D01*
X161650600Y-134430000D02*
X166250600Y-134430000D01*
X160500600Y-121680000D02*
G75*
G02*
X161650600Y-120530000I1150000J0D01*
G01*
X203400600Y-122780000D02*
G75*
G02*
X202250600Y-123930000I-1150000J0D01*
G01*
X212500600Y-95180000D02*
G75*
G02*
X213650600Y-94030000I1150000J0D01*
G01*
X134500600Y-94680000D02*
G75*
G02*
X135650600Y-93530000I1150000J0D01*
G01*
X97650600Y-118430000D02*
G75*
G02*
X96500600Y-117280000I0J1150000D01*
G01*
X112250600Y-100430000D02*
X105650600Y-100430000D01*
X218250600Y-102930000D02*
X213650600Y-102930000D01*
X120500600Y-121680000D02*
X120500600Y-125280000D01*
X205650600Y-94030000D02*
X210250600Y-94030000D01*
X217950600Y-63980000D02*
X217950600Y-60980000D01*
X103400600Y-133280000D02*
G75*
G02*
X102250600Y-134430000I-1150000J0D01*
G01*
X112500600Y-105680000D02*
G75*
G02*
X113650600Y-104530000I1150000J0D01*
G01*
X137650600Y-110430000D02*
X142250600Y-110430000D01*
X150650600Y-100430000D02*
G75*
G02*
X149500600Y-99280000I0J1150000D01*
G01*
X89650600Y-118430000D02*
X94250600Y-118430000D01*
X161650600Y-126430000D02*
X166250600Y-126430000D01*
X159400600Y-133280000D02*
G75*
G02*
X158250600Y-134430000I-1150000J0D01*
G01*
X86250600Y-128530000D02*
G75*
G02*
X87400600Y-129680000I0J-1150000D01*
G01*
X159400600Y-125280000D02*
G75*
G02*
X158250600Y-126430000I-1150000J0D01*
G01*
X120500600Y-105680000D02*
X120500600Y-109280000D01*
X111400600Y-133280000D02*
G75*
G02*
X110250600Y-134430000I-1150000J0D01*
G01*
X112500600Y-113680000D02*
G75*
G02*
X113650600Y-112530000I1150000J0D01*
G01*
X96500600Y-105680000D02*
X96500600Y-109280000D01*
X196500600Y-95180000D02*
G75*
G02*
X197650600Y-94030000I1150000J0D01*
G01*
X149500600Y-99280000D02*
X149500600Y-94680000D01*
X121650600Y-118430000D02*
G75*
G02*
X120500600Y-117280000I0J1150000D01*
G01*
X195400600Y-126680000D02*
X195400600Y-133280000D01*
X137650600Y-126430000D02*
X142250600Y-126430000D01*
X205650600Y-115030000D02*
X210250600Y-115030000D01*
X104500600Y-105680000D02*
X104500600Y-109280000D01*
X78950600Y-140980000D02*
G75*
G02*
X75950600Y-137980000I0J3000000D01*
G01*
X111400600Y-133280000D02*
X111400600Y-129680000D01*
X223200601Y-89577082D02*
G75*
G02*
X223950603Y-90331842I-1J-750018D01*
G01*
X152500600Y-129680000D02*
X152500600Y-133280000D01*
X86250600Y-112530000D02*
X81650600Y-112530000D01*
X126250600Y-104530000D02*
X121650600Y-104530000D01*
X169650600Y-126430000D02*
G75*
G02*
X168500600Y-125280000I0J1150000D01*
G01*
X118250600Y-120530000D02*
X113650600Y-120530000D01*
X188500600Y-133280000D02*
X188500600Y-126680000D01*
X137650600Y-126430000D02*
X142250600Y-126430000D01*
X213650600Y-94030000D02*
X218250600Y-94030000D01*
X153650600Y-118430000D02*
G75*
G02*
X152500600Y-117280000I0J1150000D01*
G01*
X188500600Y-122780000D02*
X188500600Y-116180000D01*
X118250600Y-104530000D02*
X113650600Y-104530000D01*
X81650600Y-110430000D02*
G75*
G02*
X80500600Y-109280000I0J1150000D01*
G01*
X183400600Y-117280001D02*
G75*
G02*
X182250600Y-118430000I-1150000J1D01*
G01*
X158250600Y-128530000D02*
X153650600Y-128530000D01*
X134500600Y-94680000D02*
G75*
G02*
X135650600Y-93530000I1150000J0D01*
G01*
X95400600Y-117280001D02*
G75*
G02*
X94250600Y-118430000I-1150000J1D01*
G01*
X136500600Y-113680000D02*
G75*
G02*
X137650600Y-112530000I1150000J0D01*
G01*
X134250600Y-120530000D02*
X129650600Y-120530000D01*
X80500600Y-129680000D02*
G75*
G02*
X81650600Y-128530000I1150000J0D01*
G01*
X223950698Y-137980000D02*
G75*
G02*
X220950704Y-140979998I-2999998J0D01*
G01*
X127400600Y-117280001D02*
G75*
G02*
X126250600Y-118430000I-1150000J1D01*
G01*
X176500600Y-121680000D02*
X176500600Y-125280000D01*
X213650600Y-113430000D02*
G75*
G02*
X212500600Y-112280000I0J1150000D01*
G01*
X194250600Y-115030000D02*
G75*
G02*
X195400600Y-116180000I0J-1150000D01*
G01*
X87400600Y-125280000D02*
G75*
G02*
X86250600Y-126430000I-1150000J0D01*
G01*
X111400600Y-117280000D02*
X111400600Y-113680000D01*
X177722600Y-67828800D02*
X177722600Y-73823200D01*
X77024603Y-79250000D02*
X77024612Y-79250000D01*
X153650600Y-134430000D02*
X158250600Y-134430000D01*
X212500600Y-101780000D02*
X212500600Y-95180000D01*
X111400600Y-125280000D02*
G75*
G02*
X110250600Y-126430000I-1150000J0D01*
G01*
X152500600Y-129680000D02*
G75*
G02*
X153650600Y-128530000I1150000J0D01*
G01*
X98400600Y-94680000D02*
X98400600Y-99280000D01*
X110250600Y-104530000D02*
G75*
G02*
X111400600Y-105680000I0J-1150000D01*
G01*
X113400600Y-94680000D02*
X113400600Y-99280000D01*
X80500600Y-121680000D02*
G75*
G02*
X81650600Y-120530000I1150000J0D01*
G01*
X160500600Y-105680000D02*
X160500600Y-109280000D01*
X168500600Y-113680000D02*
X168500600Y-117280000D01*
X161650600Y-126430000D02*
X166250600Y-126430000D01*
X78450600Y-59980000D02*
X80951000Y-59980000D01*
X158400600Y-99280000D02*
G75*
G02*
X157250600Y-100430000I-1150000J0D01*
G01*
X197650600Y-113430000D02*
G75*
G02*
X196500600Y-112280000I0J1150000D01*
G01*
X75950600Y-137980000D02*
X75950600Y-90119500D01*
X204500600Y-126680000D02*
G75*
G02*
X205650600Y-125530000I1150000J0D01*
G01*
X110250600Y-120530000D02*
X105650600Y-120530000D01*
X174250600Y-104530000D02*
X169650600Y-104530000D01*
X177650600Y-110430000D02*
X182250600Y-110430000D01*
X91845600Y-88620000D02*
G75*
G02*
X90845600Y-87620000I0J1000000D01*
G01*
X126250600Y-120530000D02*
X121650600Y-120530000D01*
X168500600Y-105680000D02*
G75*
G02*
X169650600Y-104530000I1150000J0D01*
G01*
X136500600Y-105680000D02*
G75*
G02*
X137650600Y-104530000I1150000J0D01*
G01*
X175400600Y-125280000D02*
X175400600Y-121680000D01*
X120650600Y-100430000D02*
G75*
G02*
X119500600Y-99280000I0J1150000D01*
G01*
X113650600Y-118430000D02*
G75*
G02*
X112500600Y-117280000I0J1150000D01*
G01*
X160500600Y-105680000D02*
G75*
G02*
X161650600Y-104530000I1150000J0D01*
G01*
X222450600Y-78991981D02*
X222450600Y-88827082D01*
X87400600Y-109280000D02*
X87400600Y-105680000D01*
X210250600Y-113430000D02*
X205650600Y-113430000D01*
X96500600Y-129680000D02*
X96500600Y-133280000D01*
X217950600Y-63980000D02*
G75*
G02*
X212950600Y-63980000I-2500000J0D01*
G01*
X161650600Y-134430000D02*
X166250600Y-134430000D01*
X142250600Y-120530000D02*
X137650600Y-120530000D01*
X169650600Y-134430000D02*
G75*
G02*
X168500600Y-133280000I0J1150000D01*
G01*
X128500600Y-113680000D02*
X128500600Y-117280000D01*
X169650600Y-126430000D02*
X174250600Y-126430000D01*
X94250600Y-104530000D02*
G75*
G02*
X95400600Y-105680000I0J-1150000D01*
G01*
X169650600Y-110430000D02*
G75*
G02*
X168500600Y-109280000I0J1150000D01*
G01*
X169650600Y-118430000D02*
G75*
G02*
X168500600Y-117280000I0J1150000D01*
G01*
X120500600Y-113680000D02*
G75*
G02*
X121650600Y-112530000I1150000J0D01*
G01*
X103400600Y-125280001D02*
X103400600Y-121680000D01*
X189650600Y-123930000D02*
G75*
G02*
X188500600Y-122780000I0J1150000D01*
G01*
X218250600Y-94030000D02*
G75*
G02*
X219400600Y-95180000I0J-1150000D01*
G01*
X90845600Y-87620000D02*
X90845600Y-66340000D01*
X161650600Y-126430000D02*
X166250600Y-126430000D01*
X87400600Y-125280001D02*
G75*
G02*
X86250600Y-126430000I-1150000J1D01*
G01*
X210250600Y-102930000D02*
X205650600Y-102930000D01*
X218250600Y-113430000D02*
X213650600Y-113430000D01*
X195400600Y-133280000D02*
G75*
G02*
X194250600Y-134430000I-1150000J0D01*
G01*
X127250600Y-93530000D02*
G75*
G02*
X128400600Y-94680000I0J-1150000D01*
G01*
X96500600Y-121680000D02*
X96500600Y-125280000D01*
X111400600Y-125280000D02*
G75*
G02*
X110250600Y-126430000I-1150000J0D01*
G01*
X88500600Y-121680000D02*
G75*
G02*
X89650600Y-120530000I1150000J0D01*
G01*
X87400600Y-109280001D02*
X87400600Y-105680000D01*
X189650600Y-123930000D02*
G75*
G02*
X188500600Y-122780000I0J1150000D01*
G01*
X102250600Y-112530000D02*
X97650600Y-112530000D01*
X168500600Y-113680000D02*
G75*
G02*
X169650600Y-112530000I1150000J0D01*
G01*
X111400600Y-117280001D02*
X111400600Y-113680000D01*
X81650600Y-126430000D02*
X86250600Y-126430000D01*
X175400600Y-109280000D02*
G75*
G02*
X174250600Y-110430000I-1150000J0D01*
G01*
X176500600Y-105680000D02*
X176500600Y-109280000D01*
X128500600Y-113680000D02*
G75*
G02*
X129650600Y-112530000I1150000J0D01*
G01*
X81951002Y-63935225D02*
X81951002Y-60980000D01*
X205650600Y-115030000D02*
X210250600Y-115030000D01*
X142250600Y-112530000D02*
G75*
G02*
X143400600Y-113680000I0J-1150000D01*
G01*
X150250600Y-120530000D02*
X145650600Y-120530000D01*
X196500600Y-126680000D02*
G75*
G02*
X197650600Y-125530000I1150000J0D01*
G01*
X213650600Y-104530000D02*
X218250600Y-104530000D01*
X110250600Y-120530000D02*
G75*
G02*
X111400600Y-121680000I0J-1150000D01*
G01*
X111400600Y-133280000D02*
G75*
G02*
X110250600Y-134430000I-1150000J0D01*
G01*
X134500600Y-94680000D02*
G75*
G02*
X135650600Y-93530000I1150000J0D01*
G01*
X129650600Y-126430000D02*
X134250600Y-126430000D01*
X166250600Y-120530000D02*
X161650600Y-120530000D01*
X205650600Y-102930000D02*
G75*
G02*
X204500600Y-101780000I0J1150000D01*
G01*
X212500600Y-126680000D02*
G75*
G02*
X213650600Y-125530000I1150000J0D01*
G01*
X223200601Y-89577082D02*
G75*
G02*
X222450618Y-88827082I-1J749982D01*
G01*
X105650600Y-118430000D02*
G75*
G02*
X104500600Y-117280000I0J1150000D01*
G01*
X213650600Y-123930000D02*
G75*
G02*
X212500600Y-122779999I0J1150000D01*
G01*
X111400600Y-109280000D02*
G75*
G02*
X110250600Y-110430000I-1150000J0D01*
G01*
X103400600Y-109280000D02*
X103400600Y-105680000D01*
X175400600Y-117280000D02*
X175400600Y-113680000D01*
X152500600Y-105680000D02*
G75*
G02*
X153650600Y-104530000I1150000J0D01*
G01*
X169650600Y-110430000D02*
X174250600Y-110430000D01*
X143400600Y-117280000D02*
G75*
G02*
X142250600Y-118430000I-1150000J0D01*
G01*
X192422600Y-65828800D02*
G75*
G02*
X194422600Y-67828800I0J-2000000D01*
G01*
X143400600Y-117280000D02*
X143400600Y-113680000D01*
X119500600Y-99280000D02*
X119500600Y-94680000D01*
X144500600Y-113680000D02*
X144500600Y-117280000D01*
X145650600Y-118430000D02*
X150250600Y-118430000D01*
X223200601Y-89577082D02*
G75*
G02*
X223950603Y-90331842I-1J-750018D01*
G01*
X182250600Y-104530000D02*
G75*
G02*
X183400600Y-105680000I0J-1150000D01*
G01*
X152500600Y-105680000D02*
X152500600Y-109280000D01*
X89500600Y-94680000D02*
G75*
G02*
X90650600Y-93530000I1150000J0D01*
G01*
X88500600Y-105680000D02*
G75*
G02*
X89650600Y-104530000I1150000J0D01*
G01*
X152500600Y-121680000D02*
G75*
G02*
X153650600Y-120530000I1150000J0D01*
G01*
X81951000Y-60980000D02*
X81951002Y-60980000D01*
X194250600Y-113430000D02*
X189650600Y-113430000D01*
X218250600Y-115030000D02*
G75*
G02*
X219400600Y-116180000I0J-1150000D01*
G01*
X174250600Y-120530000D02*
X169650600Y-120530000D01*
X151400600Y-109280001D02*
X151400600Y-105680000D01*
X153650600Y-134430000D02*
G75*
G02*
X152500600Y-133280000I0J1150000D01*
G01*
X127400600Y-109280000D02*
X127400600Y-105680000D01*
X151400600Y-117280000D02*
G75*
G02*
X150250600Y-118430000I-1150000J0D01*
G01*
X166250600Y-120530000D02*
G75*
G02*
X167400600Y-121680000I0J-1150000D01*
G01*
X174250600Y-128530000D02*
G75*
G02*
X175400600Y-129680000I0J-1150000D01*
G01*
X212500600Y-105680000D02*
G75*
G02*
X213650600Y-104530000I1150000J0D01*
G01*
X196500600Y-95180000D02*
G75*
G02*
X197650600Y-94030000I1150000J0D01*
G01*
X142250600Y-104530000D02*
G75*
G02*
X143400600Y-105680000I0J-1150000D01*
G01*
X112500600Y-105680000D02*
X112500600Y-109280000D01*
X160500600Y-105680000D02*
G75*
G02*
X161650600Y-104530000I1150000J0D01*
G01*
X112500600Y-105680000D02*
X112500600Y-109280000D01*
X212500600Y-126680000D02*
G75*
G02*
X213650600Y-125530000I1150000J0D01*
G01*
X128500600Y-105680000D02*
G75*
G02*
X129650600Y-104530000I1150000J0D01*
G01*
X129650600Y-118430000D02*
G75*
G02*
X128500600Y-117280000I0J1150000D01*
G01*
X127400600Y-117280000D02*
G75*
G02*
X126250600Y-118430000I-1150000J0D01*
G01*
X143400600Y-125280000D02*
X143400600Y-121680000D01*
X88500600Y-121680000D02*
G75*
G02*
X89650600Y-120530000I1150000J0D01*
G01*
X128500600Y-105680000D02*
G75*
G02*
X129650600Y-104530000I1150000J0D01*
G01*
X97650600Y-134430000D02*
G75*
G02*
X96500600Y-133280000I0J1150000D01*
G01*
X218250600Y-113430000D02*
X213650600Y-113430000D01*
X111400600Y-133280000D02*
G75*
G02*
X110250600Y-134430000I-1150000J0D01*
G01*
X87985596Y-59980009D02*
X211984905Y-59980009D01*
X112250600Y-100430000D02*
X105650600Y-100430000D01*
X121650600Y-126430000D02*
X126250600Y-126430000D01*
X97650600Y-126430000D02*
X102250600Y-126430000D01*
X175400600Y-125280001D02*
X175400600Y-121680000D01*
X161650600Y-118430000D02*
X166250600Y-118430000D01*
X90845600Y-66340000D02*
G75*
G02*
X91845601Y-65340000I1000000J0D01*
G01*
X111400600Y-117280001D02*
G75*
G02*
X110250600Y-118430000I-1150000J1D01*
G01*
X174250600Y-128530000D02*
G75*
G02*
X175400600Y-129680000I0J-1150000D01*
G01*
X118250600Y-120530000D02*
X113650600Y-120530000D01*
X177650600Y-110430000D02*
G75*
G02*
X176500600Y-109280000I0J1150000D01*
G01*
X211984905Y-59980009D02*
G75*
G02*
X212950600Y-60980000I-34905J-999991D01*
G01*
X144500600Y-121680000D02*
G75*
G02*
X145650600Y-120530000I1150000J0D01*
G01*
X112250600Y-93530000D02*
G75*
G02*
X113400600Y-94680000I0J-1150000D01*
G01*
X161650600Y-118430000D02*
G75*
G02*
X160500600Y-117280000I0J1150000D01*
G01*
X97250600Y-100430000D02*
X90650600Y-100430000D01*
X127250600Y-93530000D02*
G75*
G02*
X128400600Y-94680000I0J-1150000D01*
G01*
X110250600Y-112530000D02*
G75*
G02*
X111400600Y-113680000I0J-1150000D01*
G01*
X135400600Y-109280000D02*
X135400600Y-105680000D01*
X204500600Y-105680000D02*
G75*
G02*
X205650600Y-104530000I1150000J0D01*
G01*
X112500600Y-129680000D02*
G75*
G02*
X113650600Y-128530000I1150000J0D01*
G01*
X87400600Y-117280000D02*
G75*
G02*
X86250600Y-118430000I-1150000J0D01*
G01*
X223950698Y-137979994D02*
G75*
G02*
X220950700Y-140979998I-2999998J-6D01*
G01*
X136500600Y-105680000D02*
X136500600Y-109280000D01*
X169650600Y-118430000D02*
G75*
G02*
X168500600Y-117280000I0J1150000D01*
G01*
X211400600Y-122780000D02*
G75*
G02*
X210250600Y-123930000I-1150000J0D01*
G01*
X212500600Y-116180000D02*
G75*
G02*
X213650600Y-115030000I1150000J0D01*
G01*
X150250600Y-112530000D02*
G75*
G02*
X151400600Y-113680000I0J-1150000D01*
G01*
X175400600Y-117280000D02*
X175400600Y-113680000D01*
X196500600Y-126680000D02*
G75*
G02*
X197650600Y-125530000I1150000J0D01*
G01*
X210250600Y-113430000D02*
X205650600Y-113430000D01*
X86250600Y-104530000D02*
G75*
G02*
X87400600Y-105680000I0J-1150000D01*
G01*
X221450600Y-59980009D02*
G75*
G02*
X223950591Y-62480000I0J-2499991D01*
G01*
X112500600Y-105680000D02*
X112500600Y-109280000D01*
X86250600Y-128530000D02*
X81650600Y-128530000D01*
X105650600Y-110430000D02*
X110250600Y-110430000D01*
X155985593Y-88620000D02*
X91845600Y-88620000D01*
X89650600Y-134430000D02*
G75*
G02*
X88500600Y-133280000I0J1150000D01*
G01*
X134500600Y-99280000D02*
X134500600Y-94680000D01*
X204500600Y-133279999D02*
X204500600Y-126680000D01*
X103400600Y-109280000D02*
G75*
G02*
X102250600Y-110430000I-1150000J0D01*
G01*
X204500600Y-133280000D02*
X204500600Y-126680000D01*
X75950600Y-90119500D02*
G75*
G02*
X76487621Y-89234707I997400J0D01*
G01*
X135400600Y-125280001D02*
G75*
G02*
X134250600Y-126430000I-1150000J1D01*
G01*
X182250600Y-128530000D02*
G75*
G02*
X183400600Y-129680000I0J-1150000D01*
G01*
X111400600Y-109280000D02*
X111400600Y-105680000D01*
X105650600Y-110430000D02*
G75*
G02*
X104500600Y-109280000I0J1150000D01*
G01*
X95400600Y-109280000D02*
G75*
G02*
X94250600Y-110430000I-1150000J0D01*
G01*
X196500600Y-133280000D02*
X196500600Y-126680000D01*
X158250600Y-120530000D02*
G75*
G02*
X159400600Y-121680000I0J-1150000D01*
G01*
X205650600Y-125530000D02*
X210250600Y-125530000D01*
X195400600Y-126680000D02*
X195400600Y-133280000D01*
X168500600Y-113680000D02*
X168500600Y-117280000D01*
X145650600Y-118430000D02*
G75*
G02*
X144500600Y-117280000I0J1150000D01*
G01*
X128500600Y-121680000D02*
X128500600Y-125280000D01*
X210250600Y-104530000D02*
G75*
G02*
X211400600Y-105680000I0J-1150000D01*
G01*
X175400600Y-133280000D02*
G75*
G02*
X174250600Y-134430000I-1150000J0D01*
G01*
X121650600Y-126430000D02*
G75*
G02*
X120500600Y-125280000I0J1150000D01*
G01*
X80951000Y-59980000D02*
G75*
G02*
X81951000Y-60980000I0J-1000000D01*
G01*
X121650600Y-118430000D02*
X126250600Y-118430000D01*
X102250600Y-112530000D02*
G75*
G02*
X103400600Y-113680000I0J-1150000D01*
G01*
X166250600Y-104530000D02*
X161650600Y-104530000D01*
X202250600Y-125530000D02*
G75*
G02*
X203400600Y-126680000I0J-1150000D01*
G01*
X150250600Y-120530000D02*
X145650600Y-120530000D01*
X105650600Y-110430000D02*
X110250600Y-110430000D01*
X218250600Y-134430000D02*
X213650600Y-134430000D01*
X166250600Y-104530000D02*
X161650600Y-104530000D01*
X135400600Y-109280000D02*
G75*
G02*
X134250600Y-110430000I-1150000J0D01*
G01*
X80500600Y-113680000D02*
X80500600Y-117280000D01*
X153650600Y-110430000D02*
X158250600Y-110430000D01*
X143400600Y-125280001D02*
G75*
G02*
X142250600Y-126430000I-1150000J1D01*
G01*
X113650600Y-110430000D02*
X118250600Y-110430000D01*
X166250600Y-128530000D02*
G75*
G02*
X167400600Y-129680000I0J-1150000D01*
G01*
X118250600Y-120530000D02*
G75*
G02*
X119400600Y-121680000I0J-1150000D01*
G01*
X105650600Y-126430000D02*
G75*
G02*
X104500600Y-125280000I0J1150000D01*
G01*
X153650600Y-118430000D02*
G75*
G02*
X152500600Y-117280000I0J1150000D01*
G01*
X96500600Y-129680000D02*
G75*
G02*
X97650600Y-128530000I1150000J0D01*
G01*
X128500600Y-113680000D02*
X128500600Y-117280000D01*
X167400600Y-125280000D02*
G75*
G02*
X166250600Y-126430000I-1150000J0D01*
G01*
X168500600Y-129680000D02*
X168500600Y-133280000D01*
X152500600Y-105680000D02*
X152500600Y-109280000D01*
X81650600Y-126430000D02*
G75*
G02*
X80500600Y-125280000I0J1150000D01*
G01*
X90650600Y-93530000D02*
X97250600Y-93530000D01*
X174250600Y-104530000D02*
X169650600Y-104530000D01*
X188500600Y-122780000D02*
X188500600Y-116180000D01*
X97650600Y-134430000D02*
X102250600Y-134430000D01*
X174250600Y-112530000D02*
X169650600Y-112530000D01*
X169650600Y-110430000D02*
X174250600Y-110430000D01*
X88500600Y-129680000D02*
G75*
G02*
X89650600Y-128530000I1150000J0D01*
G01*
X221450600Y-59980009D02*
G75*
G02*
X223950591Y-62480000I0J-2499991D01*
G01*
X136500600Y-113680000D02*
X136500600Y-117280000D01*
X81650600Y-126430000D02*
X86250600Y-126430000D01*
X149500600Y-94680000D02*
G75*
G02*
X150650600Y-93530000I1150000J0D01*
G01*
X161650600Y-110430000D02*
X166250600Y-110430000D01*
X205650600Y-104530000D02*
X210250600Y-104530000D01*
X152500600Y-113680000D02*
X152500600Y-117280000D01*
X182250600Y-120530000D02*
X177650600Y-120530000D01*
X204500600Y-101780000D02*
X204500600Y-95180000D01*
X81951002Y-63935225D02*
X81951002Y-60980000D01*
X135400600Y-125280000D02*
G75*
G02*
X134250600Y-126430000I-1150000J0D01*
G01*
X202250600Y-123930000D02*
X197650600Y-123930000D01*
X166250600Y-120530000D02*
X161650600Y-120530000D01*
X182250600Y-104530000D02*
X177650600Y-104530000D01*
X202250600Y-94030000D02*
G75*
G02*
X203400600Y-95180000I0J-1150000D01*
G01*
X168500600Y-121680000D02*
G75*
G02*
X169650600Y-120530000I1150000J0D01*
G01*
X145650600Y-126430000D02*
X150250600Y-126430000D01*
X89650600Y-118430000D02*
X94250600Y-118430000D01*
X111400600Y-109280000D02*
G75*
G02*
X110250600Y-110430000I-1150000J0D01*
G01*
X169650600Y-134430000D02*
G75*
G02*
X168500600Y-133280000I0J1150000D01*
G01*
X189650600Y-94030000D02*
X194250600Y-94030000D01*
X217950600Y-63980000D02*
X217950600Y-60980000D01*
X119400600Y-109280000D02*
G75*
G02*
X118250600Y-110430000I-1150000J0D01*
G01*
X121650600Y-110430000D02*
G75*
G02*
X120500600Y-109280000I0J1150000D01*
G01*
X158250600Y-120530000D02*
X153650600Y-120530000D01*
X150650600Y-93530000D02*
X157250600Y-93530000D01*
X218250600Y-94030000D02*
G75*
G02*
X219400600Y-95180000I0J-1150000D01*
G01*
X129650600Y-118430000D02*
X134250600Y-118430000D01*
X113650600Y-126430000D02*
X118250600Y-126430000D01*
X126250600Y-104530000D02*
X121650600Y-104530000D01*
X175400600Y-117280000D02*
G75*
G02*
X174250600Y-118430000I-1150000J0D01*
G01*
X120650600Y-100430000D02*
G75*
G02*
X119500600Y-99280000I0J1150000D01*
G01*
X76487606Y-78210504D02*
G75*
G02*
X77024604Y-79250000I-737606J-1039496D01*
G01*
X103400600Y-109280000D02*
G75*
G02*
X102250600Y-110430000I-1150000J0D01*
G01*
X97650600Y-134430000D02*
X102250600Y-134430000D01*
X188500600Y-112280000D02*
X188500600Y-105680000D01*
X174250600Y-104530000D02*
G75*
G02*
X175400600Y-105680000I0J-1150000D01*
G01*
X188500600Y-101779999D02*
X188500600Y-95180000D01*
X95400600Y-117280001D02*
X95400600Y-113680000D01*
X120500600Y-105680000D02*
G75*
G02*
X121650600Y-104530000I1150000J0D01*
G01*
X175400600Y-117280000D02*
G75*
G02*
X174250600Y-118430000I-1150000J0D01*
G01*
X166250600Y-112530000D02*
G75*
G02*
X167400600Y-113680000I0J-1150000D01*
G01*
X113650600Y-134430000D02*
G75*
G02*
X112500600Y-133280000I0J1150000D01*
G01*
X196500600Y-116180000D02*
G75*
G02*
X197650600Y-115030000I1150000J0D01*
G01*
X143400600Y-117280000D02*
G75*
G02*
X142250600Y-118430000I-1150000J0D01*
G01*
X158250600Y-112530000D02*
G75*
G02*
X159400600Y-113680000I0J-1150000D01*
G01*
X80500600Y-129680000D02*
X80500600Y-133280000D01*
X196500600Y-122780000D02*
X196500600Y-116180000D01*
X160500600Y-105680000D02*
X160500600Y-109280000D01*
X144500600Y-105680000D02*
X144500600Y-109280000D01*
X223950603Y-90331842D02*
X223950698Y-137979994D01*
X96500600Y-105680000D02*
X96500600Y-109280000D01*
X77024612Y-88350000D02*
G75*
G02*
X76487603Y-89234672I-997212J0D01*
G01*
X103400600Y-117280000D02*
X103400600Y-113680000D01*
X203400600Y-105680000D02*
X203400600Y-112280000D01*
X86250600Y-120530000D02*
X81650600Y-120530000D01*
X104500600Y-113680000D02*
X104500600Y-117280000D01*
X119400600Y-117280000D02*
G75*
G02*
X118250600Y-118430000I-1150000J0D01*
G01*
X88500600Y-105680000D02*
X88500600Y-109280000D01*
X211400600Y-122780000D02*
G75*
G02*
X210250600Y-123930000I-1150000J0D01*
G01*
X102250600Y-128530000D02*
G75*
G02*
X103400600Y-129680000I0J-1150000D01*
G01*
X144500600Y-113680000D02*
G75*
G02*
X145650600Y-112530000I1150000J0D01*
G01*
X104500600Y-129680000D02*
G75*
G02*
X105650600Y-128530000I1150000J0D01*
G01*
X210250600Y-115030000D02*
G75*
G02*
X211400600Y-116180000I0J-1150000D01*
G01*
X95400600Y-109280000D02*
X95400600Y-105680000D01*
X177650600Y-126430000D02*
G75*
G02*
X176500600Y-125280000I0J1150000D01*
G01*
X213650600Y-123930000D02*
G75*
G02*
X212500600Y-122780000I0J1150000D01*
G01*
X120500600Y-105680000D02*
X120500600Y-109280000D01*
X182250600Y-104530000D02*
G75*
G02*
X183400600Y-105680000I0J-1150000D01*
G01*
X145650600Y-126430000D02*
X150250600Y-126430000D01*
X183400600Y-109280001D02*
G75*
G02*
X182250600Y-110430000I-1150000J1D01*
G01*
X97650600Y-126430000D02*
G75*
G02*
X96500600Y-125280000I0J1150000D01*
G01*
X112500600Y-113680000D02*
G75*
G02*
X113650600Y-112530000I1150000J0D01*
G01*
X104500600Y-113680000D02*
G75*
G02*
X105650600Y-112530000I1150000J0D01*
G01*
X197650600Y-94030000D02*
X202250600Y-94030000D01*
X89650600Y-110430000D02*
X94250600Y-110430000D01*
X121650600Y-118430000D02*
X126250600Y-118430000D01*
X175400600Y-125280000D02*
X175400600Y-121680000D01*
X182250600Y-120530000D02*
G75*
G02*
X183400600Y-121680000I0J-1150000D01*
G01*
X118250600Y-120530000D02*
G75*
G02*
X119400600Y-121680000I0J-1150000D01*
G01*
X203400600Y-105680000D02*
X203400600Y-112280000D01*
X205650600Y-125530000D02*
X210250600Y-125530000D01*
X174250600Y-120530000D02*
G75*
G02*
X175400600Y-121680000I0J-1150000D01*
G01*
X134500600Y-99280000D02*
X134500600Y-94680000D01*
X95400600Y-109280000D02*
X95400600Y-105680000D01*
X112500600Y-105680000D02*
G75*
G02*
X113650600Y-104530000I1150000J0D01*
G01*
X129650600Y-110430000D02*
G75*
G02*
X128500600Y-109280000I0J1150000D01*
G01*
X88500600Y-129680000D02*
X88500600Y-133280000D01*
X96500600Y-129680000D02*
X96500600Y-133280000D01*
X194422600Y-73823200D02*
G75*
G02*
X192422600Y-75823200I-2000000J0D01*
G01*
X212500600Y-112280000D02*
X212500600Y-105680000D01*
X144500600Y-113680000D02*
X144500600Y-117280000D01*
X166250600Y-128530000D02*
X161650600Y-128530000D01*
X129650600Y-118430000D02*
X134250600Y-118430000D01*
X203400600Y-133280000D02*
G75*
G02*
X202250600Y-134430000I-1150000J0D01*
G01*
X210250600Y-115030000D02*
G75*
G02*
X211400600Y-116180000I0J-1150000D01*
G01*
X88500600Y-121680000D02*
X88500600Y-125280000D01*
X80500600Y-105680000D02*
G75*
G02*
X81650600Y-104530000I1150000J0D01*
G01*
X144500600Y-105680000D02*
X144500600Y-109280000D01*
X81650600Y-134430000D02*
G75*
G02*
X80500600Y-133280000I0J1150000D01*
G01*
X182250600Y-120530000D02*
X177650600Y-120530000D01*
X87400600Y-117280001D02*
G75*
G02*
X86250600Y-118430000I-1150000J1D01*
G01*
X169650600Y-126430000D02*
X174250600Y-126430000D01*
X167400600Y-109280000D02*
G75*
G02*
X166250600Y-110430000I-1150000J0D01*
G01*
X97650600Y-126430000D02*
G75*
G02*
X96500600Y-125280000I0J1150000D01*
G01*
X219400600Y-112280000D02*
G75*
G02*
X218250600Y-113430000I-1150000J0D01*
G01*
X195400600Y-122780000D02*
G75*
G02*
X194250600Y-123930000I-1150000J0D01*
G01*
X119400600Y-125280000D02*
G75*
G02*
X118250600Y-126430000I-1150000J0D01*
G01*
X203400600Y-122780000D02*
G75*
G02*
X202250600Y-123930000I-1150000J0D01*
G01*
X150250600Y-104530000D02*
G75*
G02*
X151400600Y-105680000I0J-1150000D01*
G01*
X145650600Y-110430000D02*
X150250600Y-110430000D01*
X166250600Y-104530000D02*
X161650600Y-104530000D01*
X192422600Y-65828800D02*
X179722600Y-65828800D01*
X89650600Y-110430000D02*
G75*
G02*
X88500600Y-109280000I0J1150000D01*
G01*
X203400600Y-112280000D02*
G75*
G02*
X202250600Y-113430000I-1150000J0D01*
G01*
X167400600Y-117280000D02*
X167400600Y-113680000D01*
X183400600Y-109280001D02*
G75*
G02*
X182250600Y-110430000I-1150000J1D01*
G01*
X151400600Y-109280001D02*
G75*
G02*
X150250600Y-110430000I-1150000J1D01*
G01*
X75950600Y-77171001D02*
X75950584Y-62480000D01*
X195400600Y-95180000D02*
X195400600Y-101780000D01*
X189650600Y-134430000D02*
G75*
G02*
X188500600Y-133280000I0J1150000D01*
G01*
X166250600Y-120530000D02*
X161650600Y-120530000D01*
X202250600Y-102930000D02*
X197650600Y-102930000D01*
X76487606Y-78210504D02*
G75*
G02*
X77024604Y-79250000I-737606J-1039496D01*
G01*
X210250600Y-104530000D02*
G75*
G02*
X211400600Y-105680000I0J-1150000D01*
G01*
X156985600Y-66340000D02*
X156985600Y-87620000D01*
X120500600Y-121680000D02*
G75*
G02*
X121650600Y-120530000I1150000J0D01*
G01*
X167400600Y-133280000D02*
X167400600Y-129680000D01*
X78450600Y-59980000D02*
X80951000Y-59980000D01*
X104500600Y-129680000D02*
X104500600Y-133280000D01*
X174250600Y-112530000D02*
X169650600Y-112530000D01*
X135400600Y-125280000D02*
X135400600Y-121680000D01*
X110250600Y-120530000D02*
G75*
G02*
X111400600Y-121680000I0J-1150000D01*
G01*
X110250600Y-104530000D02*
X105650600Y-104530000D01*
X110250600Y-120530000D02*
G75*
G02*
X111400600Y-121680000I0J-1150000D01*
G01*
X158400600Y-99280000D02*
G75*
G02*
X157250600Y-100430000I-1150000J0D01*
G01*
X175400600Y-133280000D02*
G75*
G02*
X174250600Y-134430000I-1150000J0D01*
G01*
X97650600Y-134430000D02*
X102250600Y-134430000D01*
X129650600Y-110430000D02*
X134250600Y-110430000D01*
X218986105Y-59980009D02*
X221450600Y-59980009D01*
X144500600Y-105680000D02*
G75*
G02*
X145650600Y-104530000I1150000J0D01*
G01*
X189650600Y-104530000D02*
X194250600Y-104530000D01*
X127400600Y-117280000D02*
G75*
G02*
X126250600Y-118430000I-1150000J0D01*
G01*
X144500600Y-121680000D02*
X144500600Y-125280000D01*
X153650600Y-110430000D02*
X158250600Y-110430000D01*
X102250600Y-112530000D02*
X97650600Y-112530000D01*
X80500600Y-105680000D02*
X80500600Y-109280000D01*
X174250600Y-128530000D02*
X169650600Y-128530000D01*
X80951000Y-59980000D02*
G75*
G02*
X81951000Y-60980000I0J-1000000D01*
G01*
X183400600Y-125280000D02*
G75*
G02*
X182250600Y-126430000I-1150000J0D01*
G01*
X76487606Y-78210504D02*
G75*
G02*
X77024604Y-79250000I-737606J-1039496D01*
G01*
X177650600Y-110430000D02*
X182250600Y-110430000D01*
X95400600Y-125280000D02*
X95400600Y-121680000D01*
X88500600Y-129680000D02*
X88500600Y-133280000D01*
X88500600Y-113680000D02*
X88500600Y-117280000D01*
X152500600Y-105680000D02*
X152500600Y-109280000D01*
X105650600Y-134430000D02*
G75*
G02*
X104500600Y-133280000I0J1150000D01*
G01*
X219400600Y-122780000D02*
G75*
G02*
X218250600Y-123930000I-1150000J0D01*
G01*
X110250600Y-128530000D02*
X105650600Y-128530000D01*
X179722600Y-75823200D02*
X192422600Y-75823200D01*
X150650600Y-93530000D02*
X157250600Y-93530000D01*
X126250600Y-120530000D02*
X121650600Y-120530000D01*
X128500600Y-121680000D02*
X128500600Y-125280000D01*
X87400600Y-109280000D02*
G75*
G02*
X86250600Y-110430000I-1150000J0D01*
G01*
X153650600Y-126430000D02*
X158250600Y-126430000D01*
X113400600Y-99280000D02*
G75*
G02*
X112250600Y-100430000I-1150000J0D01*
G01*
X194250600Y-115030000D02*
G75*
G02*
X195400600Y-116180000I0J-1150000D01*
G01*
X102250600Y-112530000D02*
X97650600Y-112530000D01*
X89650600Y-126430000D02*
X94250600Y-126430000D01*
X177650600Y-118430000D02*
G75*
G02*
X176500600Y-117280000I0J1150000D01*
G01*
X151400600Y-109280000D02*
X151400600Y-105680000D01*
X160500600Y-105680000D02*
X160500600Y-109280000D01*
X160500600Y-113680000D02*
G75*
G02*
X161650600Y-112530000I1150000J0D01*
G01*
X151400600Y-109280001D02*
X151400600Y-105680000D01*
X183400600Y-117280000D02*
X183400600Y-113680000D01*
X112500600Y-121680000D02*
G75*
G02*
X113650600Y-120530000I1150000J0D01*
G01*
X137650600Y-118430000D02*
X142250600Y-118430000D01*
X177650600Y-126430000D02*
G75*
G02*
X176500600Y-125280000I0J1150000D01*
G01*
X213650600Y-125530000D02*
X218250600Y-125530000D01*
X168500600Y-121680000D02*
X168500600Y-125280000D01*
X159400600Y-133280001D02*
G75*
G02*
X158250600Y-134430000I-1150000J1D01*
G01*
X205650600Y-104530000D02*
X210250600Y-104530000D01*
X210250600Y-102930000D02*
X205650600Y-102930000D01*
X158250600Y-112530000D02*
X153650600Y-112530000D01*
X118250600Y-104530000D02*
G75*
G02*
X119400600Y-105680000I0J-1150000D01*
G01*
X213650600Y-94030000D02*
X218250600Y-94030000D01*
X113650600Y-126430000D02*
X118250600Y-126430000D01*
X203400600Y-122780000D02*
G75*
G02*
X202250600Y-123930000I-1150000J0D01*
G01*
X167400600Y-117280000D02*
X167400600Y-113680000D01*
X119500600Y-99280000D02*
X119500600Y-94680000D01*
X104500600Y-121680000D02*
X104500600Y-125280000D01*
X195400600Y-133280000D02*
G75*
G02*
X194250600Y-134430000I-1150000J0D01*
G01*
X113650600Y-134430000D02*
G75*
G02*
X112500600Y-133280000I0J1150000D01*
G01*
X86250600Y-128530000D02*
G75*
G02*
X87400600Y-129680000I0J-1150000D01*
G01*
X223200601Y-89577082D02*
G75*
G02*
X222450618Y-88827082I-1J749982D01*
G01*
X160500600Y-113680000D02*
X160500600Y-117280000D01*
X218250600Y-123930000D02*
X213650600Y-123930000D01*
X128500600Y-121680000D02*
G75*
G02*
X129650600Y-120530000I1150000J0D01*
G01*
X94250600Y-112530000D02*
X89650600Y-112530000D01*
X177650600Y-118430000D02*
X182250600Y-118430000D01*
X128400600Y-99280000D02*
G75*
G02*
X127250600Y-100430000I-1150000J0D01*
G01*
X188500600Y-105680000D02*
G75*
G02*
X189650600Y-104530000I1150000J0D01*
G01*
X179722600Y-75823200D02*
G75*
G02*
X177722600Y-73823200I0J2000000D01*
G01*
X166250600Y-104530000D02*
G75*
G02*
X167400600Y-105680000I0J-1150000D01*
G01*
X219400600Y-105680000D02*
X219400600Y-112280000D01*
X129650600Y-118430000D02*
G75*
G02*
X128500600Y-117280000I0J1150000D01*
G01*
X75950600Y-77171001D02*
X75950584Y-62480003D01*
X174250600Y-120530000D02*
X169650600Y-120530000D01*
X218250600Y-134430000D02*
X213650600Y-134430000D01*
X143400600Y-94680000D02*
X143400600Y-99280000D01*
X105650600Y-118430000D02*
G75*
G02*
X104500600Y-117280000I0J1150000D01*
G01*
X88500600Y-105680000D02*
G75*
G02*
X89650600Y-104530000I1150000J0D01*
G01*
X134250600Y-112530000D02*
X129650600Y-112530000D01*
X203400600Y-116180000D02*
X203400600Y-122780000D01*
X203400600Y-101780000D02*
G75*
G02*
X202250600Y-102930000I-1150000J0D01*
G01*
X105650600Y-93530000D02*
X112250600Y-93530000D01*
X152500600Y-105680000D02*
G75*
G02*
X153650600Y-104530000I1150000J0D01*
G01*
X126250600Y-112530000D02*
X121650600Y-112530000D01*
X136500600Y-121680000D02*
G75*
G02*
X137650600Y-120530000I1150000J0D01*
G01*
X166250600Y-112530000D02*
X161650600Y-112530000D01*
X156985600Y-87620000D02*
G75*
G02*
X155985600Y-88620000I-1000000J0D01*
G01*
X87985567Y-59980009D02*
X211984905Y-59980009D01*
X86250600Y-104530000D02*
X81650600Y-104530000D01*
X111400600Y-117280001D02*
G75*
G02*
X110250600Y-118430000I-1150000J1D01*
G01*
X160500600Y-105680000D02*
X160500600Y-109280000D01*
X81650600Y-118430000D02*
G75*
G02*
X80500600Y-117280000I0J1150000D01*
G01*
X143400600Y-109280001D02*
X143400600Y-105680000D01*
X134250600Y-120530000D02*
G75*
G02*
X135400600Y-121680000I0J-1150000D01*
G01*
X81650600Y-134430000D02*
G75*
G02*
X80500600Y-133280000I0J1150000D01*
G01*
X182250600Y-128530000D02*
X177650600Y-128530000D01*
X137650600Y-110430000D02*
G75*
G02*
X136500600Y-109280000I0J1150000D01*
G01*
X86950600Y-63980000D02*
G75*
G02*
X81951001Y-63935225I-2500000J0D01*
G01*
X87400600Y-133280001D02*
X87400600Y-129680000D01*
X188500600Y-133280000D02*
X188500600Y-126680000D01*
X212500600Y-105680000D02*
G75*
G02*
X213650600Y-104530000I1150000J0D01*
G01*
X161650600Y-110430000D02*
X166250600Y-110430000D01*
X212950600Y-63980000D02*
X212950600Y-60980000D01*
X218986105Y-59980009D02*
X221450600Y-59980009D01*
X113650600Y-110430000D02*
X118250600Y-110430000D01*
X135650600Y-93530000D02*
X142250600Y-93530000D01*
X80500600Y-113680000D02*
X80500600Y-117280000D01*
X120500600Y-113680000D02*
X120500600Y-117280000D01*
X205650600Y-94030000D02*
X210250600Y-94030000D01*
X177650600Y-118430000D02*
X182250600Y-118430000D01*
X167400600Y-133280001D02*
G75*
G02*
X166250600Y-134430000I-1150000J1D01*
G01*
X86950600Y-63980000D02*
X86950600Y-60979500D01*
X156985600Y-87620000D02*
G75*
G02*
X155985600Y-88620000I-1000000J0D01*
G01*
X159400600Y-125280000D02*
G75*
G02*
X158250600Y-126430000I-1150000J0D01*
G01*
X196500600Y-116180000D02*
G75*
G02*
X197650600Y-115030000I1150000J0D01*
G01*
X150250600Y-104530000D02*
G75*
G02*
X151400600Y-105680000I0J-1150000D01*
G01*
X89650600Y-134430000D02*
G75*
G02*
X88500600Y-133280000I0J1150000D01*
G01*
X128500600Y-121680000D02*
G75*
G02*
X129650600Y-120530000I1150000J0D01*
G01*
X97250600Y-100430000D02*
X90650600Y-100430000D01*
X176500600Y-105680000D02*
X176500600Y-109280000D01*
X96500600Y-121680000D02*
G75*
G02*
X97650600Y-120530000I1150000J0D01*
G01*
X205650600Y-113430000D02*
G75*
G02*
X204500600Y-112280000I0J1150000D01*
G01*
X120500600Y-105680000D02*
X120500600Y-109280000D01*
X134250600Y-120530000D02*
G75*
G02*
X135400600Y-121680000I0J-1150000D01*
G01*
X167400600Y-117280000D02*
G75*
G02*
X166250600Y-118430000I-1150000J0D01*
G01*
X210250600Y-94030000D02*
G75*
G02*
X211400600Y-95180000I0J-1150000D01*
G01*
X97650600Y-126430000D02*
G75*
G02*
X96500600Y-125280000I0J1150000D01*
G01*
X218250600Y-134430000D02*
X213650600Y-134430000D01*
X134250600Y-104530000D02*
G75*
G02*
X135400600Y-105680000I0J-1150000D01*
G01*
X176500600Y-121680000D02*
G75*
G02*
X177650600Y-120530000I1150000J0D01*
G01*
X112500600Y-129680000D02*
X112500600Y-133280000D01*
X174250600Y-120530000D02*
G75*
G02*
X175400600Y-121680000I0J-1150000D01*
G01*
X137650600Y-118430000D02*
G75*
G02*
X136500600Y-117280000I0J1150000D01*
G01*
X126250600Y-112530000D02*
X121650600Y-112530000D01*
X168500600Y-129680000D02*
G75*
G02*
X169650600Y-128530000I1150000J0D01*
G01*
X103400600Y-117280000D02*
X103400600Y-113680000D01*
X177650600Y-110430000D02*
G75*
G02*
X176500600Y-109280000I0J1150000D01*
G01*
X174250600Y-120530000D02*
X169650600Y-120530000D01*
X160500600Y-129680000D02*
G75*
G02*
X161650600Y-128530000I1150000J0D01*
G01*
X169650600Y-134430000D02*
X174250600Y-134430000D01*
X113650600Y-118430000D02*
G75*
G02*
X112500600Y-117280000I0J1150000D01*
G01*
X77024612Y-88350000D02*
X77024612Y-79250000D01*
X81650600Y-126430000D02*
G75*
G02*
X80500600Y-125280000I0J1150000D01*
G01*
X94250600Y-120530000D02*
G75*
G02*
X95400600Y-121680000I0J-1150000D01*
G01*
X143400600Y-109280000D02*
G75*
G02*
X142250600Y-110430000I-1150000J0D01*
G01*
X94250600Y-128530000D02*
G75*
G02*
X95400600Y-129680000I0J-1150000D01*
G01*
X210250600Y-134430000D02*
X205650600Y-134430000D01*
X157250600Y-100430000D02*
X150650600Y-100430000D01*
X102250600Y-120530000D02*
X97650600Y-120530000D01*
X168500600Y-121680000D02*
X168500600Y-125280000D01*
X153650600Y-126430000D02*
G75*
G02*
X152500600Y-125280000I0J1150000D01*
G01*
X142250600Y-100430000D02*
X135650600Y-100430000D01*
X86250600Y-112530000D02*
X81650600Y-112530000D01*
X175400600Y-133280000D02*
G75*
G02*
X174250600Y-134430000I-1150000J0D01*
G01*
X212500600Y-122780000D02*
X212500600Y-116180000D01*
X142250600Y-100430000D02*
X135650600Y-100430000D01*
X205650600Y-102930000D02*
G75*
G02*
X204500600Y-101780000I0J1150000D01*
G01*
X105650600Y-126430000D02*
X110250600Y-126430000D01*
X194250600Y-94030000D02*
G75*
G02*
X195400600Y-95180000I0J-1150000D01*
G01*
X98400600Y-99280000D02*
G75*
G02*
X97250600Y-100430000I-1150000J0D01*
G01*
X167400600Y-125280001D02*
G75*
G02*
X166250600Y-126430000I-1150000J1D01*
G01*
X121650600Y-118430000D02*
G75*
G02*
X120500600Y-117280000I0J1150000D01*
G01*
X144500600Y-121680000D02*
G75*
G02*
X145650600Y-120530000I1150000J0D01*
G01*
X177650600Y-126430000D02*
G75*
G02*
X176500600Y-125280000I0J1150000D01*
G01*
X205650600Y-113430000D02*
G75*
G02*
X204500600Y-112280000I0J1150000D01*
G01*
X89650600Y-134430000D02*
X94250600Y-134430000D01*
X127250599Y-100430000D02*
X120650600Y-100430000D01*
X89650600Y-110430000D02*
X94250600Y-110430000D01*
X194422600Y-73823200D02*
X194422600Y-67828800D01*
X104500600Y-121680000D02*
G75*
G02*
X105650600Y-120530000I1150000J0D01*
G01*
X211400600Y-101780000D02*
G75*
G02*
X210250600Y-102930000I-1150000J0D01*
G01*
X196500600Y-112280000D02*
X196500600Y-105680000D01*
X188500600Y-101780000D02*
X188500600Y-95180000D01*
X189650600Y-115030000D02*
X194250600Y-115030000D01*
X158250600Y-128530000D02*
X153650600Y-128530000D01*
X105650600Y-100430000D02*
G75*
G02*
X104500600Y-99280000I0J1150000D01*
G01*
X223200601Y-89577082D02*
G75*
G02*
X222450618Y-88827082I-1J749982D01*
G01*
X157250600Y-93530000D02*
G75*
G02*
X158400600Y-94680000I0J-1150000D01*
G01*
X218250600Y-104530000D02*
G75*
G02*
X219400600Y-105680000I0J-1150000D01*
G01*
X137650600Y-118430000D02*
G75*
G02*
X136500600Y-117280000I0J1150000D01*
G01*
X211400600Y-112280000D02*
G75*
G02*
X210250600Y-113430000I-1150000J0D01*
G01*
X86250600Y-120530000D02*
G75*
G02*
X87400600Y-121680000I0J-1150000D01*
G01*
X169650600Y-110430000D02*
X174250600Y-110430000D01*
X120650600Y-100430000D02*
G75*
G02*
X119500600Y-99280000I0J1150000D01*
G01*
X128500600Y-121680000D02*
G75*
G02*
X129650600Y-120530000I1150000J0D01*
G01*
X137650600Y-126430000D02*
G75*
G02*
X136500600Y-125280000I0J1150000D01*
G01*
X204500600Y-116180000D02*
G75*
G02*
X205650600Y-115030000I1150000J0D01*
G01*
X136500600Y-113680000D02*
G75*
G02*
X137650600Y-112530000I1150000J0D01*
G01*
X120500600Y-113680000D02*
X120500600Y-117280000D01*
X88500600Y-105680000D02*
X88500600Y-109280000D01*
X195400600Y-101780000D02*
G75*
G02*
X194250600Y-102930000I-1150000J0D01*
G01*
X119400600Y-117280000D02*
X119400600Y-113680000D01*
X136500600Y-105680000D02*
X136500600Y-109280000D01*
X129650600Y-110430000D02*
G75*
G02*
X128500600Y-109280000I0J1150000D01*
G01*
X158250600Y-104530000D02*
G75*
G02*
X159400600Y-105680000I0J-1150000D01*
G01*
X174250600Y-104530000D02*
G75*
G02*
X175400600Y-105680000I0J-1150000D01*
G01*
X113650600Y-118430000D02*
X118250600Y-118430000D01*
X142250600Y-100430000D02*
X135650600Y-100430000D01*
X89650600Y-134430000D02*
X94250600Y-134430000D01*
X158250600Y-104530000D02*
X153650600Y-104530000D01*
X144500600Y-121680000D02*
X144500600Y-125280000D01*
X96500600Y-113680000D02*
X96500600Y-117280000D01*
X195400600Y-101780000D02*
G75*
G02*
X194250600Y-102930000I-1150000J0D01*
G01*
X203400600Y-95180000D02*
X203400600Y-101780000D01*
X104500600Y-94680000D02*
G75*
G02*
X105650600Y-93530000I1150000J0D01*
G01*
X135400600Y-117280000D02*
X135400600Y-113680000D01*
X218250600Y-104530000D02*
G75*
G02*
X219400600Y-105680000I0J-1150000D01*
G01*
X120500600Y-105680000D02*
G75*
G02*
X121650600Y-104530000I1150000J0D01*
G01*
X97650600Y-126430000D02*
X102250600Y-126430000D01*
X174250600Y-120530000D02*
X169650600Y-120530000D01*
X197650600Y-113430000D02*
G75*
G02*
X196500600Y-112280000I0J1150000D01*
G01*
X158250600Y-112530000D02*
G75*
G02*
X159400600Y-113680000I0J-1150000D01*
G01*
X136500600Y-121680000D02*
X136500600Y-125280000D01*
X194250600Y-94030000D02*
G75*
G02*
X195400600Y-95180000I0J-1150000D01*
G01*
X183400600Y-133280000D02*
X183400600Y-129680000D01*
X91845600Y-88620000D02*
G75*
G02*
X90845600Y-87620000I0J1000000D01*
G01*
X177650600Y-110430000D02*
G75*
G02*
X176500600Y-109280000I0J1150000D01*
G01*
X96500600Y-113680000D02*
X96500600Y-117280000D01*
X153650600Y-134430000D02*
X158250600Y-134430000D01*
X155985600Y-88620000D02*
X91845600Y-88620000D01*
X218986105Y-59980009D02*
X221450600Y-59980009D01*
X188500600Y-126680000D02*
G75*
G02*
X189650600Y-125530000I1150000J0D01*
G01*
X111400600Y-117280000D02*
G75*
G02*
X110250600Y-118430000I-1150000J0D01*
G01*
X176500600Y-105680000D02*
G75*
G02*
X177650600Y-104530000I1150000J0D01*
G01*
X97250600Y-100430000D02*
X90650600Y-100430000D01*
X94250600Y-128530000D02*
X89650600Y-128530000D01*
X161650600Y-110430000D02*
X166250600Y-110430000D01*
X153650600Y-118430000D02*
X158250600Y-118430000D01*
X167400600Y-109280000D02*
X167400600Y-105680000D01*
X129650600Y-118430000D02*
X134250600Y-118430000D01*
X87400600Y-125280000D02*
G75*
G02*
X86250600Y-126430000I-1150000J0D01*
G01*
X150650600Y-93530000D02*
X157250600Y-93530000D01*
X223950600Y-62480000D02*
X223950654Y-77439191D01*
X176500600Y-121680000D02*
X176500600Y-125280000D01*
X112500600Y-113680000D02*
X112500600Y-117280000D01*
X197650600Y-125530000D02*
X202250600Y-125530000D01*
X91845601Y-65340000D02*
X155985600Y-65340000D01*
X153650600Y-118430000D02*
X158250600Y-118430000D01*
X217950600Y-63980000D02*
G75*
G02*
X212950600Y-63980000I-2500000J0D01*
G01*
X80951000Y-59980000D02*
G75*
G02*
X81951000Y-60980000I0J-1000000D01*
G01*
X90845600Y-66340000D02*
G75*
G02*
X91845600Y-65340000I1000000J0D01*
G01*
X104500600Y-113680000D02*
G75*
G02*
X105650600Y-112530000I1150000J0D01*
G01*
X203400600Y-126680000D02*
X203400600Y-133280000D01*
X75950600Y-90119500D02*
G75*
G02*
X76487621Y-89234707I997400J0D01*
G01*
X151400600Y-133280000D02*
X151400600Y-129680000D01*
X88500600Y-113680000D02*
G75*
G02*
X89650600Y-112530000I1150000J0D01*
G01*
X105650600Y-100430000D02*
G75*
G02*
X104500600Y-99280000I0J1150000D01*
G01*
X95400600Y-117280001D02*
G75*
G02*
X94250600Y-118430000I-1150000J1D01*
G01*
X80500600Y-121680000D02*
X80500600Y-125280000D01*
X102250600Y-128530000D02*
G75*
G02*
X103400600Y-129680000I0J-1150000D01*
G01*
X211400600Y-112280000D02*
G75*
G02*
X210250600Y-113430000I-1150000J0D01*
G01*
X110250600Y-120530000D02*
X105650600Y-120530000D01*
X210250600Y-102930000D02*
X205650600Y-102930000D01*
X153650600Y-118430000D02*
G75*
G02*
X152500600Y-117280000I0J1150000D01*
G01*
X104500600Y-99280000D02*
X104500600Y-94680000D01*
X194250600Y-102930000D02*
X189650600Y-102930000D01*
X174250600Y-120530000D02*
G75*
G02*
X175400600Y-121680000I0J-1150000D01*
G01*
X151400600Y-109280001D02*
G75*
G02*
X150250600Y-110430000I-1150000J1D01*
G01*
X128400600Y-94680000D02*
X128400600Y-99280000D01*
X202250600Y-134430000D02*
X197650600Y-134430000D01*
X127400600Y-125280000D02*
G75*
G02*
X126250600Y-126430000I-1150000J0D01*
G01*
X183400600Y-117280000D02*
X183400600Y-113680000D01*
X203400600Y-133280000D02*
G75*
G02*
X202250600Y-134430000I-1150000J0D01*
G01*
X98400600Y-99280000D02*
G75*
G02*
X97250600Y-100430000I-1150000J0D01*
G01*
X75950600Y-137980000D02*
X75950600Y-90119500D01*
X128500600Y-105680000D02*
X128500600Y-109280000D01*
X194250600Y-123930000D02*
X189650600Y-123930000D01*
X94250600Y-120530000D02*
G75*
G02*
X95400600Y-121680000I0J-1150000D01*
G01*
X142250600Y-100430000D02*
X135650600Y-100430000D01*
X94250600Y-112530000D02*
X89650600Y-112530000D01*
X81951000Y-60980000D02*
X81951002Y-60980000D01*
X120500600Y-105680000D02*
G75*
G02*
X121650600Y-104530000I1150000J0D01*
G01*
X211400600Y-116180000D02*
X211400600Y-122780000D01*
X135400600Y-125280000D02*
G75*
G02*
X134250600Y-126430000I-1150000J0D01*
G01*
X204500600Y-133280000D02*
X204500600Y-126680000D01*
X145650600Y-126430000D02*
G75*
G02*
X144500600Y-125280000I0J1150000D01*
G01*
X197650600Y-94030000D02*
X202250600Y-94030000D01*
X112500600Y-129680000D02*
X112500600Y-133280000D01*
X110250600Y-112530000D02*
G75*
G02*
X111400600Y-113680000I0J-1150000D01*
G01*
X183400600Y-117280000D02*
G75*
G02*
X182250600Y-118430000I-1150000J0D01*
G01*
X94250600Y-120530000D02*
X89650600Y-120530000D01*
X127250599Y-100430000D02*
X120650600Y-100430000D01*
X143400600Y-94680000D02*
X143400600Y-99280000D01*
X166250600Y-128530000D02*
G75*
G02*
X167400600Y-129680000I0J-1150000D01*
G01*
X203400600Y-112280000D02*
G75*
G02*
X202250600Y-113430000I-1150000J0D01*
G01*
X119400600Y-117280000D02*
G75*
G02*
X118250600Y-118430000I-1150000J0D01*
G01*
X97650600Y-118430000D02*
X102250600Y-118430000D01*
X210250600Y-94030000D02*
G75*
G02*
X211400600Y-95180000I0J-1150000D01*
G01*
X102250600Y-112530000D02*
G75*
G02*
X103400600Y-113680000I0J-1150000D01*
G01*
X103400600Y-109280000D02*
X103400600Y-105680000D01*
X202250600Y-104530000D02*
G75*
G02*
X203400600Y-105680000I0J-1150000D01*
G01*
X182250600Y-104530000D02*
G75*
G02*
X183400600Y-105680000I0J-1150000D01*
G01*
X90845600Y-66340000D02*
G75*
G02*
X91845600Y-65340000I1000000J0D01*
G01*
X204500600Y-105680000D02*
G75*
G02*
X205650600Y-104530000I1150000J0D01*
G01*
X129650600Y-126430000D02*
G75*
G02*
X128500600Y-125280000I0J1150000D01*
G01*
X175400600Y-109280000D02*
X175400600Y-105680000D01*
X195400600Y-105680000D02*
X195400600Y-112280000D01*
X211400600Y-133280000D02*
G75*
G02*
X210250600Y-134430000I-1150000J0D01*
G01*
X196500600Y-116180000D02*
G75*
G02*
X197650600Y-115030000I1150000J0D01*
G01*
X152500600Y-113680000D02*
X152500600Y-117280000D01*
X182250600Y-112530000D02*
X177650600Y-112530000D01*
X176500600Y-129680000D02*
G75*
G02*
X177650600Y-128530000I1150000J0D01*
G01*
X158250600Y-104530000D02*
G75*
G02*
X159400600Y-105680000I0J-1150000D01*
G01*
X128400600Y-94680000D02*
X128400600Y-99280000D01*
X211984905Y-59980009D02*
G75*
G02*
X212950600Y-60980000I-34905J-999991D01*
G01*
X212500600Y-116180000D02*
G75*
G02*
X213650600Y-115030000I1150000J0D01*
G01*
X219400600Y-95180000D02*
X219400600Y-101780000D01*
X151400600Y-133280000D02*
G75*
G02*
X150250600Y-134430000I-1150000J0D01*
G01*
X151400600Y-117280000D02*
X151400600Y-113680000D01*
X145650600Y-110430000D02*
X150250600Y-110430000D01*
X142250600Y-112530000D02*
X137650600Y-112530000D01*
X144500600Y-121680000D02*
G75*
G02*
X145650600Y-120530000I1150000J0D01*
G01*
X128500600Y-113680000D02*
X128500600Y-117280000D01*
X103400600Y-133280000D02*
G75*
G02*
X102250600Y-134430000I-1150000J0D01*
G01*
X202250600Y-104530000D02*
G75*
G02*
X203400600Y-105680000I0J-1150000D01*
G01*
X217950600Y-63980000D02*
X217950600Y-60980000D01*
X168500600Y-121680000D02*
G75*
G02*
X169650600Y-120530000I1150000J0D01*
G01*
X174250600Y-112530000D02*
G75*
G02*
X175400600Y-113680000I0J-1150000D01*
G01*
X112500600Y-105680000D02*
G75*
G02*
X113650600Y-104530000I1150000J0D01*
G01*
X119500600Y-94680000D02*
G75*
G02*
X120650600Y-93530000I1150000J0D01*
G01*
X182250600Y-120530000D02*
X177650600Y-120530000D01*
X195400600Y-133280000D02*
G75*
G02*
X194250600Y-134430000I-1150000J0D01*
G01*
X119400600Y-117280001D02*
G75*
G02*
X118250600Y-118430000I-1150000J1D01*
G01*
X96500600Y-121680000D02*
X96500600Y-125280000D01*
X188500600Y-122780000D02*
X188500600Y-116180000D01*
X149500600Y-94680000D02*
G75*
G02*
X150650600Y-93530000I1150000J0D01*
G01*
X219400600Y-95180000D02*
X219400600Y-101780000D01*
X202250600Y-134430000D02*
X197650600Y-134430000D01*
X150250600Y-112530000D02*
X145650600Y-112530000D01*
X197650600Y-134430000D02*
G75*
G02*
X196500600Y-133280000I0J1150000D01*
G01*
X168500600Y-105680000D02*
G75*
G02*
X169650600Y-104530000I1150000J0D01*
G01*
X197650600Y-104530000D02*
X202250600Y-104530000D01*
X179722600Y-75823200D02*
X192422600Y-75823200D01*
X113650600Y-134430000D02*
X150250600Y-134430000D01*
X144500600Y-121680000D02*
G75*
G02*
X145650600Y-120530000I1150000J0D01*
G01*
X152500600Y-121680000D02*
G75*
G02*
X153650600Y-120530000I1150000J0D01*
G01*
X129650600Y-110430000D02*
X134250600Y-110430000D01*
X96500600Y-129680000D02*
X96500600Y-133280000D01*
X177650600Y-134430000D02*
X182250600Y-134430000D01*
X127400600Y-109280000D02*
X127400600Y-105680000D01*
X88500600Y-129680000D02*
X88500600Y-133280000D01*
X129650600Y-118430000D02*
G75*
G02*
X128500600Y-117280000I0J1150000D01*
G01*
X126250600Y-104530000D02*
G75*
G02*
X127400600Y-105680000I0J-1150000D01*
G01*
X176500600Y-129680000D02*
X176500600Y-133280000D01*
X158250600Y-128530000D02*
G75*
G02*
X159400600Y-129680000I0J-1150000D01*
G01*
X95400600Y-109280000D02*
G75*
G02*
X94250600Y-110430000I-1150000J0D01*
G01*
X110250600Y-128530000D02*
X105650600Y-128530000D01*
X218250600Y-94030000D02*
G75*
G02*
X219400600Y-95180000I0J-1150000D01*
G01*
X210250600Y-104530000D02*
G75*
G02*
X211400600Y-105680000I0J-1150000D01*
G01*
X218250600Y-125530000D02*
G75*
G02*
X219400600Y-126680000I0J-1150000D01*
G01*
X183400600Y-133280000D02*
X183400600Y-129680000D01*
X150250600Y-128530000D02*
X113650600Y-128530000D01*
X111400600Y-133280000D02*
X111400600Y-129680000D01*
X213650600Y-134430000D02*
G75*
G02*
X212500600Y-133280000I0J1150000D01*
G01*
X86250600Y-120530000D02*
G75*
G02*
X87400600Y-121680000I0J-1150000D01*
G01*
X94250600Y-104530000D02*
G75*
G02*
X95400600Y-105680000I0J-1150000D01*
G01*
X76487606Y-78210504D02*
G75*
G02*
X75950597Y-77171001I737594J1039504D01*
G01*
X137650600Y-118430000D02*
X142250600Y-118430000D01*
X104500600Y-105680000D02*
X104500600Y-109280000D01*
X220950704Y-140980000D02*
X78950600Y-140980000D01*
X113400600Y-99280000D02*
G75*
G02*
X112250599Y-100430000I-1150000J0D01*
G01*
X188500600Y-101779999D02*
X188500600Y-95180000D01*
X97650600Y-118430000D02*
X102250600Y-118430000D01*
X128400600Y-94680000D02*
X128400600Y-99280000D01*
X81650600Y-118430000D02*
G75*
G02*
X80500600Y-117280000I0J1150000D01*
G01*
X142250600Y-120530000D02*
G75*
G02*
X143400600Y-121680000I0J-1150000D01*
G01*
X182250600Y-120530000D02*
G75*
G02*
X183400600Y-121680000I0J-1150000D01*
G01*
X189650600Y-125530000D02*
X194250600Y-125530000D01*
X88500600Y-113680000D02*
X88500600Y-117280000D01*
X217950600Y-60980000D02*
G75*
G02*
X218986105Y-59980009I1000600J0D01*
G01*
X211400600Y-95180000D02*
X211400600Y-101780000D01*
X212500600Y-133280000D02*
X212500600Y-126680000D01*
X202250600Y-102930000D02*
X197650600Y-102930000D01*
X219400600Y-122780000D02*
G75*
G02*
X218250600Y-123930000I-1150000J0D01*
G01*
X104500600Y-99280000D02*
X104500600Y-94680000D01*
X87400600Y-125280000D02*
X87400600Y-121680000D01*
X166250600Y-128530000D02*
X161650600Y-128530000D01*
X212500600Y-133280000D02*
X212500600Y-126680000D01*
X81951000Y-60980000D02*
X81951002Y-60980000D01*
X104500600Y-105680000D02*
X104500600Y-109280000D01*
X159400600Y-117280000D02*
X159400600Y-113680000D01*
X167400600Y-117280001D02*
G75*
G02*
X166250600Y-118430000I-1150000J1D01*
G01*
X196500600Y-112280000D02*
X196500600Y-105680000D01*
X219400600Y-101780000D02*
G75*
G02*
X218250600Y-102930000I-1150000J0D01*
G01*
X167400600Y-125280001D02*
X167400600Y-121680000D01*
X212500600Y-116180000D02*
G75*
G02*
X213650600Y-115030000I1150000J0D01*
G01*
X95400600Y-117280000D02*
G75*
G02*
X94250600Y-118430000I-1150000J0D01*
G01*
X166250600Y-104530000D02*
G75*
G02*
X167400600Y-105680000I0J-1150000D01*
G01*
X203400600Y-95180000D02*
X203400600Y-101780000D01*
X169650600Y-134430000D02*
X174250600Y-134430000D01*
X151400600Y-117280000D02*
X151400600Y-113680000D01*
X219400600Y-126680000D02*
X219400600Y-133280000D01*
X183400600Y-133280000D02*
G75*
G02*
X182250600Y-134430000I-1150000J0D01*
G01*
X218250600Y-123930000D02*
X213650600Y-123930000D01*
X75950584Y-62480003D02*
G75*
G02*
X78459544Y-59980000I2500016J3D01*
G01*
X95400600Y-109280000D02*
X95400600Y-105680000D01*
X157250600Y-100430000D02*
X150650600Y-100430000D01*
X196500600Y-105680000D02*
G75*
G02*
X197650600Y-104530000I1150000J0D01*
G01*
X177650600Y-118430000D02*
G75*
G02*
X176500600Y-117280000I0J1150000D01*
G01*
X86250600Y-112530000D02*
G75*
G02*
X87400600Y-113680000I0J-1150000D01*
G01*
X213650600Y-94030000D02*
X218250600Y-94030000D01*
X219400600Y-116180000D02*
X219400600Y-122780000D01*
X160500600Y-121680000D02*
X160500600Y-125280000D01*
X205650600Y-125530000D02*
X210250600Y-125530000D01*
X94250600Y-128530000D02*
X89650600Y-128530000D01*
X110250600Y-112530000D02*
X105650600Y-112530000D01*
X167400600Y-125280000D02*
G75*
G02*
X166250600Y-126430000I-1150000J0D01*
G01*
X137650600Y-118430000D02*
X142250600Y-118430000D01*
X169650600Y-118430000D02*
G75*
G02*
X168500600Y-117280000I0J1150000D01*
G01*
X94250600Y-128530000D02*
G75*
G02*
X95400600Y-129680000I0J-1150000D01*
G01*
X211400600Y-126680000D02*
X211400600Y-133280000D01*
X174250600Y-112530000D02*
X169650600Y-112530000D01*
X129650600Y-110430000D02*
G75*
G02*
X128500600Y-109280000I0J1150000D01*
G01*
X196500600Y-126680000D02*
G75*
G02*
X197650600Y-125530000I1150000J0D01*
G01*
X111400600Y-117280000D02*
G75*
G02*
X110250600Y-118430000I-1150000J0D01*
G01*
X143400600Y-99280000D02*
G75*
G02*
X142250600Y-100430000I-1150000J0D01*
G01*
X166250600Y-104530000D02*
G75*
G02*
X167400600Y-105680000I0J-1150000D01*
G01*
X97650600Y-110430000D02*
G75*
G02*
X96500600Y-109280000I0J1150000D01*
G01*
X151400600Y-133280001D02*
X151400600Y-129680000D01*
X96500600Y-113680000D02*
X96500600Y-117280000D01*
X210250600Y-123930000D02*
X205650600Y-123930000D01*
X183400600Y-125280000D02*
G75*
G02*
X182250600Y-126430000I-1150000J0D01*
G01*
X203400600Y-101780000D02*
G75*
G02*
X202250600Y-102930000I-1150000J0D01*
G01*
X204500600Y-95180000D02*
G75*
G02*
X205650600Y-94030000I1150000J0D01*
G01*
X118250600Y-120530000D02*
X113650600Y-120530000D01*
X104500600Y-129680000D02*
G75*
G02*
X105650600Y-128530000I1150000J0D01*
G01*
X104500600Y-105680000D02*
G75*
G02*
X105650600Y-104530000I1150000J0D01*
G01*
X197650600Y-94030000D02*
X202250600Y-94030000D01*
X134250600Y-104530000D02*
X129650600Y-104530000D01*
X136500600Y-113680000D02*
G75*
G02*
X137650600Y-112530000I1150000J0D01*
G01*
X195400600Y-105680000D02*
X195400600Y-112280000D01*
X136500600Y-105680000D02*
G75*
G02*
X137650600Y-104530000I1150000J0D01*
G01*
X97250600Y-93530000D02*
G75*
G02*
X98400600Y-94680000I0J-1150000D01*
G01*
X204500600Y-122780000D02*
X204500600Y-116180000D01*
X168500600Y-113680000D02*
G75*
G02*
X169650600Y-112530000I1150000J0D01*
G01*
X150250600Y-120530000D02*
G75*
G02*
X151400600Y-121680000I0J-1150000D01*
G01*
X105650600Y-110430000D02*
X110250600Y-110430000D01*
X217950600Y-60980000D02*
G75*
G02*
X218986105Y-59980009I1000600J0D01*
G01*
X218250600Y-113430000D02*
X213650600Y-113430000D01*
X160500600Y-121680000D02*
G75*
G02*
X161650600Y-120530000I1150000J0D01*
G01*
X80500600Y-113680000D02*
G75*
G02*
X81650600Y-112530000I1150000J0D01*
G01*
X156985600Y-66340000D02*
X156985600Y-87620000D01*
X112250600Y-93530000D02*
G75*
G02*
X113400600Y-94680000I0J-1150000D01*
G01*
X126250600Y-120530000D02*
X121650600Y-120530000D01*
X113650600Y-110430000D02*
X118250600Y-110430000D01*
X166250600Y-112530000D02*
X161650600Y-112530000D01*
X90650600Y-100430000D02*
G75*
G02*
X89500600Y-99280000I0J1150000D01*
G01*
X175400600Y-109280001D02*
G75*
G02*
X174250600Y-110430000I-1150000J1D01*
G01*
X104500600Y-121680000D02*
G75*
G02*
X105650600Y-120530000I1150000J0D01*
G01*
X205650600Y-134430000D02*
G75*
G02*
X204500600Y-133280000I0J1150000D01*
G01*
X189650600Y-102930000D02*
G75*
G02*
X188500600Y-101779999I0J1150000D01*
G01*
X222450600Y-78991981D02*
G75*
G02*
X223203838Y-78198957I766300J26381D01*
G01*
X86950600Y-60979500D02*
G75*
G02*
X87985596Y-59980005I1000200J-100D01*
G01*
X158250600Y-128530000D02*
X153650600Y-128530000D01*
X188500600Y-126680000D02*
G75*
G02*
X189650600Y-125530000I1150000J0D01*
G01*
X158400600Y-99280000D02*
G75*
G02*
X157250600Y-100430000I-1150000J0D01*
G01*
X104500600Y-121680000D02*
X104500600Y-125280000D01*
X152500600Y-129680000D02*
G75*
G02*
X153650600Y-128530000I1150000J0D01*
G01*
X142250600Y-120530000D02*
X137650600Y-120530000D01*
X96500600Y-113680000D02*
G75*
G02*
X97650600Y-112530000I1150000J0D01*
G01*
X189650600Y-94030000D02*
X194250600Y-94030000D01*
X135400600Y-125280000D02*
G75*
G02*
X134250600Y-126430000I-1150000J0D01*
G01*
X175400600Y-125280001D02*
G75*
G02*
X174250600Y-126430000I-1150000J1D01*
G01*
X153650600Y-126430000D02*
X158250600Y-126430000D01*
X96500600Y-113680000D02*
G75*
G02*
X97650600Y-112530000I1150000J0D01*
G01*
X96500600Y-129680000D02*
G75*
G02*
X97650600Y-128530000I1150000J0D01*
G01*
X103400600Y-125280000D02*
G75*
G02*
X102250600Y-126430000I-1150000J0D01*
G01*
X128500600Y-121680000D02*
X128500600Y-125280000D01*
X219400600Y-133280000D02*
G75*
G02*
X218250600Y-134430000I-1150000J0D01*
G01*
X166250600Y-128530000D02*
X161650600Y-128530000D01*
X134250600Y-112530000D02*
G75*
G02*
X135400600Y-113680000I0J-1150000D01*
G01*
X218250600Y-102930000D02*
X213650600Y-102930000D01*
X202250600Y-115030000D02*
G75*
G02*
X203400600Y-116180000I0J-1150000D01*
G01*
X86250600Y-104530000D02*
G75*
G02*
X87400600Y-105680000I0J-1150000D01*
G01*
X183400600Y-117280001D02*
X183400600Y-113680000D01*
X103400600Y-125280001D02*
G75*
G02*
X102250600Y-126430000I-1150000J1D01*
G01*
X194250600Y-123930000D02*
X189650600Y-123930000D01*
X111400600Y-109280000D02*
G75*
G02*
X110250600Y-110430000I-1150000J0D01*
G01*
X127400600Y-117280000D02*
X127400600Y-113680000D01*
X126250600Y-120530000D02*
G75*
G02*
X127400600Y-121680000I0J-1150000D01*
G01*
X126250600Y-104530000D02*
X121650600Y-104530000D01*
X168500600Y-129680000D02*
G75*
G02*
X169650600Y-128530000I1150000J0D01*
G01*
X144500600Y-121680000D02*
X144500600Y-125280000D01*
X195400600Y-116180000D02*
X195400600Y-122780000D01*
X203400600Y-105680000D02*
X203400600Y-112280000D01*
X166250600Y-128530000D02*
X161650600Y-128530000D01*
X218250600Y-102930000D02*
X213650600Y-102930000D01*
X89650600Y-118430000D02*
X94250600Y-118430000D01*
X121650600Y-126430000D02*
X126250600Y-126430000D01*
X119500600Y-94680000D02*
G75*
G02*
X120650600Y-93530000I1150000J0D01*
G01*
X212500600Y-122780000D02*
X212500600Y-116180000D01*
X126250600Y-112530000D02*
X121650600Y-112530000D01*
X182250600Y-128530000D02*
G75*
G02*
X183400600Y-129680000I0J-1150000D01*
G01*
X223950654Y-77439191D02*
G75*
G02*
X223203836Y-78198844I-759754J-9D01*
G01*
X97650600Y-110430000D02*
X102250600Y-110430000D01*
X152500600Y-121680000D02*
G75*
G02*
X153650600Y-120530000I1150000J0D01*
G01*
X95400600Y-117280000D02*
X95400600Y-113680000D01*
X110250600Y-104530000D02*
X105650600Y-104530000D01*
X112500600Y-105680000D02*
X112500600Y-109280000D01*
X105650600Y-126430000D02*
G75*
G02*
X104500600Y-125280000I0J1150000D01*
G01*
X213650600Y-125530000D02*
X218250600Y-125530000D01*
X81650600Y-118430000D02*
X86250600Y-118430000D01*
X203400600Y-105680000D02*
X203400600Y-112280000D01*
X112500600Y-121680000D02*
G75*
G02*
X113650600Y-120530000I1150000J0D01*
G01*
X188500600Y-122780000D02*
X188500600Y-116180000D01*
X97250600Y-93530000D02*
G75*
G02*
X98400600Y-94680000I0J-1150000D01*
G01*
X90845600Y-87620000D02*
X90845600Y-66340000D01*
X203400600Y-122780000D02*
G75*
G02*
X202250600Y-123930000I-1150000J0D01*
G01*
X210250600Y-115030000D02*
G75*
G02*
X211400600Y-116180000I0J-1150000D01*
G01*
X160500600Y-121680000D02*
G75*
G02*
X161650600Y-120530000I1150000J0D01*
G01*
X188500600Y-112280000D02*
X188500600Y-105680000D01*
X153650600Y-126430000D02*
X158250600Y-126430000D01*
X159400600Y-109280001D02*
G75*
G02*
X158250600Y-110430000I-1150000J1D01*
G01*
X112500600Y-113680000D02*
X112500600Y-117280000D01*
X159400600Y-133280001D02*
X159400600Y-129680000D01*
X110250600Y-112530000D02*
G75*
G02*
X111400600Y-113680000I0J-1150000D01*
G01*
X127400600Y-109280000D02*
X127400600Y-105680000D01*
X97650600Y-118430000D02*
G75*
G02*
X96500600Y-117280000I0J1150000D01*
G01*
X81650600Y-126430000D02*
G75*
G02*
X80500600Y-125280000I0J1150000D01*
G01*
X160500600Y-121680000D02*
X160500600Y-125280000D01*
X168500600Y-113680000D02*
X168500600Y-117280000D01*
X174250600Y-104530000D02*
G75*
G02*
X175400600Y-105680000I0J-1150000D01*
G01*
X150250600Y-104530000D02*
X145650600Y-104530000D01*
X102250600Y-128530000D02*
X97650600Y-128530000D01*
X137650600Y-126430000D02*
X142250600Y-126430000D01*
X105650600Y-110430000D02*
G75*
G02*
X104500600Y-109280000I0J1150000D01*
G01*
X111400600Y-109280000D02*
X111400600Y-105680000D01*
X86250600Y-112530000D02*
G75*
G02*
X87400600Y-113680000I0J-1150000D01*
G01*
X175400600Y-125280001D02*
X175400600Y-121680000D01*
X94250600Y-104530000D02*
X89650600Y-104530000D01*
X95400600Y-133280000D02*
G75*
G02*
X94250600Y-134430000I-1150000J0D01*
G01*
X152500600Y-121680000D02*
X152500600Y-125280000D01*
X86950600Y-63980000D02*
G75*
G02*
X81951002Y-63935166I-2500000J0D01*
G01*
X149500600Y-99280000D02*
X149500600Y-94680000D01*
X128500600Y-105680000D02*
X128500600Y-109280000D01*
X168500600Y-129680000D02*
G75*
G02*
X169650600Y-128530000I1150000J0D01*
G01*
X194250600Y-125530000D02*
G75*
G02*
X195400600Y-126680000I0J-1150000D01*
G01*
X110250600Y-104530000D02*
X105650600Y-104530000D01*
X145650600Y-110430000D02*
G75*
G02*
X144500600Y-109280000I0J1150000D01*
G01*
X112250600Y-93530000D02*
G75*
G02*
X113400600Y-94680000I0J-1150000D01*
G01*
X153650600Y-134430000D02*
G75*
G02*
X152500600Y-133280000I0J1150000D01*
G01*
X80500600Y-129680000D02*
G75*
G02*
X81650600Y-128530000I1150000J0D01*
G01*
X188500600Y-105680000D02*
G75*
G02*
X189650600Y-104530000I1150000J0D01*
G01*
X89650600Y-126430000D02*
X94250600Y-126430000D01*
X202250600Y-113430000D02*
X197650600Y-113430000D01*
X111400600Y-125280000D02*
G75*
G02*
X110250600Y-126430000I-1150000J0D01*
G01*
X128500600Y-121680000D02*
X128500600Y-125280000D01*
X81951002Y-63935225D02*
X81951002Y-60980000D01*
X88500600Y-121680000D02*
X88500600Y-125280000D01*
X112500600Y-113680000D02*
G75*
G02*
X113650600Y-112530000I1150000J0D01*
G01*
X183400600Y-109280001D02*
X183400600Y-105680000D01*
X128400600Y-99280000D02*
G75*
G02*
X127250600Y-100430000I-1150000J0D01*
G01*
X159400600Y-117280001D02*
G75*
G02*
X158250600Y-118430000I-1150000J1D01*
G01*
X81951002Y-63935166D02*
X81951002Y-60980000D01*
X196500600Y-101780000D02*
X196500600Y-95180000D01*
X218250600Y-104530000D02*
G75*
G02*
X219400600Y-105680000I0J-1150000D01*
G01*
X211400600Y-112280000D02*
G75*
G02*
X210250600Y-113430000I-1150000J0D01*
G01*
X169650600Y-126430000D02*
G75*
G02*
X168500600Y-125280000I0J1150000D01*
G01*
X149500600Y-94680000D02*
G75*
G02*
X150650600Y-93530000I1150000J0D01*
G01*
X219400600Y-101780000D02*
G75*
G02*
X218250600Y-102930000I-1150000J0D01*
G01*
X151400600Y-133280000D02*
G75*
G02*
X150250600Y-134430000I-1150000J0D01*
G01*
X205650600Y-104530000D02*
X210250600Y-104530000D01*
X113650600Y-134430000D02*
G75*
G02*
X112500600Y-133280000I0J1150000D01*
G01*
X151400600Y-125280000D02*
G75*
G02*
X150250600Y-126430000I-1150000J0D01*
G01*
X177650600Y-126430000D02*
X182250600Y-126430000D01*
X174250600Y-120530000D02*
G75*
G02*
X175400600Y-121680000I0J-1150000D01*
G01*
X118250600Y-104530000D02*
G75*
G02*
X119400600Y-105680000I0J-1150000D01*
G01*
X102250600Y-128530000D02*
X97650600Y-128530000D01*
X195400600Y-116180000D02*
X195400600Y-122780000D01*
X94250600Y-120530000D02*
X89650600Y-120530000D01*
X203400600Y-101780000D02*
G75*
G02*
X202250600Y-102930000I-1150000J0D01*
G01*
X135400600Y-109280000D02*
G75*
G02*
X134250600Y-110430000I-1150000J0D01*
G01*
X210250600Y-125530000D02*
G75*
G02*
X211400600Y-126680000I0J-1150000D01*
G01*
X211400600Y-112280000D02*
G75*
G02*
X210250600Y-113430000I-1150000J0D01*
G01*
X204500600Y-133279999D02*
X204500600Y-126680000D01*
X121650600Y-118430000D02*
G75*
G02*
X120500600Y-117280000I0J1150000D01*
G01*
X86950600Y-63980000D02*
X86950600Y-60979600D01*
X94250600Y-112530000D02*
G75*
G02*
X95400600Y-113680000I0J-1150000D01*
G01*
X119400600Y-109280001D02*
G75*
G02*
X118250600Y-110430000I-1150000J1D01*
G01*
X168500600Y-121680000D02*
G75*
G02*
X169650600Y-120530000I1150000J0D01*
G01*
X150250600Y-128530000D02*
G75*
G02*
X151400600Y-129680000I0J-1150000D01*
G01*
X176500600Y-113680000D02*
X176500600Y-117280000D01*
X90845600Y-87620000D02*
X90845600Y-66340000D01*
X189650600Y-115030000D02*
X194250600Y-115030000D01*
X103400600Y-117280001D02*
X103400600Y-113680000D01*
X155985600Y-88620000D02*
X155985593Y-88620000D01*
X218250600Y-125530000D02*
G75*
G02*
X219400600Y-126680000I0J-1150000D01*
G01*
X160500600Y-129680000D02*
X160500600Y-133280000D01*
X223950654Y-77439197D02*
G75*
G02*
X223203836Y-78198844I-759754J-3D01*
G01*
X119400600Y-125280001D02*
G75*
G02*
X118250600Y-126430000I-1150000J1D01*
G01*
X161650600Y-110430000D02*
G75*
G02*
X160500600Y-109280000I0J1150000D01*
G01*
X112500600Y-121680000D02*
X112500600Y-125280000D01*
X202250600Y-113430000D02*
X197650600Y-113430000D01*
X103400600Y-125280000D02*
X103400600Y-121680000D01*
X152500600Y-113680000D02*
G75*
G02*
X153650600Y-112530000I1150000J0D01*
G01*
X143400600Y-117280000D02*
X143400600Y-113680000D01*
X142250600Y-93530000D02*
G75*
G02*
X143400600Y-94680000I0J-1150000D01*
G01*
X159400600Y-117280000D02*
X159400600Y-113680000D01*
X205650600Y-123930000D02*
G75*
G02*
X204500600Y-122779999I0J1150000D01*
G01*
X166250600Y-120530000D02*
G75*
G02*
X167400600Y-121680000I0J-1150000D01*
G01*
X222450600Y-78991981D02*
X222450600Y-88827082D01*
X89650600Y-126430000D02*
X94250600Y-126430000D01*
X89650600Y-118430000D02*
X94250600Y-118430000D01*
X118250600Y-104530000D02*
X113650600Y-104530000D01*
X136500600Y-113680000D02*
X136500600Y-117280000D01*
X205650600Y-94030000D02*
X210250600Y-94030000D01*
X194422600Y-73823200D02*
G75*
G02*
X192422600Y-75823200I-2000000J0D01*
G01*
X144500600Y-113680000D02*
G75*
G02*
X145650600Y-112530000I1150000J0D01*
G01*
X210250600Y-123930000D02*
X205650600Y-123930000D01*
X95400600Y-133280000D02*
X95400600Y-129680000D01*
X158250600Y-120530000D02*
X153650600Y-120530000D01*
X211400600Y-101780000D02*
G75*
G02*
X210250600Y-102930000I-1150000J0D01*
G01*
X105650600Y-93530000D02*
X112250600Y-93530000D01*
X158250600Y-120530000D02*
G75*
G02*
X159400600Y-121680000I0J-1150000D01*
G01*
X196500600Y-133280000D02*
X196500600Y-126680000D01*
X110250600Y-120530000D02*
G75*
G02*
X111400600Y-121680000I0J-1150000D01*
G01*
X113400600Y-99280000D02*
G75*
G02*
X112250600Y-100430000I-1150000J0D01*
G01*
X150650600Y-100430000D02*
G75*
G02*
X149500600Y-99280000I0J1150000D01*
G01*
X87985596Y-59980009D02*
X211984905Y-59980009D01*
X157250600Y-93530000D02*
G75*
G02*
X158400600Y-94680000I0J-1150000D01*
G01*
X176500600Y-129680000D02*
G75*
G02*
X177650600Y-128530000I1150000J0D01*
G01*
X143400600Y-109280001D02*
G75*
G02*
X142250600Y-110430000I-1150000J1D01*
G01*
X95400600Y-125280001D02*
X95400600Y-121680000D01*
X176500600Y-105680000D02*
G75*
G02*
X177650600Y-104530000I1150000J0D01*
G01*
X212950600Y-63980000D02*
X212950600Y-60980000D01*
X161650600Y-110430000D02*
X166250600Y-110430000D01*
X104500600Y-129680000D02*
X104500600Y-133280000D01*
X121650600Y-110430000D02*
G75*
G02*
X120500600Y-109280000I0J1150000D01*
G01*
X176500600Y-105680000D02*
G75*
G02*
X177650600Y-104530000I1150000J0D01*
G01*
X145650600Y-118430000D02*
G75*
G02*
X144500600Y-117280000I0J1150000D01*
G01*
X152500600Y-113680000D02*
G75*
G02*
X153650600Y-112530000I1150000J0D01*
G01*
X78950600Y-140980000D02*
G75*
G02*
X75950600Y-137980000I0J3000000D01*
G01*
X113650600Y-118430000D02*
G75*
G02*
X112500600Y-117280000I0J1150000D01*
G01*
X174250600Y-112530000D02*
G75*
G02*
X175400600Y-113680000I0J-1150000D01*
G01*
X219400600Y-116180000D02*
X219400600Y-122780000D01*
X110250600Y-128530000D02*
G75*
G02*
X111400600Y-129680000I0J-1150000D01*
G01*
X119400600Y-117280001D02*
X119400600Y-113680000D01*
X177650600Y-118430000D02*
G75*
G02*
X176500600Y-117280000I0J1150000D01*
G01*
X75950584Y-62480003D02*
G75*
G02*
X78450600Y-59979984I2500016J3D01*
G01*
X197650600Y-115030000D02*
X202250600Y-115030000D01*
X157250600Y-93530000D02*
G75*
G02*
X158400600Y-94680000I0J-1150000D01*
G01*
X159400600Y-109280001D02*
X159400600Y-105680000D01*
X118250600Y-120530000D02*
X113650600Y-120530000D01*
X202250600Y-115030000D02*
G75*
G02*
X203400600Y-116180000I0J-1150000D01*
G01*
X203400600Y-133280000D02*
G75*
G02*
X202250600Y-134430000I-1150000J0D01*
G01*
X113650600Y-118430000D02*
X118250600Y-118430000D01*
X89500600Y-99280000D02*
X89500600Y-94680000D01*
X134250600Y-112530000D02*
G75*
G02*
X135400600Y-113680000I0J-1150000D01*
G01*
X126250600Y-104530000D02*
G75*
G02*
X127400600Y-105680000I0J-1150000D01*
G01*
X195400600Y-116180000D02*
X195400600Y-122780000D01*
X161650600Y-134430000D02*
G75*
G02*
X160500600Y-133280000I0J1150000D01*
G01*
X104500600Y-129680000D02*
G75*
G02*
X105650600Y-128530000I1150000J0D01*
G01*
X188500600Y-116180000D02*
G75*
G02*
X189650600Y-115030000I1150000J0D01*
G01*
X159400600Y-133280000D02*
X159400600Y-129680000D01*
X151400600Y-125280000D02*
X151400600Y-121680000D01*
X152500600Y-129680000D02*
X152500600Y-133280000D01*
X128400600Y-99280000D02*
G75*
G02*
X127250600Y-100430000I-1150000J0D01*
G01*
X161650600Y-118430000D02*
G75*
G02*
X160500600Y-117280000I0J1150000D01*
G01*
X113650600Y-126430000D02*
X118250600Y-126430000D01*
X136500600Y-121680000D02*
X136500600Y-125280000D01*
X113650600Y-118430000D02*
X118250600Y-118430000D01*
X177650600Y-126430000D02*
X182250600Y-126430000D01*
X211400600Y-116180000D02*
X211400600Y-122780000D01*
X217950600Y-63980000D02*
G75*
G02*
X212950600Y-63980000I-2500000J0D01*
G01*
X152500600Y-121680000D02*
X152500600Y-125280000D01*
X118250600Y-112530000D02*
X113650600Y-112530000D01*
X102250600Y-112530000D02*
G75*
G02*
X103400600Y-113680000I0J-1150000D01*
G01*
X88500600Y-105680000D02*
G75*
G02*
X89650600Y-104530000I1150000J0D01*
G01*
X129650600Y-118430000D02*
X134250600Y-118430000D01*
X143400600Y-109280000D02*
X143400600Y-105680000D01*
X177650600Y-126430000D02*
X182250600Y-126430000D01*
X151400600Y-133280001D02*
G75*
G02*
X150250600Y-134430000I-1150000J1D01*
G01*
X97650600Y-134430000D02*
G75*
G02*
X96500600Y-133280000I0J1150000D01*
G01*
X143400600Y-99280000D02*
G75*
G02*
X142250600Y-100430000I-1150000J0D01*
G01*
X211400600Y-105680000D02*
X211400600Y-112280000D01*
X96500600Y-105680000D02*
G75*
G02*
X97650600Y-104530000I1150000J0D01*
G01*
X119400600Y-109280000D02*
X119400600Y-105680000D01*
X104500600Y-105680000D02*
G75*
G02*
X105650600Y-104530000I1150000J0D01*
G01*
X177722600Y-67828800D02*
X177722600Y-73823200D01*
X94250600Y-112530000D02*
G75*
G02*
X95400600Y-113680000I0J-1150000D01*
G01*
X113650600Y-134430000D02*
X150250600Y-134430000D01*
X97650600Y-110430000D02*
X102250600Y-110430000D01*
X177650600Y-118430000D02*
X182250600Y-118430000D01*
X80500600Y-129680000D02*
G75*
G02*
X81650600Y-128530000I1150000J0D01*
G01*
X159400600Y-109280000D02*
X159400600Y-105680000D01*
X86250600Y-104530000D02*
X81650600Y-104530000D01*
X81650600Y-126430000D02*
X86250600Y-126430000D01*
X75950600Y-90119500D02*
G75*
G02*
X76487621Y-89234707I997400J0D01*
G01*
X189650600Y-123930000D02*
G75*
G02*
X188500600Y-122780000I0J1150000D01*
G01*
X213650600Y-104530000D02*
X218250600Y-104530000D01*
X86250600Y-112530000D02*
X81650600Y-112530000D01*
X182250600Y-104530000D02*
X177650600Y-104530000D01*
X134250600Y-104530000D02*
X129650600Y-104530000D01*
X196500600Y-95180000D02*
G75*
G02*
X197650600Y-94030000I1150000J0D01*
G01*
X137650600Y-126430000D02*
G75*
G02*
X136500600Y-125280000I0J1150000D01*
G01*
X149500600Y-94680000D02*
G75*
G02*
X150650600Y-93530000I1150000J0D01*
G01*
X105650600Y-100430000D02*
G75*
G02*
X104500600Y-99280000I0J1150000D01*
G01*
X152500600Y-129680000D02*
G75*
G02*
X153650600Y-128530000I1150000J0D01*
G01*
X174250600Y-128530000D02*
X169650600Y-128530000D01*
X157250600Y-93530000D02*
G75*
G02*
X158400600Y-94680000I0J-1150000D01*
G01*
X111400600Y-117280000D02*
X111400600Y-113680000D01*
X127250600Y-100430000D02*
X120650600Y-100430000D01*
X105650600Y-134430000D02*
X110250600Y-134430000D01*
X210250600Y-94030000D02*
G75*
G02*
X211400600Y-95180000I0J-1150000D01*
G01*
X205650600Y-125530000D02*
X210250600Y-125530000D01*
X196500600Y-101780000D02*
X196500600Y-95180000D01*
X169650600Y-126430000D02*
X174250600Y-126430000D01*
X145650600Y-126430000D02*
G75*
G02*
X144500600Y-125280000I0J1150000D01*
G01*
X113400600Y-94680000D02*
X113400600Y-99280000D01*
X121650600Y-118430000D02*
X126250600Y-118430000D01*
X168500600Y-129680000D02*
X168500600Y-133280000D01*
X102250600Y-104530000D02*
X97650600Y-104530000D01*
X110250600Y-120530000D02*
X105650600Y-120530000D01*
X135400600Y-109280000D02*
X135400600Y-105680000D01*
X211400600Y-133280000D02*
G75*
G02*
X210250600Y-134430000I-1150000J0D01*
G01*
X218250600Y-134430000D02*
X213650600Y-134430000D01*
X177722600Y-67828800D02*
G75*
G02*
X179722600Y-65828800I2000000J0D01*
G01*
X218250600Y-115030000D02*
G75*
G02*
X219400600Y-116180000I0J-1150000D01*
G01*
X159400600Y-117280000D02*
G75*
G02*
X158250600Y-118430000I-1150000J0D01*
G01*
X119400600Y-109280000D02*
X119400600Y-105680000D01*
X128500600Y-105680000D02*
X128500600Y-109280000D01*
X167400600Y-109280000D02*
X167400600Y-105680000D01*
X86950600Y-60979600D02*
G75*
G02*
X87985567Y-59980004I1000200J0D01*
G01*
X174250600Y-104530000D02*
G75*
G02*
X175400600Y-105680000I0J-1150000D01*
G01*
X182250600Y-128530000D02*
X177650600Y-128530000D01*
X150250600Y-128530000D02*
X113650600Y-128530000D01*
X145650600Y-118430000D02*
G75*
G02*
X144500600Y-117280000I0J1150000D01*
G01*
X110250600Y-128530000D02*
G75*
G02*
X111400600Y-129680000I0J-1150000D01*
G01*
X128500600Y-113680000D02*
G75*
G02*
X129650600Y-112530000I1150000J0D01*
G01*
X113650600Y-126430000D02*
G75*
G02*
X112500600Y-125280000I0J1150000D01*
G01*
X212500600Y-122780000D02*
X212500600Y-116180000D01*
X113650600Y-110430000D02*
G75*
G02*
X112500600Y-109280000I0J1150000D01*
G01*
X94250600Y-112530000D02*
G75*
G02*
X95400600Y-113680000I0J-1150000D01*
G01*
X81650600Y-134430000D02*
X86250600Y-134430000D01*
X88500600Y-129680000D02*
G75*
G02*
X89650600Y-128530000I1150000J0D01*
G01*
X210250600Y-123930000D02*
X205650600Y-123930000D01*
X119400600Y-125280001D02*
G75*
G02*
X118250600Y-126430000I-1150000J1D01*
G01*
X217950600Y-60980000D02*
G75*
G02*
X218986105Y-59980009I1000600J0D01*
G01*
X177722600Y-67828800D02*
G75*
G02*
X179722600Y-65828800I2000000J0D01*
G01*
X158250600Y-104530000D02*
X153650600Y-104530000D01*
X204500600Y-122779999D02*
X204500600Y-116180000D01*
X105650600Y-126430000D02*
X110250600Y-126430000D01*
X204500600Y-116180000D02*
G75*
G02*
X205650600Y-115030000I1150000J0D01*
G01*
X97650600Y-118430000D02*
X102250600Y-118430000D01*
X159400600Y-133280000D02*
G75*
G02*
X158250600Y-134430000I-1150000J0D01*
G01*
X194250600Y-113430000D02*
X189650600Y-113430000D01*
X102250600Y-112530000D02*
X97650600Y-112530000D01*
X136500600Y-121680000D02*
X136500600Y-125280000D01*
X95400600Y-125280001D02*
G75*
G02*
X94250600Y-126430000I-1150000J1D01*
G01*
X210250600Y-115030000D02*
G75*
G02*
X211400600Y-116180000I0J-1150000D01*
G01*
X152500600Y-121680000D02*
X152500600Y-125280000D01*
X189650600Y-134430000D02*
G75*
G02*
X188500600Y-133280000I0J1150000D01*
G01*
X145650600Y-110430000D02*
X150250600Y-110430000D01*
X119400600Y-117280000D02*
X119400600Y-113680000D01*
X143400600Y-117280000D02*
X143400600Y-113680000D01*
X135650600Y-93530000D02*
X142250600Y-93530000D01*
X152500600Y-113680000D02*
X152500600Y-117280000D01*
X87400600Y-133280001D02*
X87400600Y-129680000D01*
X134250600Y-112530000D02*
X129650600Y-112530000D01*
X90845600Y-66340000D02*
G75*
G02*
X91845601Y-65340000I1000000J0D01*
G01*
X223950603Y-90331842D02*
X223950698Y-137980000D01*
X87400600Y-109280000D02*
G75*
G02*
X86250600Y-110430000I-1150000J0D01*
G01*
X169650600Y-110430000D02*
G75*
G02*
X168500600Y-109280000I0J1150000D01*
G01*
X194422600Y-73823200D02*
X194422600Y-67828800D01*
X135400600Y-125280000D02*
X135400600Y-121680000D01*
X218250600Y-104530000D02*
G75*
G02*
X219400600Y-105680000I0J-1150000D01*
G01*
X81650600Y-110430000D02*
X86250600Y-110430000D01*
X189650600Y-115030000D02*
X194250600Y-115030000D01*
X174250600Y-104530000D02*
X169650600Y-104530000D01*
X161650600Y-126430000D02*
G75*
G02*
X160500600Y-125280000I0J1150000D01*
G01*
X188500600Y-112280000D02*
X188500600Y-105680000D01*
X127400600Y-117280000D02*
G75*
G02*
X126250600Y-118430000I-1150000J0D01*
G01*
X203400600Y-126680000D02*
X203400600Y-133280000D01*
X112250599Y-100430000D02*
X105650600Y-100430000D01*
X189650600Y-134430000D02*
G75*
G02*
X188500600Y-133280000I0J1150000D01*
G01*
X142250600Y-104530000D02*
G75*
G02*
X143400600Y-105680000I0J-1150000D01*
G01*
X151400600Y-109280000D02*
G75*
G02*
X150250600Y-110430000I-1150000J0D01*
G01*
X80500600Y-105680000D02*
G75*
G02*
X81650600Y-104530000I1150000J0D01*
G01*
X222450600Y-78991981D02*
G75*
G02*
X223203838Y-78198957I766300J26381D01*
G01*
X151400600Y-133280001D02*
X151400600Y-129680000D01*
X104500600Y-99280000D02*
X104500600Y-94680000D01*
X134250600Y-104530000D02*
X129650600Y-104530000D01*
X168500600Y-129680000D02*
X168500600Y-133280000D01*
X120500600Y-113680000D02*
G75*
G02*
X121650600Y-112530000I1150000J0D01*
G01*
X212950600Y-63980000D02*
X212950600Y-60980000D01*
X222450600Y-78991981D02*
X222450600Y-88827082D01*
X196500600Y-133280000D02*
X196500600Y-126680000D01*
X158250600Y-120530000D02*
X153650600Y-120530000D01*
X102250600Y-120530000D02*
G75*
G02*
X103400600Y-121680000I0J-1150000D01*
G01*
X103400600Y-125280000D02*
G75*
G02*
X102250600Y-126430000I-1150000J0D01*
G01*
X119500600Y-99280000D02*
X119500600Y-94680000D01*
X145650600Y-126430000D02*
G75*
G02*
X144500600Y-125280000I0J1150000D01*
G01*
X188500600Y-116180000D02*
G75*
G02*
X189650600Y-115030000I1150000J0D01*
G01*
X95400600Y-117280000D02*
G75*
G02*
X94250600Y-118430000I-1150000J0D01*
G01*
X97650600Y-126430000D02*
G75*
G02*
X96500600Y-125280000I0J1150000D01*
G01*
X197650600Y-104530000D02*
X202250600Y-104530000D01*
X89500600Y-94680000D02*
G75*
G02*
X90650600Y-93530000I1150000J0D01*
G01*
X175400600Y-133280000D02*
X175400600Y-129680000D01*
X75950584Y-62480000D02*
G75*
G02*
X78459544Y-59980000I2500016J0D01*
G01*
X153650600Y-110430000D02*
X158250600Y-110430000D01*
X103400600Y-117280001D02*
G75*
G02*
X102250600Y-118430000I-1150000J1D01*
G01*
X87400600Y-133280001D02*
G75*
G02*
X86250600Y-134430000I-1150000J1D01*
G01*
X153650600Y-110430000D02*
G75*
G02*
X152500600Y-109280000I0J1150000D01*
G01*
X80500600Y-113680000D02*
X80500600Y-117280000D01*
X202250600Y-134430000D02*
X197650600Y-134430000D01*
X126250600Y-112530000D02*
G75*
G02*
X127400600Y-113680000I0J-1150000D01*
G01*
X137650600Y-126430000D02*
G75*
G02*
X136500600Y-125280000I0J1150000D01*
G01*
X183400600Y-109280000D02*
X183400600Y-105680000D01*
X103400600Y-109280000D02*
X103400600Y-105680000D01*
X134500600Y-99280000D02*
X134500600Y-94680000D01*
X158250600Y-112530000D02*
X153650600Y-112530000D01*
X88500600Y-121680000D02*
X88500600Y-125280000D01*
X126250600Y-120530000D02*
G75*
G02*
X127400600Y-121680000I0J-1150000D01*
G01*
X194250600Y-104530000D02*
G75*
G02*
X195400600Y-105680000I0J-1150000D01*
G01*
X137650600Y-110430000D02*
G75*
G02*
X136500600Y-109280000I0J1150000D01*
G01*
X219400600Y-95180000D02*
X219400600Y-101780000D01*
X143400600Y-117280000D02*
G75*
G02*
X142250600Y-118430000I-1150000J0D01*
G01*
X202250600Y-115030000D02*
G75*
G02*
X203400600Y-116180000I0J-1150000D01*
G01*
X110250600Y-104530000D02*
G75*
G02*
X111400600Y-105680000I0J-1150000D01*
G01*
X218986105Y-59980009D02*
X221450600Y-59980009D01*
X210250600Y-123930000D02*
X205650600Y-123930000D01*
X96500600Y-121680000D02*
G75*
G02*
X97650600Y-120530000I1150000J0D01*
G01*
X121650600Y-110430000D02*
X126250600Y-110430000D01*
X153650600Y-110430000D02*
G75*
G02*
X152500600Y-109280000I0J1150000D01*
G01*
X151400600Y-125280000D02*
G75*
G02*
X150250600Y-126430000I-1150000J0D01*
G01*
X223200601Y-89577082D02*
G75*
G02*
X222450618Y-88827082I-1J749982D01*
G01*
X150250600Y-128530000D02*
G75*
G02*
X151400600Y-129680000I0J-1150000D01*
G01*
X150250600Y-104530000D02*
X145650600Y-104530000D01*
X202250600Y-125530000D02*
G75*
G02*
X203400600Y-126680000I0J-1150000D01*
G01*
X76487606Y-78210504D02*
G75*
G02*
X75950597Y-77171001I737594J1039504D01*
G01*
X86950600Y-63980000D02*
X86950600Y-60979500D01*
X177650600Y-126430000D02*
G75*
G02*
X176500600Y-125280000I0J1150000D01*
G01*
X81650600Y-110430000D02*
X86250600Y-110430000D01*
X160500600Y-105680000D02*
G75*
G02*
X161650600Y-104530000I1150000J0D01*
G01*
X152500600Y-121680000D02*
X152500600Y-125280000D01*
X152500600Y-129680000D02*
X152500600Y-133280000D01*
X110250600Y-104530000D02*
G75*
G02*
X111400600Y-105680000I0J-1150000D01*
G01*
X103400600Y-133280000D02*
X103400600Y-129680000D01*
X87400600Y-133280000D02*
X87400600Y-129680000D01*
X88500600Y-129680000D02*
G75*
G02*
X89650600Y-128530000I1150000J0D01*
G01*
X95400600Y-133280000D02*
G75*
G02*
X94250600Y-134430000I-1150000J0D01*
G01*
X87400600Y-109280001D02*
G75*
G02*
X86250600Y-110430000I-1150000J1D01*
G01*
X143400600Y-125280000D02*
X143400600Y-121680000D01*
X205650600Y-94030000D02*
X210250600Y-94030000D01*
X219400600Y-116180000D02*
X219400600Y-122780000D01*
X143400600Y-125280001D02*
G75*
G02*
X142250600Y-126430000I-1150000J1D01*
G01*
X161650600Y-110430000D02*
G75*
G02*
X160500600Y-109280000I0J1150000D01*
G01*
X118250600Y-104530000D02*
G75*
G02*
X119400600Y-105680000I0J-1150000D01*
G01*
X213650600Y-102930000D02*
G75*
G02*
X212500600Y-101780000I0J1150000D01*
G01*
X120500600Y-121680000D02*
X120500600Y-125280000D01*
X111400600Y-133280000D02*
X111400600Y-129680000D01*
X80500600Y-121680000D02*
G75*
G02*
X81650600Y-120530000I1150000J0D01*
G01*
X192422600Y-65828800D02*
G75*
G02*
X194422600Y-67828800I0J-2000000D01*
G01*
X145650600Y-126430000D02*
X150250600Y-126430000D01*
X105650600Y-110430000D02*
G75*
G02*
X104500600Y-109280000I0J1150000D01*
G01*
X223200601Y-89577082D02*
G75*
G02*
X223950603Y-90331842I-1J-750018D01*
G01*
X144500600Y-113680000D02*
X144500600Y-117280000D01*
X142250600Y-104530000D02*
G75*
G02*
X143400600Y-105680000I0J-1150000D01*
G01*
X174250600Y-128530000D02*
X169650600Y-128530000D01*
X89500600Y-99280000D02*
X89500600Y-94680000D01*
X145650600Y-118430000D02*
X150250600Y-118430000D01*
X159400600Y-125280000D02*
X159400600Y-121680000D01*
X204500600Y-122780000D02*
X204500600Y-116180000D01*
X169650600Y-118430000D02*
G75*
G02*
X168500600Y-117280000I0J1150000D01*
G01*
X89650600Y-134430000D02*
G75*
G02*
X88500600Y-133280000I0J1150000D01*
G01*
X81650600Y-110430000D02*
X86250600Y-110430000D01*
X183400600Y-109280000D02*
X183400600Y-105680000D01*
X96500600Y-105680000D02*
G75*
G02*
X97650600Y-104530000I1150000J0D01*
G01*
X134250600Y-104530000D02*
G75*
G02*
X135400600Y-105680000I0J-1150000D01*
G01*
X157250599Y-100430000D02*
X150650600Y-100430000D01*
X86250600Y-120530000D02*
X81650600Y-120530000D01*
X219400600Y-133280000D02*
G75*
G02*
X218250600Y-134430000I-1150000J0D01*
G01*
X153650600Y-110430000D02*
X158250600Y-110430000D01*
X177650600Y-110430000D02*
G75*
G02*
X176500600Y-109280000I0J1150000D01*
G01*
X128500600Y-105680000D02*
G75*
G02*
X129650600Y-104530000I1150000J0D01*
G01*
X75950600Y-137980000D02*
X75950600Y-90119500D01*
X189650600Y-134430000D02*
G75*
G02*
X188500600Y-133280000I0J1150000D01*
G01*
X95400600Y-133280000D02*
X95400600Y-129680000D01*
X192422600Y-65828800D02*
X179722600Y-65828800D01*
X136500600Y-105680000D02*
X136500600Y-109280000D01*
X177650600Y-134430000D02*
X182250600Y-134430000D01*
X202250600Y-102930000D02*
X197650600Y-102930000D01*
X166250600Y-112530000D02*
X161650600Y-112530000D01*
X102250600Y-104530000D02*
X97650600Y-104530000D01*
X142250600Y-104530000D02*
X137650600Y-104530000D01*
X155985600Y-65340000D02*
G75*
G02*
X156985600Y-66340000I0J-1000000D01*
G01*
X111400600Y-117280001D02*
X111400600Y-113680000D01*
X182250600Y-112530000D02*
G75*
G02*
X183400600Y-113680000I0J-1150000D01*
G01*
X188500600Y-95180000D02*
G75*
G02*
X189650600Y-94030000I1150000J0D01*
G01*
X202250600Y-102930000D02*
X197650600Y-102930000D01*
X159400600Y-117280001D02*
X159400600Y-113680000D01*
X223950603Y-90331842D02*
X223950698Y-137980000D01*
X102250600Y-128530000D02*
G75*
G02*
X103400600Y-129680000I0J-1150000D01*
G01*
X81650600Y-134430000D02*
X86250600Y-134430000D01*
X188500600Y-126680000D02*
G75*
G02*
X189650600Y-125530000I1150000J0D01*
G01*
X77024612Y-88350000D02*
G75*
G02*
X76487603Y-89234672I-997212J0D01*
G01*
X160500600Y-113680000D02*
G75*
G02*
X161650600Y-112530000I1150000J0D01*
G01*
X158250600Y-104530000D02*
G75*
G02*
X159400600Y-105680000I0J-1150000D01*
G01*
X160500600Y-113680000D02*
X160500600Y-117280000D01*
X189650600Y-115030000D02*
X194250600Y-115030000D01*
X223950654Y-77439191D02*
G75*
G02*
X223203836Y-78198844I-759754J-9D01*
G01*
X111400600Y-125280000D02*
X111400600Y-121680000D01*
X204500600Y-112280000D02*
X204500600Y-105680000D01*
X197650600Y-123930000D02*
G75*
G02*
X196500600Y-122780000I0J1150000D01*
G01*
X175400600Y-117280000D02*
G75*
G02*
X174250600Y-118430000I-1150000J0D01*
G01*
X194422600Y-73823200D02*
G75*
G02*
X192422600Y-75823200I-2000000J0D01*
G01*
X212500600Y-126680000D02*
G75*
G02*
X213650600Y-125530000I1150000J0D01*
G01*
X126250600Y-104530000D02*
G75*
G02*
X127400600Y-105680000I0J-1150000D01*
G01*
X166250600Y-120530000D02*
G75*
G02*
X167400600Y-121680000I0J-1150000D01*
G01*
X145650600Y-110430000D02*
G75*
G02*
X144500600Y-109280000I0J1150000D01*
G01*
X161650600Y-126430000D02*
G75*
G02*
X160500600Y-125280000I0J1150000D01*
G01*
X167400600Y-109280000D02*
G75*
G02*
X166250600Y-110430000I-1150000J0D01*
G01*
X182250600Y-104530000D02*
X177650600Y-104530000D01*
X176500600Y-121680000D02*
X176500600Y-125280000D01*
X167400600Y-109280000D02*
X167400600Y-105680000D01*
X158250600Y-128530000D02*
G75*
G02*
X159400600Y-129680000I0J-1150000D01*
G01*
X195400600Y-112280000D02*
G75*
G02*
X194250600Y-113430000I-1150000J0D01*
G01*
X189650600Y-94030000D02*
X194250600Y-94030000D01*
X121650600Y-110430000D02*
G75*
G02*
X120500600Y-109280000I0J1150000D01*
G01*
X80500600Y-121680000D02*
G75*
G02*
X81650600Y-120530000I1150000J0D01*
G01*
X168500600Y-105680000D02*
G75*
G02*
X169650600Y-104530000I1150000J0D01*
G01*
X135400600Y-117280000D02*
X135400600Y-113680000D01*
X87985596Y-59980009D02*
X211984905Y-59980009D01*
X169650600Y-118430000D02*
X174250600Y-118430000D01*
X87400600Y-117280000D02*
X87400600Y-113680000D01*
X112500600Y-113680000D02*
X112500600Y-117280000D01*
X218250600Y-102930000D02*
X213650600Y-102930000D01*
X177650600Y-118430000D02*
G75*
G02*
X176500600Y-117280000I0J1150000D01*
G01*
X112500600Y-113680000D02*
G75*
G02*
X113650600Y-112530000I1150000J0D01*
G01*
X161650600Y-134430000D02*
G75*
G02*
X160500600Y-133280000I0J1150000D01*
G01*
X78950600Y-140980000D02*
G75*
G02*
X75950600Y-137980000I0J3000000D01*
G01*
X137650600Y-118430000D02*
G75*
G02*
X136500600Y-117280000I0J1150000D01*
G01*
X203400600Y-95180000D02*
X203400600Y-101780000D01*
X112500600Y-129680000D02*
X112500600Y-133280000D01*
X97250600Y-93530000D02*
G75*
G02*
X98400600Y-94680000I0J-1150000D01*
G01*
X127400600Y-117280000D02*
X127400600Y-113680000D01*
X102250600Y-104530000D02*
G75*
G02*
X103400600Y-105680000I0J-1150000D01*
G01*
X95400600Y-125280001D02*
G75*
G02*
X94250600Y-126430000I-1150000J1D01*
G01*
X75950600Y-90119500D02*
G75*
G02*
X76487621Y-89234707I997400J0D01*
G01*
X134250600Y-120530000D02*
X129650600Y-120530000D01*
X160500600Y-121680000D02*
X160500600Y-125280000D01*
X195400600Y-122780000D02*
G75*
G02*
X194250600Y-123930000I-1150000J0D01*
G01*
X118250600Y-112530000D02*
G75*
G02*
X119400600Y-113680000I0J-1150000D01*
G01*
X157250599Y-100430000D02*
X150650600Y-100430000D01*
X118250600Y-112530000D02*
G75*
G02*
X119400600Y-113680000I0J-1150000D01*
G01*
X182250600Y-128530000D02*
G75*
G02*
X183400600Y-129680000I0J-1150000D01*
G01*
X86250600Y-104530000D02*
G75*
G02*
X87400600Y-105680000I0J-1150000D01*
G01*
X213650600Y-115030000D02*
X218250600Y-115030000D01*
X105650600Y-93530000D02*
X112250600Y-93530000D01*
X176500600Y-113680000D02*
G75*
G02*
X177650600Y-112530000I1150000J0D01*
G01*
X168500600Y-129680000D02*
X168500600Y-133280000D01*
X155985600Y-65340000D02*
G75*
G02*
X156985600Y-66340000I0J-1000000D01*
G01*
X143400600Y-109280000D02*
G75*
G02*
X142250600Y-110430000I-1150000J0D01*
G01*
X88500600Y-129680000D02*
G75*
G02*
X89650600Y-128530000I1150000J0D01*
G01*
X202250600Y-94030000D02*
G75*
G02*
X203400600Y-95180000I0J-1150000D01*
G01*
X166250600Y-128530000D02*
G75*
G02*
X167400600Y-129680000I0J-1150000D01*
G01*
X192422600Y-65828800D02*
X179722600Y-65828800D01*
X194422600Y-73823200D02*
X194422600Y-67828800D01*
X103400600Y-109280000D02*
G75*
G02*
X102250600Y-110430000I-1150000J0D01*
G01*
X105650600Y-126430000D02*
X110250600Y-126430000D01*
X153650600Y-134430000D02*
X158250600Y-134430000D01*
X87400600Y-125280001D02*
X87400600Y-121680000D01*
X104500600Y-121680000D02*
G75*
G02*
X105650600Y-120530000I1150000J0D01*
G01*
X219400600Y-126680000D02*
X219400600Y-133280000D01*
X166250600Y-104530000D02*
G75*
G02*
X167400600Y-105680000I0J-1150000D01*
G01*
X218250600Y-125530000D02*
G75*
G02*
X219400600Y-126680000I0J-1150000D01*
G01*
X195400600Y-122780000D02*
G75*
G02*
X194250600Y-123930000I-1150000J0D01*
G01*
X151400600Y-133280001D02*
G75*
G02*
X150250600Y-134430000I-1150000J1D01*
G01*
X161650600Y-134430000D02*
X166250600Y-134430000D01*
X128500600Y-113680000D02*
X128500600Y-117280000D01*
X120650600Y-93530000D02*
X127250600Y-93530000D01*
X119500600Y-94680000D02*
G75*
G02*
X120650600Y-93530000I1150000J0D01*
G01*
X188500600Y-116180000D02*
G75*
G02*
X189650600Y-115030000I1150000J0D01*
G01*
X202250600Y-125530000D02*
G75*
G02*
X203400600Y-126680000I0J-1150000D01*
G01*
X194250600Y-113430000D02*
X189650600Y-113430000D01*
X142250600Y-112530000D02*
X137650600Y-112530000D01*
X179722600Y-75823200D02*
G75*
G02*
X177722600Y-73823200I0J2000000D01*
G01*
X127250600Y-100430000D02*
X120650600Y-100430000D01*
X118250600Y-104530000D02*
X113650600Y-104530000D01*
X128500600Y-105680000D02*
X128500600Y-109280000D01*
X167400600Y-133280000D02*
G75*
G02*
X166250600Y-134430000I-1150000J0D01*
G01*
X183400600Y-133280000D02*
X183400600Y-129680000D01*
X144500600Y-105680000D02*
G75*
G02*
X145650600Y-104530000I1150000J0D01*
G01*
X102250600Y-120530000D02*
X97650600Y-120530000D01*
X160500600Y-129680000D02*
G75*
G02*
X161650600Y-128530000I1150000J0D01*
G01*
X152500600Y-121680000D02*
G75*
G02*
X153650600Y-120530000I1150000J0D01*
G01*
X98400600Y-94680000D02*
X98400600Y-99280000D01*
X188500600Y-95180000D02*
G75*
G02*
X189650600Y-94030000I1150000J0D01*
G01*
X182250600Y-112530000D02*
X177650600Y-112530000D01*
X77024612Y-88350000D02*
X77024612Y-79250000D01*
X204500600Y-95180000D02*
G75*
G02*
X205650600Y-94030000I1150000J0D01*
G01*
X127400600Y-125280000D02*
G75*
G02*
X126250600Y-126430000I-1150000J0D01*
G01*
X91845600Y-65340000D02*
X155985600Y-65340000D01*
X169650600Y-134430000D02*
X174250600Y-134430000D01*
X203400600Y-126680000D02*
X203400600Y-133280000D01*
X197650600Y-94030000D02*
X202250600Y-94030000D01*
X145650600Y-110430000D02*
X150250600Y-110430000D01*
X120650600Y-100430000D02*
G75*
G02*
X119500600Y-99280000I0J1150000D01*
G01*
X97650600Y-118430000D02*
X102250600Y-118430000D01*
X153650600Y-118430000D02*
G75*
G02*
X152500600Y-117280000I0J1150000D01*
G01*
X204500600Y-105680000D02*
G75*
G02*
X205650600Y-104530000I1150000J0D01*
G01*
X159400600Y-109280000D02*
G75*
G02*
X158250600Y-110430000I-1150000J0D01*
G01*
X87400600Y-109280001D02*
X87400600Y-105680000D01*
X88500600Y-121680000D02*
X88500600Y-125280000D01*
X118250600Y-120530000D02*
G75*
G02*
X119400600Y-121680000I0J-1150000D01*
G01*
X203400600Y-95180000D02*
X203400600Y-101780000D01*
X134250600Y-104530000D02*
G75*
G02*
X135400600Y-105680000I0J-1150000D01*
G01*
X167400600Y-133280001D02*
X167400600Y-129680000D01*
X159400600Y-125280000D02*
G75*
G02*
X158250600Y-126430000I-1150000J0D01*
G01*
X194250600Y-134430000D02*
X189650600Y-134430000D01*
X88500600Y-113680000D02*
X88500600Y-117280000D01*
X175400600Y-133280000D02*
X175400600Y-129680000D01*
X153650600Y-126430000D02*
G75*
G02*
X152500600Y-125280000I0J1150000D01*
G01*
X189650600Y-102930000D02*
G75*
G02*
X188500600Y-101780000I0J1150000D01*
G01*
X113400600Y-94680000D02*
X113400600Y-99280000D01*
X118250600Y-104530000D02*
X113650600Y-104530000D01*
X96500600Y-113680000D02*
G75*
G02*
X97650600Y-112530000I1150000J0D01*
G01*
X159400600Y-125280000D02*
X159400600Y-121680000D01*
X94250600Y-104530000D02*
X89650600Y-104530000D01*
X103400600Y-125280000D02*
X103400600Y-121680000D01*
X158250600Y-112530000D02*
X153650600Y-112530000D01*
X213650600Y-125530000D02*
X218250600Y-125530000D01*
X202250600Y-134430000D02*
X197650600Y-134430000D01*
X102250600Y-128530000D02*
G75*
G02*
X103400600Y-129680000I0J-1150000D01*
G01*
X95400600Y-109280000D02*
X95400600Y-105680000D01*
X150250600Y-120530000D02*
G75*
G02*
X151400600Y-121680000I0J-1150000D01*
G01*
X151400600Y-117280000D02*
X151400600Y-113680000D01*
X212500600Y-101779999D02*
X212500600Y-95180000D01*
X78459544Y-59980000D02*
X80951000Y-59980000D01*
X89650600Y-118430000D02*
G75*
G02*
X88500600Y-117280000I0J1150000D01*
G01*
X89500600Y-94680000D02*
G75*
G02*
X90650600Y-93530000I1150000J0D01*
G01*
X213650600Y-102930000D02*
G75*
G02*
X212500600Y-101779999I0J1150000D01*
G01*
X104500600Y-121680000D02*
X104500600Y-125280000D01*
X211400600Y-95180000D02*
X211400600Y-101780000D01*
X113650600Y-110430000D02*
G75*
G02*
X112500600Y-109280000I0J1150000D01*
G01*
X218250600Y-94030000D02*
G75*
G02*
X219400600Y-95180000I0J-1150000D01*
G01*
X159400600Y-117280000D02*
X159400600Y-113680000D01*
X211400600Y-101780000D02*
G75*
G02*
X210250600Y-102930000I-1150000J0D01*
G01*
X188500600Y-95180000D02*
G75*
G02*
X189650600Y-94030000I1150000J0D01*
G01*
X152500600Y-113680000D02*
G75*
G02*
X153650600Y-112530000I1150000J0D01*
G01*
X103400600Y-133280000D02*
G75*
G02*
X102250600Y-134430000I-1150000J0D01*
G01*
X104500600Y-121680000D02*
G75*
G02*
X105650600Y-120530000I1150000J0D01*
G01*
X98400600Y-99280000D02*
G75*
G02*
X97250600Y-100430000I-1150000J0D01*
G01*
X219400600Y-101780000D02*
G75*
G02*
X218250600Y-102930000I-1150000J0D01*
G01*
X197650600Y-123930000D02*
G75*
G02*
X196500600Y-122780000I0J1150000D01*
G01*
X196500600Y-126680000D02*
G75*
G02*
X197650600Y-125530000I1150000J0D01*
G01*
X142250600Y-112530000D02*
X137650600Y-112530000D01*
X194250600Y-94030000D02*
G75*
G02*
X195400600Y-95180000I0J-1150000D01*
G01*
X104500600Y-113680000D02*
X104500600Y-117280000D01*
X211400600Y-105680000D02*
X211400600Y-112280000D01*
X103400600Y-109280000D02*
G75*
G02*
X102250600Y-110430000I-1150000J0D01*
G01*
X183400600Y-125280001D02*
G75*
G02*
X182250600Y-126430000I-1150000J1D01*
G01*
X205650600Y-115030000D02*
X210250600Y-115030000D01*
X87400600Y-109280000D02*
X87400600Y-105680000D01*
X144500600Y-105680000D02*
X144500600Y-109280000D01*
X136500600Y-113680000D02*
G75*
G02*
X137650600Y-112530000I1150000J0D01*
G01*
X135650600Y-100430000D02*
G75*
G02*
X134500600Y-99280000I0J1150000D01*
G01*
X151400600Y-117280000D02*
G75*
G02*
X150250600Y-118430000I-1150000J0D01*
G01*
X202250600Y-123930000D02*
X197650600Y-123930000D01*
X166250600Y-112530000D02*
G75*
G02*
X167400600Y-113680000I0J-1150000D01*
G01*
X176500600Y-105680000D02*
X176500600Y-109280000D01*
X197650600Y-134430000D02*
G75*
G02*
X196500600Y-133280000I0J1150000D01*
G01*
X211400600Y-105680000D02*
X211400600Y-112280000D01*
X111400600Y-125280000D02*
X111400600Y-121680000D01*
X159400600Y-133280000D02*
G75*
G02*
X158250600Y-134430000I-1150000J0D01*
G01*
X194250600Y-94030000D02*
G75*
G02*
X195400600Y-95180000I0J-1150000D01*
G01*
X219400600Y-101780000D02*
G75*
G02*
X218250600Y-102930000I-1150000J0D01*
G01*
X96500600Y-121680000D02*
G75*
G02*
X97650600Y-120530000I1150000J0D01*
G01*
X104500600Y-113680000D02*
G75*
G02*
X105650600Y-112530000I1150000J0D01*
G01*
X135650600Y-93530000D02*
X142250600Y-93530000D01*
X174250600Y-128530000D02*
X169650600Y-128530000D01*
X134250600Y-120530000D02*
G75*
G02*
X135400600Y-121680000I0J-1150000D01*
G01*
X120650600Y-93530000D02*
X127250600Y-93530000D01*
X135400600Y-125280000D02*
X135400600Y-121680000D01*
X213650600Y-125530000D02*
X218250600Y-125530000D01*
X94250600Y-112530000D02*
X89650600Y-112530000D01*
X110250600Y-128530000D02*
G75*
G02*
X111400600Y-129680000I0J-1150000D01*
G01*
X161650600Y-118430000D02*
X166250600Y-118430000D01*
X88500600Y-129680000D02*
X88500600Y-133280000D01*
X129650600Y-118430000D02*
G75*
G02*
X128500600Y-117280000I0J1150000D01*
G01*
X151400600Y-125280000D02*
G75*
G02*
X150250600Y-126430000I-1150000J0D01*
G01*
X94250600Y-120530000D02*
X89650600Y-120530000D01*
X102250600Y-128530000D02*
X97650600Y-128530000D01*
X160500600Y-129680000D02*
X160500600Y-133280000D01*
X159400600Y-117280000D02*
G75*
G02*
X158250600Y-118430000I-1150000J0D01*
G01*
X120500600Y-113680000D02*
X120500600Y-117280000D01*
X183400600Y-109280001D02*
X183400600Y-105680000D01*
X210250600Y-125530000D02*
G75*
G02*
X211400600Y-126680000I0J-1150000D01*
G01*
X150250600Y-120530000D02*
X145650600Y-120530000D01*
X175400600Y-117280000D02*
X175400600Y-113680000D01*
X102250600Y-104530000D02*
G75*
G02*
X103400600Y-105680000I0J-1150000D01*
G01*
X143400600Y-94680000D02*
X143400600Y-99280000D01*
X75950584Y-62480000D02*
G75*
G02*
X78450600Y-59979984I2500016J0D01*
G01*
X194422600Y-73823200D02*
G75*
G02*
X192422600Y-75823200I-2000000J0D01*
G01*
X105650600Y-126430000D02*
G75*
G02*
X104500600Y-125280000I0J1150000D01*
G01*
X104500600Y-113680000D02*
G75*
G02*
X105650600Y-112530000I1150000J0D01*
G01*
X160500600Y-113680000D02*
G75*
G02*
X161650600Y-112530000I1150000J0D01*
G01*
X176500600Y-121680000D02*
X176500600Y-125280000D01*
X211400600Y-122780000D02*
G75*
G02*
X210250600Y-123930000I-1150000J0D01*
G01*
X176500600Y-121680000D02*
G75*
G02*
X177650600Y-120530000I1150000J0D01*
G01*
X80500600Y-129680000D02*
X80500600Y-133280000D01*
X161650600Y-126430000D02*
X166250600Y-126430000D01*
X103400600Y-109280000D02*
X103400600Y-105680000D01*
X161650600Y-110430000D02*
G75*
G02*
X160500600Y-109280000I0J1150000D01*
G01*
X102250600Y-120530000D02*
G75*
G02*
X103400600Y-121680000I0J-1150000D01*
G01*
X194250600Y-134430000D02*
X189650600Y-134430000D01*
X113650600Y-110430000D02*
G75*
G02*
X112500600Y-109280000I0J1150000D01*
G01*
X90650600Y-100430000D02*
G75*
G02*
X89500600Y-99280000I0J1150000D01*
G01*
X167400600Y-133280001D02*
G75*
G02*
X166250600Y-134430000I-1150000J1D01*
G01*
X149500600Y-99280000D02*
X149500600Y-94680000D01*
X113650600Y-118430000D02*
G75*
G02*
X112500600Y-117280000I0J1150000D01*
G01*
X219400600Y-122780000D02*
G75*
G02*
X218250600Y-123930000I-1150000J0D01*
G01*
X218250600Y-125530000D02*
G75*
G02*
X219400600Y-126680000I0J-1150000D01*
G01*
X143400600Y-109280001D02*
G75*
G02*
X142250600Y-110430000I-1150000J1D01*
G01*
X135650600Y-100430000D02*
G75*
G02*
X134500600Y-99280000I0J1150000D01*
G01*
X175400600Y-125280000D02*
G75*
G02*
X174250600Y-126430000I-1150000J0D01*
G01*
X175400600Y-133280000D02*
G75*
G02*
X174250600Y-134430000I-1150000J0D01*
G01*
X111400600Y-125280000D02*
G75*
G02*
X110250600Y-126430000I-1150000J0D01*
G01*
X113650600Y-110430000D02*
G75*
G02*
X112500600Y-109280000I0J1150000D01*
G01*
X223950600Y-62480000D02*
X223950654Y-77439197D01*
X95400600Y-125280001D02*
X95400600Y-121680000D01*
X86250600Y-120530000D02*
X81650600Y-120530000D01*
X120650600Y-93530000D02*
X127250600Y-93530000D01*
X219400600Y-126680000D02*
X219400600Y-133280000D01*
X176500600Y-113680000D02*
X176500600Y-117280000D01*
X103400600Y-133280000D02*
X103400600Y-129680000D01*
X128400600Y-94680000D02*
X128400600Y-99280000D01*
X91845600Y-88620000D02*
G75*
G02*
X90845600Y-87620000I0J1000000D01*
G01*
X195400600Y-112280000D02*
G75*
G02*
X194250600Y-113430000I-1150000J0D01*
G01*
X96500600Y-105680000D02*
X96500600Y-109280000D01*
X153650600Y-134430000D02*
G75*
G02*
X152500600Y-133280000I0J1150000D01*
G01*
X87400600Y-133280000D02*
G75*
G02*
X86250600Y-134430000I-1150000J0D01*
G01*
X168500600Y-129680000D02*
G75*
G02*
X169650600Y-128530000I1150000J0D01*
G01*
X103400600Y-133280000D02*
X103400600Y-129680000D01*
X121650600Y-118430000D02*
G75*
G02*
X120500600Y-117280000I0J1150000D01*
G01*
X204500600Y-126680000D02*
G75*
G02*
X205650600Y-125530000I1150000J0D01*
G01*
X86250600Y-120530000D02*
G75*
G02*
X87400600Y-121680000I0J-1150000D01*
G01*
X97650600Y-134430000D02*
X102250600Y-134430000D01*
X174250600Y-112530000D02*
G75*
G02*
X175400600Y-113680000I0J-1150000D01*
G01*
X183400600Y-125280001D02*
X183400600Y-121680000D01*
X105650600Y-100430000D02*
G75*
G02*
X104500600Y-99280000I0J1150000D01*
G01*
X144500600Y-113680000D02*
X144500600Y-117280000D01*
X113650600Y-118430000D02*
X118250600Y-118430000D01*
X202250600Y-94030000D02*
G75*
G02*
X203400600Y-95180000I0J-1150000D01*
G01*
X195400600Y-105680000D02*
X195400600Y-112280000D01*
X129650600Y-110430000D02*
X134250600Y-110430000D01*
X118250600Y-112530000D02*
X113650600Y-112530000D01*
X210250600Y-113430000D02*
X205650600Y-113430000D01*
X150250600Y-120530000D02*
G75*
G02*
X151400600Y-121680000I0J-1150000D01*
G01*
X142250600Y-120530000D02*
G75*
G02*
X143400600Y-121680000I0J-1150000D01*
G01*
X86250600Y-128530000D02*
X81650600Y-128530000D01*
X220950700Y-140980000D02*
X78950600Y-140980000D01*
X96500600Y-121680000D02*
X96500600Y-125280000D01*
X78459544Y-59980000D02*
X80951000Y-59980000D01*
X94250600Y-120530000D02*
X89650600Y-120530000D01*
X120500600Y-121680000D02*
G75*
G02*
X121650600Y-120530000I1150000J0D01*
G01*
X118250600Y-112530000D02*
X113650600Y-112530000D01*
X212500600Y-133280000D02*
X212500600Y-126680000D01*
X143400600Y-125280001D02*
X143400600Y-121680000D01*
X87400600Y-109280001D02*
G75*
G02*
X86250600Y-110430000I-1150000J1D01*
G01*
X129650600Y-110430000D02*
X134250600Y-110430000D01*
X151400600Y-117280000D02*
G75*
G02*
X150250600Y-118430000I-1150000J0D01*
G01*
X168500600Y-113680000D02*
G75*
G02*
X169650600Y-112530000I1150000J0D01*
G01*
X223950698Y-137979994D02*
G75*
G02*
X220950700Y-140979998I-2999998J-6D01*
G01*
X196500600Y-122780000D02*
X196500600Y-116180000D01*
X80500600Y-129680000D02*
X80500600Y-133280000D01*
X134250600Y-104530000D02*
X129650600Y-104530000D01*
X127400600Y-125280000D02*
G75*
G02*
X126250600Y-126430000I-1150000J0D01*
G01*
X183400600Y-125280000D02*
X183400600Y-121680000D01*
X153650600Y-110430000D02*
G75*
G02*
X152500600Y-109280000I0J1150000D01*
G01*
X168500600Y-113680000D02*
G75*
G02*
X169650600Y-112530000I1150000J0D01*
G01*
X175400600Y-109280000D02*
X175400600Y-105680000D01*
X119400600Y-125280000D02*
G75*
G02*
X118250600Y-126430000I-1150000J0D01*
G01*
X167400600Y-125280000D02*
X167400600Y-121680000D01*
X120500600Y-113680000D02*
G75*
G02*
X121650600Y-112530000I1150000J0D01*
G01*
X212500600Y-116180000D02*
G75*
G02*
X213650600Y-115030000I1150000J0D01*
G01*
X128500600Y-113680000D02*
G75*
G02*
X129650600Y-112530000I1150000J0D01*
G01*
X86250600Y-128530000D02*
X81650600Y-128530000D01*
X158400600Y-94680000D02*
X158400600Y-99280000D01*
X182250600Y-112530000D02*
G75*
G02*
X183400600Y-113680000I0J-1150000D01*
G01*
X189650600Y-113430000D02*
G75*
G02*
X188500600Y-112280000I0J1150000D01*
G01*
X203400600Y-116180000D02*
X203400600Y-122780000D01*
X169650600Y-118430000D02*
X174250600Y-118430000D01*
X205650600Y-123930000D02*
G75*
G02*
X204500600Y-122780000I0J1150000D01*
G01*
X94250600Y-112530000D02*
G75*
G02*
X95400600Y-113680000I0J-1150000D01*
G01*
X196500600Y-133280000D02*
X196500600Y-126680000D01*
X89650600Y-110430000D02*
G75*
G02*
X88500600Y-109280000I0J1150000D01*
G01*
X126250600Y-120530000D02*
X121650600Y-120530000D01*
X112500600Y-129680000D02*
X112500600Y-133280000D01*
X120500600Y-105680000D02*
G75*
G02*
X121650600Y-104530000I1150000J0D01*
G01*
X203400600Y-126680000D02*
X203400600Y-133280000D01*
X81650600Y-118430000D02*
X86250600Y-118430000D01*
X111400600Y-109280000D02*
X111400600Y-105680000D01*
X213650600Y-134430000D02*
G75*
G02*
X212500600Y-133280000I0J1150000D01*
G01*
X120500600Y-121680000D02*
G75*
G02*
X121650600Y-120530000I1150000J0D01*
G01*
X183400600Y-125280001D02*
X183400600Y-121680000D01*
X136500600Y-113680000D02*
X136500600Y-117280000D01*
X212500600Y-112280000D02*
X212500600Y-105680000D01*
X204500600Y-95180000D02*
G75*
G02*
X205650600Y-94030000I1150000J0D01*
G01*
X223950698Y-137980000D02*
G75*
G02*
X220950700Y-140979998I-2999998J0D01*
G01*
X189650600Y-104530000D02*
X194250600Y-104530000D01*
X152500600Y-129680000D02*
G75*
G02*
X153650600Y-128530000I1150000J0D01*
G01*
X194250600Y-134430000D02*
X189650600Y-134430000D01*
X88500600Y-105680000D02*
X88500600Y-109280000D01*
X97650600Y-110430000D02*
G75*
G02*
X96500600Y-109280000I0J1150000D01*
G01*
X126250600Y-112530000D02*
G75*
G02*
X127400600Y-113680000I0J-1150000D01*
G01*
X169650600Y-126430000D02*
G75*
G02*
X168500600Y-125280000I0J1150000D01*
G01*
X87400600Y-117280000D02*
G75*
G02*
X86250600Y-118430000I-1150000J0D01*
G01*
X111400600Y-109280000D02*
G75*
G02*
X110250600Y-110430000I-1150000J0D01*
G01*
X160500600Y-113680000D02*
X160500600Y-117280000D01*
X87400600Y-117280001D02*
X87400600Y-113680000D01*
X166250600Y-120530000D02*
G75*
G02*
X167400600Y-121680000I0J-1150000D01*
G01*
X103400600Y-125280000D02*
G75*
G02*
X102250600Y-126430000I-1150000J0D01*
G01*
X104500600Y-94680000D02*
G75*
G02*
X105650600Y-93530000I1150000J0D01*
G01*
X194250600Y-104530000D02*
G75*
G02*
X195400600Y-105680000I0J-1150000D01*
G01*
X169650600Y-110430000D02*
X174250600Y-110430000D01*
X135400600Y-117280000D02*
X135400600Y-113680000D01*
X167400600Y-125280000D02*
X167400600Y-121680000D01*
X119400600Y-109280001D02*
X119400600Y-105680000D01*
X88500600Y-113680000D02*
G75*
G02*
X89650600Y-112530000I1150000J0D01*
G01*
X137650600Y-126430000D02*
X142250600Y-126430000D01*
X104500600Y-105680000D02*
G75*
G02*
X105650600Y-104530000I1150000J0D01*
G01*
X196500600Y-105680000D02*
G75*
G02*
X197650600Y-104530000I1150000J0D01*
G01*
X210250600Y-134430000D02*
X205650600Y-134430000D01*
X120500600Y-121680000D02*
X120500600Y-125280000D01*
X144500600Y-105680000D02*
G75*
G02*
X145650600Y-104530000I1150000J0D01*
G01*
X134250600Y-112530000D02*
X129650600Y-112530000D01*
X155985600Y-65340000D02*
G75*
G02*
X156985600Y-66340000I0J-1000000D01*
G01*
X204500600Y-112280000D02*
X204500600Y-105680000D01*
X112500600Y-121680000D02*
X112500600Y-125280000D01*
X86250600Y-104530000D02*
G75*
G02*
X87400600Y-105680000I0J-1150000D01*
G01*
X95400600Y-117280000D02*
X95400600Y-113680000D01*
X204500600Y-122779999D02*
X204500600Y-116180000D01*
X151400600Y-125280000D02*
X151400600Y-121680000D01*
X182250600Y-112530000D02*
G75*
G02*
X183400600Y-113680000I0J-1150000D01*
G01*
X77024603Y-79250000D02*
X77024612Y-79250000D01*
X137650600Y-110430000D02*
G75*
G02*
X136500600Y-109280000I0J1150000D01*
G01*
X112500600Y-121680000D02*
X112500600Y-125280000D01*
X212500600Y-112280000D02*
X212500600Y-105680000D01*
X194250600Y-125530000D02*
G75*
G02*
X195400600Y-126680000I0J-1150000D01*
G01*
X182250600Y-128530000D02*
G75*
G02*
X183400600Y-129680000I0J-1150000D01*
G01*
X81650600Y-118430000D02*
G75*
G02*
X80500600Y-117280000I0J1150000D01*
G01*
X105650600Y-118430000D02*
G75*
G02*
X104500600Y-117280000I0J1150000D01*
G01*
X203400600Y-116180000D02*
X203400600Y-122780000D01*
X153650600Y-126430000D02*
X158250600Y-126430000D01*
X158250600Y-104530000D02*
G75*
G02*
X159400600Y-105680000I0J-1150000D01*
G01*
X94250600Y-128530000D02*
X89650600Y-128530000D01*
X168500600Y-105680000D02*
G75*
G02*
X169650600Y-104530000I1150000J0D01*
G01*
X219400600Y-105680000D02*
X219400600Y-112280000D01*
X136500600Y-121680000D02*
X136500600Y-125280000D01*
X151400600Y-133280000D02*
X151400600Y-129680000D01*
X142250600Y-104530000D02*
X137650600Y-104530000D01*
X156985600Y-66340000D02*
X156985600Y-87620000D01*
X211400600Y-116180000D02*
X211400600Y-122780000D01*
X213650600Y-94030000D02*
X218250600Y-94030000D01*
X151400600Y-117280000D02*
G75*
G02*
X150250600Y-118430000I-1150000J0D01*
G01*
X204500600Y-95180000D02*
G75*
G02*
X205650600Y-94030000I1150000J0D01*
G01*
X80500600Y-121680000D02*
X80500600Y-125280000D01*
X174250600Y-104530000D02*
X169650600Y-104530000D01*
X97650600Y-126430000D02*
X102250600Y-126430000D01*
X105650600Y-118430000D02*
X110250600Y-118430000D01*
X103400600Y-117280000D02*
G75*
G02*
X102250600Y-118430000I-1150000J0D01*
G01*
X86950600Y-63980000D02*
G75*
G02*
X81951001Y-63935225I-2500000J0D01*
G01*
X110250600Y-112530000D02*
X105650600Y-112530000D01*
X189650600Y-94030000D02*
X194250600Y-94030000D01*
X112500600Y-121680000D02*
G75*
G02*
X113650600Y-120530000I1150000J0D01*
G01*
X222450600Y-78991981D02*
X222450600Y-88827082D01*
X119500600Y-94680000D02*
G75*
G02*
X120650600Y-93530000I1150000J0D01*
G01*
X175400600Y-133280000D02*
X175400600Y-129680000D01*
X97650600Y-134430000D02*
G75*
G02*
X96500600Y-133280000I0J1150000D01*
G01*
X80500600Y-105680000D02*
X80500600Y-109280000D01*
X167400600Y-125280001D02*
X167400600Y-121680000D01*
X167400600Y-109280000D02*
G75*
G02*
X166250600Y-110430000I-1150000J0D01*
G01*
X135400600Y-117280000D02*
G75*
G02*
X134250600Y-118430000I-1150000J0D01*
G01*
X150250600Y-104530000D02*
X145650600Y-104530000D01*
X197650600Y-134430000D02*
G75*
G02*
X196500600Y-133280000I0J1150000D01*
G01*
X111400600Y-125280000D02*
X111400600Y-121680000D01*
X197650600Y-104530000D02*
X202250600Y-104530000D01*
X160500600Y-113680000D02*
G75*
G02*
X161650600Y-112530000I1150000J0D01*
G01*
X212500600Y-112279999D02*
X212500600Y-105680000D01*
X89650600Y-110430000D02*
G75*
G02*
X88500600Y-109280000I0J1150000D01*
G01*
X96500600Y-113680000D02*
G75*
G02*
X97650600Y-112530000I1150000J0D01*
G01*
X155985600Y-88620000D02*
X91845600Y-88620000D01*
X119400600Y-125280001D02*
X119400600Y-121680000D01*
X89650600Y-118430000D02*
G75*
G02*
X88500600Y-117280000I0J1150000D01*
G01*
X134250600Y-112530000D02*
G75*
G02*
X135400600Y-113680000I0J-1150000D01*
G01*
X112250600Y-100430000D02*
X105650600Y-100430000D01*
X213650600Y-102930000D02*
G75*
G02*
X212500600Y-101780000I0J1150000D01*
G01*
X144500600Y-105680000D02*
X144500600Y-109280000D01*
X213650600Y-134430000D02*
G75*
G02*
X212500600Y-133280000I0J1150000D01*
G01*
X158250600Y-128530000D02*
X153650600Y-128530000D01*
X151400600Y-125280000D02*
X151400600Y-121680000D01*
X169650600Y-126430000D02*
G75*
G02*
X168500600Y-125280000I0J1150000D01*
G01*
X176500600Y-121680000D02*
G75*
G02*
X177650600Y-120530000I1150000J0D01*
G01*
X89650600Y-126430000D02*
G75*
G02*
X88500600Y-125280000I0J1150000D01*
G01*
X160500600Y-105680000D02*
G75*
G02*
X161650600Y-104530000I1150000J0D01*
G01*
X161650600Y-110430000D02*
G75*
G02*
X160500600Y-109280000I0J1150000D01*
G01*
X137650600Y-110430000D02*
G75*
G02*
X136500600Y-109280000I0J1150000D01*
G01*
X129650600Y-126430000D02*
G75*
G02*
X128500600Y-125280000I0J1150000D01*
G01*
X160500600Y-129680000D02*
X160500600Y-133280000D01*
X105650600Y-134430000D02*
G75*
G02*
X104500600Y-133280000I0J1150000D01*
G01*
X87400600Y-133280000D02*
X87400600Y-129680000D01*
X204500600Y-101780000D02*
X204500600Y-95180000D01*
X220950700Y-140980000D02*
X78950600Y-140980000D01*
X195400600Y-116180000D02*
X195400600Y-122780000D01*
X105650600Y-134430000D02*
G75*
G02*
X104500600Y-133280000I0J1150000D01*
G01*
X86250600Y-112530000D02*
G75*
G02*
X87400600Y-113680000I0J-1150000D01*
G01*
X166250600Y-112530000D02*
G75*
G02*
X167400600Y-113680000I0J-1150000D01*
G01*
X161650600Y-118430000D02*
G75*
G02*
X160500600Y-117280000I0J1150000D01*
G01*
X137650600Y-110430000D02*
X142250600Y-110430000D01*
X127250600Y-93530000D02*
G75*
G02*
X128400600Y-94680000I0J-1150000D01*
G01*
X136500600Y-113680000D02*
X136500600Y-117280000D01*
X219400600Y-126680000D02*
X219400600Y-133280000D01*
X176500600Y-129680000D02*
G75*
G02*
X177650600Y-128530000I1150000J0D01*
G01*
X81650600Y-110430000D02*
G75*
G02*
X80500600Y-109280000I0J1150000D01*
G01*
X135400600Y-117280000D02*
G75*
G02*
X134250600Y-118430000I-1150000J0D01*
G01*
X212500600Y-122780000D02*
X212500600Y-116180000D01*
X176500600Y-105680000D02*
X176500600Y-109280000D01*
X182250600Y-120530000D02*
X177650600Y-120530000D01*
X89500600Y-94680000D02*
G75*
G02*
X90650600Y-93530000I1150000J0D01*
G01*
X202250600Y-104530000D02*
G75*
G02*
X203400600Y-105680000I0J-1150000D01*
G01*
X113400600Y-99280000D02*
G75*
G02*
X112250600Y-100430000I-1150000J0D01*
G01*
X86950600Y-60979500D02*
G75*
G02*
X87985596Y-59980005I1000200J-100D01*
G01*
X158250600Y-112530000D02*
X153650600Y-112530000D01*
X169650600Y-134430000D02*
G75*
G02*
X168500600Y-133280000I0J1150000D01*
G01*
X143400600Y-117280000D02*
X143400600Y-113680000D01*
X150650600Y-100430000D02*
G75*
G02*
X149500600Y-99280000I0J1150000D01*
G01*
X197650600Y-115030000D02*
X202250600Y-115030000D01*
X105650600Y-134430000D02*
G75*
G02*
X104500600Y-133280000I0J1150000D01*
G01*
X113650600Y-134430000D02*
G75*
G02*
X112500600Y-133280000I0J1150000D01*
G01*
X121650600Y-126430000D02*
X126250600Y-126430000D01*
X113400600Y-94680000D02*
X113400600Y-99280000D01*
X177722600Y-67828800D02*
G75*
G02*
X179722600Y-65828800I2000000J0D01*
G01*
X113650600Y-126430000D02*
G75*
G02*
X112500600Y-125280000I0J1150000D01*
G01*
X167400600Y-109280000D02*
G75*
G02*
X166250600Y-110430000I-1150000J0D01*
G01*
X177722600Y-67828800D02*
G75*
G02*
X179722600Y-65828800I2000000J0D01*
G01*
X223950600Y-62480000D02*
X223950654Y-77439191D01*
X111400600Y-109280000D02*
X111400600Y-105680000D01*
X197650600Y-102930000D02*
G75*
G02*
X196500600Y-101780000I0J1150000D01*
G01*
X197650600Y-102930000D02*
G75*
G02*
X196500600Y-101780000I0J1150000D01*
G01*
X150250600Y-120530000D02*
X145650600Y-120530000D01*
X142250600Y-93530000D02*
G75*
G02*
X143400600Y-94680000I0J-1150000D01*
G01*
X202250600Y-104530000D02*
G75*
G02*
X203400600Y-105680000I0J-1150000D01*
G01*
X128400600Y-99280000D02*
G75*
G02*
X127250599Y-100430000I-1150000J0D01*
G01*
X197650600Y-125530000D02*
X202250600Y-125530000D01*
X174250600Y-112530000D02*
X169650600Y-112530000D01*
X189650600Y-104530000D02*
X194250600Y-104530000D01*
X90650600Y-93530000D02*
X97250600Y-93530000D01*
X159400600Y-109280001D02*
X159400600Y-105680000D01*
X213650600Y-115030000D02*
X218250600Y-115030000D01*
X211400600Y-95180000D02*
X211400600Y-101780000D01*
X196500600Y-105680000D02*
G75*
G02*
X197650600Y-104530000I1150000J0D01*
G01*
X219400600Y-112280000D02*
G75*
G02*
X218250600Y-113430000I-1150000J0D01*
G01*
X204500600Y-126680000D02*
G75*
G02*
X205650600Y-125530000I1150000J0D01*
G01*
X205650600Y-123930000D02*
G75*
G02*
X204500600Y-122780000I0J1150000D01*
G01*
X134500600Y-94680000D02*
G75*
G02*
X135650600Y-93530000I1150000J0D01*
G01*
X129650600Y-126430000D02*
X134250600Y-126430000D01*
X161650600Y-134430000D02*
G75*
G02*
X160500600Y-133280000I0J1150000D01*
G01*
X150250600Y-120530000D02*
G75*
G02*
X151400600Y-121680000I0J-1150000D01*
G01*
X169650600Y-118430000D02*
X174250600Y-118430000D01*
X88500600Y-113680000D02*
X88500600Y-117280000D01*
X179722600Y-75823200D02*
X192422600Y-75823200D01*
X104500600Y-121680000D02*
X104500600Y-125280000D01*
X169650600Y-126430000D02*
X174250600Y-126430000D01*
X94250600Y-104530000D02*
G75*
G02*
X95400600Y-105680000I0J-1150000D01*
G01*
X189650600Y-125530000D02*
X194250600Y-125530000D01*
X218250600Y-115030000D02*
G75*
G02*
X219400600Y-116180000I0J-1150000D01*
G01*
X86950600Y-60979500D02*
G75*
G02*
X87985596Y-59980005I1000200J-100D01*
G01*
X104500600Y-94680000D02*
G75*
G02*
X105650600Y-93530000I1150000J0D01*
G01*
X103400600Y-125280000D02*
X103400600Y-121680000D01*
X161650600Y-126430000D02*
G75*
G02*
X160500600Y-125280000I0J1150000D01*
G01*
X195400600Y-105680000D02*
X195400600Y-112280000D01*
X134500600Y-99280000D02*
X134500600Y-94680000D01*
X188500600Y-126680000D02*
G75*
G02*
X189650600Y-125530000I1150000J0D01*
G01*
X89650600Y-110430000D02*
X94250600Y-110430000D01*
X110250600Y-128530000D02*
X105650600Y-128530000D01*
X95400600Y-117280001D02*
X95400600Y-113680000D01*
X103400600Y-133280000D02*
X103400600Y-129680000D01*
X94250600Y-128530000D02*
G75*
G02*
X95400600Y-129680000I0J-1150000D01*
G01*
X80500600Y-121680000D02*
G75*
G02*
X81650600Y-120530000I1150000J0D01*
G01*
X136500600Y-105680000D02*
G75*
G02*
X137650600Y-104530000I1150000J0D01*
G01*
X94250600Y-120530000D02*
G75*
G02*
X95400600Y-121680000I0J-1150000D01*
G01*
X127400600Y-109280000D02*
G75*
G02*
X126250600Y-110430000I-1150000J0D01*
G01*
X182250600Y-120530000D02*
G75*
G02*
X183400600Y-121680000I0J-1150000D01*
G01*
X142250600Y-120530000D02*
X137650600Y-120530000D01*
X127400600Y-125280000D02*
X127400600Y-121680000D01*
X121650600Y-126430000D02*
G75*
G02*
X120500600Y-125280000I0J1150000D01*
G01*
X213650600Y-102930000D02*
G75*
G02*
X212500600Y-101780000I0J1150000D01*
G01*
X182250600Y-112530000D02*
G75*
G02*
X183400600Y-113680000I0J-1150000D01*
G01*
X177650600Y-126430000D02*
X182250600Y-126430000D01*
X77024612Y-88350000D02*
X77024612Y-79250000D01*
X189650600Y-113430000D02*
G75*
G02*
X188500600Y-112280000I0J1150000D01*
G01*
X137650600Y-118430000D02*
G75*
G02*
X136500600Y-117280000I0J1150000D01*
G01*
X137650600Y-110430000D02*
X142250600Y-110430000D01*
X112500600Y-129680000D02*
G75*
G02*
X113650600Y-128530000I1150000J0D01*
G01*
X77024603Y-79250000D02*
X77024612Y-79250000D01*
X89650600Y-126430000D02*
X94250600Y-126430000D01*
X86250600Y-120530000D02*
X81650600Y-120530000D01*
X105650600Y-118430000D02*
X110250600Y-118430000D01*
X78950600Y-140980000D02*
G75*
G02*
X75950600Y-137980000I0J3000000D01*
G01*
X169650600Y-118430000D02*
X174250600Y-118430000D01*
X97650600Y-110430000D02*
X102250600Y-110430000D01*
X196500600Y-101780000D02*
X196500600Y-95180000D01*
X96500600Y-129680000D02*
G75*
G02*
X97650600Y-128530000I1150000J0D01*
G01*
X77024612Y-88350000D02*
G75*
G02*
X76487603Y-89234672I-997212J0D01*
G01*
X94250600Y-128530000D02*
G75*
G02*
X95400600Y-129680000I0J-1150000D01*
G01*
X183400600Y-133280000D02*
X183400600Y-129680000D01*
X105650600Y-126430000D02*
G75*
G02*
X104500600Y-125280000I0J1150000D01*
G01*
X98400600Y-99280000D02*
G75*
G02*
X97250600Y-100430000I-1150000J0D01*
G01*
X194250600Y-104530000D02*
G75*
G02*
X195400600Y-105680000I0J-1150000D01*
G01*
X153650600Y-126430000D02*
G75*
G02*
X152500600Y-125280000I0J1150000D01*
G01*
X144500600Y-105680000D02*
G75*
G02*
X145650600Y-104530000I1150000J0D01*
G01*
X95400600Y-125280000D02*
G75*
G02*
X94250600Y-126430000I-1150000J0D01*
G01*
X160500600Y-129680000D02*
X160500600Y-133280000D01*
X120500600Y-121680000D02*
G75*
G02*
X121650600Y-120530000I1150000J0D01*
G01*
X197650600Y-113430000D02*
G75*
G02*
X196500600Y-112280000I0J1150000D01*
G01*
X80500600Y-129680000D02*
X80500600Y-133280000D01*
X127400600Y-117280000D02*
X127400600Y-113680000D01*
X90845600Y-87620000D02*
X90845600Y-66340000D01*
X159400600Y-125280000D02*
G75*
G02*
X158250600Y-126430000I-1150000J0D01*
G01*
X169650600Y-134430000D02*
X174250600Y-134430000D01*
X145650600Y-110430000D02*
G75*
G02*
X144500600Y-109280000I0J1150000D01*
G01*
X195400600Y-122780000D02*
G75*
G02*
X194250600Y-123930000I-1150000J0D01*
G01*
X120500600Y-121680000D02*
X120500600Y-125280000D01*
X202250600Y-94030000D02*
G75*
G02*
X203400600Y-95180000I0J-1150000D01*
G01*
X160500600Y-121680000D02*
G75*
G02*
X161650600Y-120530000I1150000J0D01*
G01*
X81650600Y-134430000D02*
X86250600Y-134430000D01*
X118250600Y-120530000D02*
G75*
G02*
X119400600Y-121680000I0J-1150000D01*
G01*
X204500600Y-101779999D02*
X204500600Y-95180000D01*
X89650600Y-134430000D02*
X94250600Y-134430000D01*
X168500600Y-121680000D02*
X168500600Y-125280000D01*
X166250600Y-104530000D02*
X161650600Y-104530000D01*
X176500600Y-113680000D02*
X176500600Y-117280000D01*
X176500600Y-113680000D02*
G75*
G02*
X177650600Y-112530000I1150000J0D01*
G01*
X197650600Y-115030000D02*
X202250600Y-115030000D01*
X142250600Y-112530000D02*
G75*
G02*
X143400600Y-113680000I0J-1150000D01*
G01*
X113650600Y-110430000D02*
X118250600Y-110430000D01*
X160500600Y-121680000D02*
X160500600Y-125280000D01*
X121650600Y-126430000D02*
X126250600Y-126430000D01*
X126250600Y-120530000D02*
G75*
G02*
X127400600Y-121680000I0J-1150000D01*
G01*
X211984905Y-59980009D02*
G75*
G02*
X212950600Y-60980000I-34905J-999991D01*
G01*
X176500600Y-105680000D02*
G75*
G02*
X177650600Y-104530000I1150000J0D01*
G01*
X75950600Y-77171001D02*
X75950584Y-62480003D01*
X194250600Y-102930000D02*
X189650600Y-102930000D01*
X203400600Y-133280000D02*
G75*
G02*
X202250600Y-134430000I-1150000J0D01*
G01*
X183400600Y-125280000D02*
X183400600Y-121680000D01*
X112500600Y-121680000D02*
X112500600Y-125280000D01*
X153650600Y-118430000D02*
X158250600Y-118430000D01*
X134250600Y-112530000D02*
G75*
G02*
X135400600Y-113680000I0J-1150000D01*
G01*
X144500600Y-113680000D02*
G75*
G02*
X145650600Y-112530000I1150000J0D01*
G01*
X217950600Y-60980000D02*
G75*
G02*
X218986105Y-59980009I1000600J0D01*
G01*
X182250600Y-120530000D02*
G75*
G02*
X183400600Y-121680000I0J-1150000D01*
G01*
X143400600Y-109280000D02*
X143400600Y-105680000D01*
X143400600Y-99280000D02*
G75*
G02*
X142250600Y-100430000I-1150000J0D01*
G01*
X129650600Y-126430000D02*
G75*
G02*
X128500600Y-125280000I0J1150000D01*
G01*
X150250600Y-112530000D02*
G75*
G02*
X151400600Y-113680000I0J-1150000D01*
G01*
X97650600Y-118430000D02*
G75*
G02*
X96500600Y-117280000I0J1150000D01*
G01*
X161650600Y-126430000D02*
G75*
G02*
X160500600Y-125280000I0J1150000D01*
G01*
X153650600Y-134430000D02*
X158250600Y-134430000D01*
X121650600Y-110430000D02*
X126250600Y-110430000D01*
X205650600Y-113430000D02*
G75*
G02*
X204500600Y-112280000I0J1150000D01*
G01*
X219400600Y-116180000D02*
X219400600Y-122780000D01*
X80500600Y-113680000D02*
G75*
G02*
X81650600Y-112530000I1150000J0D01*
G01*
X110250600Y-128530000D02*
G75*
G02*
X111400600Y-129680000I0J-1150000D01*
G01*
X110250600Y-104530000D02*
G75*
G02*
X111400600Y-105680000I0J-1150000D01*
G01*
X168500600Y-105680000D02*
X168500600Y-109280000D01*
X194250600Y-123930000D02*
X189650600Y-123930000D01*
X196500600Y-112280000D02*
X196500600Y-105680000D01*
X127400600Y-125280000D02*
G75*
G02*
X126250600Y-126430000I-1150000J0D01*
G01*
X150250600Y-112530000D02*
X145650600Y-112530000D01*
X135400600Y-109280000D02*
X135400600Y-105680000D01*
X194250600Y-134430000D02*
X189650600Y-134430000D01*
X129650600Y-110430000D02*
G75*
G02*
X128500600Y-109280000I0J1150000D01*
G01*
X86950600Y-63980000D02*
X86950600Y-60979500D01*
X205650600Y-104530000D02*
X210250600Y-104530000D01*
X104500600Y-129680000D02*
X104500600Y-133280000D01*
X167400600Y-117280001D02*
G75*
G02*
X166250600Y-118430000I-1150000J1D01*
G01*
X219400600Y-112280000D02*
G75*
G02*
X218250600Y-113430000I-1150000J0D01*
G01*
X159400600Y-133280000D02*
X159400600Y-129680000D01*
X143400600Y-125280000D02*
G75*
G02*
X142250600Y-126430000I-1150000J0D01*
G01*
X158250600Y-104530000D02*
X153650600Y-104530000D01*
X183400600Y-125280001D02*
G75*
G02*
X182250600Y-126430000I-1150000J1D01*
G01*
X103400600Y-117280000D02*
G75*
G02*
X102250600Y-118430000I-1150000J0D01*
G01*
X89650600Y-126430000D02*
G75*
G02*
X88500600Y-125280000I0J1150000D01*
G01*
X189650600Y-102930000D02*
G75*
G02*
X188500600Y-101780000I0J1150000D01*
G01*
X89500600Y-99280000D02*
X89500600Y-94680000D01*
X179722600Y-75823200D02*
X192422600Y-75823200D01*
X197650600Y-104530000D02*
X202250600Y-104530000D01*
X111400600Y-133280000D02*
G75*
G02*
X110250600Y-134430000I-1150000J0D01*
G01*
X175400600Y-125280000D02*
G75*
G02*
X174250600Y-126430000I-1150000J0D01*
G01*
X102250600Y-120530000D02*
G75*
G02*
X103400600Y-121680000I0J-1150000D01*
G01*
X136500600Y-121680000D02*
G75*
G02*
X137650600Y-120530000I1150000J0D01*
G01*
X88500600Y-113680000D02*
G75*
G02*
X89650600Y-112530000I1150000J0D01*
G01*
X151400600Y-125280000D02*
G75*
G02*
X150250600Y-126430000I-1150000J0D01*
G01*
X86250600Y-128530000D02*
G75*
G02*
X87400600Y-129680000I0J-1150000D01*
G01*
X150250600Y-112530000D02*
G75*
G02*
X151400600Y-113680000I0J-1150000D01*
G01*
X169650600Y-134430000D02*
G75*
G02*
X168500600Y-133280000I0J1150000D01*
G01*
X176500600Y-121680000D02*
G75*
G02*
X177650600Y-120530000I1150000J0D01*
G01*
X86250600Y-104530000D02*
X81650600Y-104530000D01*
X89650600Y-110430000D02*
X94250600Y-110430000D01*
X142250600Y-104530000D02*
X137650600Y-104530000D01*
X135400600Y-109280000D02*
X135400600Y-105680000D01*
X210250600Y-113430000D02*
X205650600Y-113430000D01*
X142250600Y-112530000D02*
G75*
G02*
X143400600Y-113680000I0J-1150000D01*
G01*
X150250600Y-112530000D02*
G75*
G02*
X151400600Y-113680000I0J-1150000D01*
G01*
X195400600Y-95180000D02*
X195400600Y-101780000D01*
X189650600Y-104530000D02*
X194250600Y-104530000D01*
X102250600Y-120530000D02*
G75*
G02*
X103400600Y-121680000I0J-1150000D01*
G01*
X223950600Y-62480000D02*
X223950654Y-77439197D01*
X189650600Y-113430000D02*
G75*
G02*
X188500600Y-112280000I0J1150000D01*
G01*
X196500600Y-105680000D02*
G75*
G02*
X197650600Y-104530000I1150000J0D01*
G01*
X81951000Y-60980000D02*
X81951002Y-60980000D01*
X102250600Y-104530000D02*
X97650600Y-104530000D01*
X205650600Y-102930000D02*
G75*
G02*
X204500600Y-101779999I0J1150000D01*
G01*
X168500600Y-105680000D02*
X168500600Y-109280000D01*
X219400600Y-105680000D02*
X219400600Y-112280000D01*
X182250600Y-112530000D02*
X177650600Y-112530000D01*
X182250600Y-104530000D02*
G75*
G02*
X183400600Y-105680000I0J-1150000D01*
G01*
X188500600Y-112280000D02*
X188500600Y-105680000D01*
X212950600Y-63980000D02*
X212950600Y-60980000D01*
X127400600Y-125280000D02*
X127400600Y-121680000D01*
X121650600Y-110430000D02*
X126250600Y-110430000D01*
X86250600Y-120530000D02*
G75*
G02*
X87400600Y-121680000I0J-1150000D01*
G01*
X176500600Y-113680000D02*
G75*
G02*
X177650600Y-112530000I1150000J0D01*
G01*
X174250600Y-128530000D02*
G75*
G02*
X175400600Y-129680000I0J-1150000D01*
G01*
X195400600Y-112280000D02*
G75*
G02*
X194250600Y-113430000I-1150000J0D01*
G01*
X113650600Y-134430000D02*
X150250600Y-134430000D01*
X175400600Y-117280000D02*
X175400600Y-113680000D01*
X137650600Y-110430000D02*
X142250600Y-110430000D01*
X223950603Y-90331842D02*
X223950698Y-137979994D01*
X136500600Y-121680000D02*
G75*
G02*
X137650600Y-120530000I1150000J0D01*
G01*
X169650600Y-110430000D02*
G75*
G02*
X168500600Y-109280000I0J1150000D01*
G01*
X153650600Y-110430000D02*
G75*
G02*
X152500600Y-109280000I0J1150000D01*
G01*
X111400600Y-133280000D02*
X111400600Y-129680000D01*
X134250600Y-104530000D02*
G75*
G02*
X135400600Y-105680000I0J-1150000D01*
G01*
X175400600Y-109280001D02*
X175400600Y-105680000D01*
X118250600Y-112530000D02*
X113650600Y-112530000D01*
X150650600Y-93530000D02*
X157250600Y-93530000D01*
X189650600Y-125530000D02*
X194250600Y-125530000D01*
X197650600Y-134430000D02*
G75*
G02*
X196500600Y-133280000I0J1150000D01*
G01*
X103400600Y-117280001D02*
G75*
G02*
X102250600Y-118430000I-1150000J1D01*
G01*
X128500600Y-105680000D02*
G75*
G02*
X129650600Y-104530000I1150000J0D01*
G01*
X81650600Y-118430000D02*
X86250600Y-118430000D01*
X87400600Y-117280000D02*
G75*
G02*
X86250600Y-118430000I-1150000J0D01*
G01*
X195400600Y-95180000D02*
X195400600Y-101780000D01*
X111400600Y-125280000D02*
X111400600Y-121680000D01*
X176500600Y-129680000D02*
X176500600Y-133280000D01*
X90650600Y-100430000D02*
G75*
G02*
X89500600Y-99280000I0J1150000D01*
G01*
X103400600Y-133280000D02*
G75*
G02*
X102250600Y-134430000I-1150000J0D01*
G01*
X97650600Y-126430000D02*
X102250600Y-126430000D01*
X86250600Y-128530000D02*
X81650600Y-128530000D01*
X161650600Y-118430000D02*
G75*
G02*
X160500600Y-117280000I0J1150000D01*
G01*
X176500600Y-113680000D02*
X176500600Y-117280000D01*
X143400600Y-94680000D02*
X143400600Y-99280000D01*
X166250600Y-120530000D02*
X161650600Y-120530000D01*
X81650600Y-134430000D02*
G75*
G02*
X80500600Y-133280000I0J1150000D01*
G01*
X88500600Y-121680000D02*
G75*
G02*
X89650600Y-120530000I1150000J0D01*
G01*
X105650600Y-126430000D02*
X110250600Y-126430000D01*
X202250600Y-113430000D02*
X197650600Y-113430000D01*
X152500600Y-105680000D02*
G75*
G02*
X153650600Y-104530000I1150000J0D01*
G01*
X110250600Y-112530000D02*
X105650600Y-112530000D01*
X113650600Y-126430000D02*
G75*
G02*
X112500600Y-125280000I0J1150000D01*
G01*
X94250600Y-104530000D02*
G75*
G02*
X95400600Y-105680000I0J-1150000D01*
G01*
X183400600Y-133280000D02*
G75*
G02*
X182250600Y-134430000I-1150000J0D01*
G01*
X177650600Y-110430000D02*
X182250600Y-110430000D01*
X94250600Y-104530000D02*
X89650600Y-104530000D01*
X174250600Y-128530000D02*
G75*
G02*
X175400600Y-129680000I0J-1150000D01*
G01*
X218250600Y-123930000D02*
X213650600Y-123930000D01*
X135400600Y-117280000D02*
G75*
G02*
X134250600Y-118430000I-1150000J0D01*
G01*
X95400600Y-133280000D02*
X95400600Y-129680000D01*
X96500600Y-105680000D02*
X96500600Y-109280000D01*
X80500600Y-121680000D02*
X80500600Y-125280000D01*
X86250600Y-112530000D02*
G75*
G02*
X87400600Y-113680000I0J-1150000D01*
G01*
X89650600Y-118430000D02*
G75*
G02*
X88500600Y-117280000I0J1150000D01*
G01*
X155985600Y-65340000D02*
G75*
G02*
X156985600Y-66340000I0J-1000000D01*
G01*
X158250600Y-128530000D02*
G75*
G02*
X159400600Y-129680000I0J-1150000D01*
G01*
X118250600Y-112530000D02*
G75*
G02*
X119400600Y-113680000I0J-1150000D01*
G01*
X112250600Y-93530000D02*
G75*
G02*
X113400600Y-94680000I0J-1150000D01*
G01*
X127400600Y-109280000D02*
G75*
G02*
X126250600Y-110430000I-1150000J0D01*
G01*
X194250600Y-125530000D02*
G75*
G02*
X195400600Y-126680000I0J-1150000D01*
G01*
X197650600Y-115030000D02*
X202250600Y-115030000D01*
X91845601Y-65340000D02*
X155985600Y-65340000D01*
X192422600Y-65828800D02*
G75*
G02*
X194422600Y-67828800I0J-2000000D01*
G01*
X145650600Y-126430000D02*
X150250600Y-126430000D01*
X105650600Y-110430000D02*
X110250600Y-110430000D01*
X219400600Y-122780000D02*
G75*
G02*
X218250600Y-123930000I-1150000J0D01*
G01*
X150250600Y-112530000D02*
X145650600Y-112530000D01*
X196500600Y-122779999D02*
X196500600Y-116180000D01*
X217950600Y-63980000D02*
X217950600Y-60980000D01*
X97650600Y-110430000D02*
X102250600Y-110430000D01*
X121650600Y-110430000D02*
X126250600Y-110430000D01*
X96500600Y-121680000D02*
G75*
G02*
X97650600Y-120530000I1150000J0D01*
G01*
X211400600Y-133280000D02*
G75*
G02*
X210250600Y-134430000I-1150000J0D01*
G01*
X121650600Y-118430000D02*
X126250600Y-118430000D01*
X137650600Y-126430000D02*
G75*
G02*
X136500600Y-125280000I0J1150000D01*
G01*
X97250600Y-100430000D02*
X90650600Y-100430000D01*
X158400600Y-94680000D02*
X158400600Y-99280000D01*
X127400600Y-125280000D02*
X127400600Y-121680000D01*
X126250600Y-120530000D02*
G75*
G02*
X127400600Y-121680000I0J-1150000D01*
G01*
X90650600Y-93530000D02*
X97250600Y-93530000D01*
X91845600Y-65340000D02*
X155985600Y-65340000D01*
X176500600Y-129680000D02*
X176500600Y-133280000D01*
X205650600Y-115030000D02*
X210250600Y-115030000D01*
X210250600Y-134430000D02*
X205650600Y-134430000D01*
X127400600Y-117280001D02*
X127400600Y-113680000D01*
X203400600Y-101780000D02*
G75*
G02*
X202250600Y-102930000I-1150000J0D01*
G01*
X142250600Y-120530000D02*
G75*
G02*
X143400600Y-121680000I0J-1150000D01*
G01*
X142250600Y-112530000D02*
X137650600Y-112530000D01*
X89500600Y-99280000D02*
X89500600Y-94680000D01*
X167400600Y-117280001D02*
X167400600Y-113680000D01*
X188500600Y-133280000D02*
X188500600Y-126680000D01*
X155985600Y-88620000D02*
X91845600Y-88620000D01*
X212500600Y-95180000D02*
G75*
G02*
X213650600Y-94030000I1150000J0D01*
G01*
X195400600Y-133280000D02*
G75*
G02*
X194250600Y-134430000I-1150000J0D01*
G01*
X142250600Y-93530000D02*
G75*
G02*
X143400600Y-94680000I0J-1150000D01*
G01*
X167400600Y-133280001D02*
X167400600Y-129680000D01*
X144500600Y-113680000D02*
G75*
G02*
X145650600Y-112530000I1150000J0D01*
G01*
X196500600Y-122779999D02*
X196500600Y-116180000D01*
X197650600Y-125530000D02*
X202250600Y-125530000D01*
X211400600Y-116180000D02*
X211400600Y-122780000D01*
X145650600Y-118430000D02*
G75*
G02*
X144500600Y-117280000I0J1150000D01*
G01*
X182250600Y-104530000D02*
X177650600Y-104530000D01*
X161650600Y-118430000D02*
X166250600Y-118430000D01*
X77024603Y-79250000D02*
X77024612Y-79250000D01*
X135400600Y-117280000D02*
X135400600Y-113680000D01*
X175400600Y-117280000D02*
G75*
G02*
X174250600Y-118430000I-1150000J0D01*
G01*
X204500600Y-116180000D02*
G75*
G02*
X205650600Y-115030000I1150000J0D01*
G01*
X159400600Y-109280001D02*
G75*
G02*
X158250600Y-110430000I-1150000J1D01*
G01*
X211984905Y-59980009D02*
G75*
G02*
X212950600Y-60980000I-34905J-999991D01*
G01*
X112500600Y-105680000D02*
G75*
G02*
X113650600Y-104530000I1150000J0D01*
G01*
X105650600Y-93530000D02*
X112250600Y-93530000D01*
X80500600Y-113680000D02*
G75*
G02*
X81650600Y-112530000I1150000J0D01*
G01*
X119500600Y-99280000D02*
X119500600Y-94680000D01*
X90650600Y-100430000D02*
G75*
G02*
X89500600Y-99280000I0J1150000D01*
G01*
X182250600Y-112530000D02*
X177650600Y-112530000D01*
X119400600Y-125280001D02*
X119400600Y-121680000D01*
X90650600Y-93530000D02*
X97250600Y-93530000D01*
X183400600Y-117280001D02*
G75*
G02*
X182250600Y-118430000I-1150000J1D01*
G01*
X197650600Y-123930000D02*
G75*
G02*
X196500600Y-122780000I0J1150000D01*
G01*
X81650600Y-110430000D02*
X86250600Y-110430000D01*
X183400600Y-109280000D02*
G75*
G02*
X182250600Y-110430000I-1150000J0D01*
G01*
X150250600Y-128530000D02*
X113650600Y-128530000D01*
X177650600Y-118430000D02*
X182250600Y-118430000D01*
X81650600Y-110430000D02*
G75*
G02*
X80500600Y-109280000I0J1150000D01*
G01*
X143400600Y-109280001D02*
X143400600Y-105680000D01*
X219400600Y-95180000D02*
X219400600Y-101780000D01*
X194250600Y-113430000D02*
X189650600Y-113430000D01*
X223950654Y-77439197D02*
G75*
G02*
X223203836Y-78198844I-759754J-3D01*
G01*
X134250600Y-120530000D02*
X129650600Y-120530000D01*
X203400600Y-116180000D02*
X203400600Y-122780000D01*
X204500600Y-105680000D02*
G75*
G02*
X205650600Y-104530000I1150000J0D01*
G01*
X128500600Y-113680000D02*
G75*
G02*
X129650600Y-112530000I1150000J0D01*
G01*
X126250600Y-104530000D02*
G75*
G02*
X127400600Y-105680000I0J-1150000D01*
G01*
X126250600Y-104530000D02*
X121650600Y-104530000D01*
X105650600Y-118430000D02*
G75*
G02*
X104500600Y-117280000I0J1150000D01*
G01*
X136500600Y-121680000D02*
G75*
G02*
X137650600Y-120530000I1150000J0D01*
G01*
X210250600Y-125530000D02*
G75*
G02*
X211400600Y-126680000I0J-1150000D01*
G01*
X183400600Y-117280000D02*
G75*
G02*
X182250600Y-118430000I-1150000J0D01*
G01*
X145650600Y-110430000D02*
G75*
G02*
X144500600Y-109280000I0J1150000D01*
G01*
X223200601Y-89577082D02*
G75*
G02*
X223950603Y-90331842I-1J-750018D01*
G01*
X202250600Y-115030000D02*
G75*
G02*
X203400600Y-116180000I0J-1150000D01*
G01*
X158250600Y-112530000D02*
G75*
G02*
X159400600Y-113680000I0J-1150000D01*
G01*
X121650600Y-126430000D02*
G75*
G02*
X120500600Y-125280000I0J1150000D01*
G01*
X167400600Y-117280000D02*
G75*
G02*
X166250600Y-118430000I-1150000J0D01*
G01*
X94250600Y-128530000D02*
X89650600Y-128530000D01*
X110250600Y-104530000D02*
X105650600Y-104530000D01*
X127400600Y-109280000D02*
X127400600Y-105680000D01*
X219400600Y-133280000D02*
G75*
G02*
X218250600Y-134430000I-1150000J0D01*
G01*
X97650600Y-134430000D02*
G75*
G02*
X96500600Y-133280000I0J1150000D01*
G01*
X110250600Y-112530000D02*
X105650600Y-112530000D01*
X94250600Y-120530000D02*
G75*
G02*
X95400600Y-121680000I0J-1150000D01*
G01*
X213650600Y-113430000D02*
G75*
G02*
X212500600Y-112280000I0J1150000D01*
G01*
X121650600Y-110430000D02*
G75*
G02*
X120500600Y-109280000I0J1150000D01*
G01*
X80500600Y-105680000D02*
X80500600Y-109280000D01*
X179722600Y-75823200D02*
G75*
G02*
X177722600Y-73823200I0J2000000D01*
G01*
X213650600Y-123930000D02*
G75*
G02*
X212500600Y-122780000I0J1150000D01*
G01*
X159400600Y-133280000D02*
X159400600Y-129680000D01*
X150250600Y-112530000D02*
X145650600Y-112530000D01*
X211400600Y-126680000D02*
X211400600Y-133280000D01*
X179722600Y-75823200D02*
G75*
G02*
X177722600Y-73823200I0J2000000D01*
G01*
X89650600Y-134430000D02*
G75*
G02*
X88500600Y-133280000I0J1150000D01*
G01*
X204500600Y-112280000D02*
X204500600Y-105680000D01*
X159400600Y-117280001D02*
G75*
G02*
X158250600Y-118430000I-1150000J1D01*
G01*
X177650600Y-134430000D02*
X182250600Y-134430000D01*
X80500600Y-113680000D02*
G75*
G02*
X81650600Y-112530000I1150000J0D01*
G01*
X150250600Y-104530000D02*
G75*
G02*
X151400600Y-105680000I0J-1150000D01*
G01*
X134250600Y-112530000D02*
X129650600Y-112530000D01*
X104500600Y-113680000D02*
X104500600Y-117280000D01*
X81650600Y-126430000D02*
X86250600Y-126430000D01*
X158250600Y-120530000D02*
G75*
G02*
X159400600Y-121680000I0J-1150000D01*
G01*
X102250600Y-104530000D02*
X97650600Y-104530000D01*
X105650600Y-118430000D02*
X110250600Y-118430000D01*
X96500600Y-129680000D02*
X96500600Y-133280000D01*
X152500600Y-113680000D02*
X152500600Y-117280000D01*
X177650600Y-134430000D02*
X182250600Y-134430000D01*
X159400600Y-109280000D02*
X159400600Y-105680000D01*
X134250600Y-120530000D02*
G75*
G02*
X135400600Y-121680000I0J-1150000D01*
G01*
X150650600Y-100430000D02*
G75*
G02*
X149500600Y-99280000I0J1150000D01*
G01*
X161650600Y-134430000D02*
G75*
G02*
X160500600Y-133280000I0J1150000D01*
G01*
X102250600Y-104530000D02*
G75*
G02*
X103400600Y-105680000I0J-1150000D01*
G01*
X112500600Y-129680000D02*
G75*
G02*
X113650600Y-128530000I1150000J0D01*
G01*
X97650600Y-110430000D02*
G75*
G02*
X96500600Y-109280000I0J1150000D01*
G01*
X189650600Y-113430000D02*
G75*
G02*
X188500600Y-112280000I0J1150000D01*
G01*
X145650600Y-118430000D02*
X150250600Y-118430000D01*
X102250600Y-120530000D02*
X97650600Y-120530000D01*
X134250600Y-120530000D02*
X129650600Y-120530000D01*
X194250600Y-115030000D02*
G75*
G02*
X195400600Y-116180000I0J-1150000D01*
G01*
X175400600Y-109280000D02*
X175400600Y-105680000D01*
X177722600Y-67828800D02*
X177722600Y-73823200D01*
X135400600Y-125280001D02*
X135400600Y-121680000D01*
X156985600Y-87620000D02*
G75*
G02*
X155985593Y-88620000I-1000000J0D01*
G01*
X76487606Y-78210504D02*
G75*
G02*
X75950597Y-77171001I737594J1039504D01*
G01*
X212500600Y-105680000D02*
G75*
G02*
X213650600Y-104530000I1150000J0D01*
G01*
X195400600Y-126680000D02*
X195400600Y-133280000D01*
X95400600Y-133280000D02*
X95400600Y-129680000D01*
X89650600Y-110430000D02*
G75*
G02*
X88500600Y-109280000I0J1150000D01*
G01*
X87400600Y-125280000D02*
G75*
G02*
X86250600Y-126430000I-1150000J0D01*
G01*
X95400600Y-109280000D02*
G75*
G02*
X94250600Y-110430000I-1150000J0D01*
G01*
X197650600Y-125530000D02*
X202250600Y-125530000D01*
X167400600Y-133280000D02*
X167400600Y-129680000D01*
X80500600Y-129680000D02*
G75*
G02*
X81650600Y-128530000I1150000J0D01*
G01*
X151400600Y-109280000D02*
G75*
G02*
X150250600Y-110430000I-1150000J0D01*
G01*
X102250600Y-104530000D02*
G75*
G02*
X103400600Y-105680000I0J-1150000D01*
G01*
X152500600Y-105680000D02*
X152500600Y-109280000D01*
X211400600Y-126680000D02*
X211400600Y-133280000D01*
X96500600Y-113680000D02*
X96500600Y-117280000D01*
X192422600Y-65828800D02*
G75*
G02*
X194422600Y-67828800I0J-2000000D01*
G01*
X213650600Y-113430000D02*
G75*
G02*
X212500600Y-112279999I0J1150000D01*
G01*
X88500600Y-105680000D02*
X88500600Y-109280000D01*
X212500600Y-95180000D02*
G75*
G02*
X213650600Y-94030000I1150000J0D01*
G01*
X150250600Y-128530000D02*
G75*
G02*
X151400600Y-129680000I0J-1150000D01*
G01*
X176500600Y-129680000D02*
X176500600Y-133280000D01*
X97650600Y-118430000D02*
G75*
G02*
X96500600Y-117280000I0J1150000D01*
G01*
X89650600Y-118430000D02*
G75*
G02*
X88500600Y-117280000I0J1150000D01*
G01*
X80500600Y-105680000D02*
G75*
G02*
X81650600Y-104530000I1150000J0D01*
G01*
X158250600Y-120530000D02*
X153650600Y-120530000D01*
X176500600Y-113680000D02*
G75*
G02*
X177650600Y-112530000I1150000J0D01*
G01*
X142250600Y-104530000D02*
X137650600Y-104530000D01*
X150250600Y-104530000D02*
X145650600Y-104530000D01*
X194422600Y-73823200D02*
X194422600Y-67828800D01*
X168500600Y-121680000D02*
G75*
G02*
X169650600Y-120530000I1150000J0D01*
G01*
X205650600Y-123930000D02*
G75*
G02*
X204500600Y-122779999I0J1150000D01*
G01*
X95400600Y-133280000D02*
G75*
G02*
X94250600Y-134430000I-1150000J0D01*
G01*
X211400600Y-101780000D02*
G75*
G02*
X210250600Y-102930000I-1150000J0D01*
G01*
X151400600Y-125280000D02*
X151400600Y-121680000D01*
X205650600Y-134430000D02*
G75*
G02*
X204500600Y-133280000I0J1150000D01*
G01*
X105650600Y-118430000D02*
X110250600Y-118430000D01*
X95400600Y-125280000D02*
X95400600Y-121680000D01*
X105650600Y-134430000D02*
X110250600Y-134430000D01*
X96500600Y-105680000D02*
G75*
G02*
X97650600Y-104530000I1150000J0D01*
G01*
X213650600Y-115030000D02*
X218250600Y-115030000D01*
X202250600Y-113430000D02*
X197650600Y-113430000D01*
X175400600Y-109280000D02*
G75*
G02*
X174250600Y-110430000I-1150000J0D01*
G01*
X183400600Y-133280000D02*
G75*
G02*
X182250600Y-134430000I-1150000J0D01*
G01*
X161650600Y-118430000D02*
X166250600Y-118430000D01*
X105650600Y-134430000D02*
X110250600Y-134430000D01*
X210250600Y-102930000D02*
X205650600Y-102930000D01*
X80500600Y-105680000D02*
X80500600Y-109280000D01*
X158400600Y-94680000D02*
X158400600Y-99280000D01*
X87400600Y-125280000D02*
X87400600Y-121680000D01*
X86250600Y-104530000D02*
X81650600Y-104530000D01*
X150250600Y-128530000D02*
G75*
G02*
X151400600Y-129680000I0J-1150000D01*
G01*
X80500600Y-105680000D02*
G75*
G02*
X81650600Y-104530000I1150000J0D01*
G01*
X104500600Y-129680000D02*
G75*
G02*
X105650600Y-128530000I1150000J0D01*
G01*
X136500600Y-105680000D02*
X136500600Y-109280000D01*
X188500600Y-133280000D02*
X188500600Y-126680000D01*
X80500600Y-113680000D02*
X80500600Y-117280000D01*
X80951000Y-59980000D02*
G75*
G02*
X81951000Y-60980000I0J-1000000D01*
G01*
X128500600Y-121680000D02*
G75*
G02*
X129650600Y-120530000I1150000J0D01*
G01*
X182250600Y-128530000D02*
X177650600Y-128530000D01*
X160500600Y-129680000D02*
G75*
G02*
X161650600Y-128530000I1150000J0D01*
G01*
X211400600Y-105680000D02*
X211400600Y-112280000D01*
X143400600Y-99280000D02*
G75*
G02*
X142250600Y-100430000I-1150000J0D01*
G01*
X87400600Y-133280001D02*
G75*
G02*
X86250600Y-134430000I-1150000J1D01*
G01*
X144500600Y-121680000D02*
X144500600Y-125280000D01*
X174250600Y-112530000D02*
G75*
G02*
X175400600Y-113680000I0J-1150000D01*
G01*
X153650600Y-126430000D02*
G75*
G02*
X152500600Y-125280000I0J1150000D01*
G01*
X188500600Y-105680000D02*
G75*
G02*
X189650600Y-104530000I1150000J0D01*
G01*
X188500600Y-105680000D02*
G75*
G02*
X189650600Y-104530000I1150000J0D01*
G01*
X110250600Y-120530000D02*
X105650600Y-120530000D01*
X96500600Y-121680000D02*
X96500600Y-125280000D01*
X156985600Y-87620000D02*
G75*
G02*
X155985600Y-88620000I-1000000J0D01*
G01*
X145650600Y-126430000D02*
G75*
G02*
X144500600Y-125280000I0J1150000D01*
G01*
X80500600Y-121680000D02*
X80500600Y-125280000D01*
X194250600Y-115030000D02*
G75*
G02*
X195400600Y-116180000I0J-1150000D01*
G01*
X87400600Y-117280000D02*
X87400600Y-113680000D01*
X119400600Y-109280001D02*
X119400600Y-105680000D01*
X94250600Y-104530000D02*
X89650600Y-104530000D01*
X127400600Y-109280000D02*
G75*
G02*
X126250600Y-110430000I-1150000J0D01*
G01*
X177650600Y-110430000D02*
X182250600Y-110430000D01*
X188500600Y-95180000D02*
G75*
G02*
X189650600Y-94030000I1150000J0D01*
G01*
X196500600Y-101780000D02*
X196500600Y-95180000D01*
X86950600Y-63980000D02*
G75*
G02*
X81951001Y-63935225I-2500000J0D01*
G01*
X218250600Y-123930000D02*
X213650600Y-123930000D01*
X167400600Y-117280001D02*
X167400600Y-113680000D01*
X89650600Y-134430000D02*
X94250600Y-134430000D01*
X126250600Y-112530000D02*
G75*
G02*
X127400600Y-113680000I0J-1150000D01*
G01*
X152500600Y-129680000D02*
X152500600Y-133280000D01*
X143400600Y-125280000D02*
X143400600Y-121680000D01*
X137650600Y-118430000D02*
X142250600Y-118430000D01*
X112500600Y-113680000D02*
X112500600Y-117280000D01*
X153650600Y-118430000D02*
X158250600Y-118430000D01*
X196500600Y-95180000D02*
G75*
G02*
X197650600Y-94030000I1150000J0D01*
G01*
X218250600Y-115030000D02*
G75*
G02*
X219400600Y-116180000I0J-1150000D01*
G01*
X113650600Y-126430000D02*
X118250600Y-126430000D01*
X194250600Y-102930000D02*
X189650600Y-102930000D01*
X96500600Y-105680000D02*
G75*
G02*
X97650600Y-104530000I1150000J0D01*
G01*
X95400600Y-133280000D02*
G75*
G02*
X94250600Y-134430000I-1150000J0D01*
G01*
X194250600Y-102930000D02*
X189650600Y-102930000D01*
X150250600Y-128530000D02*
X113650600Y-128530000D01*
X143400600Y-117280000D02*
G75*
G02*
X142250600Y-118430000I-1150000J0D01*
G01*
X112500600Y-129680000D02*
G75*
G02*
X113650600Y-128530000I1150000J0D01*
G01*
X205650600Y-113430000D02*
G75*
G02*
X204500600Y-112280000I0J1150000D01*
G01*
X177722600Y-67828800D02*
X177722600Y-73823200D01*
X81650600Y-126430000D02*
G75*
G02*
X80500600Y-125280000I0J1150000D01*
G01*
X104500600Y-105680000D02*
G75*
G02*
X105650600Y-104530000I1150000J0D01*
G01*
X213650600Y-134430000D02*
G75*
G02*
X212500600Y-133280000I0J1150000D01*
G01*
X158250600Y-120530000D02*
G75*
G02*
X159400600Y-121680000I0J-1150000D01*
G01*
X75950600Y-77171001D02*
X75950584Y-62480000D01*
X95400600Y-109280000D02*
G75*
G02*
X94250600Y-110430000I-1150000J0D01*
G01*
X189650600Y-102930000D02*
G75*
G02*
X188500600Y-101779999I0J1150000D01*
G01*
X218250600Y-113430000D02*
X213650600Y-113430000D01*
X151400600Y-109280000D02*
X151400600Y-105680000D01*
X119400600Y-125280000D02*
X119400600Y-121680000D01*
X158400600Y-94680000D02*
X158400600Y-99280000D01*
X158400600Y-99280000D02*
G75*
G02*
X157250599Y-100430000I-1150000J0D01*
G01*
X94250600Y-112530000D02*
X89650600Y-112530000D01*
X152500600Y-113680000D02*
G75*
G02*
X153650600Y-112530000I1150000J0D01*
G01*
X168500600Y-105680000D02*
X168500600Y-109280000D01*
X136500600Y-105680000D02*
G75*
G02*
X137650600Y-104530000I1150000J0D01*
G01*
X217950600Y-63980000D02*
G75*
G02*
X212950600Y-63980000I-2500000J0D01*
G01*
X105650600Y-134430000D02*
X110250600Y-134430000D01*
X195400600Y-101780000D02*
G75*
G02*
X194250600Y-102930000I-1150000J0D01*
G01*
X120500600Y-105680000D02*
X120500600Y-109280000D01*
X212500600Y-126680000D02*
G75*
G02*
X213650600Y-125530000I1150000J0D01*
G01*
X152500600Y-105680000D02*
G75*
G02*
X153650600Y-104530000I1150000J0D01*
G01*
X102250600Y-120530000D02*
X97650600Y-120530000D01*
X219400600Y-133280000D02*
G75*
G02*
X218250600Y-134430000I-1150000J0D01*
G01*
X159400600Y-109280000D02*
G75*
G02*
X158250600Y-110430000I-1150000J0D01*
G01*
X112500600Y-121680000D02*
G75*
G02*
X113650600Y-120530000I1150000J0D01*
G01*
X183400600Y-109280000D02*
G75*
G02*
X182250600Y-110430000I-1150000J0D01*
G01*
X192422600Y-65828800D02*
X179722600Y-65828800D01*
X212500600Y-95180000D02*
G75*
G02*
X213650600Y-94030000I1150000J0D01*
G01*
X119400600Y-109280000D02*
G75*
G02*
X118250600Y-110430000I-1150000J0D01*
G01*
X75950600Y-137980000D02*
X75950600Y-90119500D01*
X202250600Y-123930000D02*
X197650600Y-123930000D01*
X121650600Y-126430000D02*
G75*
G02*
X120500600Y-125280000I0J1150000D01*
G01*
X88500600Y-105680000D02*
G75*
G02*
X89650600Y-104530000I1150000J0D01*
G01*
X145650600Y-118430000D02*
X150250600Y-118430000D01*
X222450600Y-78991981D02*
G75*
G02*
X223203838Y-78198957I766300J26381D01*
G01*
X175400600Y-125280001D02*
G75*
G02*
X174250600Y-126430000I-1150000J1D01*
G01*
X203400600Y-112280000D02*
G75*
G02*
X202250600Y-113430000I-1150000J0D01*
G01*
X197650600Y-102930000D02*
G75*
G02*
X196500600Y-101780000I0J1150000D01*
G01*
X135650600Y-93530000D02*
X142250600Y-93530000D01*
X204500600Y-116180000D02*
G75*
G02*
X205650600Y-115030000I1150000J0D01*
G01*
X167400600Y-109280000D02*
X167400600Y-105680000D01*
X213650600Y-123930000D02*
G75*
G02*
X212500600Y-122780000I0J1150000D01*
G01*
X120500600Y-113680000D02*
G75*
G02*
X121650600Y-112530000I1150000J0D01*
G01*
X104500600Y-99280000D02*
X104500600Y-94680000D01*
X158250600Y-104530000D02*
X153650600Y-104530000D01*
X195400600Y-112280000D02*
G75*
G02*
X194250600Y-113430000I-1150000J0D01*
G01*
X211400600Y-122780000D02*
G75*
G02*
X210250600Y-123930000I-1150000J0D01*
G01*
X127400600Y-125280000D02*
X127400600Y-121680000D01*
X212500600Y-133280000D02*
X212500600Y-126680000D01*
X104500600Y-105680000D02*
X104500600Y-109280000D01*
X168500600Y-113680000D02*
X168500600Y-117280000D01*
X177650600Y-134430000D02*
G75*
G02*
X176500600Y-133280000I0J1150000D01*
G01*
X219400600Y-112280000D02*
G75*
G02*
X218250600Y-113430000I-1150000J0D01*
G01*
X183400600Y-133280000D02*
G75*
G02*
X182250600Y-134430000I-1150000J0D01*
G01*
X81650600Y-110430000D02*
G75*
G02*
X80500600Y-109280000I0J1150000D01*
G01*
X97650600Y-110430000D02*
G75*
G02*
X96500600Y-109280000I0J1150000D01*
G01*
X210250600Y-125530000D02*
G75*
G02*
X211400600Y-126680000I0J-1150000D01*
G01*
X197650600Y-102930000D02*
G75*
G02*
X196500600Y-101780000I0J1150000D01*
G01*
X98400600Y-94680000D02*
X98400600Y-99280000D01*
X211400600Y-133280000D02*
G75*
G02*
X210250600Y-134430000I-1150000J0D01*
G01*
X169650600Y-110430000D02*
G75*
G02*
X168500600Y-109280000I0J1150000D01*
G01*
X135400600Y-109280000D02*
G75*
G02*
X134250600Y-110430000I-1150000J0D01*
G01*
X142250600Y-93530000D02*
G75*
G02*
X143400600Y-94680000I0J-1150000D01*
G01*
X213650600Y-104530000D02*
X218250600Y-104530000D01*
X196500600Y-116180000D02*
G75*
G02*
X197650600Y-115030000I1150000J0D01*
G01*
X102250600Y-128530000D02*
X97650600Y-128530000D01*
X195400600Y-101780000D02*
G75*
G02*
X194250600Y-102930000I-1150000J0D01*
G01*
X166250600Y-128530000D02*
G75*
G02*
X167400600Y-129680000I0J-1150000D01*
G01*
X212500600Y-105680000D02*
G75*
G02*
X213650600Y-104530000I1150000J0D01*
G01*
X135650600Y-100430000D02*
G75*
G02*
X134500600Y-99280000I0J1150000D01*
G01*
X142250600Y-104530000D02*
G75*
G02*
X143400600Y-105680000I0J-1150000D01*
G01*
X195400600Y-126680000D02*
X195400600Y-133280000D01*
X177650600Y-134430000D02*
G75*
G02*
X176500600Y-133280000I0J1150000D01*
G01*
X96500600Y-129680000D02*
G75*
G02*
X97650600Y-128530000I1150000J0D01*
G01*
X212500600Y-101780000D02*
X212500600Y-95180000D01*
X221450600Y-59980009D02*
G75*
G02*
X223950591Y-62480000I0J-2499991D01*
G01*
X129650600Y-126430000D02*
X134250600Y-126430000D01*
X102250600Y-112530000D02*
G75*
G02*
X103400600Y-113680000I0J-1150000D01*
G01*
X194250600Y-123930000D02*
X189650600Y-123930000D01*
X119400600Y-125280000D02*
X119400600Y-121680000D01*
X104500600Y-94680000D02*
G75*
G02*
X105650600Y-93530000I1150000J0D01*
G01*
X88500600Y-113680000D02*
G75*
G02*
X89650600Y-112530000I1150000J0D01*
G01*
X81650600Y-134430000D02*
X86250600Y-134430000D01*
X194250600Y-125530000D02*
G75*
G02*
X195400600Y-126680000I0J-1150000D01*
G01*
X151400600Y-117280000D02*
X151400600Y-113680000D01*
M02*
