<?xml version="1.0" encoding="UTF-8" standalone="no"?>
<svg
   version="1.2"
   viewBox="0 0 841.889771 595.275574"
   id="svg699"
   sodipodi:docname="communicator_front-applied-withkeyholes.svg"
   inkscape:version="1.4.2 (ebf0e940d0, 2025-05-08)"
   xmlns:inkscape="http://www.inkscape.org/namespaces/inkscape"
   xmlns:sodipodi="http://sodipodi.sourceforge.net/DTD/sodipodi-0.dtd"
   xmlns="http://www.w3.org/2000/svg"
   xmlns:svg="http://www.w3.org/2000/svg">
  <defs
     id="defs699" />
  <sodipodi:namedview
     id="namedview699"
     pagecolor="#ffffff"
     bordercolor="#111111"
     borderopacity="1"
     inkscape:showpageshadow="0"
     inkscape:pageopacity="0"
     inkscape:pagecheckerboard="1"
     inkscape:deskcolor="#d1d1d1"
     inkscape:zoom="1.5488625"
     inkscape:cx="420.63128"
     inkscape:cy="297.63779"
     inkscape:window-width="1916"
     inkscape:window-height="1175"
     inkscape:window-x="0"
     inkscape:window-y="0"
     inkscape:window-maximized="1"
     inkscape:current-layer="Page" />
  <!-- Generator: Adobe Illustrator 29.6.1, SVG Export Plug-In . SVG Version: 2.1.1 Build 9)  -->
  <g
     id="Page"
     inkscape:groupmode="layer"
     inkscape:label="TechDraw"
     mix-blend-mode="multiply"
     style="isolation:isolate" />
  <g
     id="g675"
     style="isolation:isolate;fill:#ffffff">
    <path
       d="M 514.12645,231.83908 H 806.0105 c 4.19254,0 7.59127,-3.39873 7.59127,-7.59127 v -46.00717 c 0,-4.19255 -3.39873,-7.59127 -7.59127,-7.59127 H 548.12029 c -1.35362,0 -2.60441,0.72215 -3.28121,1.89442 l -32.47316,56.24597 c -0.78245,1.35526 0.19562,3.04932 1.76053,3.04932 z"
       fill="#efefef"
       id="path673"
       style="fill:#ffffff" />
    <path
       d="m 538.94404,161.75779 h 9.31737 c 0.54295,0 1.04115,-0.30101 1.29369,-0.78165 l 12.44174,-23.67887 c 0.20413,-0.36919 -0.28802,-0.72507 -0.57466,-0.41554 l -22.76946,24.202 c -0.24017,0.25528 -0.0592,0.67406 0.29132,0.67406 z"
       fill="#efefef"
       id="path674"
       style="fill:#ffffff" />
    <path
       d="m 528.01273,169.702 h -41.94688 c -4.19254,0 -7.59127,3.39872 -7.59127,7.59127 v 21.32894 l 0.0405,28.0801 c 0.003,1.75795 2.19358,2.56052 3.33102,1.22013 l 47.30977,-55.75113 c 0.82651,-0.97399 0.13427,-2.46931 -1.14314,-2.46931 z"
       fill="#efefef"
       id="path675"
       style="fill:#ffffff" />
  </g>
  <g
     id="g677"
     style="isolation:isolate;fill:#ffffff">
    <circle
       cx="38.032486"
       cy="224.11331"
       r="7.2651992"
       fill="#efefef"
       id="circle675"
       style="fill:#ffffff" />
    <circle
       cx="38.032486"
       cy="199.58171"
       r="7.2651992"
       fill="#efefef"
       id="circle676"
       style="fill:#ffffff" />
    <circle
       cx="38.032486"
       cy="128.97784"
       r="7.2651992"
       fill="#efefef"
       id="circle677"
       style="fill:#ffffff" />
  </g>
  <g
     id="g690"
     style="isolation:isolate;fill:#ffffff">
    <path
       d="m 483.37126,112.27313 c -1.16018,0 -2.08243,-0.30282 -2.77068,-0.91045 -0.68628,-0.60565 -1.0304,-1.44138 -1.0304,-2.50521 h 1.59476 c 0,0.62335 0.19861,1.11102 0.59583,1.46695 0.39721,0.35395 0.93405,0.53093 1.61049,0.53093 0.64499,0 1.15822,-0.17895 1.53774,-0.5388 0.38149,-0.35985 0.57223,-0.84163 0.57223,-1.44335 0,-0.45031 -0.12389,-0.84556 -0.36969,-1.18378 -0.24777,-0.33823 -0.59582,-0.56633 -1.0481,-0.68432 l -1.73831,-0.46604 c -0.76297,-0.2163 -1.36666,-0.60565 -1.81304,-1.16805 -0.44637,-0.56436 -0.66858,-1.23294 -0.66858,-2.00574 0,-0.63319 0.14158,-1.18969 0.42671,-1.66752 0.28513,-0.47784 0.68432,-0.84753 1.19952,-1.11103 0.51717,-0.2635 1.11299,-0.39525 1.78944,-0.39525 0.68628,0 1.28997,0.13175 1.81107,0.39525 0.5211,0.2635 0.92618,0.63122 1.21721,1.10316 0.28906,0.47194 0.43458,1.02057 0.43458,1.64196 h -1.57903 c 0,-0.5152 -0.17502,-0.93405 -0.52307,-1.25654 -0.35002,-0.32053 -0.8023,-0.48177 -1.36076,-0.48177 -0.55846,0 -1.00681,0.16124 -1.34503,0.48177 -0.33823,0.32249 -0.50734,0.74134 -0.50734,1.25654 0,0.41885 0.11209,0.77083 0.33823,1.05597 0.22417,0.28513 0.54076,0.4857 0.94978,0.60369 l 1.78747,0.48373 c 0.80623,0.21434 1.43352,0.62532 1.88579,1.23295 0.45031,0.60565 0.67645,1.32733 0.67645,2.16502 0,0.68825 -0.15142,1.28604 -0.45031,1.79731 -0.30086,0.5093 -0.72954,0.90455 -1.2821,1.18378 -0.55257,0.27923 -1.19952,0.41885 -1.94086,0.41885 z"
       fill="#efefef"
       id="path677"
       style="fill:#ffffff" />
    <path
       d="m 492.81006,112.27313 c -1.10512,0 -1.95658,-0.30676 -2.55241,-0.91831 -0.59582,-0.61156 -0.89472,-1.44335 -0.89472,-2.49735 v -8.50475 h 1.59477 v 8.50475 c 0,0.62335 0.15338,1.11102 0.46014,1.46695 0.3048,0.35395 0.77083,0.53093 1.39222,0.53093 0.61352,0 1.0776,-0.17698 1.39419,-0.53093 0.31659,-0.35593 0.47587,-0.8436 0.47587,-1.46695 v -8.50475 h 1.59477 v 8.50475 c 0,1.06383 -0.2989,1.89956 -0.89472,2.50521 -0.59582,0.60763 -1.45318,0.91045 -2.57011,0.91045 z"
       fill="#efefef"
       id="path678"
       style="fill:#ffffff" />
    <path
       d="m 498.90005,112.11189 v -11.75917 h 3.81879 c 0.75117,0 1.40008,0.14551 1.94871,0.43458 0.54667,0.28906 0.97141,0.69611 1.27227,1.21721 0.30087,0.51913 0.45031,1.14052 0.45031,1.86023 0,0.70791 -0.14944,1.3234 -0.45031,1.8445 -0.30086,0.5211 -0.72757,0.92618 -1.28013,1.21524 -0.55453,0.29103 -1.20148,0.43458 -1.94086,0.43458 h -2.22401 v 4.75283 z m 1.59477,-6.17062 h 2.22401 c 0.62139,0 1.11693,-0.18877 1.48072,-0.57026 0.36575,-0.38148 0.54863,-0.88488 0.54863,-1.50627 0,-0.63319 -0.18288,-1.14249 -0.54863,-1.52201 -0.36379,-0.38148 -0.85933,-0.57222 -1.48072,-0.57222 h -2.22401 z"
       fill="#efefef"
       id="path679"
       style="fill:#ffffff" />
    <path
       d="m 508.54926,112.11189 v -11.75917 h 6.84509 v 1.43352 h -5.26606 v 3.49628 h 4.70367 v 1.38436 h -4.70367 v 4.01149 h 5.26606 v 1.43352 z"
       fill="#efefef"
       id="path680"
       style="fill:#ffffff" />
    <path
       d="m 517.92513,112.11189 v -11.75917 h 3.63984 c 0.71971,0 1.34896,0.14158 1.88579,0.42671 0.53683,0.28513 0.95568,0.68235 1.25654,1.19165 0.30086,0.51127 0.45031,1.10906 0.45031,1.7973 0,0.79443 -0.20057,1.47678 -0.60369,2.04508 -0.40312,0.56829 -0.93798,0.97141 -1.60263,1.20738 l 2.36757,5.09105 h -1.75601 l -2.23975,-4.91408 h -1.81894 v 4.91408 z m 1.57903,-6.3299 h 2.06081 c 0.60172,0 1.07759,-0.18287 1.42565,-0.54863 0.35002,-0.36575 0.52307,-0.84752 0.52307,-1.44924 0,-0.61353 -0.17698,-1.1012 -0.53094,-1.46695 -0.35395,-0.36379 -0.82589,-0.54667 -1.41778,-0.54667 h -2.06081 z"
       fill="#efefef"
       id="path681"
       style="fill:#ffffff" />
    <path
       d="m 530.95657,112.27313 c -1.08546,0 -1.94675,-0.30282 -2.58583,-0.91045 -0.63909,-0.60565 -0.95765,-1.44138 -0.95765,-2.50521 v -5.26803 c 0,-1.05203 0.31856,-1.88186 0.95765,-2.48752 0.63908,-0.60762 1.50037,-0.91045 2.58583,-0.91045 1.07367,0 1.93102,0.30676 2.57011,0.91832 0.63712,0.61155 0.95764,1.43942 0.95764,2.47965 h -1.59476 c 0,-0.63319 -0.17108,-1.12086 -0.5152,-1.46498 -0.34412,-0.34412 -0.81606,-0.5152 -1.41779,-0.5152 -0.61155,0 -1.08939,0.17108 -1.43352,0.5152 -0.34412,0.34412 -0.5152,0.83179 -0.5152,1.46498 v 5.26803 c 0,0.64498 0.17108,1.13855 0.5152,1.48268 0.34413,0.34412 0.82197,0.5152 1.43352,0.5152 0.60173,0 1.07367,-0.17108 1.41779,-0.5152 0.34412,-0.34413 0.5152,-0.8377 0.5152,-1.48268 h 1.59476 c 0,1.054 -0.32052,1.88579 -0.95764,2.49735 -0.63909,0.61155 -1.49644,0.91831 -2.57011,0.91831 z"
       fill="#efefef"
       id="path682"
       style="fill:#ffffff" />
    <path
       d="m 540.33048,112.27313 c -1.07366,0 -1.92119,-0.31069 -2.54454,-0.93404 -0.62336,-0.62336 -0.93405,-1.50431 -0.93405,-2.64287 v -4.94554 c 0,-1.12675 0.31069,-2.00181 0.93405,-2.62516 0.62335,-0.62335 1.47088,-0.93405 2.54454,-0.93405 1.07366,0 1.92315,0.30873 2.54651,0.92618 0.62139,0.61746 0.93405,1.49645 0.93405,2.63303 v 4.94554 c 0,1.13856 -0.31266,2.01951 -0.93405,2.64286 -0.62335,0.62336 -1.47285,0.93405 -2.54651,0.93405 z m 0,-1.41778 c 0.60172,0 1.0658,-0.17108 1.39419,-0.5152 0.32642,-0.34413 0.4916,-0.8377 0.4916,-1.48268 v -5.26803 c 0,-0.63319 -0.16124,-1.12086 -0.48374,-1.46498 -0.32249,-0.34412 -0.78853,-0.5152 -1.40205,-0.5152 -0.61155,0 -1.07956,0.17108 -1.40009,0.5152 -0.32249,0.34412 -0.48374,0.83179 -0.48374,1.46498 v 5.26803 c 0,0.64498 0.16322,1.13855 0.49161,1.48268 0.32642,0.34412 0.7905,0.5152 1.39222,0.5152 z"
       fill="#efefef"
       id="path683"
       style="fill:#ffffff" />
    <path
       d="m 546.38901,112.11189 v -11.75917 h 2.0608 l 3.51202,9.92254 c -0.0315,-0.27924 -0.061,-0.62532 -0.0885,-1.03827 -0.0275,-0.41295 -0.0472,-0.8436 -0.0649,-1.28997 -0.0157,-0.44441 -0.0236,-0.86719 -0.0236,-1.26441 v -6.32989 h 1.51415 v 11.75917 h -2.07851 l -3.47859,-9.92254 c 0.0216,0.27923 0.0433,0.61942 0.0649,1.02254 0.0216,0.40311 0.0393,0.82393 0.0551,1.2644 0.0177,0.44048 0.0256,0.85343 0.0256,1.24081 v 6.39479 z"
       fill="#efefef"
       id="path684"
       style="fill:#ffffff" />
    <path
       d="m 482.22681,129.23438 -3.01058,-11.75917 h 1.64195 l 1.94872,7.92466 c 0.12979,0.50537 0.23991,0.99107 0.33036,1.45908 0.0924,0.46604 0.15928,0.82393 0.20254,1.06973 0.0315,-0.2458 0.0983,-0.60566 0.20058,-1.0776 0.10225,-0.4739 0.21237,-0.96157 0.33035,-1.46694 l 1.8858,-7.90893 h 1.64196 l -3.02829,11.75917 z"
       fill="#efefef"
       id="path685"
       style="fill:#ffffff" />
    <path
       d="m 492.81006,129.39563 c -1.07366,0 -1.92119,-0.3107 -2.54454,-0.93405 -0.62335,-0.62335 -0.93405,-1.50431 -0.93405,-2.64286 v -4.94554 c 0,-1.12676 0.3107,-2.00181 0.93405,-2.62517 0.62335,-0.62335 1.47088,-0.93405 2.54454,-0.93405 1.07367,0 1.92316,0.30873 2.54651,0.92619 0.62139,0.61745 0.93405,1.49644 0.93405,2.63303 v 4.94553 c 0,1.13856 -0.31266,2.01951 -0.93405,2.64287 -0.62335,0.62335 -1.47284,0.93405 -2.54651,0.93405 z m 0,-1.41779 c 0.60172,0 1.0658,-0.17108 1.39419,-0.5152 0.32643,-0.34412 0.4916,-0.83769 0.4916,-1.48268 v -5.26803 c 0,-0.63318 -0.16124,-1.12085 -0.48373,-1.46498 -0.3225,-0.34412 -0.78854,-0.5152 -1.40206,-0.5152 -0.61155,0 -1.07956,0.17108 -1.40009,0.5152 -0.32249,0.34413 -0.48373,0.8318 -0.48373,1.46498 v 5.26803 c 0,0.64499 0.16321,1.13856 0.4916,1.48268 0.32642,0.34412 0.7905,0.5152 1.39222,0.5152 z"
       fill="#efefef"
       id="path686"
       style="fill:#ffffff" />
    <path
       d="m 499.54504,129.23438 v -11.75917 h 1.59476 v 10.30992 h 5.2346 v 1.44925 z"
       fill="#efefef"
       id="path687"
       style="fill:#ffffff" />
    <path
       d="m 511.81941,121.40608 c -0.41885,0 -0.75511,-0.11405 -1.00681,-0.33823 -0.25366,-0.22613 -0.37951,-0.527 -0.37951,-0.90258 0,-0.37559 0.12585,-0.67645 0.37951,-0.90259 0.25171,-0.22613 0.58796,-0.33822 1.00681,-0.33822 0.41885,0 0.75314,0.11209 1.0068,0.33822 0.25171,0.22614 0.37756,0.527 0.37756,0.90259 0,0.37558 -0.12585,0.67645 -0.37756,0.90258 -0.25366,0.22417 -0.58795,0.33823 -1.0068,0.33823 z m 0,6.70155 c -0.41885,0 -0.75511,-0.11406 -1.00681,-0.33823 -0.25366,-0.22614 -0.37951,-0.527 -0.37951,-0.90258 0,-0.37559 0.12585,-0.68038 0.37951,-0.91045 0.25171,-0.23008 0.58796,-0.34609 1.00681,-0.34609 0.41885,0 0.75314,0.11602 1.0068,0.34609 0.25171,0.23007 0.37756,0.53486 0.37756,0.91045 0,0.37558 -0.12585,0.67644 -0.37756,0.90258 -0.25366,0.22417 -0.58795,0.33823 -1.0068,0.33823 z"
       fill="#efefef"
       id="path688"
       style="fill:#ffffff" />
    <path
       d="m 521.3231,129.39563 c -1.10513,0 -1.98018,-0.31463 -2.62517,-0.94192 -0.64498,-0.62925 -0.96551,-1.47481 -0.96551,-2.53864 v -5.12251 c 0,-1.06187 0.32053,-1.90743 0.96551,-2.53668 0.64499,-0.62729 1.52004,-0.94191 2.62517,-0.94191 1.10709,0 1.98215,0.31462 2.62713,0.94191 0.64302,0.62925 0.96551,1.47481 0.96551,2.53668 v 5.12251 c 0,0.70004 -0.14748,1.30767 -0.44244,1.82877 -0.29497,0.5211 -0.71185,0.92618 -1.24868,1.21721 -0.53683,0.28906 -1.17002,0.43458 -1.90152,0.43458 z m 0,-1.36863 c 0.62335,0 1.12282,-0.19664 1.49841,-0.58796 0.37558,-0.39328 0.56436,-0.90061 0.56436,-1.52397 v -5.12251 c 0,-0.62139 -0.18878,-1.12873 -0.56436,-1.52201 -0.37559,-0.39132 -0.87506,-0.58796 -1.49841,-0.58796 -0.62139,0 -1.12086,0.19664 -1.49841,0.58796 -0.37559,0.39328 -0.5624,0.90062 -0.5624,1.52201 v 5.12251 c 0,0.62336 0.18681,1.13069 0.5624,1.52397 0.37755,0.39132 0.87702,0.58796 1.49841,0.58796 z m 0,-3.76962 c -0.30086,0 -0.5388,-0.0845 -0.71578,-0.24973 -0.17697,-0.16715 -0.26546,-0.40115 -0.26546,-0.70201 0,-0.2989 0.0885,-0.52897 0.26546,-0.68432 0.17698,-0.15534 0.41492,-0.234 0.71578,-0.234 0.30086,0 0.54273,0.0787 0.72561,0.234 0.18287,0.15535 0.27333,0.38542 0.27333,0.68432 0,0.30086 -0.0905,0.53486 -0.27333,0.70201 -0.18288,0.16518 -0.42475,0.24973 -0.72561,0.24973 z"
       fill="#efefef"
       id="path689"
       style="fill:#ffffff" />
    <path
       d="m 529.05505,129.23438 2.88473,-5.01043 h -0.0492 c -0.11798,0.16125 -0.30676,0.29103 -0.56436,0.38739 -0.2576,0.0964 -0.55846,0.14551 -0.90062,0.14551 -0.67841,0 -1.27424,-0.15338 -1.78944,-0.46014 -0.5152,-0.30479 -0.92028,-0.72954 -1.21524,-1.27227 -0.29693,-0.54273 -0.44441,-1.17395 -0.44441,-1.89366 0,-0.761 0.16124,-1.42762 0.48374,-1.99591 0.32249,-0.57026 0.77083,-1.01467 1.34503,-1.33717 0.57419,-0.32249 1.24277,-0.48373 2.00574,-0.48373 0.7728,0 1.44925,0.15928 2.02934,0.47587 0.5801,0.31659 1.03237,0.75904 1.3529,1.32733 0.32249,0.57026 0.48373,1.23098 0.48373,1.98215 0,0.50537 -0.0983,1.0363 -0.29692,1.59476 -0.19861,0.55846 -0.46605,1.13266 -0.79837,1.72455 l -2.67433,4.81575 h -1.85236 z m 1.77174,-5.73407 c 0.67645,0 1.22311,-0.22024 1.63606,-0.66071 0.41295,-0.44048 0.61942,-1.02058 0.61942,-1.74028 0,-0.70791 -0.20647,-1.28407 -0.61942,-1.72455 -0.41295,-0.43851 -0.95961,-0.65875 -1.63606,-0.65875 -0.67645,0 -1.22115,0.22024 -1.63409,0.65875 -0.41295,0.44048 -0.62139,1.01664 -0.62139,1.72455 0,0.7197 0.20844,1.2998 0.62139,1.74028 0.41295,0.44047 0.95764,0.66071 1.63409,0.66071 z"
       fill="#efefef"
       id="path690"
       style="fill:#ffffff" />
  </g>
  <g
     id="g691"
     style="isolation:isolate;fill:#ffffff">
    <circle
       cx="578.09216"
       cy="265.75732"
       r="7.2651992"
       fill="#efefef"
       id="circle690"
       style="fill:#ffffff" />
    <circle
       cx="602.62378"
       cy="265.75732"
       r="7.2651992"
       fill="#efefef"
       id="circle691"
       style="fill:#ffffff" />
  </g>
  <circle
     cx="807.06787"
     cy="147.66339"
     r="7.2651992"
     fill="#efefef"
     id="circle692"
     style="isolation:isolate;fill:#ffffff" />
  <path
     d="m 499.34558,251.89276 h -4.3858 c -0.73285,0 -1.41468,0.37512 -1.80701,0.99408 l -43.27826,68.28003 h 17.96362 c 0.54248,0 1.06568,0.0775 1.56647,0.21014 l 30.85034,-68.07366 c 0.29956,-0.66095 -0.18371,-1.41059 -0.90936,-1.41059 z"
     fill="#efefef"
     id="path692"
     style="isolation:isolate;fill:#ffffff" />
  <path
     d="M 61.26361,258.29114 H 39.180229 c -4.646347,0 -8.412942,3.76659 -8.412942,8.41294 v 22.40235 c 0,4.64634 3.766595,8.41294 8.412942,8.41294 H 61.26361 c 4.646475,0 8.413071,-3.7666 8.413071,-8.41294 v -22.40235 c 0,-4.64635 -3.766595,-8.41294 -8.413071,-8.41294 z M 45.571472,274.033 h -4.937377 v 3.20478 h 4.556001 v 1.46809 H 40.6628 v 4.60111 h -1.587014 v -10.72977 h 6.495685 v 1.45579 z m 8.28979,9.27398 h -1.999145 l -3.114566,-8.92131 c 0.01845,0.2645 0.04101,0.58642 0.06561,0.96369 0.02461,0.37728 0.04716,0.77095 0.06561,1.18308 0.0205,0.41009 0.03076,0.79351 0.03076,1.14618 v 5.62836 h -1.484494 v -10.72977 h 2.013498 l 3.114566,8.92132 c -0.01845,-0.27271 -0.04306,-0.60692 -0.07382,-0.99855 -0.02871,-0.39163 -0.05126,-0.79966 -0.06561,-1.21999 -0.01435,-0.42034 -0.02255,-0.80786 -0.02255,-1.16053 v -5.54225 h 1.470141 z m 6.171721,-1.35121 c -0.235797,0.21529 -0.549509,0.32191 -0.941136,0.32191 -0.391627,0 -0.70534,-0.10662 -0.939086,-0.32191 -0.235797,-0.21735 -0.35267,-0.5003 -0.35267,-0.85297 0,-0.34242 0.116873,-0.62332 0.35267,-0.83862 0.233746,-0.21529 0.547458,-0.32191 0.939086,-0.32191 0.391628,0 0.70534,0.10662 0.941136,0.32191 0.235796,0.2153 0.35267,0.4962 0.35267,0.83862 0,0.35267 -0.116873,0.63562 -0.35267,0.85297 z m 0,-6.04255 c -0.235797,0.21735 -0.549509,0.32397 -0.941136,0.32397 -0.391627,0 -0.70534,-0.10663 -0.939086,-0.32397 -0.235797,-0.21529 -0.35267,-0.49825 -0.35267,-0.85092 0,-0.34241 0.116873,-0.62332 0.35267,-0.83861 0.233746,-0.21529 0.547458,-0.32397 0.939086,-0.32397 0.391628,0 0.70534,0.10868 0.941136,0.32397 0.235796,0.21529 0.35267,0.4962 0.35267,0.83861 0,0.35267 -0.116873,0.63563 -0.35267,0.85092 z"
     fill="#efefef"
     id="path693"
     style="isolation:isolate;fill:#ffffff" />
  <path
     d="m 484.10101,252.19867 h -15.44745 c -0.75079,0 -1.46929,0.30566 -1.98999,0.84668 l -5.55389,5.77057 h 1.09949 c 3.37689,0 6.11444,2.73749 6.11444,6.11438 v 13.2995 l 16.78107,-24.10968 c 0.56433,-0.81079 -0.0158,-1.92145 -1.00367,-1.92145 z"
     fill="#efefef"
     id="path694"
     style="isolation:isolate;fill:#ffffff" />
  <path
     d="m 422.48383,321.16687 c 3.37689,0 6.11438,2.73749 6.11438,6.11438 v 8.02277 l 26.81555,-38.52643 h -30.3794 c -0.14837,0 -0.29376,-0.0118 -0.43945,-0.0222 l -23.49475,24.41144 z"
     fill="#efefef"
     id="path695"
     style="isolation:isolate;fill:#ffffff" />
  <polygon
     points="376.45819,526.4707 393.19269,489.54468 343.15076,489.54468 319.74573,526.4707 "
     fill="#efefef"
     id="polygon695"
     style="isolation:isolate;fill:#ffffff" />
  <path
     d="m 442.08264,353.48175 c -3.37689,0 -6.11444,-2.73755 -6.11444,-6.11444 v -4.2605 l -14.84076,23.41425 h 1.35639 c 3.37689,0 6.11438,2.73748 6.11438,6.11438 v 20.08606 c 0,3.37689 -2.73749,6.11438 -6.11438,6.11438 h -21.83869 l -17.4013,27.45398 v 11.78601 c 0,3.37689 -2.73749,6.11438 -6.11438,6.11438 h -5.23151 l -8.26489,13.03955 h 44.20447 l 5.90942,-13.03955 h -17.01868 c -3.37689,0 -6.11438,-2.73749 -6.11438,-6.11438 v -20.08606 c 0,-3.3769 2.73749,-6.11438 6.11438,-6.11438 h 25.75556 c 1.96722,0 3.71258,0.9328 4.83105,2.37603 l 8.93042,-19.70568 c -0.17987,-0.57611 -0.2771,-1.18879 -0.2771,-1.82416 v -20.08606 c 0,-3.37689 2.73755,-6.11444 6.11444,-6.11444 h 6.86316 l 5.9093,-13.03937 z"
     fill="#efefef"
     id="path696"
     style="isolation:isolate;fill:#ffffff" />
  <g
     id="g697"
     style="isolation:isolate;fill:#ffffff">
    <path
       d="m 343.73419,457.2298 9.07593,-13.03955 h -1.43616 c -3.37689,0 -6.11444,-2.73749 -6.11444,-6.11438 v -20.08606 c 0,-3.3769 2.73755,-6.11438 6.11444,-6.11438 h 23.92823 l 15.3117,-21.9986 v -17.24127 c 0,-3.37689 2.73749,-6.11444 6.11438,-6.11444 h 10.14191 l 9.07581,-13.03937 h -19.21772 c -3.37689,0 -6.11438,-2.73755 -6.11438,-6.11444 v -15.30506 l -7.37005,7.6576 v 7.64746 c 0,3.37689 -2.73749,6.11444 -6.11438,6.11444 h -7.13074 l -12.54974,13.03937 h 19.68048 c 3.37689,0 6.11438,2.73755 6.11438,6.11444 v 20.08606 c 0,3.37689 -2.73749,6.11438 -6.11438,6.11438 h -25.75549 c -3.3769,0 -6.11445,-2.73749 -6.11445,-6.11438 v -13.53546 l -7.36999,7.65753 v 5.87781 c 0,3.37689 -2.73749,6.11438 -6.11438,6.11438 h -5.42749 l -12.54987,13.03955 h 17.97736 c 3.37683,0 6.11438,2.73749 6.11438,6.11438 v 20.08606 c 0,3.37689 -2.73755,6.11438 -6.11438,6.11438 H 306.0196 c -3.3769,0 -6.11438,-2.73749 -6.11438,-6.11438 v -11.76581 l -7.37,7.65753 v 4.10834 c 0,3.37689 -2.73755,6.11438 -6.11444,6.11438 h -3.72443 l -12.54986,13.03949 h 73.58771 z"
       fill="#efefef"
       id="path697"
       style="fill:#ffffff" />
    <polygon
       points="295.32752,526.77661 321.24207,489.54468 239.04511,489.54468 203.21124,526.77661 "
       fill="#efefef"
       id="polygon697"
       style="fill:#ffffff" />
  </g>
</svg>
