%TF.GenerationSoftware,KiCad,Pcbnew,9.0.3*%
%TF.CreationDate,2025-10-17T08:06:55+02:00*%
%TF.ProjectId,communicator_pcb,636f6d6d-756e-4696-9361-746f725f7063,rev?*%
%TF.SameCoordinates,Original*%
%TF.FileFunction,Soldermask,Top*%
%TF.FilePolarity,Negative*%
%FSLAX46Y46*%
G04 Gerber Fmt 4.6, Leading zero omitted, Abs format (unit mm)*
G04 Created by KiCad (PCBNEW 9.0.3) date 2025-10-17 08:06:55*
%MOMM*%
%LPD*%
G01*
G04 APERTURE LIST*
G04 Aperture macros list*
%AMRoundRect*
0 Rectangle with rounded corners*
0 $1 Rounding radius*
0 $2 $3 $4 $5 $6 $7 $8 $9 X,Y pos of 4 corners*
0 Add a 4 corners polygon primitive as box body*
4,1,4,$2,$3,$4,$5,$6,$7,$8,$9,$2,$3,0*
0 Add four circle primitives for the rounded corners*
1,1,$1+$1,$2,$3*
1,1,$1+$1,$4,$5*
1,1,$1+$1,$6,$7*
1,1,$1+$1,$8,$9*
0 Add four rect primitives between the rounded corners*
20,1,$1+$1,$2,$3,$4,$5,0*
20,1,$1+$1,$4,$5,$6,$7,0*
20,1,$1+$1,$6,$7,$8,$9,0*
20,1,$1+$1,$8,$9,$2,$3,0*%
%AMFreePoly0*
4,1,52,-0.529408,2.274054,-0.424786,2.220629,-0.337556,2.141945,-0.132558,1.875050,0.044206,1.588672,0.190897,1.285787,0.305993,0.969542,0.388297,0.643224,0.436954,0.310222,0.451459,-0.026003,0.431660,-0.361958,0.377764,-0.694152,0.290330,-1.019133,0.170267,-1.333526,0.018823,-1.634062,-0.162429,-1.917620,-0.371606,-2.181254,-0.460064,-2.258554,-0.565515,-2.310325,-0.680771,-2.333039,
-0.797980,-2.325149,-0.909152,-2.287191,-1.006712,-2.221754,-1.084012,-2.133296,-1.135783,-2.027845,-1.158497,-1.912589,-1.150607,-1.795380,-1.112649,-1.684208,-1.047212,-1.586648,-0.952740,-1.479260,-0.790574,-1.243613,-0.657525,-0.990383,-0.555472,-0.723150,-0.485859,-0.445695,-0.449670,-0.161938,-0.447417,0.124109,-0.479132,0.408401,-0.544366,0.686919,-0.642197,0.955725,-0.771241,1.211020,
-0.929675,1.449193,-1.022444,1.558055,-1.086336,1.656633,-1.122538,1.768390,-1.128581,1.885708,-1.104054,2.000592,-1.050629,2.105214,-0.971945,2.192444,-0.873367,2.256336,-0.761610,2.292538,-0.644292,2.298581,-0.529408,2.274054,-0.529408,2.274054,$1*%
G04 Aperture macros list end*
%ADD10C,0.900000*%
%ADD11C,0.050000*%
%ADD12C,3.400000*%
%ADD13C,5.000000*%
%ADD14R,1.727200X1.727200*%
%ADD15C,1.727200*%
%ADD16O,1.727200X1.727200*%
%ADD17C,2.500000*%
%ADD18FreePoly0,90.000000*%
%ADD19R,1.700000X1.700000*%
%ADD20C,1.700000*%
%ADD21C,2.200000*%
%ADD22RoundRect,0.102000X-0.704000X0.704000X-0.704000X-0.704000X0.704000X-0.704000X0.704000X0.704000X0*%
%ADD23C,1.612000*%
%ADD24C,0.650000*%
%ADD25O,2.304000X1.254000*%
%ADD26O,2.004000X1.104000*%
%ADD27RoundRect,0.102000X-0.750000X1.750000X-0.750000X-1.750000X0.750000X-1.750000X0.750000X1.750000X0*%
G04 APERTURE END LIST*
D10*
%TO.C,SW1*%
X85849995Y-109313742D02*
G75*
G02*
X82135457Y-109301142I-1849996J2150344D01*
G01*
X85849995Y-117313742D02*
G75*
G02*
X82135457Y-117301142I-1849996J2150344D01*
G01*
X85849995Y-125313742D02*
G75*
G02*
X82135457Y-125301142I-1849996J2150344D01*
G01*
X85849995Y-133313742D02*
G75*
G02*
X82135457Y-133301142I-1849996J2150344D01*
G01*
X93849995Y-109313742D02*
G75*
G02*
X90135457Y-109301142I-1849996J2150344D01*
G01*
X93849995Y-117313742D02*
G75*
G02*
X90135457Y-117301142I-1849996J2150344D01*
G01*
X93849995Y-125313742D02*
G75*
G02*
X90135457Y-125301142I-1849996J2150344D01*
G01*
X93849995Y-133313742D02*
G75*
G02*
X90135457Y-133301142I-1849996J2150344D01*
G01*
X95849995Y-98813742D02*
G75*
G02*
X92135457Y-98801142I-1849996J2150344D01*
G01*
X101849995Y-109313742D02*
G75*
G02*
X98135457Y-109301142I-1849996J2150344D01*
G01*
X101849995Y-117313742D02*
G75*
G02*
X98135457Y-117301142I-1849996J2150344D01*
G01*
X101849995Y-125313742D02*
G75*
G02*
X98135457Y-125301142I-1849996J2150344D01*
G01*
X101849995Y-133313742D02*
G75*
G02*
X98135457Y-133301142I-1849996J2150344D01*
G01*
X109849995Y-109313742D02*
G75*
G02*
X106135457Y-109301142I-1849996J2150344D01*
G01*
X109849995Y-117313742D02*
G75*
G02*
X106135457Y-117301142I-1849996J2150344D01*
G01*
X109849995Y-125313742D02*
G75*
G02*
X106135457Y-125301142I-1849996J2150344D01*
G01*
X109849995Y-133313742D02*
G75*
G02*
X106135457Y-133301142I-1849996J2150344D01*
G01*
X110849995Y-98813742D02*
G75*
G02*
X107135457Y-98801142I-1849996J2150344D01*
G01*
X117849995Y-109313742D02*
G75*
G02*
X114135457Y-109301142I-1849996J2150344D01*
G01*
X117849995Y-117313742D02*
G75*
G02*
X114135457Y-117301142I-1849996J2150344D01*
G01*
X117849995Y-125313742D02*
G75*
G02*
X114135457Y-125301142I-1849996J2150344D01*
G01*
X119599995Y-133313742D02*
G75*
G02*
X115885457Y-133301142I-1849996J2150344D01*
G01*
X125849995Y-98813742D02*
G75*
G02*
X122135457Y-98801142I-1849996J2150344D01*
G01*
X125849995Y-109313742D02*
G75*
G02*
X122135457Y-109301142I-1849996J2150344D01*
G01*
X125849995Y-117313742D02*
G75*
G02*
X122135457Y-117301142I-1849996J2150344D01*
G01*
X125849995Y-125313742D02*
G75*
G02*
X122135457Y-125301142I-1849996J2150344D01*
G01*
X129099995Y-133313742D02*
G75*
G02*
X125385457Y-133301142I-1849996J2150344D01*
G01*
X133849995Y-109313742D02*
G75*
G02*
X130135457Y-109301142I-1849996J2150344D01*
G01*
X133849995Y-117313742D02*
G75*
G02*
X130135457Y-117301142I-1849996J2150344D01*
G01*
X133849995Y-125313742D02*
G75*
G02*
X130135457Y-125301142I-1849996J2150344D01*
G01*
X138599995Y-133313742D02*
G75*
G02*
X134885457Y-133301142I-1849996J2150344D01*
G01*
X140849995Y-98813742D02*
G75*
G02*
X137135457Y-98801142I-1849996J2150344D01*
G01*
X141849995Y-109313742D02*
G75*
G02*
X138135457Y-109301142I-1849996J2150344D01*
G01*
X141849995Y-117313742D02*
G75*
G02*
X138135457Y-117301142I-1849996J2150344D01*
G01*
X141849995Y-125313742D02*
G75*
G02*
X138135457Y-125301142I-1849996J2150344D01*
G01*
X148099995Y-133313742D02*
G75*
G02*
X144385457Y-133301142I-1849996J2150344D01*
G01*
X149849995Y-109313742D02*
G75*
G02*
X146135457Y-109301142I-1849996J2150344D01*
G01*
X149849995Y-117313742D02*
G75*
G02*
X146135457Y-117301142I-1849996J2150344D01*
G01*
X149849995Y-125313742D02*
G75*
G02*
X146135457Y-125301142I-1849996J2150344D01*
G01*
X155849995Y-98813742D02*
G75*
G02*
X152135458Y-98801141I-1849995J2150342D01*
G01*
X157849995Y-109313742D02*
G75*
G02*
X154135458Y-109301141I-1849995J2150342D01*
G01*
X157849995Y-117313742D02*
G75*
G02*
X154135458Y-117301141I-1849995J2150342D01*
G01*
X157849995Y-125313742D02*
G75*
G02*
X154135458Y-125301141I-1849995J2150342D01*
G01*
X157849995Y-133313742D02*
G75*
G02*
X154135458Y-133301141I-1849995J2150342D01*
G01*
X165849995Y-109313742D02*
G75*
G02*
X162135458Y-109301141I-1849995J2150342D01*
G01*
X165849995Y-117313742D02*
G75*
G02*
X162135458Y-117301141I-1849995J2150342D01*
G01*
X165849995Y-125313742D02*
G75*
G02*
X162135458Y-125301141I-1849995J2150342D01*
G01*
X165849995Y-133313742D02*
G75*
G02*
X162135458Y-133301141I-1849995J2150342D01*
G01*
X173849995Y-109313742D02*
G75*
G02*
X170135458Y-109301141I-1849995J2150342D01*
G01*
X173849995Y-117313742D02*
G75*
G02*
X170135458Y-117301141I-1849995J2150342D01*
G01*
X173849995Y-125313742D02*
G75*
G02*
X170135458Y-125301141I-1849995J2150342D01*
G01*
X173849995Y-133313742D02*
G75*
G02*
X170135458Y-133301141I-1849995J2150342D01*
G01*
X181849995Y-109313742D02*
G75*
G02*
X178135458Y-109301141I-1849995J2150342D01*
G01*
X181849995Y-117313742D02*
G75*
G02*
X178135458Y-117301141I-1849995J2150342D01*
G01*
X181849995Y-125313742D02*
G75*
G02*
X178135458Y-125301141I-1849995J2150342D01*
G01*
X181849995Y-133313742D02*
G75*
G02*
X178135458Y-133301141I-1849995J2150342D01*
G01*
X193849995Y-100313742D02*
G75*
G02*
X190135458Y-100301141I-1849995J2150342D01*
G01*
X193849995Y-110813742D02*
G75*
G02*
X190135458Y-110801141I-1849995J2150342D01*
G01*
X193849995Y-121313742D02*
G75*
G02*
X190135458Y-121301141I-1849995J2150342D01*
G01*
X193849995Y-131813742D02*
G75*
G02*
X190135458Y-131801141I-1849995J2150342D01*
G01*
X201849995Y-100313742D02*
G75*
G02*
X198135458Y-100301141I-1849995J2150342D01*
G01*
X201849995Y-110813742D02*
G75*
G02*
X198135458Y-110801141I-1849995J2150342D01*
G01*
X201849995Y-121313742D02*
G75*
G02*
X198135458Y-121301141I-1849995J2150342D01*
G01*
X201849995Y-131813742D02*
G75*
G02*
X198135458Y-131801141I-1849995J2150342D01*
G01*
X209849995Y-100313742D02*
G75*
G02*
X206135458Y-100301141I-1849995J2150342D01*
G01*
X209849995Y-110813742D02*
G75*
G02*
X206135458Y-110801141I-1849995J2150342D01*
G01*
X209849995Y-121313742D02*
G75*
G02*
X206135458Y-121301141I-1849995J2150342D01*
G01*
X209849995Y-131813742D02*
G75*
G02*
X206135458Y-131801141I-1849995J2150342D01*
G01*
X217849995Y-100313742D02*
G75*
G02*
X214135458Y-100301141I-1849995J2150342D01*
G01*
X217849995Y-110813742D02*
G75*
G02*
X214135458Y-110801141I-1849995J2150342D01*
G01*
X217849995Y-121313742D02*
G75*
G02*
X214135458Y-121301141I-1849995J2150342D01*
G01*
X217849995Y-131813742D02*
G75*
G02*
X214135458Y-131801141I-1849995J2150342D01*
G01*
D11*
X86250000Y-105700000D02*
X86250000Y-109300000D01*
X84000000Y-110300000D01*
X81750000Y-109300000D01*
X81750000Y-105700000D01*
X84000000Y-104700000D01*
X86250000Y-105700000D01*
G36*
X86250000Y-105700000D02*
G01*
X86250000Y-109300000D01*
X84000000Y-110300000D01*
X81750000Y-109300000D01*
X81750000Y-105700000D01*
X84000000Y-104700000D01*
X86250000Y-105700000D01*
G37*
X86250000Y-113700000D02*
X86250000Y-117300000D01*
X84000000Y-118300000D01*
X81750000Y-117300000D01*
X81750000Y-113700000D01*
X84000000Y-112700000D01*
X86250000Y-113700000D01*
G36*
X86250000Y-113700000D02*
G01*
X86250000Y-117300000D01*
X84000000Y-118300000D01*
X81750000Y-117300000D01*
X81750000Y-113700000D01*
X84000000Y-112700000D01*
X86250000Y-113700000D01*
G37*
X86250000Y-121700000D02*
X86250000Y-125300000D01*
X84000000Y-126300000D01*
X81750000Y-125300000D01*
X81750000Y-121700000D01*
X84000000Y-120700000D01*
X86250000Y-121700000D01*
G36*
X86250000Y-121700000D02*
G01*
X86250000Y-125300000D01*
X84000000Y-126300000D01*
X81750000Y-125300000D01*
X81750000Y-121700000D01*
X84000000Y-120700000D01*
X86250000Y-121700000D01*
G37*
X86250000Y-129700000D02*
X86250000Y-133300000D01*
X84000000Y-134300000D01*
X81750000Y-133300000D01*
X81750000Y-129700000D01*
X84000000Y-128700000D01*
X86250000Y-129700000D01*
G36*
X86250000Y-129700000D02*
G01*
X86250000Y-133300000D01*
X84000000Y-134300000D01*
X81750000Y-133300000D01*
X81750000Y-129700000D01*
X84000000Y-128700000D01*
X86250000Y-129700000D01*
G37*
X94250000Y-105700000D02*
X94250000Y-109300000D01*
X92000000Y-110300000D01*
X89750000Y-109300000D01*
X89750000Y-105700000D01*
X92000000Y-104700000D01*
X94250000Y-105700000D01*
G36*
X94250000Y-105700000D02*
G01*
X94250000Y-109300000D01*
X92000000Y-110300000D01*
X89750000Y-109300000D01*
X89750000Y-105700000D01*
X92000000Y-104700000D01*
X94250000Y-105700000D01*
G37*
X94250000Y-113700000D02*
X94250000Y-117300000D01*
X92000000Y-118300000D01*
X89750000Y-117300000D01*
X89750000Y-113700000D01*
X92000000Y-112700000D01*
X94250000Y-113700000D01*
G36*
X94250000Y-113700000D02*
G01*
X94250000Y-117300000D01*
X92000000Y-118300000D01*
X89750000Y-117300000D01*
X89750000Y-113700000D01*
X92000000Y-112700000D01*
X94250000Y-113700000D01*
G37*
X94250000Y-121700000D02*
X94250000Y-125300000D01*
X92000000Y-126300000D01*
X89750000Y-125300000D01*
X89750000Y-121700000D01*
X92000000Y-120700000D01*
X94250000Y-121700000D01*
G36*
X94250000Y-121700000D02*
G01*
X94250000Y-125300000D01*
X92000000Y-126300000D01*
X89750000Y-125300000D01*
X89750000Y-121700000D01*
X92000000Y-120700000D01*
X94250000Y-121700000D01*
G37*
X94250000Y-129700000D02*
X94250000Y-133300000D01*
X92000000Y-134300000D01*
X89750000Y-133300000D01*
X89750000Y-129700000D01*
X92000000Y-128700000D01*
X94250000Y-129700000D01*
G36*
X94250000Y-129700000D02*
G01*
X94250000Y-133300000D01*
X92000000Y-134300000D01*
X89750000Y-133300000D01*
X89750000Y-129700000D01*
X92000000Y-128700000D01*
X94250000Y-129700000D01*
G37*
X96250000Y-95200000D02*
X96250000Y-98800000D01*
X94000000Y-99800000D01*
X91750000Y-98800000D01*
X91750000Y-95200000D01*
X94000000Y-94200000D01*
X96250000Y-95200000D01*
G36*
X96250000Y-95200000D02*
G01*
X96250000Y-98800000D01*
X94000000Y-99800000D01*
X91750000Y-98800000D01*
X91750000Y-95200000D01*
X94000000Y-94200000D01*
X96250000Y-95200000D01*
G37*
X102250000Y-105700000D02*
X102250000Y-109300000D01*
X100000000Y-110300000D01*
X97750000Y-109300000D01*
X97750000Y-105700000D01*
X100000000Y-104700000D01*
X102250000Y-105700000D01*
G36*
X102250000Y-105700000D02*
G01*
X102250000Y-109300000D01*
X100000000Y-110300000D01*
X97750000Y-109300000D01*
X97750000Y-105700000D01*
X100000000Y-104700000D01*
X102250000Y-105700000D01*
G37*
X102250000Y-113700000D02*
X102250000Y-117300000D01*
X100000000Y-118300000D01*
X97750000Y-117300000D01*
X97750000Y-113700000D01*
X100000000Y-112700000D01*
X102250000Y-113700000D01*
G36*
X102250000Y-113700000D02*
G01*
X102250000Y-117300000D01*
X100000000Y-118300000D01*
X97750000Y-117300000D01*
X97750000Y-113700000D01*
X100000000Y-112700000D01*
X102250000Y-113700000D01*
G37*
X102250000Y-121700000D02*
X102250000Y-125300000D01*
X100000000Y-126300000D01*
X97750000Y-125300000D01*
X97750000Y-121700000D01*
X100000000Y-120700000D01*
X102250000Y-121700000D01*
G36*
X102250000Y-121700000D02*
G01*
X102250000Y-125300000D01*
X100000000Y-126300000D01*
X97750000Y-125300000D01*
X97750000Y-121700000D01*
X100000000Y-120700000D01*
X102250000Y-121700000D01*
G37*
X102250000Y-129700000D02*
X102250000Y-133300000D01*
X100000000Y-134300000D01*
X97750000Y-133300000D01*
X97750000Y-129700000D01*
X100000000Y-128700000D01*
X102250000Y-129700000D01*
G36*
X102250000Y-129700000D02*
G01*
X102250000Y-133300000D01*
X100000000Y-134300000D01*
X97750000Y-133300000D01*
X97750000Y-129700000D01*
X100000000Y-128700000D01*
X102250000Y-129700000D01*
G37*
X110250000Y-105700000D02*
X110250000Y-109300000D01*
X108000000Y-110300000D01*
X105750000Y-109300000D01*
X105750000Y-105700000D01*
X108000000Y-104700000D01*
X110250000Y-105700000D01*
G36*
X110250000Y-105700000D02*
G01*
X110250000Y-109300000D01*
X108000000Y-110300000D01*
X105750000Y-109300000D01*
X105750000Y-105700000D01*
X108000000Y-104700000D01*
X110250000Y-105700000D01*
G37*
X110250000Y-113700000D02*
X110250000Y-117300000D01*
X108000000Y-118300000D01*
X105750000Y-117300000D01*
X105750000Y-113700000D01*
X108000000Y-112700000D01*
X110250000Y-113700000D01*
G36*
X110250000Y-113700000D02*
G01*
X110250000Y-117300000D01*
X108000000Y-118300000D01*
X105750000Y-117300000D01*
X105750000Y-113700000D01*
X108000000Y-112700000D01*
X110250000Y-113700000D01*
G37*
X110250000Y-121700000D02*
X110250000Y-125300000D01*
X108000000Y-126300000D01*
X105750000Y-125300000D01*
X105750000Y-121700000D01*
X108000000Y-120700000D01*
X110250000Y-121700000D01*
G36*
X110250000Y-121700000D02*
G01*
X110250000Y-125300000D01*
X108000000Y-126300000D01*
X105750000Y-125300000D01*
X105750000Y-121700000D01*
X108000000Y-120700000D01*
X110250000Y-121700000D01*
G37*
X110250000Y-129700000D02*
X110250000Y-133300000D01*
X108000000Y-134300000D01*
X105750000Y-133300000D01*
X105750000Y-129700000D01*
X108000000Y-128700000D01*
X110250000Y-129700000D01*
G36*
X110250000Y-129700000D02*
G01*
X110250000Y-133300000D01*
X108000000Y-134300000D01*
X105750000Y-133300000D01*
X105750000Y-129700000D01*
X108000000Y-128700000D01*
X110250000Y-129700000D01*
G37*
X111250000Y-95200000D02*
X111250000Y-98800000D01*
X109000000Y-99800000D01*
X106750000Y-98800000D01*
X106750000Y-95200000D01*
X109000000Y-94200000D01*
X111250000Y-95200000D01*
G36*
X111250000Y-95200000D02*
G01*
X111250000Y-98800000D01*
X109000000Y-99800000D01*
X106750000Y-98800000D01*
X106750000Y-95200000D01*
X109000000Y-94200000D01*
X111250000Y-95200000D01*
G37*
X118250000Y-105700000D02*
X118250000Y-109300000D01*
X116000000Y-110300000D01*
X113750000Y-109300000D01*
X113750000Y-105700000D01*
X116000000Y-104700000D01*
X118250000Y-105700000D01*
G36*
X118250000Y-105700000D02*
G01*
X118250000Y-109300000D01*
X116000000Y-110300000D01*
X113750000Y-109300000D01*
X113750000Y-105700000D01*
X116000000Y-104700000D01*
X118250000Y-105700000D01*
G37*
X118250000Y-113700000D02*
X118250000Y-117300000D01*
X116000000Y-118300000D01*
X113750000Y-117300000D01*
X113750000Y-113700000D01*
X116000000Y-112700000D01*
X118250000Y-113700000D01*
G36*
X118250000Y-113700000D02*
G01*
X118250000Y-117300000D01*
X116000000Y-118300000D01*
X113750000Y-117300000D01*
X113750000Y-113700000D01*
X116000000Y-112700000D01*
X118250000Y-113700000D01*
G37*
X118250000Y-121700000D02*
X118250000Y-125300000D01*
X116000000Y-126300000D01*
X113750000Y-125300000D01*
X113750000Y-121700000D01*
X116000000Y-120700000D01*
X118250000Y-121700000D01*
G36*
X118250000Y-121700000D02*
G01*
X118250000Y-125300000D01*
X116000000Y-126300000D01*
X113750000Y-125300000D01*
X113750000Y-121700000D01*
X116000000Y-120700000D01*
X118250000Y-121700000D01*
G37*
X120000000Y-129700000D02*
X120000000Y-133300000D01*
X117750000Y-134300000D01*
X115500000Y-133300000D01*
X115500000Y-129700000D01*
X117750000Y-128700000D01*
X120000000Y-129700000D01*
G36*
X120000000Y-129700000D02*
G01*
X120000000Y-133300000D01*
X117750000Y-134300000D01*
X115500000Y-133300000D01*
X115500000Y-129700000D01*
X117750000Y-128700000D01*
X120000000Y-129700000D01*
G37*
X126250000Y-95200000D02*
X126250000Y-98800000D01*
X124000000Y-99800000D01*
X121750000Y-98800000D01*
X121750000Y-95200000D01*
X124000000Y-94200000D01*
X126250000Y-95200000D01*
G36*
X126250000Y-95200000D02*
G01*
X126250000Y-98800000D01*
X124000000Y-99800000D01*
X121750000Y-98800000D01*
X121750000Y-95200000D01*
X124000000Y-94200000D01*
X126250000Y-95200000D01*
G37*
X126250000Y-105700000D02*
X126250000Y-109300000D01*
X124000000Y-110300000D01*
X121750000Y-109300000D01*
X121750000Y-105700000D01*
X124000000Y-104700000D01*
X126250000Y-105700000D01*
G36*
X126250000Y-105700000D02*
G01*
X126250000Y-109300000D01*
X124000000Y-110300000D01*
X121750000Y-109300000D01*
X121750000Y-105700000D01*
X124000000Y-104700000D01*
X126250000Y-105700000D01*
G37*
X126250000Y-113700000D02*
X126250000Y-117300000D01*
X124000000Y-118300000D01*
X121750000Y-117300000D01*
X121750000Y-113700000D01*
X124000000Y-112700000D01*
X126250000Y-113700000D01*
G36*
X126250000Y-113700000D02*
G01*
X126250000Y-117300000D01*
X124000000Y-118300000D01*
X121750000Y-117300000D01*
X121750000Y-113700000D01*
X124000000Y-112700000D01*
X126250000Y-113700000D01*
G37*
X126250000Y-121700000D02*
X126250000Y-125300000D01*
X124000000Y-126300000D01*
X121750000Y-125300000D01*
X121750000Y-121700000D01*
X124000000Y-120700000D01*
X126250000Y-121700000D01*
G36*
X126250000Y-121700000D02*
G01*
X126250000Y-125300000D01*
X124000000Y-126300000D01*
X121750000Y-125300000D01*
X121750000Y-121700000D01*
X124000000Y-120700000D01*
X126250000Y-121700000D01*
G37*
X129500000Y-129700000D02*
X129500000Y-133300000D01*
X127250000Y-134300000D01*
X125000000Y-133300000D01*
X125000000Y-129700000D01*
X127250000Y-128700000D01*
X129500000Y-129700000D01*
G36*
X129500000Y-129700000D02*
G01*
X129500000Y-133300000D01*
X127250000Y-134300000D01*
X125000000Y-133300000D01*
X125000000Y-129700000D01*
X127250000Y-128700000D01*
X129500000Y-129700000D01*
G37*
X134250000Y-105700000D02*
X134250000Y-109300000D01*
X132000000Y-110300000D01*
X129750000Y-109300000D01*
X129750000Y-105700000D01*
X132000000Y-104700000D01*
X134250000Y-105700000D01*
G36*
X134250000Y-105700000D02*
G01*
X134250000Y-109300000D01*
X132000000Y-110300000D01*
X129750000Y-109300000D01*
X129750000Y-105700000D01*
X132000000Y-104700000D01*
X134250000Y-105700000D01*
G37*
X134250000Y-113700000D02*
X134250000Y-117300000D01*
X132000000Y-118300000D01*
X129750000Y-117300000D01*
X129750000Y-113700000D01*
X132000000Y-112700000D01*
X134250000Y-113700000D01*
G36*
X134250000Y-113700000D02*
G01*
X134250000Y-117300000D01*
X132000000Y-118300000D01*
X129750000Y-117300000D01*
X129750000Y-113700000D01*
X132000000Y-112700000D01*
X134250000Y-113700000D01*
G37*
X134250000Y-121700000D02*
X134250000Y-125300000D01*
X132000000Y-126300000D01*
X129750000Y-125300000D01*
X129750000Y-121700000D01*
X132000000Y-120700000D01*
X134250000Y-121700000D01*
G36*
X134250000Y-121700000D02*
G01*
X134250000Y-125300000D01*
X132000000Y-126300000D01*
X129750000Y-125300000D01*
X129750000Y-121700000D01*
X132000000Y-120700000D01*
X134250000Y-121700000D01*
G37*
X139000000Y-129700000D02*
X139000000Y-133300000D01*
X136750000Y-134300000D01*
X134500000Y-133300000D01*
X134500000Y-129700000D01*
X136750000Y-128700000D01*
X139000000Y-129700000D01*
G36*
X139000000Y-129700000D02*
G01*
X139000000Y-133300000D01*
X136750000Y-134300000D01*
X134500000Y-133300000D01*
X134500000Y-129700000D01*
X136750000Y-128700000D01*
X139000000Y-129700000D01*
G37*
X141250000Y-95200000D02*
X141250000Y-98800000D01*
X139000000Y-99800000D01*
X136750000Y-98800000D01*
X136750000Y-95200000D01*
X139000000Y-94200000D01*
X141250000Y-95200000D01*
G36*
X141250000Y-95200000D02*
G01*
X141250000Y-98800000D01*
X139000000Y-99800000D01*
X136750000Y-98800000D01*
X136750000Y-95200000D01*
X139000000Y-94200000D01*
X141250000Y-95200000D01*
G37*
X142250000Y-105700000D02*
X142250000Y-109300000D01*
X140000000Y-110300000D01*
X137750000Y-109300000D01*
X137750000Y-105700000D01*
X140000000Y-104700000D01*
X142250000Y-105700000D01*
G36*
X142250000Y-105700000D02*
G01*
X142250000Y-109300000D01*
X140000000Y-110300000D01*
X137750000Y-109300000D01*
X137750000Y-105700000D01*
X140000000Y-104700000D01*
X142250000Y-105700000D01*
G37*
X142250000Y-113700000D02*
X142250000Y-117300000D01*
X140000000Y-118300000D01*
X137750000Y-117300000D01*
X137750000Y-113700000D01*
X140000000Y-112700000D01*
X142250000Y-113700000D01*
G36*
X142250000Y-113700000D02*
G01*
X142250000Y-117300000D01*
X140000000Y-118300000D01*
X137750000Y-117300000D01*
X137750000Y-113700000D01*
X140000000Y-112700000D01*
X142250000Y-113700000D01*
G37*
X142250000Y-121700000D02*
X142250000Y-125300000D01*
X140000000Y-126300000D01*
X137750000Y-125300000D01*
X137750000Y-121700000D01*
X140000000Y-120700000D01*
X142250000Y-121700000D01*
G36*
X142250000Y-121700000D02*
G01*
X142250000Y-125300000D01*
X140000000Y-126300000D01*
X137750000Y-125300000D01*
X137750000Y-121700000D01*
X140000000Y-120700000D01*
X142250000Y-121700000D01*
G37*
X148500000Y-129700000D02*
X148500000Y-133300000D01*
X146250000Y-134300000D01*
X144000000Y-133300000D01*
X144000000Y-129700000D01*
X146250000Y-128700000D01*
X148500000Y-129700000D01*
G36*
X148500000Y-129700000D02*
G01*
X148500000Y-133300000D01*
X146250000Y-134300000D01*
X144000000Y-133300000D01*
X144000000Y-129700000D01*
X146250000Y-128700000D01*
X148500000Y-129700000D01*
G37*
X150250000Y-105700000D02*
X150250000Y-109300000D01*
X148000000Y-110300000D01*
X145750000Y-109300000D01*
X145750000Y-105700000D01*
X148000000Y-104700000D01*
X150250000Y-105700000D01*
G36*
X150250000Y-105700000D02*
G01*
X150250000Y-109300000D01*
X148000000Y-110300000D01*
X145750000Y-109300000D01*
X145750000Y-105700000D01*
X148000000Y-104700000D01*
X150250000Y-105700000D01*
G37*
X150250000Y-113700000D02*
X150250000Y-117300000D01*
X148000000Y-118300000D01*
X145750000Y-117300000D01*
X145750000Y-113700000D01*
X148000000Y-112700000D01*
X150250000Y-113700000D01*
G36*
X150250000Y-113700000D02*
G01*
X150250000Y-117300000D01*
X148000000Y-118300000D01*
X145750000Y-117300000D01*
X145750000Y-113700000D01*
X148000000Y-112700000D01*
X150250000Y-113700000D01*
G37*
X150250000Y-121700000D02*
X150250000Y-125300000D01*
X148000000Y-126300000D01*
X145750000Y-125300000D01*
X145750000Y-121700000D01*
X148000000Y-120700000D01*
X150250000Y-121700000D01*
G36*
X150250000Y-121700000D02*
G01*
X150250000Y-125300000D01*
X148000000Y-126300000D01*
X145750000Y-125300000D01*
X145750000Y-121700000D01*
X148000000Y-120700000D01*
X150250000Y-121700000D01*
G37*
X156250000Y-95200000D02*
X156250000Y-98800000D01*
X154000000Y-99800000D01*
X151750000Y-98800000D01*
X151750000Y-95200000D01*
X154000000Y-94200000D01*
X156250000Y-95200000D01*
G36*
X156250000Y-95200000D02*
G01*
X156250000Y-98800000D01*
X154000000Y-99800000D01*
X151750000Y-98800000D01*
X151750000Y-95200000D01*
X154000000Y-94200000D01*
X156250000Y-95200000D01*
G37*
X158250000Y-105700000D02*
X158250000Y-109300000D01*
X156000000Y-110300000D01*
X153750000Y-109300000D01*
X153750000Y-105700000D01*
X156000000Y-104700000D01*
X158250000Y-105700000D01*
G36*
X158250000Y-105700000D02*
G01*
X158250000Y-109300000D01*
X156000000Y-110300000D01*
X153750000Y-109300000D01*
X153750000Y-105700000D01*
X156000000Y-104700000D01*
X158250000Y-105700000D01*
G37*
X158250000Y-113700000D02*
X158250000Y-117300000D01*
X156000000Y-118300000D01*
X153750000Y-117300000D01*
X153750000Y-113700000D01*
X156000000Y-112700000D01*
X158250000Y-113700000D01*
G36*
X158250000Y-113700000D02*
G01*
X158250000Y-117300000D01*
X156000000Y-118300000D01*
X153750000Y-117300000D01*
X153750000Y-113700000D01*
X156000000Y-112700000D01*
X158250000Y-113700000D01*
G37*
X158250000Y-121700000D02*
X158250000Y-125300000D01*
X156000000Y-126300000D01*
X153750000Y-125300000D01*
X153750000Y-121700000D01*
X156000000Y-120700000D01*
X158250000Y-121700000D01*
G36*
X158250000Y-121700000D02*
G01*
X158250000Y-125300000D01*
X156000000Y-126300000D01*
X153750000Y-125300000D01*
X153750000Y-121700000D01*
X156000000Y-120700000D01*
X158250000Y-121700000D01*
G37*
X158250000Y-129700000D02*
X158250000Y-133300000D01*
X156000000Y-134300000D01*
X153750000Y-133300000D01*
X153750000Y-129700000D01*
X156000000Y-128700000D01*
X158250000Y-129700000D01*
G36*
X158250000Y-129700000D02*
G01*
X158250000Y-133300000D01*
X156000000Y-134300000D01*
X153750000Y-133300000D01*
X153750000Y-129700000D01*
X156000000Y-128700000D01*
X158250000Y-129700000D01*
G37*
X166250000Y-105700000D02*
X166250000Y-109300000D01*
X164000000Y-110300000D01*
X161750000Y-109300000D01*
X161750000Y-105700000D01*
X164000000Y-104700000D01*
X166250000Y-105700000D01*
G36*
X166250000Y-105700000D02*
G01*
X166250000Y-109300000D01*
X164000000Y-110300000D01*
X161750000Y-109300000D01*
X161750000Y-105700000D01*
X164000000Y-104700000D01*
X166250000Y-105700000D01*
G37*
X166250000Y-113700000D02*
X166250000Y-117300000D01*
X164000000Y-118300000D01*
X161750000Y-117300000D01*
X161750000Y-113700000D01*
X164000000Y-112700000D01*
X166250000Y-113700000D01*
G36*
X166250000Y-113700000D02*
G01*
X166250000Y-117300000D01*
X164000000Y-118300000D01*
X161750000Y-117300000D01*
X161750000Y-113700000D01*
X164000000Y-112700000D01*
X166250000Y-113700000D01*
G37*
X166250000Y-121700000D02*
X166250000Y-125300000D01*
X164000000Y-126300000D01*
X161750000Y-125300000D01*
X161750000Y-121700000D01*
X164000000Y-120700000D01*
X166250000Y-121700000D01*
G36*
X166250000Y-121700000D02*
G01*
X166250000Y-125300000D01*
X164000000Y-126300000D01*
X161750000Y-125300000D01*
X161750000Y-121700000D01*
X164000000Y-120700000D01*
X166250000Y-121700000D01*
G37*
X166250000Y-129700000D02*
X166250000Y-133300000D01*
X164000000Y-134300000D01*
X161750000Y-133300000D01*
X161750000Y-129700000D01*
X164000000Y-128700000D01*
X166250000Y-129700000D01*
G36*
X166250000Y-129700000D02*
G01*
X166250000Y-133300000D01*
X164000000Y-134300000D01*
X161750000Y-133300000D01*
X161750000Y-129700000D01*
X164000000Y-128700000D01*
X166250000Y-129700000D01*
G37*
X174250000Y-105700000D02*
X174250000Y-109300000D01*
X172000000Y-110300000D01*
X169750000Y-109300000D01*
X169750000Y-105700000D01*
X172000000Y-104700000D01*
X174250000Y-105700000D01*
G36*
X174250000Y-105700000D02*
G01*
X174250000Y-109300000D01*
X172000000Y-110300000D01*
X169750000Y-109300000D01*
X169750000Y-105700000D01*
X172000000Y-104700000D01*
X174250000Y-105700000D01*
G37*
X174250000Y-113700000D02*
X174250000Y-117300000D01*
X172000000Y-118300000D01*
X169750000Y-117300000D01*
X169750000Y-113700000D01*
X172000000Y-112700000D01*
X174250000Y-113700000D01*
G36*
X174250000Y-113700000D02*
G01*
X174250000Y-117300000D01*
X172000000Y-118300000D01*
X169750000Y-117300000D01*
X169750000Y-113700000D01*
X172000000Y-112700000D01*
X174250000Y-113700000D01*
G37*
X174250000Y-121700000D02*
X174250000Y-125300000D01*
X172000000Y-126300000D01*
X169750000Y-125300000D01*
X169750000Y-121700000D01*
X172000000Y-120700000D01*
X174250000Y-121700000D01*
G36*
X174250000Y-121700000D02*
G01*
X174250000Y-125300000D01*
X172000000Y-126300000D01*
X169750000Y-125300000D01*
X169750000Y-121700000D01*
X172000000Y-120700000D01*
X174250000Y-121700000D01*
G37*
X174250000Y-129700000D02*
X174250000Y-133300000D01*
X172000000Y-134300000D01*
X169750000Y-133300000D01*
X169750000Y-129700000D01*
X172000000Y-128700000D01*
X174250000Y-129700000D01*
G36*
X174250000Y-129700000D02*
G01*
X174250000Y-133300000D01*
X172000000Y-134300000D01*
X169750000Y-133300000D01*
X169750000Y-129700000D01*
X172000000Y-128700000D01*
X174250000Y-129700000D01*
G37*
X182250000Y-105700000D02*
X182250000Y-109300000D01*
X180000000Y-110300000D01*
X177750000Y-109300000D01*
X177750000Y-105700000D01*
X180000000Y-104700000D01*
X182250000Y-105700000D01*
G36*
X182250000Y-105700000D02*
G01*
X182250000Y-109300000D01*
X180000000Y-110300000D01*
X177750000Y-109300000D01*
X177750000Y-105700000D01*
X180000000Y-104700000D01*
X182250000Y-105700000D01*
G37*
X182250000Y-113700000D02*
X182250000Y-117300000D01*
X180000000Y-118300000D01*
X177750000Y-117300000D01*
X177750000Y-113700000D01*
X180000000Y-112700000D01*
X182250000Y-113700000D01*
G36*
X182250000Y-113700000D02*
G01*
X182250000Y-117300000D01*
X180000000Y-118300000D01*
X177750000Y-117300000D01*
X177750000Y-113700000D01*
X180000000Y-112700000D01*
X182250000Y-113700000D01*
G37*
X182250000Y-121700000D02*
X182250000Y-125300000D01*
X180000000Y-126300000D01*
X177750000Y-125300000D01*
X177750000Y-121700000D01*
X180000000Y-120700000D01*
X182250000Y-121700000D01*
G36*
X182250000Y-121700000D02*
G01*
X182250000Y-125300000D01*
X180000000Y-126300000D01*
X177750000Y-125300000D01*
X177750000Y-121700000D01*
X180000000Y-120700000D01*
X182250000Y-121700000D01*
G37*
X182250000Y-129700000D02*
X182250000Y-133300000D01*
X180000000Y-134300000D01*
X177750000Y-133300000D01*
X177750000Y-129700000D01*
X180000000Y-128700000D01*
X182250000Y-129700000D01*
G36*
X182250000Y-129700000D02*
G01*
X182250000Y-133300000D01*
X180000000Y-134300000D01*
X177750000Y-133300000D01*
X177750000Y-129700000D01*
X180000000Y-128700000D01*
X182250000Y-129700000D01*
G37*
X194250000Y-96700000D02*
X194250000Y-100300000D01*
X192000000Y-101300000D01*
X189750000Y-100300000D01*
X189750000Y-96700000D01*
X192000000Y-95700000D01*
X194250000Y-96700000D01*
G36*
X194250000Y-96700000D02*
G01*
X194250000Y-100300000D01*
X192000000Y-101300000D01*
X189750000Y-100300000D01*
X189750000Y-96700000D01*
X192000000Y-95700000D01*
X194250000Y-96700000D01*
G37*
X194250000Y-107200000D02*
X194250000Y-110800000D01*
X192000000Y-111800000D01*
X189750000Y-110800000D01*
X189750000Y-107200000D01*
X192000000Y-106200000D01*
X194250000Y-107200000D01*
G36*
X194250000Y-107200000D02*
G01*
X194250000Y-110800000D01*
X192000000Y-111800000D01*
X189750000Y-110800000D01*
X189750000Y-107200000D01*
X192000000Y-106200000D01*
X194250000Y-107200000D01*
G37*
X194250000Y-117700000D02*
X194250000Y-121300000D01*
X192000000Y-122300000D01*
X189750000Y-121300000D01*
X189750000Y-117700000D01*
X192000000Y-116700000D01*
X194250000Y-117700000D01*
G36*
X194250000Y-117700000D02*
G01*
X194250000Y-121300000D01*
X192000000Y-122300000D01*
X189750000Y-121300000D01*
X189750000Y-117700000D01*
X192000000Y-116700000D01*
X194250000Y-117700000D01*
G37*
X194250000Y-128200000D02*
X194250000Y-131800000D01*
X192000000Y-132800000D01*
X189750000Y-131800000D01*
X189750000Y-128200000D01*
X192000000Y-127200000D01*
X194250000Y-128200000D01*
G36*
X194250000Y-128200000D02*
G01*
X194250000Y-131800000D01*
X192000000Y-132800000D01*
X189750000Y-131800000D01*
X189750000Y-128200000D01*
X192000000Y-127200000D01*
X194250000Y-128200000D01*
G37*
X202250000Y-96700000D02*
X202250000Y-100300000D01*
X200000000Y-101300000D01*
X197750000Y-100300000D01*
X197750000Y-96700000D01*
X200000000Y-95700000D01*
X202250000Y-96700000D01*
G36*
X202250000Y-96700000D02*
G01*
X202250000Y-100300000D01*
X200000000Y-101300000D01*
X197750000Y-100300000D01*
X197750000Y-96700000D01*
X200000000Y-95700000D01*
X202250000Y-96700000D01*
G37*
X202250000Y-107200000D02*
X202250000Y-110800000D01*
X200000000Y-111800000D01*
X197750000Y-110800000D01*
X197750000Y-107200000D01*
X200000000Y-106200000D01*
X202250000Y-107200000D01*
G36*
X202250000Y-107200000D02*
G01*
X202250000Y-110800000D01*
X200000000Y-111800000D01*
X197750000Y-110800000D01*
X197750000Y-107200000D01*
X200000000Y-106200000D01*
X202250000Y-107200000D01*
G37*
X202250000Y-117700000D02*
X202250000Y-121300000D01*
X200000000Y-122300000D01*
X197750000Y-121300000D01*
X197750000Y-117700000D01*
X200000000Y-116700000D01*
X202250000Y-117700000D01*
G36*
X202250000Y-117700000D02*
G01*
X202250000Y-121300000D01*
X200000000Y-122300000D01*
X197750000Y-121300000D01*
X197750000Y-117700000D01*
X200000000Y-116700000D01*
X202250000Y-117700000D01*
G37*
X202250000Y-128200000D02*
X202250000Y-131800000D01*
X200000000Y-132800000D01*
X197750000Y-131800000D01*
X197750000Y-128200000D01*
X200000000Y-127200000D01*
X202250000Y-128200000D01*
G36*
X202250000Y-128200000D02*
G01*
X202250000Y-131800000D01*
X200000000Y-132800000D01*
X197750000Y-131800000D01*
X197750000Y-128200000D01*
X200000000Y-127200000D01*
X202250000Y-128200000D01*
G37*
X210250000Y-96700000D02*
X210250000Y-100300000D01*
X208000000Y-101300000D01*
X205750000Y-100300000D01*
X205750000Y-96700000D01*
X208000000Y-95700000D01*
X210250000Y-96700000D01*
G36*
X210250000Y-96700000D02*
G01*
X210250000Y-100300000D01*
X208000000Y-101300000D01*
X205750000Y-100300000D01*
X205750000Y-96700000D01*
X208000000Y-95700000D01*
X210250000Y-96700000D01*
G37*
X210250000Y-107200000D02*
X210250000Y-110800000D01*
X208000000Y-111800000D01*
X205750000Y-110800000D01*
X205750000Y-107200000D01*
X208000000Y-106200000D01*
X210250000Y-107200000D01*
G36*
X210250000Y-107200000D02*
G01*
X210250000Y-110800000D01*
X208000000Y-111800000D01*
X205750000Y-110800000D01*
X205750000Y-107200000D01*
X208000000Y-106200000D01*
X210250000Y-107200000D01*
G37*
X210250000Y-117700000D02*
X210250000Y-121300000D01*
X208000000Y-122300000D01*
X205750000Y-121300000D01*
X205750000Y-117700000D01*
X208000000Y-116700000D01*
X210250000Y-117700000D01*
G36*
X210250000Y-117700000D02*
G01*
X210250000Y-121300000D01*
X208000000Y-122300000D01*
X205750000Y-121300000D01*
X205750000Y-117700000D01*
X208000000Y-116700000D01*
X210250000Y-117700000D01*
G37*
X210250000Y-128200000D02*
X210250000Y-131800000D01*
X208000000Y-132800000D01*
X205750000Y-131800000D01*
X205750000Y-128200000D01*
X208000000Y-127200000D01*
X210250000Y-128200000D01*
G36*
X210250000Y-128200000D02*
G01*
X210250000Y-131800000D01*
X208000000Y-132800000D01*
X205750000Y-131800000D01*
X205750000Y-128200000D01*
X208000000Y-127200000D01*
X210250000Y-128200000D01*
G37*
X218250000Y-96700000D02*
X218250000Y-100300000D01*
X216000000Y-101300000D01*
X213750000Y-100300000D01*
X213750000Y-96700000D01*
X216000000Y-95700000D01*
X218250000Y-96700000D01*
G36*
X218250000Y-96700000D02*
G01*
X218250000Y-100300000D01*
X216000000Y-101300000D01*
X213750000Y-100300000D01*
X213750000Y-96700000D01*
X216000000Y-95700000D01*
X218250000Y-96700000D01*
G37*
X218250000Y-107200000D02*
X218250000Y-110800000D01*
X216000000Y-111800000D01*
X213750000Y-110800000D01*
X213750000Y-107200000D01*
X216000000Y-106200000D01*
X218250000Y-107200000D01*
G36*
X218250000Y-107200000D02*
G01*
X218250000Y-110800000D01*
X216000000Y-111800000D01*
X213750000Y-110800000D01*
X213750000Y-107200000D01*
X216000000Y-106200000D01*
X218250000Y-107200000D01*
G37*
X218250000Y-117700000D02*
X218250000Y-121300000D01*
X216000000Y-122300000D01*
X213750000Y-121300000D01*
X213750000Y-117700000D01*
X216000000Y-116700000D01*
X218250000Y-117700000D01*
G36*
X218250000Y-117700000D02*
G01*
X218250000Y-121300000D01*
X216000000Y-122300000D01*
X213750000Y-121300000D01*
X213750000Y-117700000D01*
X216000000Y-116700000D01*
X218250000Y-117700000D01*
G37*
X218250000Y-128200000D02*
X218250000Y-131800000D01*
X216000000Y-132800000D01*
X213750000Y-131800000D01*
X213750000Y-128200000D01*
X216000000Y-127200000D01*
X218250000Y-128200000D01*
G36*
X218250000Y-128200000D02*
G01*
X218250000Y-131800000D01*
X216000000Y-132800000D01*
X213750000Y-131800000D01*
X213750000Y-128200000D01*
X216000000Y-127200000D01*
X218250000Y-128200000D01*
G37*
%TD*%
D12*
%TO.C,REF\u002A\u002A*%
X221000000Y-138000000D03*
D13*
X221000000Y-138000000D03*
%TD*%
D12*
%TO.C,REF\u002A\u002A*%
X79000000Y-138000000D03*
D13*
X79000000Y-138000000D03*
%TD*%
D12*
%TO.C,REF\u002A\u002A*%
X221000000Y-63000000D03*
D13*
X221000000Y-63000000D03*
%TD*%
D14*
%TO.C,J8*%
X183642000Y-69596000D03*
D15*
X183642000Y-72136000D03*
D16*
X186182000Y-69596000D03*
X186182000Y-72136000D03*
D15*
X188722000Y-69596000D03*
X188722000Y-72136000D03*
%TD*%
D17*
%TO.C,SW1*%
X84000000Y-107500000D03*
X84000000Y-115500000D03*
X84000000Y-123500000D03*
X84000000Y-131500000D03*
X92000000Y-107500000D03*
X92000000Y-115500000D03*
X92000000Y-123500000D03*
X92000000Y-131500000D03*
X94000000Y-97000000D03*
X100000000Y-107500000D03*
X100000000Y-115500000D03*
X100000000Y-123500000D03*
X100000000Y-131500000D03*
X216000000Y-98500000D03*
X216000000Y-109000000D03*
X216000000Y-119500000D03*
X216000000Y-130000000D03*
X108000000Y-107500000D03*
X108000000Y-115500000D03*
X108000000Y-123500000D03*
X108000000Y-131500000D03*
X208000000Y-98500000D03*
X208000000Y-109000000D03*
X208000000Y-119500000D03*
X208000000Y-130000000D03*
X116000000Y-107500000D03*
X116000000Y-115500000D03*
X116000000Y-123500000D03*
X117750000Y-131500000D03*
X127250000Y-131500000D03*
X136750000Y-131500000D03*
X146250000Y-131500000D03*
X200000000Y-98500000D03*
X200000000Y-109000000D03*
X200000000Y-119500000D03*
X200000000Y-130000000D03*
X124000000Y-107500000D03*
X124000000Y-115500000D03*
X124000000Y-123500000D03*
X192000000Y-98500000D03*
X192000000Y-109000000D03*
X192000000Y-119500000D03*
X192000000Y-130000000D03*
X109000000Y-97000000D03*
X132000000Y-107500000D03*
X132000000Y-115500000D03*
X132000000Y-123500000D03*
X180000000Y-107500000D03*
X180000000Y-115500000D03*
X180000000Y-123500000D03*
X180000000Y-131500000D03*
X124000000Y-97000000D03*
X140000000Y-107500000D03*
X140000000Y-115500000D03*
X140000000Y-123500000D03*
X172000000Y-107500000D03*
X172000000Y-115500000D03*
X172000000Y-123500000D03*
X172000000Y-131500000D03*
X139000000Y-97000000D03*
X148000000Y-107500000D03*
X148000000Y-115500000D03*
X148000000Y-123500000D03*
X164000000Y-107500000D03*
X164000000Y-115500000D03*
X164000000Y-123500000D03*
X164000000Y-131500000D03*
X154000000Y-97000000D03*
X156000000Y-107500000D03*
X156000000Y-115500000D03*
X156000000Y-123500000D03*
X156000000Y-131500000D03*
D18*
X94000000Y-94500000D03*
X109000000Y-94500000D03*
X124000000Y-94500000D03*
X139000000Y-94500000D03*
X154000000Y-94500000D03*
X192000000Y-96000000D03*
X200000000Y-96000000D03*
X208000000Y-96000000D03*
X216000000Y-96000000D03*
X84000000Y-105000000D03*
X92000000Y-105000000D03*
X100000000Y-105000000D03*
X108000000Y-105000000D03*
X116000000Y-105000000D03*
X124000000Y-105000000D03*
X132000000Y-105000000D03*
X140000000Y-105000000D03*
X148000000Y-105000000D03*
X156000000Y-105000000D03*
X84000000Y-113000000D03*
X92000000Y-113000000D03*
X100000000Y-113000000D03*
X108000000Y-113000000D03*
X116000000Y-113000000D03*
X124000000Y-113000000D03*
X132000000Y-113000000D03*
X140000000Y-113000000D03*
X148000000Y-113000000D03*
X156000000Y-113000000D03*
X84000000Y-121000000D03*
X92000000Y-121000000D03*
X100000000Y-121000000D03*
X108000000Y-121000000D03*
X116000000Y-121000000D03*
X124000000Y-121000000D03*
X132000000Y-121000000D03*
X140000000Y-121000000D03*
X148000000Y-121000000D03*
X156000000Y-121000000D03*
X84000000Y-129000000D03*
X92000000Y-129000000D03*
X100000000Y-129000000D03*
X108000000Y-129000000D03*
X117750000Y-129000000D03*
X127250000Y-129000000D03*
X136750000Y-129000000D03*
X146250000Y-129000000D03*
X156000000Y-129000000D03*
X164000000Y-129000000D03*
X172000000Y-129000000D03*
X180000000Y-129000000D03*
X164000000Y-105000000D03*
X172000000Y-105000000D03*
X180000000Y-105000000D03*
X192000000Y-106500000D03*
X200000000Y-106500000D03*
X208000000Y-106500000D03*
X216000000Y-106500000D03*
X164000000Y-113000000D03*
X172000000Y-113000000D03*
X180000000Y-113000000D03*
X192000000Y-117000000D03*
X200000000Y-117000000D03*
X208000000Y-117000000D03*
X216000000Y-117000000D03*
X164000000Y-121000000D03*
X172000000Y-121000000D03*
X180000000Y-121000000D03*
X192000000Y-127500000D03*
X200000000Y-127500000D03*
X208000000Y-127500000D03*
X216000000Y-127500000D03*
%TD*%
D19*
%TO.C,J7*%
X81280000Y-71120000D03*
D20*
X81280000Y-73660000D03*
X81280000Y-76200000D03*
%TD*%
D21*
%TO.C,REF\u002A\u002A*%
X186000000Y-124750000D03*
%TD*%
%TO.C,REF\u002A\u002A*%
X186000000Y-103750000D03*
%TD*%
D12*
%TO.C,REF\u002A\u002A*%
X79000000Y-63000000D03*
D13*
X79000000Y-63000000D03*
%TD*%
D19*
%TO.C,J6*%
X195580000Y-66040000D03*
D20*
X195580000Y-68580000D03*
X195580000Y-71120000D03*
X195580000Y-73660000D03*
%TD*%
D22*
%TO.C,SW3*%
X78310000Y-81320000D03*
D23*
X78310000Y-83820000D03*
X78310000Y-86320000D03*
X81710000Y-81320000D03*
X81710000Y-83820000D03*
X81710000Y-86320000D03*
%TD*%
D24*
%TO.C,J1*%
X217300000Y-80930000D03*
X217300000Y-86710000D03*
D25*
X216800000Y-79500000D03*
X216800000Y-88140000D03*
D26*
X220980000Y-79500000D03*
X220980000Y-88140000D03*
%TD*%
D27*
%TO.C,J3*%
X204520000Y-62350000D03*
X209920000Y-62350000D03*
%TD*%
M02*
