%TF.GenerationSoftware,KiCad,Pcbnew,9.0.3*%
%TF.CreationDate,2025-10-17T08:06:55+02:00*%
%TF.ProjectId,communicator_pcb,636f6d6d-756e-4696-9361-746f725f7063,rev?*%
%TF.SameCoordinates,Original*%
%TF.FileFunction,Soldermask,Bot*%
%TF.FilePolarity,Negative*%
%FSLAX46Y46*%
G04 Gerber Fmt 4.6, Leading zero omitted, Abs format (unit mm)*
G04 Created by KiCad (PCBNEW 9.0.3) date 2025-10-17 08:06:55*
%MOMM*%
%LPD*%
G01*
G04 APERTURE LIST*
G04 Aperture macros list*
%AMRoundRect*
0 Rectangle with rounded corners*
0 $1 Rounding radius*
0 $2 $3 $4 $5 $6 $7 $8 $9 X,Y pos of 4 corners*
0 Add a 4 corners polygon primitive as box body*
4,1,4,$2,$3,$4,$5,$6,$7,$8,$9,$2,$3,0*
0 Add four circle primitives for the rounded corners*
1,1,$1+$1,$2,$3*
1,1,$1+$1,$4,$5*
1,1,$1+$1,$6,$7*
1,1,$1+$1,$8,$9*
0 Add four rect primitives between the rounded corners*
20,1,$1+$1,$2,$3,$4,$5,0*
20,1,$1+$1,$4,$5,$6,$7,0*
20,1,$1+$1,$6,$7,$8,$9,0*
20,1,$1+$1,$8,$9,$2,$3,0*%
%AMFreePoly0*
4,1,23,0.500000,-0.750000,0.000000,-0.750000,0.000000,-0.745722,-0.065263,-0.745722,-0.191342,-0.711940,-0.304381,-0.646677,-0.396677,-0.554381,-0.461940,-0.441342,-0.495722,-0.315263,-0.495722,-0.250000,-0.500000,-0.250000,-0.500000,0.250000,-0.495722,0.250000,-0.495722,0.315263,-0.461940,0.441342,-0.396677,0.554381,-0.304381,0.646677,-0.191342,0.711940,-0.065263,0.745722,0.000000,0.745722,
0.000000,0.750000,0.500000,0.750000,0.500000,-0.750000,0.500000,-0.750000,$1*%
%AMFreePoly1*
4,1,23,0.000000,0.745722,0.065263,0.745722,0.191342,0.711940,0.304381,0.646677,0.396677,0.554381,0.461940,0.441342,0.495722,0.315263,0.495722,0.250000,0.500000,0.250000,0.500000,-0.250000,0.495722,-0.250000,0.495722,-0.315263,0.461940,-0.441342,0.396677,-0.554381,0.304381,-0.646677,0.191342,-0.711940,0.065263,-0.745722,0.000000,-0.745722,0.000000,-0.750000,-0.500000,-0.750000,
-0.500000,0.750000,0.000000,0.750000,0.000000,0.745722,0.000000,0.745722,$1*%
G04 Aperture macros list end*
%ADD10C,3.400000*%
%ADD11C,5.000000*%
%ADD12R,1.727200X1.727200*%
%ADD13C,1.727200*%
%ADD14O,1.727200X1.727200*%
%ADD15R,1.700000X1.700000*%
%ADD16C,1.700000*%
%ADD17C,2.200000*%
%ADD18RoundRect,0.200000X-0.200000X-0.275000X0.200000X-0.275000X0.200000X0.275000X-0.200000X0.275000X0*%
%ADD19FreePoly0,90.000000*%
%ADD20FreePoly1,90.000000*%
%ADD21RoundRect,0.243750X0.456250X-0.243750X0.456250X0.243750X-0.456250X0.243750X-0.456250X-0.243750X0*%
%ADD22RoundRect,0.200000X0.275000X-0.200000X0.275000X0.200000X-0.275000X0.200000X-0.275000X-0.200000X0*%
%ADD23RoundRect,0.200000X0.200000X0.275000X-0.200000X0.275000X-0.200000X-0.275000X0.200000X-0.275000X0*%
%ADD24RoundRect,0.237500X-0.250000X-0.237500X0.250000X-0.237500X0.250000X0.237500X-0.250000X0.237500X0*%
%ADD25RoundRect,0.102000X-0.704000X0.704000X-0.704000X-0.704000X0.704000X-0.704000X0.704000X0.704000X0*%
%ADD26C,1.612000*%
%ADD27C,2.000000*%
%ADD28RoundRect,0.112500X0.112500X-0.187500X0.112500X0.187500X-0.112500X0.187500X-0.112500X-0.187500X0*%
%ADD29C,0.650000*%
%ADD30RoundRect,0.102000X-0.570000X0.300000X-0.570000X-0.300000X0.570000X-0.300000X0.570000X0.300000X0*%
%ADD31RoundRect,0.102000X-0.570000X0.150000X-0.570000X-0.150000X0.570000X-0.150000X0.570000X0.150000X0*%
%ADD32O,2.304000X1.254000*%
%ADD33O,2.004000X1.104000*%
%ADD34C,1.500000*%
%ADD35RoundRect,0.200000X-0.275000X0.200000X-0.275000X-0.200000X0.275000X-0.200000X0.275000X0.200000X0*%
%ADD36RoundRect,0.150000X0.150000X-0.512500X0.150000X0.512500X-0.150000X0.512500X-0.150000X-0.512500X0*%
%ADD37RoundRect,0.225000X0.225000X0.250000X-0.225000X0.250000X-0.225000X-0.250000X0.225000X-0.250000X0*%
%ADD38R,1.500000X0.900000*%
%ADD39R,0.900000X1.500000*%
%ADD40C,0.600000*%
%ADD41R,3.900000X3.900000*%
%ADD42RoundRect,0.225000X0.250000X-0.225000X0.250000X0.225000X-0.250000X0.225000X-0.250000X-0.225000X0*%
%ADD43RoundRect,0.300000X0.000010X-0.500000X0.000010X0.500000X-0.000010X0.500000X-0.000010X-0.500000X0*%
%ADD44RoundRect,0.225000X-0.250000X0.225000X-0.250000X-0.225000X0.250000X-0.225000X0.250000X0.225000X0*%
%ADD45RoundRect,0.102000X0.500000X0.450000X-0.500000X0.450000X-0.500000X-0.450000X0.500000X-0.450000X0*%
%ADD46RoundRect,0.102000X0.400000X0.300000X-0.400000X0.300000X-0.400000X-0.300000X0.400000X-0.300000X0*%
%ADD47RoundRect,0.237500X0.237500X-0.250000X0.237500X0.250000X-0.237500X0.250000X-0.237500X-0.250000X0*%
%ADD48RoundRect,0.062500X0.375000X0.062500X-0.375000X0.062500X-0.375000X-0.062500X0.375000X-0.062500X0*%
%ADD49RoundRect,0.062500X0.062500X0.375000X-0.062500X0.375000X-0.062500X-0.375000X0.062500X-0.375000X0*%
%ADD50R,2.500000X2.500000*%
%ADD51R,1.000000X1.250000*%
%ADD52RoundRect,0.150000X0.587500X0.150000X-0.587500X0.150000X-0.587500X-0.150000X0.587500X-0.150000X0*%
%ADD53RoundRect,0.150000X-0.512500X-0.150000X0.512500X-0.150000X0.512500X0.150000X-0.512500X0.150000X0*%
%ADD54RoundRect,0.102000X-0.750000X1.750000X-0.750000X-1.750000X0.750000X-1.750000X0.750000X1.750000X0*%
%ADD55RoundRect,0.102000X0.400000X-0.150000X0.400000X0.150000X-0.400000X0.150000X-0.400000X-0.150000X0*%
%ADD56RoundRect,0.102000X0.400000X-0.200000X0.400000X0.200000X-0.400000X0.200000X-0.400000X-0.200000X0*%
%ADD57RoundRect,0.237500X0.250000X0.237500X-0.250000X0.237500X-0.250000X-0.237500X0.250000X-0.237500X0*%
%ADD58RoundRect,0.250000X1.500000X-0.250000X1.500000X0.250000X-1.500000X0.250000X-1.500000X-0.250000X0*%
%ADD59RoundRect,0.250001X1.449999X-0.499999X1.449999X0.499999X-1.449999X0.499999X-1.449999X-0.499999X0*%
G04 APERTURE END LIST*
%TO.C,JP1*%
G36*
X205900000Y-67950000D02*
G01*
X204400000Y-67950000D01*
X204400000Y-67650000D01*
X205900000Y-67650000D01*
X205900000Y-67950000D01*
G37*
%TD*%
D10*
%TO.C,REF\u002A\u002A*%
X221000000Y-138000000D03*
D11*
X221000000Y-138000000D03*
%TD*%
D10*
%TO.C,REF\u002A\u002A*%
X79000000Y-138000000D03*
D11*
X79000000Y-138000000D03*
%TD*%
D10*
%TO.C,REF\u002A\u002A*%
X221000000Y-63000000D03*
D11*
X221000000Y-63000000D03*
%TD*%
D12*
%TO.C,J8*%
X183642000Y-69596000D03*
D13*
X183642000Y-72136000D03*
D14*
X186182000Y-69596000D03*
X186182000Y-72136000D03*
D13*
X188722000Y-69596000D03*
X188722000Y-72136000D03*
%TD*%
D15*
%TO.C,J7*%
X81280000Y-71120000D03*
D16*
X81280000Y-73660000D03*
X81280000Y-76200000D03*
%TD*%
D17*
%TO.C,REF\u002A\u002A*%
X186000000Y-124750000D03*
%TD*%
%TO.C,REF\u002A\u002A*%
X186000000Y-103750000D03*
%TD*%
D10*
%TO.C,REF\u002A\u002A*%
X79000000Y-63000000D03*
D11*
X79000000Y-63000000D03*
%TD*%
D15*
%TO.C,J6*%
X195580000Y-66040000D03*
D16*
X195580000Y-68580000D03*
X195580000Y-71120000D03*
X195580000Y-73660000D03*
%TD*%
D18*
%TO.C,R2*%
X217107000Y-77470000D03*
X218757000Y-77470000D03*
%TD*%
D19*
%TO.C,JP1*%
X205150000Y-68450000D03*
D20*
X205150000Y-67150000D03*
%TD*%
D21*
%TO.C,D2*%
X197551000Y-92626000D03*
X197551000Y-90751000D03*
%TD*%
D22*
%TO.C,R9*%
X197297000Y-89020500D03*
X197297000Y-87370500D03*
%TD*%
D23*
%TO.C,R19*%
X166737800Y-92202000D03*
X165087800Y-92202000D03*
%TD*%
D24*
%TO.C,R6*%
X209907500Y-68580000D03*
X211732500Y-68580000D03*
%TD*%
D25*
%TO.C,SW3*%
X78310000Y-81320000D03*
D26*
X78310000Y-83820000D03*
X78310000Y-86320000D03*
X81710000Y-81320000D03*
X81710000Y-83820000D03*
X81710000Y-86320000D03*
%TD*%
D27*
%TO.C,REF\u002A\u002A*%
X213500000Y-136250000D03*
%TD*%
D28*
%TO.C,D3*%
X204355000Y-91743500D03*
X204355000Y-89643500D03*
%TD*%
D29*
%TO.C,J1*%
X217300000Y-80930000D03*
X217300000Y-86710000D03*
D30*
X216230000Y-80620000D03*
X216230000Y-81420000D03*
D31*
X216230000Y-82570000D03*
X216230000Y-83570000D03*
X216230000Y-84070000D03*
X216230000Y-85070000D03*
D30*
X216230000Y-87020000D03*
X216230000Y-86220000D03*
D31*
X216230000Y-85570000D03*
X216230000Y-84570000D03*
X216230000Y-83070000D03*
X216230000Y-82070000D03*
D32*
X216800000Y-79500000D03*
X216800000Y-88140000D03*
D33*
X220980000Y-79500000D03*
X220980000Y-88140000D03*
%TD*%
D34*
%TO.C,TP1*%
X152400000Y-87630000D03*
%TD*%
D23*
%TO.C,R5*%
X150177000Y-69215000D03*
X148527000Y-69215000D03*
%TD*%
D35*
%TO.C,R14*%
X176530000Y-69025000D03*
X176530000Y-70675000D03*
%TD*%
D34*
%TO.C,TP2*%
X152400000Y-90678000D03*
%TD*%
D36*
%TO.C,U2*%
X195326000Y-92445000D03*
X194376000Y-92445000D03*
X193426000Y-92445000D03*
X193426000Y-90170000D03*
X195326000Y-90170000D03*
%TD*%
D22*
%TO.C,R12*%
X162560000Y-90233000D03*
X162560000Y-88583000D03*
%TD*%
D37*
%TO.C,C5*%
X206310800Y-94571100D03*
X204760800Y-94571100D03*
%TD*%
D35*
%TO.C,R10*%
X199075000Y-87370500D03*
X199075000Y-89020500D03*
%TD*%
D38*
%TO.C,U1*%
X172158000Y-67718000D03*
X172158000Y-68988000D03*
X172158000Y-70258000D03*
X172158000Y-71528000D03*
X172158000Y-72798000D03*
X172158000Y-74068000D03*
X172158000Y-75338000D03*
X172158000Y-76608000D03*
X172158000Y-77878000D03*
X172158000Y-79148000D03*
X172158000Y-80418000D03*
X172158000Y-81688000D03*
X172158000Y-82958000D03*
X172158000Y-84228000D03*
D39*
X170393000Y-85478000D03*
X169123000Y-85478000D03*
X167853000Y-85478000D03*
X166583000Y-85478000D03*
X165313000Y-85478000D03*
X164043000Y-85478000D03*
X162773000Y-85478000D03*
X161503000Y-85478000D03*
X160233000Y-85478000D03*
X158963000Y-85478000D03*
X157693000Y-85478000D03*
X156423000Y-85478000D03*
D38*
X154658000Y-84228000D03*
X154658000Y-82958000D03*
X154658000Y-81688000D03*
X154658000Y-80418000D03*
X154658000Y-79148000D03*
X154658000Y-77878000D03*
X154658000Y-76608000D03*
X154658000Y-75338000D03*
X154658000Y-74068000D03*
X154658000Y-72798000D03*
X154658000Y-71528000D03*
X154658000Y-70258000D03*
X154658000Y-68988000D03*
X154658000Y-67718000D03*
D40*
X166308000Y-76138000D03*
X166308000Y-74738000D03*
X165608000Y-76838000D03*
X165608000Y-75438000D03*
X165608000Y-74038000D03*
X164908000Y-76138000D03*
D41*
X164908000Y-75438000D03*
D40*
X164908000Y-74738000D03*
X164208000Y-76838000D03*
X164208000Y-75438000D03*
X164208000Y-74038000D03*
X163508000Y-76138000D03*
X163508000Y-74738000D03*
%TD*%
D42*
%TO.C,C8*%
X198930000Y-81280000D03*
X198930000Y-79730000D03*
%TD*%
D43*
%TO.C,M1*%
X210312000Y-81266000D03*
X209042000Y-81266000D03*
X207772000Y-81266000D03*
X206502000Y-81266000D03*
X205232000Y-81266000D03*
X203962000Y-81266000D03*
X202692000Y-81266000D03*
X201422000Y-81266000D03*
X205232000Y-70866000D03*
X206502000Y-70866000D03*
X207772000Y-70866000D03*
X209042000Y-70866000D03*
%TD*%
D44*
%TO.C,C1*%
X174244000Y-67437000D03*
X174244000Y-68987000D03*
%TD*%
D18*
%TO.C,R18*%
X156020000Y-87630000D03*
X157670000Y-87630000D03*
%TD*%
D45*
%TO.C,D1*%
X125579000Y-62230000D03*
X122579000Y-62230000D03*
D46*
X124079000Y-62380000D03*
%TD*%
D47*
%TO.C,R4*%
X207772000Y-68476500D03*
X207772000Y-66651500D03*
%TD*%
D42*
%TO.C,C6*%
X212410000Y-92958500D03*
X212410000Y-91408500D03*
%TD*%
%TO.C,C4*%
X191401000Y-94215500D03*
X191401000Y-92665500D03*
%TD*%
D48*
%TO.C,U4*%
X165533500Y-95270000D03*
X165533500Y-95770000D03*
X165533500Y-96270000D03*
X165533500Y-96770000D03*
X165533500Y-97270000D03*
X165533500Y-97770000D03*
D49*
X164846000Y-98457500D03*
X164346000Y-98457500D03*
X163846000Y-98457500D03*
X163346000Y-98457500D03*
X162846000Y-98457500D03*
X162346000Y-98457500D03*
D48*
X161658500Y-97770000D03*
X161658500Y-97270000D03*
X161658500Y-96770000D03*
X161658500Y-96270000D03*
X161658500Y-95770000D03*
X161658500Y-95270000D03*
D49*
X162346000Y-94582500D03*
X162846000Y-94582500D03*
X163346000Y-94582500D03*
X163846000Y-94582500D03*
X164346000Y-94582500D03*
X164846000Y-94582500D03*
D50*
X163596000Y-96520000D03*
%TD*%
D51*
%TO.C,SW2*%
X182880000Y-83885000D03*
X182880000Y-76135000D03*
%TD*%
D52*
%TO.C,Q2*%
X202123000Y-89656500D03*
X202123000Y-91556500D03*
X200248000Y-90606500D03*
%TD*%
D53*
%TO.C,U3*%
X208224500Y-93133500D03*
X208224500Y-92183500D03*
X208224500Y-91233500D03*
X210499500Y-91233500D03*
X210499500Y-93133500D03*
%TD*%
D42*
%TO.C,C9*%
X146177000Y-75438000D03*
X146177000Y-73888000D03*
%TD*%
D23*
%TO.C,R17*%
X187642000Y-76149200D03*
X185992000Y-76149200D03*
%TD*%
%TO.C,R1*%
X130682000Y-62230000D03*
X129032000Y-62230000D03*
%TD*%
D22*
%TO.C,R11*%
X206310800Y-93020700D03*
X206310800Y-91370700D03*
%TD*%
D23*
%TO.C,R3*%
X218757000Y-90170000D03*
X217107000Y-90170000D03*
%TD*%
D54*
%TO.C,J3*%
X207220000Y-62350000D03*
X204520000Y-62350000D03*
X209920000Y-62350000D03*
%TD*%
D55*
%TO.C,J2*%
X143000000Y-74450000D03*
X143000000Y-74950000D03*
X143000000Y-75450000D03*
X143000000Y-75950000D03*
X143000000Y-76450000D03*
X143000000Y-76950000D03*
X143000000Y-77450000D03*
X143000000Y-77950000D03*
X143000000Y-78450000D03*
X143000000Y-78950000D03*
D56*
X140500000Y-73450000D03*
X140500000Y-79950000D03*
%TD*%
D22*
%TO.C,R13*%
X160528000Y-90233000D03*
X160528000Y-88583000D03*
%TD*%
D35*
%TO.C,R8*%
X191401000Y-89263500D03*
X191401000Y-90913500D03*
%TD*%
%TO.C,R15*%
X178308000Y-69025000D03*
X178308000Y-70675000D03*
%TD*%
D52*
%TO.C,Q1*%
X146050000Y-69220000D03*
X146050000Y-71120000D03*
X144175000Y-70170000D03*
%TD*%
D37*
%TO.C,C7*%
X163043200Y-92202000D03*
X161493200Y-92202000D03*
%TD*%
D22*
%TO.C,R7*%
X142000500Y-70296000D03*
X142000500Y-68646000D03*
%TD*%
D57*
%TO.C,R16*%
X211732500Y-66675000D03*
X209907500Y-66675000D03*
%TD*%
D27*
%TO.C,REF\u002A\u002A*%
X92750000Y-63000000D03*
%TD*%
D58*
%TO.C,J4*%
X187850000Y-96000000D03*
X187850000Y-94000000D03*
D59*
X182100000Y-98350000D03*
X182100000Y-91650000D03*
%TD*%
M02*
