%TF.GenerationSoftware,KiCad,Pcbnew,9.0.3*%
%TF.CreationDate,2025-10-17T08:06:56+02:00*%
%TF.ProjectId,communicator_pcb,636f6d6d-756e-4696-9361-746f725f7063,rev?*%
%TF.SameCoordinates,Original*%
%TF.FileFunction,Profile,NP*%
%FSLAX46Y46*%
G04 Gerber Fmt 4.6, Leading zero omitted, Abs format (unit mm)*
G04 Created by KiCad (PCBNEW 9.0.3) date 2025-10-17 08:06:56*
%MOMM*%
%LPD*%
G01*
G04 APERTURE LIST*
%TA.AperFunction,Profile*%
%ADD10C,0.160000*%
%TD*%
%TA.AperFunction,Profile*%
%ADD11C,0.100000*%
%TD*%
G04 APERTURE END LIST*
D10*
X222500000Y-78959191D02*
X222500000Y-88847082D01*
X76000000Y-90139356D02*
G75*
G02*
X76537030Y-89254724I997200J-44D01*
G01*
X76000000Y-90139356D02*
X76000000Y-138000000D01*
X223250001Y-89597082D02*
G75*
G02*
X222500018Y-88847082I-1J749982D01*
G01*
X88120000Y-68087200D02*
X88120000Y-84544578D01*
X223250001Y-89597082D02*
G75*
G02*
X224000018Y-90347082I-1J-750018D01*
G01*
X86620000Y-68087200D02*
X86620000Y-84544578D01*
X224000003Y-138000000D02*
G75*
G02*
X221000003Y-141000003I-3000003J0D01*
G01*
X87000000Y-64000000D02*
G75*
G02*
X82000000Y-64000000I-2500000J0D01*
G01*
X82000000Y-64000000D02*
G75*
G02*
X87000000Y-64000000I2500000J0D01*
G01*
X221500000Y-60000000D02*
X78500000Y-60000000D01*
X76537006Y-78230504D02*
G75*
G02*
X75999997Y-77191009I737594J1039504D01*
G01*
X224000003Y-138000000D02*
X224000003Y-90347082D01*
X222500000Y-78959191D02*
G75*
G02*
X223250000Y-78209200I750000J-9D01*
G01*
X77074012Y-88370000D02*
G75*
G02*
X76537003Y-89254672I-997212J0D01*
G01*
X76000000Y-62500000D02*
X76000000Y-77191009D01*
X221500000Y-60000000D02*
G75*
G02*
X224000000Y-62500000I0J-2500000D01*
G01*
X88120000Y-84544578D02*
G75*
G02*
X86620000Y-84544578I-750000J0D01*
G01*
X79000000Y-141000000D02*
X221000003Y-141000000D01*
X76537006Y-78230504D02*
G75*
G02*
X77074004Y-79270000I-737606J-1039496D01*
G01*
X77074012Y-88370000D02*
X77074012Y-79270000D01*
X79000000Y-141000000D02*
G75*
G02*
X76000000Y-138000000I0J3000000D01*
G01*
X76000000Y-62500000D02*
G75*
G02*
X78500000Y-60000000I2500000J0D01*
G01*
X224000000Y-77459191D02*
X224000000Y-62500000D01*
X224000000Y-77459191D02*
G75*
G02*
X223250000Y-78209200I-750000J-9D01*
G01*
X218000000Y-64000000D02*
G75*
G02*
X213000000Y-64000000I-2500000J0D01*
G01*
X213000000Y-64000000D02*
G75*
G02*
X218000000Y-64000000I2500000J0D01*
G01*
X86620000Y-68087200D02*
G75*
G02*
X88120000Y-68087200I750000J0D01*
G01*
D11*
%TO.C,SW1*%
X81650000Y-94000000D02*
G75*
G02*
X80350000Y-94000000I-650000J0D01*
G01*
X80350000Y-94000000D02*
G75*
G02*
X81650000Y-94000000I650000J0D01*
G01*
X187000000Y-103750000D02*
G75*
G02*
X185000000Y-103750000I-1000000J0D01*
G01*
X185000000Y-103750000D02*
G75*
G02*
X187000000Y-103750000I1000000J0D01*
G01*
X187000000Y-124750000D02*
G75*
G02*
X185000000Y-124750000I-1000000J0D01*
G01*
X185000000Y-124750000D02*
G75*
G02*
X187000000Y-124750000I1000000J0D01*
G01*
X219650000Y-134000000D02*
G75*
G02*
X218350000Y-134000000I-650000J0D01*
G01*
X218350000Y-134000000D02*
G75*
G02*
X219650000Y-134000000I650000J0D01*
G01*
%TD*%
M02*
