%TF.GenerationSoftware,KiCad,Pcbnew,9.0.3*%
%TF.CreationDate,2025-10-17T08:06:55+02:00*%
%TF.ProjectId,communicator_pcb,636f6d6d-756e-4696-9361-746f725f7063,rev?*%
%TF.SameCoordinates,Original*%
%TF.FileFunction,Legend,Top*%
%TF.FilePolarity,Positive*%
%FSLAX46Y46*%
G04 Gerber Fmt 4.6, Leading zero omitted, Abs format (unit mm)*
G04 Created by KiCad (PCBNEW 9.0.3) date 2025-10-17 08:06:55*
%MOMM*%
%LPD*%
G01*
G04 APERTURE LIST*
%ADD10C,0.100000*%
%ADD11C,0.150000*%
%ADD12C,0.500000*%
%ADD13C,0.120000*%
G04 APERTURE END LIST*
D10*
X87999200Y-64799400D02*
X157429200Y-64799400D01*
X157429200Y-89179400D01*
X87999200Y-89179400D01*
X87999200Y-64799400D01*
D11*
X186589200Y-65750839D02*
X186636819Y-65607982D01*
X186636819Y-65607982D02*
X186636819Y-65369887D01*
X186636819Y-65369887D02*
X186589200Y-65274649D01*
X186589200Y-65274649D02*
X186541580Y-65227030D01*
X186541580Y-65227030D02*
X186446342Y-65179411D01*
X186446342Y-65179411D02*
X186351104Y-65179411D01*
X186351104Y-65179411D02*
X186255866Y-65227030D01*
X186255866Y-65227030D02*
X186208247Y-65274649D01*
X186208247Y-65274649D02*
X186160628Y-65369887D01*
X186160628Y-65369887D02*
X186113009Y-65560363D01*
X186113009Y-65560363D02*
X186065390Y-65655601D01*
X186065390Y-65655601D02*
X186017771Y-65703220D01*
X186017771Y-65703220D02*
X185922533Y-65750839D01*
X185922533Y-65750839D02*
X185827295Y-65750839D01*
X185827295Y-65750839D02*
X185732057Y-65703220D01*
X185732057Y-65703220D02*
X185684438Y-65655601D01*
X185684438Y-65655601D02*
X185636819Y-65560363D01*
X185636819Y-65560363D02*
X185636819Y-65322268D01*
X185636819Y-65322268D02*
X185684438Y-65179411D01*
X186636819Y-64750839D02*
X185636819Y-64750839D01*
X185636819Y-64750839D02*
X185636819Y-64512744D01*
X185636819Y-64512744D02*
X185684438Y-64369887D01*
X185684438Y-64369887D02*
X185779676Y-64274649D01*
X185779676Y-64274649D02*
X185874914Y-64227030D01*
X185874914Y-64227030D02*
X186065390Y-64179411D01*
X186065390Y-64179411D02*
X186208247Y-64179411D01*
X186208247Y-64179411D02*
X186398723Y-64227030D01*
X186398723Y-64227030D02*
X186493961Y-64274649D01*
X186493961Y-64274649D02*
X186589200Y-64369887D01*
X186589200Y-64369887D02*
X186636819Y-64512744D01*
X186636819Y-64512744D02*
X186636819Y-64750839D01*
X186351104Y-63798458D02*
X186351104Y-63322268D01*
X186636819Y-63893696D02*
X185636819Y-63560363D01*
X185636819Y-63560363D02*
X186636819Y-63227030D01*
X186589200Y-77092112D02*
X186636819Y-76949255D01*
X186636819Y-76949255D02*
X186636819Y-76711160D01*
X186636819Y-76711160D02*
X186589200Y-76615922D01*
X186589200Y-76615922D02*
X186541580Y-76568303D01*
X186541580Y-76568303D02*
X186446342Y-76520684D01*
X186446342Y-76520684D02*
X186351104Y-76520684D01*
X186351104Y-76520684D02*
X186255866Y-76568303D01*
X186255866Y-76568303D02*
X186208247Y-76615922D01*
X186208247Y-76615922D02*
X186160628Y-76711160D01*
X186160628Y-76711160D02*
X186113009Y-76901636D01*
X186113009Y-76901636D02*
X186065390Y-76996874D01*
X186065390Y-76996874D02*
X186017771Y-77044493D01*
X186017771Y-77044493D02*
X185922533Y-77092112D01*
X185922533Y-77092112D02*
X185827295Y-77092112D01*
X185827295Y-77092112D02*
X185732057Y-77044493D01*
X185732057Y-77044493D02*
X185684438Y-76996874D01*
X185684438Y-76996874D02*
X185636819Y-76901636D01*
X185636819Y-76901636D02*
X185636819Y-76663541D01*
X185636819Y-76663541D02*
X185684438Y-76520684D01*
X186541580Y-75520684D02*
X186589200Y-75568303D01*
X186589200Y-75568303D02*
X186636819Y-75711160D01*
X186636819Y-75711160D02*
X186636819Y-75806398D01*
X186636819Y-75806398D02*
X186589200Y-75949255D01*
X186589200Y-75949255D02*
X186493961Y-76044493D01*
X186493961Y-76044493D02*
X186398723Y-76092112D01*
X186398723Y-76092112D02*
X186208247Y-76139731D01*
X186208247Y-76139731D02*
X186065390Y-76139731D01*
X186065390Y-76139731D02*
X185874914Y-76092112D01*
X185874914Y-76092112D02*
X185779676Y-76044493D01*
X185779676Y-76044493D02*
X185684438Y-75949255D01*
X185684438Y-75949255D02*
X185636819Y-75806398D01*
X185636819Y-75806398D02*
X185636819Y-75711160D01*
X185636819Y-75711160D02*
X185684438Y-75568303D01*
X185684438Y-75568303D02*
X185732057Y-75520684D01*
X186636819Y-74615922D02*
X186636819Y-75092112D01*
X186636819Y-75092112D02*
X185636819Y-75092112D01*
X197440779Y-71574819D02*
X197440779Y-70574819D01*
X198107445Y-70574819D02*
X198297921Y-70574819D01*
X198297921Y-70574819D02*
X198393159Y-70622438D01*
X198393159Y-70622438D02*
X198488397Y-70717676D01*
X198488397Y-70717676D02*
X198536016Y-70908152D01*
X198536016Y-70908152D02*
X198536016Y-71241485D01*
X198536016Y-71241485D02*
X198488397Y-71431961D01*
X198488397Y-71431961D02*
X198393159Y-71527200D01*
X198393159Y-71527200D02*
X198297921Y-71574819D01*
X198297921Y-71574819D02*
X198107445Y-71574819D01*
X198107445Y-71574819D02*
X198012207Y-71527200D01*
X198012207Y-71527200D02*
X197916969Y-71431961D01*
X197916969Y-71431961D02*
X197869350Y-71241485D01*
X197869350Y-71241485D02*
X197869350Y-70908152D01*
X197869350Y-70908152D02*
X197916969Y-70717676D01*
X197916969Y-70717676D02*
X198012207Y-70622438D01*
X198012207Y-70622438D02*
X198107445Y-70574819D01*
X199488397Y-71574819D02*
X198916969Y-71574819D01*
X199202683Y-71574819D02*
X199202683Y-70574819D01*
X199202683Y-70574819D02*
X199107445Y-70717676D01*
X199107445Y-70717676D02*
X199012207Y-70812914D01*
X199012207Y-70812914D02*
X198916969Y-70860533D01*
X199869350Y-70670057D02*
X199916969Y-70622438D01*
X199916969Y-70622438D02*
X200012207Y-70574819D01*
X200012207Y-70574819D02*
X200250302Y-70574819D01*
X200250302Y-70574819D02*
X200345540Y-70622438D01*
X200345540Y-70622438D02*
X200393159Y-70670057D01*
X200393159Y-70670057D02*
X200440778Y-70765295D01*
X200440778Y-70765295D02*
X200440778Y-70860533D01*
X200440778Y-70860533D02*
X200393159Y-71003390D01*
X200393159Y-71003390D02*
X199821731Y-71574819D01*
X199821731Y-71574819D02*
X200440778Y-71574819D01*
X82997922Y-70574819D02*
X83569350Y-70574819D01*
X83283636Y-71574819D02*
X83283636Y-70574819D01*
X83807446Y-70574819D02*
X84474112Y-71574819D01*
X84474112Y-70574819D02*
X83807446Y-71574819D01*
X197964588Y-73162438D02*
X197869350Y-73114819D01*
X197869350Y-73114819D02*
X197726493Y-73114819D01*
X197726493Y-73114819D02*
X197583636Y-73162438D01*
X197583636Y-73162438D02*
X197488398Y-73257676D01*
X197488398Y-73257676D02*
X197440779Y-73352914D01*
X197440779Y-73352914D02*
X197393160Y-73543390D01*
X197393160Y-73543390D02*
X197393160Y-73686247D01*
X197393160Y-73686247D02*
X197440779Y-73876723D01*
X197440779Y-73876723D02*
X197488398Y-73971961D01*
X197488398Y-73971961D02*
X197583636Y-74067200D01*
X197583636Y-74067200D02*
X197726493Y-74114819D01*
X197726493Y-74114819D02*
X197821731Y-74114819D01*
X197821731Y-74114819D02*
X197964588Y-74067200D01*
X197964588Y-74067200D02*
X198012207Y-74019580D01*
X198012207Y-74019580D02*
X198012207Y-73686247D01*
X198012207Y-73686247D02*
X197821731Y-73686247D01*
X198440779Y-74114819D02*
X198440779Y-73114819D01*
X198440779Y-73114819D02*
X199012207Y-74114819D01*
X199012207Y-74114819D02*
X199012207Y-73114819D01*
X199488398Y-74114819D02*
X199488398Y-73114819D01*
X199488398Y-73114819D02*
X199726493Y-73114819D01*
X199726493Y-73114819D02*
X199869350Y-73162438D01*
X199869350Y-73162438D02*
X199964588Y-73257676D01*
X199964588Y-73257676D02*
X200012207Y-73352914D01*
X200012207Y-73352914D02*
X200059826Y-73543390D01*
X200059826Y-73543390D02*
X200059826Y-73686247D01*
X200059826Y-73686247D02*
X200012207Y-73876723D01*
X200012207Y-73876723D02*
X199964588Y-73971961D01*
X199964588Y-73971961D02*
X199869350Y-74067200D01*
X199869350Y-74067200D02*
X199726493Y-74114819D01*
X199726493Y-74114819D02*
X199488398Y-74114819D01*
X83672588Y-75702438D02*
X83577350Y-75654819D01*
X83577350Y-75654819D02*
X83434493Y-75654819D01*
X83434493Y-75654819D02*
X83291636Y-75702438D01*
X83291636Y-75702438D02*
X83196398Y-75797676D01*
X83196398Y-75797676D02*
X83148779Y-75892914D01*
X83148779Y-75892914D02*
X83101160Y-76083390D01*
X83101160Y-76083390D02*
X83101160Y-76226247D01*
X83101160Y-76226247D02*
X83148779Y-76416723D01*
X83148779Y-76416723D02*
X83196398Y-76511961D01*
X83196398Y-76511961D02*
X83291636Y-76607200D01*
X83291636Y-76607200D02*
X83434493Y-76654819D01*
X83434493Y-76654819D02*
X83529731Y-76654819D01*
X83529731Y-76654819D02*
X83672588Y-76607200D01*
X83672588Y-76607200D02*
X83720207Y-76559580D01*
X83720207Y-76559580D02*
X83720207Y-76226247D01*
X83720207Y-76226247D02*
X83529731Y-76226247D01*
X84148779Y-76654819D02*
X84148779Y-75654819D01*
X84148779Y-75654819D02*
X84720207Y-76654819D01*
X84720207Y-76654819D02*
X84720207Y-75654819D01*
X85196398Y-76654819D02*
X85196398Y-75654819D01*
X85196398Y-75654819D02*
X85434493Y-75654819D01*
X85434493Y-75654819D02*
X85577350Y-75702438D01*
X85577350Y-75702438D02*
X85672588Y-75797676D01*
X85672588Y-75797676D02*
X85720207Y-75892914D01*
X85720207Y-75892914D02*
X85767826Y-76083390D01*
X85767826Y-76083390D02*
X85767826Y-76226247D01*
X85767826Y-76226247D02*
X85720207Y-76416723D01*
X85720207Y-76416723D02*
X85672588Y-76511961D01*
X85672588Y-76511961D02*
X85577350Y-76607200D01*
X85577350Y-76607200D02*
X85434493Y-76654819D01*
X85434493Y-76654819D02*
X85196398Y-76654819D01*
X83712207Y-74114819D02*
X83378874Y-73638628D01*
X83140779Y-74114819D02*
X83140779Y-73114819D01*
X83140779Y-73114819D02*
X83521731Y-73114819D01*
X83521731Y-73114819D02*
X83616969Y-73162438D01*
X83616969Y-73162438D02*
X83664588Y-73210057D01*
X83664588Y-73210057D02*
X83712207Y-73305295D01*
X83712207Y-73305295D02*
X83712207Y-73448152D01*
X83712207Y-73448152D02*
X83664588Y-73543390D01*
X83664588Y-73543390D02*
X83616969Y-73591009D01*
X83616969Y-73591009D02*
X83521731Y-73638628D01*
X83521731Y-73638628D02*
X83140779Y-73638628D01*
X84045541Y-73114819D02*
X84712207Y-74114819D01*
X84712207Y-73114819D02*
X84045541Y-74114819D01*
X188224438Y-78234969D02*
X188176819Y-78330207D01*
X188176819Y-78330207D02*
X188176819Y-78473064D01*
X188176819Y-78473064D02*
X188224438Y-78615921D01*
X188224438Y-78615921D02*
X188319676Y-78711159D01*
X188319676Y-78711159D02*
X188414914Y-78758778D01*
X188414914Y-78758778D02*
X188605390Y-78806397D01*
X188605390Y-78806397D02*
X188748247Y-78806397D01*
X188748247Y-78806397D02*
X188938723Y-78758778D01*
X188938723Y-78758778D02*
X189033961Y-78711159D01*
X189033961Y-78711159D02*
X189129200Y-78615921D01*
X189129200Y-78615921D02*
X189176819Y-78473064D01*
X189176819Y-78473064D02*
X189176819Y-78377826D01*
X189176819Y-78377826D02*
X189129200Y-78234969D01*
X189129200Y-78234969D02*
X189081580Y-78187350D01*
X189081580Y-78187350D02*
X188748247Y-78187350D01*
X188748247Y-78187350D02*
X188748247Y-78377826D01*
X189176819Y-77758778D02*
X188176819Y-77758778D01*
X188176819Y-77758778D02*
X188176819Y-77377826D01*
X188176819Y-77377826D02*
X188224438Y-77282588D01*
X188224438Y-77282588D02*
X188272057Y-77234969D01*
X188272057Y-77234969D02*
X188367295Y-77187350D01*
X188367295Y-77187350D02*
X188510152Y-77187350D01*
X188510152Y-77187350D02*
X188605390Y-77234969D01*
X188605390Y-77234969D02*
X188653009Y-77282588D01*
X188653009Y-77282588D02*
X188700628Y-77377826D01*
X188700628Y-77377826D02*
X188700628Y-77758778D01*
X189176819Y-76758778D02*
X188176819Y-76758778D01*
X188176819Y-76092112D02*
X188176819Y-75901636D01*
X188176819Y-75901636D02*
X188224438Y-75806398D01*
X188224438Y-75806398D02*
X188319676Y-75711160D01*
X188319676Y-75711160D02*
X188510152Y-75663541D01*
X188510152Y-75663541D02*
X188843485Y-75663541D01*
X188843485Y-75663541D02*
X189033961Y-75711160D01*
X189033961Y-75711160D02*
X189129200Y-75806398D01*
X189129200Y-75806398D02*
X189176819Y-75901636D01*
X189176819Y-75901636D02*
X189176819Y-76092112D01*
X189176819Y-76092112D02*
X189129200Y-76187350D01*
X189129200Y-76187350D02*
X189033961Y-76282588D01*
X189033961Y-76282588D02*
X188843485Y-76330207D01*
X188843485Y-76330207D02*
X188510152Y-76330207D01*
X188510152Y-76330207D02*
X188319676Y-76282588D01*
X188319676Y-76282588D02*
X188224438Y-76187350D01*
X188224438Y-76187350D02*
X188176819Y-76092112D01*
X188272057Y-75282588D02*
X188224438Y-75234969D01*
X188224438Y-75234969D02*
X188176819Y-75139731D01*
X188176819Y-75139731D02*
X188176819Y-74901636D01*
X188176819Y-74901636D02*
X188224438Y-74806398D01*
X188224438Y-74806398D02*
X188272057Y-74758779D01*
X188272057Y-74758779D02*
X188367295Y-74711160D01*
X188367295Y-74711160D02*
X188462533Y-74711160D01*
X188462533Y-74711160D02*
X188605390Y-74758779D01*
X188605390Y-74758779D02*
X189176819Y-75330207D01*
X189176819Y-75330207D02*
X189176819Y-74711160D01*
X183096819Y-65846077D02*
X184096819Y-65512744D01*
X184096819Y-65512744D02*
X183096819Y-65179411D01*
X184001580Y-64274649D02*
X184049200Y-64322268D01*
X184049200Y-64322268D02*
X184096819Y-64465125D01*
X184096819Y-64465125D02*
X184096819Y-64560363D01*
X184096819Y-64560363D02*
X184049200Y-64703220D01*
X184049200Y-64703220D02*
X183953961Y-64798458D01*
X183953961Y-64798458D02*
X183858723Y-64846077D01*
X183858723Y-64846077D02*
X183668247Y-64893696D01*
X183668247Y-64893696D02*
X183525390Y-64893696D01*
X183525390Y-64893696D02*
X183334914Y-64846077D01*
X183334914Y-64846077D02*
X183239676Y-64798458D01*
X183239676Y-64798458D02*
X183144438Y-64703220D01*
X183144438Y-64703220D02*
X183096819Y-64560363D01*
X183096819Y-64560363D02*
X183096819Y-64465125D01*
X183096819Y-64465125D02*
X183144438Y-64322268D01*
X183144438Y-64322268D02*
X183192057Y-64274649D01*
X184001580Y-63274649D02*
X184049200Y-63322268D01*
X184049200Y-63322268D02*
X184096819Y-63465125D01*
X184096819Y-63465125D02*
X184096819Y-63560363D01*
X184096819Y-63560363D02*
X184049200Y-63703220D01*
X184049200Y-63703220D02*
X183953961Y-63798458D01*
X183953961Y-63798458D02*
X183858723Y-63846077D01*
X183858723Y-63846077D02*
X183668247Y-63893696D01*
X183668247Y-63893696D02*
X183525390Y-63893696D01*
X183525390Y-63893696D02*
X183334914Y-63846077D01*
X183334914Y-63846077D02*
X183239676Y-63798458D01*
X183239676Y-63798458D02*
X183144438Y-63703220D01*
X183144438Y-63703220D02*
X183096819Y-63560363D01*
X183096819Y-63560363D02*
X183096819Y-63465125D01*
X183096819Y-63465125D02*
X183144438Y-63322268D01*
X183144438Y-63322268D02*
X183192057Y-63274649D01*
X183144438Y-76806398D02*
X183096819Y-76901636D01*
X183096819Y-76901636D02*
X183096819Y-77044493D01*
X183096819Y-77044493D02*
X183144438Y-77187350D01*
X183144438Y-77187350D02*
X183239676Y-77282588D01*
X183239676Y-77282588D02*
X183334914Y-77330207D01*
X183334914Y-77330207D02*
X183525390Y-77377826D01*
X183525390Y-77377826D02*
X183668247Y-77377826D01*
X183668247Y-77377826D02*
X183858723Y-77330207D01*
X183858723Y-77330207D02*
X183953961Y-77282588D01*
X183953961Y-77282588D02*
X184049200Y-77187350D01*
X184049200Y-77187350D02*
X184096819Y-77044493D01*
X184096819Y-77044493D02*
X184096819Y-76949255D01*
X184096819Y-76949255D02*
X184049200Y-76806398D01*
X184049200Y-76806398D02*
X184001580Y-76758779D01*
X184001580Y-76758779D02*
X183668247Y-76758779D01*
X183668247Y-76758779D02*
X183668247Y-76949255D01*
X184096819Y-76330207D02*
X183096819Y-76330207D01*
X183096819Y-76330207D02*
X184096819Y-75758779D01*
X184096819Y-75758779D02*
X183096819Y-75758779D01*
X184096819Y-75282588D02*
X183096819Y-75282588D01*
X183096819Y-75282588D02*
X183096819Y-75044493D01*
X183096819Y-75044493D02*
X183144438Y-74901636D01*
X183144438Y-74901636D02*
X183239676Y-74806398D01*
X183239676Y-74806398D02*
X183334914Y-74758779D01*
X183334914Y-74758779D02*
X183525390Y-74711160D01*
X183525390Y-74711160D02*
X183668247Y-74711160D01*
X183668247Y-74711160D02*
X183858723Y-74758779D01*
X183858723Y-74758779D02*
X183953961Y-74806398D01*
X183953961Y-74806398D02*
X184049200Y-74901636D01*
X184049200Y-74901636D02*
X184096819Y-75044493D01*
X184096819Y-75044493D02*
X184096819Y-75282588D01*
X197440779Y-69034819D02*
X197440779Y-68034819D01*
X198107445Y-68034819D02*
X198297921Y-68034819D01*
X198297921Y-68034819D02*
X198393159Y-68082438D01*
X198393159Y-68082438D02*
X198488397Y-68177676D01*
X198488397Y-68177676D02*
X198536016Y-68368152D01*
X198536016Y-68368152D02*
X198536016Y-68701485D01*
X198536016Y-68701485D02*
X198488397Y-68891961D01*
X198488397Y-68891961D02*
X198393159Y-68987200D01*
X198393159Y-68987200D02*
X198297921Y-69034819D01*
X198297921Y-69034819D02*
X198107445Y-69034819D01*
X198107445Y-69034819D02*
X198012207Y-68987200D01*
X198012207Y-68987200D02*
X197916969Y-68891961D01*
X197916969Y-68891961D02*
X197869350Y-68701485D01*
X197869350Y-68701485D02*
X197869350Y-68368152D01*
X197869350Y-68368152D02*
X197916969Y-68177676D01*
X197916969Y-68177676D02*
X198012207Y-68082438D01*
X198012207Y-68082438D02*
X198107445Y-68034819D01*
X199488397Y-69034819D02*
X198916969Y-69034819D01*
X199202683Y-69034819D02*
X199202683Y-68034819D01*
X199202683Y-68034819D02*
X199107445Y-68177676D01*
X199107445Y-68177676D02*
X199012207Y-68272914D01*
X199012207Y-68272914D02*
X198916969Y-68320533D01*
X200440778Y-69034819D02*
X199869350Y-69034819D01*
X200155064Y-69034819D02*
X200155064Y-68034819D01*
X200155064Y-68034819D02*
X200059826Y-68177676D01*
X200059826Y-68177676D02*
X199964588Y-68272914D01*
X199964588Y-68272914D02*
X199869350Y-68320533D01*
X188224438Y-65179411D02*
X188176819Y-65274649D01*
X188176819Y-65274649D02*
X188176819Y-65417506D01*
X188176819Y-65417506D02*
X188224438Y-65560363D01*
X188224438Y-65560363D02*
X188319676Y-65655601D01*
X188319676Y-65655601D02*
X188414914Y-65703220D01*
X188414914Y-65703220D02*
X188605390Y-65750839D01*
X188605390Y-65750839D02*
X188748247Y-65750839D01*
X188748247Y-65750839D02*
X188938723Y-65703220D01*
X188938723Y-65703220D02*
X189033961Y-65655601D01*
X189033961Y-65655601D02*
X189129200Y-65560363D01*
X189129200Y-65560363D02*
X189176819Y-65417506D01*
X189176819Y-65417506D02*
X189176819Y-65322268D01*
X189176819Y-65322268D02*
X189129200Y-65179411D01*
X189129200Y-65179411D02*
X189081580Y-65131792D01*
X189081580Y-65131792D02*
X188748247Y-65131792D01*
X188748247Y-65131792D02*
X188748247Y-65322268D01*
X189176819Y-64703220D02*
X188176819Y-64703220D01*
X188176819Y-64703220D02*
X188176819Y-64322268D01*
X188176819Y-64322268D02*
X188224438Y-64227030D01*
X188224438Y-64227030D02*
X188272057Y-64179411D01*
X188272057Y-64179411D02*
X188367295Y-64131792D01*
X188367295Y-64131792D02*
X188510152Y-64131792D01*
X188510152Y-64131792D02*
X188605390Y-64179411D01*
X188605390Y-64179411D02*
X188653009Y-64227030D01*
X188653009Y-64227030D02*
X188700628Y-64322268D01*
X188700628Y-64322268D02*
X188700628Y-64703220D01*
X189176819Y-63703220D02*
X188176819Y-63703220D01*
X188176819Y-63036554D02*
X188176819Y-62846078D01*
X188176819Y-62846078D02*
X188224438Y-62750840D01*
X188224438Y-62750840D02*
X188319676Y-62655602D01*
X188319676Y-62655602D02*
X188510152Y-62607983D01*
X188510152Y-62607983D02*
X188843485Y-62607983D01*
X188843485Y-62607983D02*
X189033961Y-62655602D01*
X189033961Y-62655602D02*
X189129200Y-62750840D01*
X189129200Y-62750840D02*
X189176819Y-62846078D01*
X189176819Y-62846078D02*
X189176819Y-63036554D01*
X189176819Y-63036554D02*
X189129200Y-63131792D01*
X189129200Y-63131792D02*
X189033961Y-63227030D01*
X189033961Y-63227030D02*
X188843485Y-63274649D01*
X188843485Y-63274649D02*
X188510152Y-63274649D01*
X188510152Y-63274649D02*
X188319676Y-63227030D01*
X188319676Y-63227030D02*
X188224438Y-63131792D01*
X188224438Y-63131792D02*
X188176819Y-63036554D01*
X189176819Y-61655602D02*
X189176819Y-62227030D01*
X189176819Y-61941316D02*
X188176819Y-61941316D01*
X188176819Y-61941316D02*
X188319676Y-62036554D01*
X188319676Y-62036554D02*
X188414914Y-62131792D01*
X188414914Y-62131792D02*
X188462533Y-62227030D01*
X197297922Y-65494819D02*
X197631255Y-66494819D01*
X197631255Y-66494819D02*
X197964588Y-65494819D01*
X198869350Y-66399580D02*
X198821731Y-66447200D01*
X198821731Y-66447200D02*
X198678874Y-66494819D01*
X198678874Y-66494819D02*
X198583636Y-66494819D01*
X198583636Y-66494819D02*
X198440779Y-66447200D01*
X198440779Y-66447200D02*
X198345541Y-66351961D01*
X198345541Y-66351961D02*
X198297922Y-66256723D01*
X198297922Y-66256723D02*
X198250303Y-66066247D01*
X198250303Y-66066247D02*
X198250303Y-65923390D01*
X198250303Y-65923390D02*
X198297922Y-65732914D01*
X198297922Y-65732914D02*
X198345541Y-65637676D01*
X198345541Y-65637676D02*
X198440779Y-65542438D01*
X198440779Y-65542438D02*
X198583636Y-65494819D01*
X198583636Y-65494819D02*
X198678874Y-65494819D01*
X198678874Y-65494819D02*
X198821731Y-65542438D01*
X198821731Y-65542438D02*
X198869350Y-65590057D01*
X199869350Y-66399580D02*
X199821731Y-66447200D01*
X199821731Y-66447200D02*
X199678874Y-66494819D01*
X199678874Y-66494819D02*
X199583636Y-66494819D01*
X199583636Y-66494819D02*
X199440779Y-66447200D01*
X199440779Y-66447200D02*
X199345541Y-66351961D01*
X199345541Y-66351961D02*
X199297922Y-66256723D01*
X199297922Y-66256723D02*
X199250303Y-66066247D01*
X199250303Y-66066247D02*
X199250303Y-65923390D01*
X199250303Y-65923390D02*
X199297922Y-65732914D01*
X199297922Y-65732914D02*
X199345541Y-65637676D01*
X199345541Y-65637676D02*
X199440779Y-65542438D01*
X199440779Y-65542438D02*
X199583636Y-65494819D01*
X199583636Y-65494819D02*
X199678874Y-65494819D01*
X199678874Y-65494819D02*
X199821731Y-65542438D01*
X199821731Y-65542438D02*
X199869350Y-65590057D01*
X80946666Y-68194819D02*
X80946666Y-68909104D01*
X80946666Y-68909104D02*
X80899047Y-69051961D01*
X80899047Y-69051961D02*
X80803809Y-69147200D01*
X80803809Y-69147200D02*
X80660952Y-69194819D01*
X80660952Y-69194819D02*
X80565714Y-69194819D01*
X81327619Y-68194819D02*
X81994285Y-68194819D01*
X81994285Y-68194819D02*
X81565714Y-69194819D01*
X195246666Y-62724819D02*
X195246666Y-63439104D01*
X195246666Y-63439104D02*
X195199047Y-63581961D01*
X195199047Y-63581961D02*
X195103809Y-63677200D01*
X195103809Y-63677200D02*
X194960952Y-63724819D01*
X194960952Y-63724819D02*
X194865714Y-63724819D01*
X196151428Y-62724819D02*
X195960952Y-62724819D01*
X195960952Y-62724819D02*
X195865714Y-62772438D01*
X195865714Y-62772438D02*
X195818095Y-62820057D01*
X195818095Y-62820057D02*
X195722857Y-62962914D01*
X195722857Y-62962914D02*
X195675238Y-63153390D01*
X195675238Y-63153390D02*
X195675238Y-63534342D01*
X195675238Y-63534342D02*
X195722857Y-63629580D01*
X195722857Y-63629580D02*
X195770476Y-63677200D01*
X195770476Y-63677200D02*
X195865714Y-63724819D01*
X195865714Y-63724819D02*
X196056190Y-63724819D01*
X196056190Y-63724819D02*
X196151428Y-63677200D01*
X196151428Y-63677200D02*
X196199047Y-63629580D01*
X196199047Y-63629580D02*
X196246666Y-63534342D01*
X196246666Y-63534342D02*
X196246666Y-63296247D01*
X196246666Y-63296247D02*
X196199047Y-63201009D01*
X196199047Y-63201009D02*
X196151428Y-63153390D01*
X196151428Y-63153390D02*
X196056190Y-63105771D01*
X196056190Y-63105771D02*
X195865714Y-63105771D01*
X195865714Y-63105771D02*
X195770476Y-63153390D01*
X195770476Y-63153390D02*
X195722857Y-63201009D01*
X195722857Y-63201009D02*
X195675238Y-63296247D01*
D12*
%TO.C,J8*%
X179822000Y-67896000D02*
X192422000Y-67896000D01*
X179822000Y-73796000D02*
X179822000Y-67896000D01*
X192422000Y-67896000D02*
X192422000Y-73796000D01*
X192422000Y-73796000D02*
X179822000Y-73796000D01*
D10*
X188471500Y-67785300D02*
X183772500Y-67785300D01*
X183772500Y-66642300D01*
X188471500Y-66642300D01*
X188471500Y-67785300D01*
G36*
X188471500Y-67785300D02*
G01*
X183772500Y-67785300D01*
X183772500Y-66642300D01*
X188471500Y-66642300D01*
X188471500Y-67785300D01*
G37*
D13*
%TO.C,SW1*%
X79000000Y-94000000D02*
X79000000Y-134000000D01*
X81000000Y-136000000D02*
X219000000Y-136000000D01*
X219000000Y-92000000D02*
X81000000Y-92000000D01*
X221000000Y-134000000D02*
X221000000Y-94000000D01*
X79000000Y-94000000D02*
G75*
G02*
X81000000Y-92000000I1999999J1D01*
G01*
X81000000Y-136000000D02*
G75*
G02*
X79000000Y-134000000I-1J1999999D01*
G01*
X219000000Y-92000000D02*
G75*
G02*
X221000000Y-94000000I0J-2000000D01*
G01*
X221000000Y-134000000D02*
G75*
G02*
X219000000Y-136000000I-2000000J0D01*
G01*
%TO.C,J7*%
X79900000Y-69740000D02*
X81280000Y-69740000D01*
X79900000Y-71120000D02*
X79900000Y-69740000D01*
X79900000Y-72390000D02*
X79900000Y-77580000D01*
X79900000Y-72390000D02*
X82660000Y-72390000D01*
X79900000Y-77580000D02*
X82660000Y-77580000D01*
X82660000Y-72390000D02*
X82660000Y-77580000D01*
%TO.C,J6*%
X194250000Y-67310000D02*
X194250000Y-74990000D01*
X194250000Y-67310000D02*
X196910000Y-67310000D01*
X194250000Y-74990000D02*
X196910000Y-74990000D01*
X195580000Y-64710000D02*
X196910000Y-64710000D01*
X196910000Y-64710000D02*
X196910000Y-66040000D01*
X196910000Y-67310000D02*
X196910000Y-74990000D01*
%TD*%
M02*
