%TF.GenerationSoftware,KiCad,Pcbnew,9.0.3*%
%TF.CreationDate,2025-10-17T08:06:55+02:00*%
%TF.ProjectId,communicator_pcb,636f6d6d-756e-4696-9361-746f725f7063,rev?*%
%TF.SameCoordinates,Original*%
%TF.FileFunction,Paste,Bot*%
%TF.FilePolarity,Positive*%
%FSLAX46Y46*%
G04 Gerber Fmt 4.6, Leading zero omitted, Abs format (unit mm)*
G04 Created by KiCad (PCBNEW 9.0.3) date 2025-10-17 08:06:55*
%MOMM*%
%LPD*%
G01*
G04 APERTURE LIST*
G04 Aperture macros list*
%AMRoundRect*
0 Rectangle with rounded corners*
0 $1 Rounding radius*
0 $2 $3 $4 $5 $6 $7 $8 $9 X,Y pos of 4 corners*
0 Add a 4 corners polygon primitive as box body*
4,1,4,$2,$3,$4,$5,$6,$7,$8,$9,$2,$3,0*
0 Add four circle primitives for the rounded corners*
1,1,$1+$1,$2,$3*
1,1,$1+$1,$4,$5*
1,1,$1+$1,$6,$7*
1,1,$1+$1,$8,$9*
0 Add four rect primitives between the rounded corners*
20,1,$1+$1,$2,$3,$4,$5,0*
20,1,$1+$1,$4,$5,$6,$7,0*
20,1,$1+$1,$6,$7,$8,$9,0*
20,1,$1+$1,$8,$9,$2,$3,0*%
G04 Aperture macros list end*
%ADD10RoundRect,0.200000X-0.200000X-0.275000X0.200000X-0.275000X0.200000X0.275000X-0.200000X0.275000X0*%
%ADD11RoundRect,0.243750X0.456250X-0.243750X0.456250X0.243750X-0.456250X0.243750X-0.456250X-0.243750X0*%
%ADD12RoundRect,0.200000X0.275000X-0.200000X0.275000X0.200000X-0.275000X0.200000X-0.275000X-0.200000X0*%
%ADD13RoundRect,0.200000X0.200000X0.275000X-0.200000X0.275000X-0.200000X-0.275000X0.200000X-0.275000X0*%
%ADD14RoundRect,0.237500X-0.250000X-0.237500X0.250000X-0.237500X0.250000X0.237500X-0.250000X0.237500X0*%
%ADD15RoundRect,0.112500X0.112500X-0.187500X0.112500X0.187500X-0.112500X0.187500X-0.112500X-0.187500X0*%
%ADD16R,1.140000X0.600000*%
%ADD17R,1.140000X0.300000*%
%ADD18O,2.100000X1.050000*%
%ADD19O,1.800000X0.900000*%
%ADD20RoundRect,0.200000X-0.275000X0.200000X-0.275000X-0.200000X0.275000X-0.200000X0.275000X0.200000X0*%
%ADD21RoundRect,0.150000X0.150000X-0.512500X0.150000X0.512500X-0.150000X0.512500X-0.150000X-0.512500X0*%
%ADD22RoundRect,0.225000X0.225000X0.250000X-0.225000X0.250000X-0.225000X-0.250000X0.225000X-0.250000X0*%
%ADD23R,0.900000X0.900000*%
%ADD24R,1.500000X0.900000*%
%ADD25R,0.900000X1.500000*%
%ADD26RoundRect,0.225000X0.250000X-0.225000X0.250000X0.225000X-0.250000X0.225000X-0.250000X-0.225000X0*%
%ADD27RoundRect,0.300000X0.000010X-0.500000X0.000010X0.500000X-0.000010X0.500000X-0.000010X-0.500000X0*%
%ADD28RoundRect,0.225000X-0.250000X0.225000X-0.250000X-0.225000X0.250000X-0.225000X0.250000X0.225000X0*%
%ADD29R,1.000000X0.900000*%
%ADD30R,0.800000X0.600000*%
%ADD31RoundRect,0.237500X0.237500X-0.250000X0.237500X0.250000X-0.237500X0.250000X-0.237500X-0.250000X0*%
%ADD32RoundRect,0.250000X0.255000X0.255000X-0.255000X0.255000X-0.255000X-0.255000X0.255000X-0.255000X0*%
%ADD33RoundRect,0.062500X0.375000X0.062500X-0.375000X0.062500X-0.375000X-0.062500X0.375000X-0.062500X0*%
%ADD34RoundRect,0.062500X0.062500X0.375000X-0.062500X0.375000X-0.062500X-0.375000X0.062500X-0.375000X0*%
%ADD35R,1.000000X1.250000*%
%ADD36RoundRect,0.150000X0.587500X0.150000X-0.587500X0.150000X-0.587500X-0.150000X0.587500X-0.150000X0*%
%ADD37RoundRect,0.150000X-0.512500X-0.150000X0.512500X-0.150000X0.512500X0.150000X-0.512500X0.150000X0*%
%ADD38R,1.500000X3.500000*%
%ADD39R,0.800000X0.300000*%
%ADD40R,0.800000X0.400000*%
%ADD41RoundRect,0.237500X0.250000X0.237500X-0.250000X0.237500X-0.250000X-0.237500X0.250000X-0.237500X0*%
%ADD42RoundRect,0.250000X1.500000X-0.250000X1.500000X0.250000X-1.500000X0.250000X-1.500000X-0.250000X0*%
%ADD43RoundRect,0.250001X1.449999X-0.499999X1.449999X0.499999X-1.449999X0.499999X-1.449999X-0.499999X0*%
G04 APERTURE END LIST*
D10*
%TO.C,R2*%
X217107000Y-77470000D03*
X218757000Y-77470000D03*
%TD*%
D11*
%TO.C,D2*%
X197551000Y-92626000D03*
X197551000Y-90751000D03*
%TD*%
D12*
%TO.C,R9*%
X197297000Y-89020500D03*
X197297000Y-87370500D03*
%TD*%
D13*
%TO.C,R19*%
X166737800Y-92202000D03*
X165087800Y-92202000D03*
%TD*%
D14*
%TO.C,R6*%
X209907500Y-68580000D03*
X211732500Y-68580000D03*
%TD*%
D15*
%TO.C,D3*%
X204355000Y-91743500D03*
X204355000Y-89643500D03*
%TD*%
D16*
%TO.C,J1*%
X216230000Y-80620000D03*
X216230000Y-81420000D03*
D17*
X216230000Y-82570000D03*
X216230000Y-83570000D03*
X216230000Y-84070000D03*
X216230000Y-85070000D03*
D16*
X216230000Y-87020000D03*
X216230000Y-86220000D03*
D17*
X216230000Y-85570000D03*
X216230000Y-84570000D03*
X216230000Y-83070000D03*
X216230000Y-82070000D03*
D18*
X216800000Y-79500000D03*
X216800000Y-88140000D03*
D19*
X220980000Y-79500000D03*
X220980000Y-88140000D03*
%TD*%
D13*
%TO.C,R5*%
X150177000Y-69215000D03*
X148527000Y-69215000D03*
%TD*%
D20*
%TO.C,R14*%
X176530000Y-69025000D03*
X176530000Y-70675000D03*
%TD*%
D21*
%TO.C,U2*%
X195326000Y-92445000D03*
X194376000Y-92445000D03*
X193426000Y-92445000D03*
X193426000Y-90170000D03*
X195326000Y-90170000D03*
%TD*%
D12*
%TO.C,R12*%
X162560000Y-90233000D03*
X162560000Y-88583000D03*
%TD*%
D22*
%TO.C,C5*%
X206310800Y-94571100D03*
X204760800Y-94571100D03*
%TD*%
D20*
%TO.C,R10*%
X199075000Y-87370500D03*
X199075000Y-89020500D03*
%TD*%
D23*
%TO.C,U1*%
X166308000Y-76838000D03*
X166308000Y-75438000D03*
X166308000Y-74038000D03*
X164908000Y-76838000D03*
X164908000Y-75438000D03*
X164908000Y-74038000D03*
X163508000Y-76838000D03*
X163508000Y-75438000D03*
X163508000Y-74038000D03*
D24*
X172158000Y-67718000D03*
X172158000Y-68988000D03*
X172158000Y-70258000D03*
X172158000Y-71528000D03*
X172158000Y-72798000D03*
X172158000Y-74068000D03*
X172158000Y-75338000D03*
X172158000Y-76608000D03*
X172158000Y-77878000D03*
X172158000Y-79148000D03*
X172158000Y-80418000D03*
X172158000Y-81688000D03*
X172158000Y-82958000D03*
X172158000Y-84228000D03*
D25*
X170393000Y-85478000D03*
X169123000Y-85478000D03*
X167853000Y-85478000D03*
X166583000Y-85478000D03*
X165313000Y-85478000D03*
X164043000Y-85478000D03*
X162773000Y-85478000D03*
X161503000Y-85478000D03*
X160233000Y-85478000D03*
X158963000Y-85478000D03*
X157693000Y-85478000D03*
X156423000Y-85478000D03*
D24*
X154658000Y-84228000D03*
X154658000Y-82958000D03*
X154658000Y-81688000D03*
X154658000Y-80418000D03*
X154658000Y-79148000D03*
X154658000Y-77878000D03*
X154658000Y-76608000D03*
X154658000Y-75338000D03*
X154658000Y-74068000D03*
X154658000Y-72798000D03*
X154658000Y-71528000D03*
X154658000Y-70258000D03*
X154658000Y-68988000D03*
X154658000Y-67718000D03*
%TD*%
D26*
%TO.C,C8*%
X198930000Y-81280000D03*
X198930000Y-79730000D03*
%TD*%
D27*
%TO.C,M1*%
X210312000Y-81266000D03*
X209042000Y-81266000D03*
X207772000Y-81266000D03*
X206502000Y-81266000D03*
X205232000Y-81266000D03*
X203962000Y-81266000D03*
X202692000Y-81266000D03*
X201422000Y-81266000D03*
X205232000Y-70866000D03*
X206502000Y-70866000D03*
X207772000Y-70866000D03*
X209042000Y-70866000D03*
%TD*%
D28*
%TO.C,C1*%
X174244000Y-67437000D03*
X174244000Y-68987000D03*
%TD*%
D10*
%TO.C,R18*%
X156020000Y-87630000D03*
X157670000Y-87630000D03*
%TD*%
D29*
%TO.C,D1*%
X125579000Y-62230000D03*
X122579000Y-62230000D03*
D30*
X124079000Y-62380000D03*
%TD*%
D31*
%TO.C,R4*%
X207772000Y-68476500D03*
X207772000Y-66651500D03*
%TD*%
D26*
%TO.C,C6*%
X212410000Y-92958500D03*
X212410000Y-91408500D03*
%TD*%
%TO.C,C4*%
X191401000Y-94215500D03*
X191401000Y-92665500D03*
%TD*%
D32*
%TO.C,U4*%
X164221000Y-97145000D03*
X164221000Y-95895000D03*
X162971000Y-97145000D03*
X162971000Y-95895000D03*
D33*
X165533500Y-95270000D03*
X165533500Y-95770000D03*
X165533500Y-96270000D03*
X165533500Y-96770000D03*
X165533500Y-97270000D03*
X165533500Y-97770000D03*
D34*
X164846000Y-98457500D03*
X164346000Y-98457500D03*
X163846000Y-98457500D03*
X163346000Y-98457500D03*
X162846000Y-98457500D03*
X162346000Y-98457500D03*
D33*
X161658500Y-97770000D03*
X161658500Y-97270000D03*
X161658500Y-96770000D03*
X161658500Y-96270000D03*
X161658500Y-95770000D03*
X161658500Y-95270000D03*
D34*
X162346000Y-94582500D03*
X162846000Y-94582500D03*
X163346000Y-94582500D03*
X163846000Y-94582500D03*
X164346000Y-94582500D03*
X164846000Y-94582500D03*
%TD*%
D35*
%TO.C,SW2*%
X182880000Y-83885000D03*
X182880000Y-76135000D03*
%TD*%
D36*
%TO.C,Q2*%
X202123000Y-89656500D03*
X202123000Y-91556500D03*
X200248000Y-90606500D03*
%TD*%
D37*
%TO.C,U3*%
X208224500Y-93133500D03*
X208224500Y-92183500D03*
X208224500Y-91233500D03*
X210499500Y-91233500D03*
X210499500Y-93133500D03*
%TD*%
D26*
%TO.C,C9*%
X146177000Y-75438000D03*
X146177000Y-73888000D03*
%TD*%
D13*
%TO.C,R17*%
X187642000Y-76149200D03*
X185992000Y-76149200D03*
%TD*%
%TO.C,R1*%
X130682000Y-62230000D03*
X129032000Y-62230000D03*
%TD*%
D12*
%TO.C,R11*%
X206310800Y-93020700D03*
X206310800Y-91370700D03*
%TD*%
D13*
%TO.C,R3*%
X218757000Y-90170000D03*
X217107000Y-90170000D03*
%TD*%
D38*
%TO.C,J3*%
X207220000Y-62350000D03*
X204520000Y-62350000D03*
X209920000Y-62350000D03*
%TD*%
D39*
%TO.C,J2*%
X143000000Y-74450000D03*
X143000000Y-74950000D03*
X143000000Y-75450000D03*
X143000000Y-75950000D03*
X143000000Y-76450000D03*
X143000000Y-76950000D03*
X143000000Y-77450000D03*
X143000000Y-77950000D03*
X143000000Y-78450000D03*
X143000000Y-78950000D03*
D40*
X140500000Y-73450000D03*
X140500000Y-79950000D03*
%TD*%
D12*
%TO.C,R13*%
X160528000Y-90233000D03*
X160528000Y-88583000D03*
%TD*%
D20*
%TO.C,R8*%
X191401000Y-89263500D03*
X191401000Y-90913500D03*
%TD*%
%TO.C,R15*%
X178308000Y-69025000D03*
X178308000Y-70675000D03*
%TD*%
D36*
%TO.C,Q1*%
X146050000Y-69220000D03*
X146050000Y-71120000D03*
X144175000Y-70170000D03*
%TD*%
D22*
%TO.C,C7*%
X163043200Y-92202000D03*
X161493200Y-92202000D03*
%TD*%
D12*
%TO.C,R7*%
X142000500Y-70296000D03*
X142000500Y-68646000D03*
%TD*%
D41*
%TO.C,R16*%
X211732500Y-66675000D03*
X209907500Y-66675000D03*
%TD*%
D42*
%TO.C,J4*%
X187850000Y-96000000D03*
X187850000Y-94000000D03*
D43*
X182100000Y-98350000D03*
X182100000Y-91650000D03*
%TD*%
M02*
