M48
; DRILL file {KiCad 9.0.3} date 2025-10-17T08:06:59+0200
; FORMAT={-:-/ absolute / metric / decimal}
; #@! TF.CreationDate,2025-10-17T08:06:59+02:00
; #@! TF.GenerationSoftware,Kicad,Pcbnew,9.0.3
; #@! TF.FileFunction,Plated,1,2,PTH
FMAT,2
METRIC
; #@! TA.AperFunction,Plated,PTH,ViaDrill
T1C0.300
; #@! TA.AperFunction,Plated,PTH,ComponentDrill
T2C0.300
; #@! TA.AperFunction,Plated,PTH,ComponentDrill
T3C0.600
; #@! TA.AperFunction,Plated,PTH,ComponentDrill
T4C0.900
; #@! TA.AperFunction,Plated,PTH,ComponentDrill
T5C1.000
; #@! TA.AperFunction,Plated,PTH,ComponentDrill
T6C1.016
; #@! TA.AperFunction,Plated,PTH,ComponentDrill
T7C3.000
%
G90
G05
T1
X77.0Y-68.0
X77.0Y-73.0
X77.0Y-77.0
X77.0Y-91.0
X77.0Y-96.0
X77.0Y-101.0
X77.0Y-106.0
X77.0Y-111.0
X77.0Y-116.0
X77.0Y-121.0
X77.0Y-126.0
X77.0Y-131.0
X85.141Y-102.413
X86.0Y-139.0
X88.0Y-89.0
X88.0Y-97.0
X88.0Y-103.5
X88.0Y-107.163
X88.0Y-115.163
X88.0Y-123.163
X88.0Y-132.0
X90.0Y-61.0
X91.0Y-139.0
X93.478Y-101.072
X95.0Y-61.0
X96.0Y-107.0
X96.0Y-115.0
X96.0Y-123.0
X96.0Y-132.0
X96.0Y-139.0
X100.0Y-61.0
X100.0Y-69.0
X100.0Y-78.0
X100.0Y-89.0
X100.0Y-97.0
X100.0Y-103.5
X101.0Y-139.0
X104.0Y-107.0
X104.0Y-115.0
X104.0Y-123.0
X104.0Y-132.0
X105.0Y-61.0
X105.156Y-135.509
X106.0Y-139.0
X106.553Y-91.186
X108.0Y-103.5
X109.855Y-71.761
X109.855Y-72.644
X110.0Y-61.0
X111.0Y-139.0
X112.0Y-107.0
X112.0Y-115.0
X112.0Y-123.0
X112.0Y-132.0
X113.157Y-135.509
X115.0Y-61.0
X116.0Y-69.0
X116.0Y-78.0
X116.0Y-89.0
X116.0Y-97.0
X116.0Y-103.5
X116.0Y-139.0
X120.0Y-61.0
X120.0Y-107.0
X120.0Y-115.0
X120.0Y-123.0
X121.0Y-139.0
X122.0Y-132.0
X122.579Y-63.627
X124.0Y-103.5
X126.0Y-139.0
X126.265Y-101.065
X128.0Y-107.0
X128.0Y-115.0
X128.0Y-123.0
X129.0Y-61.0
X132.0Y-69.0
X132.0Y-78.0
X132.0Y-87.0
X132.0Y-92.0
X132.0Y-97.0
X132.0Y-103.5
X132.0Y-132.0
X134.0Y-61.0
X134.266Y-101.066
X134.62Y-89.281
X136.0Y-107.0
X136.0Y-115.0
X136.0Y-123.0
X139.0Y-61.0
X139.0Y-63.0
X139.0Y-65.0
X139.0Y-67.0
X140.0Y-103.5
X140.0Y-111.379
X140.767Y-70.307
X141.0Y-67.0
X141.0Y-139.0
X141.732Y-74.041
X142.0Y-132.0
X142.266Y-101.066
X143.0Y-67.0
X144.0Y-107.0
X144.0Y-115.0
X144.0Y-123.0
X145.0Y-67.0
X146.0Y-139.0
X147.0Y-67.0
X147.0Y-83.0
X147.447Y-73.914
X147.447Y-75.438
X147.574Y-71.12
X148.0Y-92.0
X148.0Y-97.0
X148.0Y-103.5
X148.0Y-119.38
X149.0Y-67.0
X150.622Y-127.533
X151.0Y-67.0
X151.0Y-139.0
X151.384Y-135.509
X152.0Y-107.0
X152.0Y-115.0
X152.0Y-123.0
X152.0Y-132.0
X152.5Y-82.0
X152.527Y-79.052
X153.0Y-67.0
X154.813Y-135.542
X154.94Y-87.63
X156.0Y-139.0
X156.21Y-67.691
X156.464Y-90.805
X156.972Y-99.441
X157.607Y-98.933
X158.0Y-103.0
X158.242Y-99.441
X158.877Y-98.273
X158.877Y-120.269
X158.877Y-129.0
X158.884Y-104.273
X158.884Y-112.248
X159.385Y-90.221
X159.512Y-98.806
X160.0Y-132.0
X160.172Y-100.889
X160.223Y-83.922
X160.274Y-92.202
X160.68Y-99.619
X160.68Y-101.524
X161.0Y-139.0
X161.176Y-104.633
X161.188Y-100.254
X161.849Y-112.217
X161.849Y-120.244
X163.195Y-96.901
X164.0Y-119.38
X164.448Y-99.873
X166.0Y-139.0
X167.767Y-92.202
X168.0Y-104.0
X168.0Y-109.0
X168.0Y-119.0
X168.0Y-124.0
X168.0Y-132.0
X168.125Y-92.918
X169.0Y-90.0
X169.57Y-96.0
X170.688Y-67.691
X171.0Y-139.0
X172.0Y-98.0
X172.0Y-111.379
X174.0Y-85.0
X174.0Y-94.0
X174.244Y-70.256
X175.568Y-83.168
X175.568Y-84.018
X176.0Y-67.0
X176.0Y-78.0
X176.0Y-82.0
X176.0Y-109.0
X176.0Y-119.0
X176.0Y-124.0
X176.0Y-132.0
X176.0Y-139.0
X176.798Y-76.135
X178.0Y-67.0
X178.0Y-89.868
X178.0Y-98.0
X178.404Y-92.905
X178.486Y-96.0
X178.816Y-92.202
X179.0Y-73.0
X180.0Y-67.0
X180.0Y-103.0
X180.0Y-127.533
X180.848Y-85.3
X180.848Y-86.15
X181.0Y-71.0
X181.0Y-139.0
X182.0Y-67.0
X183.0Y-78.0
X184.0Y-67.0
X184.0Y-109.0
X184.0Y-119.0
X184.0Y-132.0
X184.15Y-83.947
X185.42Y-135.509
X186.0Y-67.0
X186.0Y-139.0
X187.0Y-89.0
X187.057Y-83.041
X187.833Y-82.636
X188.0Y-63.0
X188.0Y-65.0
X188.0Y-67.0
X188.671Y-76.149
X189.0Y-78.0
X189.0Y-105.0
X190.246Y-90.932
X191.0Y-139.0
X191.168Y-77.47
X191.77Y-78.029
X192.0Y-84.0
X192.0Y-102.362
X193.421Y-135.509
X195.707Y-88.519
X196.0Y-63.0
X196.0Y-99.0
X196.0Y-105.0
X196.0Y-114.0
X196.0Y-124.0
X196.0Y-130.0
X196.0Y-139.0
X197.739Y-79.756
X197.739Y-81.28
X200.0Y-102.362
X201.0Y-139.0
X201.422Y-135.509
X201.93Y-69.85
X202.0Y-75.0
X202.438Y-66.548
X202.438Y-68.326
X202.5Y-62.0
X202.5Y-64.0
X202.5Y-87.5
X202.692Y-79.883
X203.454Y-94.615
X203.962Y-65.278
X204.0Y-99.0
X204.0Y-105.0
X204.0Y-114.0
X204.0Y-124.0
X204.0Y-130.0
X204.343Y-93.218
X204.52Y-62.35
X206.0Y-139.0
X206.299Y-90.448
X206.502Y-72.263
X207.5Y-87.5
X208.0Y-102.362
X209.0Y-78.0
X209.423Y-135.509
X209.55Y-92.075
X209.94Y-62.34
X210.121Y-94.063
X211.0Y-139.0
X211.391Y-94.063
X212.0Y-61.0
X212.0Y-63.0
X212.0Y-65.0
X212.0Y-99.0
X212.0Y-105.0
X212.0Y-114.0
X212.0Y-124.0
X212.0Y-130.0
X212.395Y-90.272
X212.598Y-70.104
X212.661Y-94.063
X213.614Y-91.44
X213.868Y-86.22
X214.884Y-81.407
X216.0Y-102.362
X216.0Y-139.0
X217.0Y-72.0
X217.043Y-76.327
X217.17Y-91.313
X223.0Y-67.0
X223.0Y-72.0
X223.0Y-77.0
X223.0Y-91.0
X223.0Y-96.0
X223.0Y-101.0
X223.0Y-106.0
X223.0Y-111.0
X223.0Y-116.0
X223.0Y-121.0
X223.0Y-126.0
X223.0Y-131.0
T2
X163.508Y-74.738
X163.508Y-76.138
X164.208Y-74.038
X164.208Y-75.438
X164.208Y-76.838
X164.908Y-74.738
X164.908Y-76.138
X165.608Y-74.038
X165.608Y-75.438
X165.608Y-76.838
X166.308Y-74.738
X166.308Y-76.138
T3
X84.0Y-106.8
X84.0Y-114.8
X84.0Y-122.8
X84.0Y-130.8
X92.0Y-106.8
X92.0Y-114.8
X92.0Y-122.8
X92.0Y-130.8
X94.0Y-96.3
X100.0Y-106.8
X100.0Y-114.8
X100.0Y-122.8
X100.0Y-130.8
X108.0Y-106.8
X108.0Y-114.8
X108.0Y-122.8
X108.0Y-130.8
X109.0Y-96.3
X116.0Y-106.8
X116.0Y-114.8
X116.0Y-122.8
X117.75Y-130.8
X124.0Y-96.3
X124.0Y-106.8
X124.0Y-114.8
X124.0Y-122.8
X127.25Y-130.8
X132.0Y-106.8
X132.0Y-114.8
X132.0Y-122.8
X136.75Y-130.8
X139.0Y-96.3
X140.0Y-106.8
X140.0Y-114.8
X140.0Y-122.8
X146.25Y-130.8
X148.0Y-106.8
X148.0Y-114.8
X148.0Y-122.8
X154.0Y-96.3
X156.0Y-106.8
X156.0Y-114.8
X156.0Y-122.8
X156.0Y-130.8
X164.0Y-106.8
X164.0Y-114.8
X164.0Y-122.8
X164.0Y-130.8
X172.0Y-106.8
X172.0Y-114.8
X172.0Y-122.8
X172.0Y-130.8
X180.0Y-106.8
X180.0Y-114.8
X180.0Y-122.8
X180.0Y-130.8
X192.0Y-97.8
X192.0Y-108.3
X192.0Y-118.8
X192.0Y-129.3
X200.0Y-97.8
X200.0Y-108.3
X200.0Y-118.8
X200.0Y-129.3
X208.0Y-97.8
X208.0Y-108.3
X208.0Y-118.8
X208.0Y-129.3
X216.0Y-97.8
X216.0Y-108.3
X216.0Y-118.8
X216.0Y-129.3
T4
X78.31Y-81.32
X78.31Y-83.82
X78.31Y-86.32
X81.71Y-81.32
X81.71Y-83.82
X81.71Y-86.32
T5
X81.28Y-71.12
X81.28Y-73.66
X81.28Y-76.2
X195.58Y-66.04
X195.58Y-68.58
X195.58Y-71.12
X195.58Y-73.66
T6
X183.642Y-69.596
X183.642Y-72.136
X186.182Y-69.596
X186.182Y-72.136
X188.722Y-69.596
X188.722Y-72.136
T7
X79.0Y-63.0
X79.0Y-138.0
X221.0Y-63.0
X221.0Y-138.0
T3
G00X217.35Y-79.5
M15
G01X216.25Y-79.5
M16
G05
G00X217.35Y-88.14
M15
G01X216.25Y-88.14
M16
G05
G00X221.38Y-79.5
M15
G01X220.58Y-79.5
M16
G05
G00X221.38Y-88.14
M15
G01X220.58Y-88.14
M16
G05
M30
